<svg xmlns="http://www.w3.org/2000/svg" width="2000" height="680" viewBox="0 0 2000 680"><defs><filter id="b" width="211.1%" height="211.1%" x="-55.6%" y="-55.6%" filterUnits="objectBoundingBox"><feGaussianBlur in="SourceGraphic" stdDeviation="50"/></filter><filter id="d" width="162.5%" height="162.5%" x="-31.2%" y="-31.2%" filterUnits="objectBoundingBox"><feGaussianBlur in="SourceGraphic" stdDeviation="50"/></filter><filter id="f" width="188.2%" height="188.2%" x="-44.1%" y="-44.1%" filterUnits="objectBoundingBox"><feGaussianBlur in="SourceGraphic" stdDeviation="50"/></filter><filter id="h" width="141.7%" height="141.7%" x="-20.8%" y="-20.8%" filterUnits="objectBoundingBox"><feGaussianBlur in="SourceGraphic" stdDeviation="50"/></filter><filter id="j" width="188.2%" height="188.2%" x="-44.1%" y="-44.1%" filterUnits="objectBoundingBox"><feGaussianBlur in="SourceGraphic" stdDeviation="50"/></filter><filter id="k" width="188.2%" height="188.2%" x="-44.1%" y="-44.1%" filterUnits="objectBoundingBox"><feGaussianBlur in="SourceGraphic" stdDeviation="50"/></filter><filter id="l" width="188.2%" height="188.2%" x="-44.1%" y="-44.1%" filterUnits="objectBoundingBox"><feGaussianBlur in="SourceGraphic" stdDeviation="50"/></filter><filter id="n" width="182.4%" height="182.4%" x="-41.2%" y="-41.2%" filterUnits="objectBoundingBox"><feGaussianBlur in="SourceGraphic" stdDeviation="50"/></filter><linearGradient id="a" x1="12.13%" x2="108.693%" y1="7.222%" y2="112.407%"><stop offset="0%" stop-color="#48D0FF"/><stop offset="100%" stop-color="#48D0FF" stop-opacity="0"/></linearGradient><linearGradient id="c" x1="12.13%" x2="169.73%" y1="7.222%" y2="145.978%"><stop offset="0%" stop-color="#7D97FF"/><stop offset="100%" stop-color="#48D0FF" stop-opacity="0"/></linearGradient><linearGradient id="e" x1="0%" x2="115.225%" y1="37.896%" y2="27.376%"><stop offset="0%" stop-color="#48D0FF"/><stop offset="100%" stop-color="#48D0FF" stop-opacity="0"/></linearGradient><linearGradient id="g" x1="41.126%" x2="41.126%" y1="45.8%" y2="-11.865%"><stop offset="0%" stop-color="#48D0FF"/><stop offset="100%" stop-color="#48D0FF" stop-opacity="0"/></linearGradient><linearGradient id="i" x1="12.13%" x2="73.206%" y1="7.222%" y2="65.905%"><stop offset="0%" stop-color="#FDC7F6"/><stop offset="100%" stop-color="#D2D2F5"/></linearGradient><linearGradient id="m" x1="12.13%" x2="73.206%" y1="7.222%" y2="65.905%"><stop offset="0%" stop-color="#FFC0F7"/><stop offset="100%" stop-color="#B6B6FF"/></linearGradient></defs><g fill="none" fill-rule="evenodd" opacity=".204" transform="translate(248.5 -62.5)"><circle cx="135" cy="495" r="135" fill="url(#a)" filter="url(#b)" opacity=".492"/><circle cx="414" cy="412" r="240" fill="url(#c)" filter="url(#d)" opacity=".437"/><circle cx="673" cy="242" r="170" fill="url(#e)" filter="url(#f)" opacity=".421"/><circle cx="851" cy="360" r="360" fill="url(#g)" filter="url(#h)" opacity=".16"/><circle cx="602" cy="412" r="170" fill="url(#i)" filter="url(#j)"/><circle cx="1041" cy="342" r="170" fill="url(#c)" filter="url(#k)" opacity=".492"/><circle cx="1239" cy="433" r="170" fill="url(#a)" filter="url(#l)" opacity=".492"/><circle cx="1326" cy="374" r="182" fill="url(#m)" filter="url(#n)"/></g></svg>