<svg xmlns="http://www.w3.org/2000/svg" viewBox="0 0 47 68"><g fill="none" fill-rule="evenodd"><path fill="#FFF" fill-rule="nonzero" d="M23.0387825,1.00131964 L23.5007,0.999429445 C29.6654,0.956859824 35.5969,3.36166242 39.9998,7.68982242 C44.4028,12.0180324 46.9193,17.9178324 47,24.1008324 C47,31.7236564 42.4505355,40.9437966 37.3551353,48.879836 L36.6573001,49.9537932 C36.5405556,50.1313694 36.4236231,50.3082146 36.3065495,50.484295 L35.6027925,51.5313301 C35.485343,51.7042162 35.3678465,51.8762699 35.25035,52.0474574 L34.545747,53.0639171 C34.4284385,53.2315043 34.311224,53.3981577 34.1941505,53.5638434 L33.4937773,54.5460744 L33.4937773,54.5460744 L32.799044,55.5034569 L32.799044,55.5034569 L32.1122065,56.434367 L32.1122065,56.434367 L31.4355206,57.3371813 L31.4355206,57.3371813 L30.7712424,58.210276 L30.7712424,58.210276 L30.1216278,59.0520276 L30.1216278,59.0520276 L29.1796348,60.2523348 L29.1796348,60.2523348 L28.2833245,61.3729869 L28.2833245,61.3729869 L27.4403106,62.4085041 L27.4403106,62.4085041 L26.6582069,63.3534067 L26.6582069,63.3534067 L25.7233108,64.4628494 L25.7233108,64.4628494 L24.9282825,65.3884685 L24.9282825,65.3884685 L23.8300192,66.6362792 L23.8300192,66.6362792 L23.5007,67.0006324 L23.5007,67.0006324 L22.8426804,66.2672022 L22.8426804,66.2672022 L21.888364,65.1750075 L21.888364,65.1750075 L21.0566272,64.2022148 L21.0566272,64.2022148 L20.5888693,63.6472905 L20.5888693,63.6472905 L19.5608546,62.4085041 L19.5608546,62.4085041 L18.7177905,61.3729869 L18.7177905,61.3729869 L18.1256669,60.6350067 L18.1256669,60.6350067 L17.1980003,59.4606423 L17.1980003,59.4606423 L16.5565252,58.6351712 L16.5565252,58.6351712 L15.8992576,57.7775451 L15.8992576,57.7775451 L15.2284536,56.8893876 L15.2284536,56.8893876 L14.5463693,55.9723225 C14.4318739,55.8171595 14.3170025,55.6608597 14.201802,55.5034569 L13.5070273,54.5460744 L13.5070273,54.5460744 L12.8066125,53.5638434 C12.5724515,53.232472 12.3377265,52.8972298 12.1028135,52.5583874 L11.3978865,51.5313301 C11.28043,51.3584439 11.1630205,51.1847254 11.045705,51.0102083 L10.3433161,49.9537932 C4.97274812,41.7852914 0,32.0701484 0,24.1008324 C0.0806585,17.9176324 2.59744,12.0175324 7.00066,7.68934242 C11.293819,3.46934742 17.0400653,1.07793532 23.0387825,1.00131964 Z M23.5,7 C13.8350169,7 6,14.8350169 6,24.5 C6,34.1649831 13.8350169,42 23.5,42 C33.1649831,42 41,34.1649831 41,24.5 C41,14.8350169 33.1649831,7 23.5,7 Z"/><g fill="#FFF" fill-rule="nonzero" transform="translate(14 11)"><path d="M18.2677706,20.3931079 C18.3497916,20.516183 18.4605151,20.6169937 18.590342,20.686749 C18.7200739,20.7565043 18.8648223,20.7929108 19.0118517,20.7929108 C19.1589762,20.7929108 19.3037247,20.7565043 19.4334565,20.686749 C19.5632835,20.6169937 19.674007,20.516183 19.7560279,20.3931079 C21.2240414,18.2079517 22.0059491,15.6277704 22,12.9883449 C22.0059491,10.5026676 21.3136657,8.06601017 20.0032313,5.96073815 C19.9380327,5.85495855 19.8522101,5.76360779 19.7508957,5.69232361 C19.6495813,5.62103944 19.5350561,5.57135074 19.414068,5.54612417 C19.2936503,5.52175759 19.1695259,5.52261759 19.0494882,5.5486086 C18.9294506,5.57459961 18.8158759,5.62514831 18.7160821,5.69719693 L12.4594897,10.2074976 C12.261518,10.353506 12.1277944,10.5715629 12.0866413,10.8153242 C12.0454883,11.0591811 12.1002323,11.3095357 12.2391832,11.5133549 L18.2677706,20.3931079 Z"/><path d="M6.00891736,14.8095313 C6.10604993,14.7381516 6.2163933,14.6871251 6.33348462,14.6597007 C6.4504809,14.6321809 6.5718491,14.6286453 6.690271,14.6493808 C6.8093582,14.6709763 6.92293298,14.716365 7.02434243,14.7829669 C7.12575188,14.8494734 7.21290508,14.9357597 7.28066979,15.0368571 L13.7409364,24.52501 C13.8363582,24.6662406 13.8924328,24.8308822 13.9032676,25.0014482 C13.9141023,25.1721098 13.879222,25.3425803 13.8024284,25.4949908 C13.7274405,25.645968 13.6125351,25.7730564 13.4703528,25.8622094 C13.3280755,25.9512669 13.1642236,25.9990444 12.9967602,26 L2.42660717,26 C2.10451099,25.9964645 1.78631152,25.9289069 1.49016171,25.8013408 C1.19401191,25.6737746 0.925709305,25.488493 0.700555617,25.2562939 C0.475401928,25.0240948 0.297769069,24.7493736 0.177921538,24.4479925 C0.0580740069,24.1465159 -0.00161215447,23.8242082 0.0020944702,23.4994161 L0.0020944702,19.8468189 C0.000953970301,19.6474907 0.0467640496,19.4508381 0.135818083,19.2730099 C0.224967159,19.0950862 0.354699022,18.9411467 0.514369008,18.823805 L6.00891736,14.8095313 Z" opacity=".4"/><path d="M0,10.4245035 C-0.000376612915,10.538023 0.0297515928,10.6495359 0.087251796,10.7471933 C0.144751999,10.8447552 0.227533284,10.9247349 0.326661733,10.978628 C0.424744725,11.0313745 0.535563298,11.0554544 0.646476913,11.0479055 C0.757390529,11.0403567 0.864027269,11.0015613 0.954221803,10.9360104 L13.7043454,1.7436008 C13.863255,1.62731013 13.9820571,1.46371963 14.0440243,1.27585812 C14.1060865,1.08799661 14.1081774,0.885324048 14.0501069,0.696124765 C13.9945076,0.507403257 13.8801725,0.341614997 13.7241141,0.223222112 C13.5679606,0.104924782 13.3783525,0.0402339164 13.1830419,0.0387050333 L2.43354521,0 C2.11306474,-0.000663706399 1.79581569,0.0634538284 1.50033117,0.188535577 C1.2049417,0.31371288 0.937304388,0.497274407 0.713481282,0.72842242 C0.255190406,1.20142063 -0.000946862865,1.83667155 0,2.49791349 L0,10.4245035 Z" opacity=".6"/></g></g></svg>