<svg xmlns="http://www.w3.org/2000/svg" viewBox="0 0 47 68"><g fill="none" fill-rule="evenodd"><path fill="#055DEB" fill-rule="nonzero" d="M23.5007,1 C17.3357,0.956501024 11.4039,3.36114242 7.00066,7.68934242 C2.59744,12.0175324 0.0806585,17.9176324 0,24.1008324 C0,41.4254324 23.5007,67.0006324 23.5007,67.0006324 C23.5007,67.0006324 47,41.4254324 47,24.1008324 C46.9193,17.9178324 44.4028,12.0180324 39.9998,7.68982242 C35.5969,3.36166242 29.6654,0.956859824 23.5007,1 Z"/><path fill="#FFF" fill-rule="nonzero" d="M33.1856,33.4047324 C33.2719,33.5335324 33.3884,33.6390324 33.525,33.7120324 C33.6615,33.7850324 33.8138,33.8231324 33.9685,33.8231324 C34.1233,33.8231324 34.2756,33.7850324 34.4121,33.7120324 C34.5487,33.6390324 34.6652,33.5335324 34.7515,33.4047324 C36.2961,31.1179324 37.1188,28.4177324 37.1125405,25.6555324 C37.1188,23.0542324 36.3904,20.5042324 35.0116,18.3010324 C34.943,18.1903324 34.8527,18.0947324 34.7461,18.0201324 C34.6395,17.9455324 34.519,17.8935324 34.3917,17.8671324 C34.265,17.8416324 34.1344,17.8425324 34.0081,17.8697324 C33.8818,17.8969324 33.7623,17.9498324 33.6573,18.0252324 L27.0743,22.7453324 C26.866,22.8981324 26.7253,23.1263324 26.682,23.3814324 C26.6387,23.6366324 26.6963,23.8986324 26.8425,24.1119324 L33.1856,33.4047324 Z"/><path fill="#FFF" fill-rule="nonzero" d="M20.2872,27.5614324 C20.3894,27.4867324 20.5055,27.4333324 20.6287,27.4046324 C20.7518,27.3758324 20.8795,27.3721324 21.0041,27.3938324 C21.1294,27.4164324 21.2489,27.4639324 21.3556,27.5336324 C21.4623,27.6032324 21.554,27.6935324 21.6253,27.7993324 L28.4226,37.7288324 C28.523,37.8766324 28.582,38.0489324 28.5934,38.2274324 C28.6048,38.4060324 28.5681,38.5844324 28.4873,38.7439324 C28.4084,38.9019324 28.2875,39.0349324 28.1379,39.1282324 C27.9882,39.2214324 27.8158,39.2714324 27.6396,39.2724324 L16.518,39.2724324 C16.1791,39.2687324 15.8443,39.1980324 15.5327,39.0645324 C15.2211,38.9310324 14.9388,38.7371324 14.7019,38.4941324 C14.465,38.2511324 14.2781,37.9636324 14.152,37.6482324 C14.0259,37.3327324 13.9631,36.9954324 13.967,36.6555324 L13.967,32.8330324 C13.9658,32.6244324 14.014,32.4186324 14.1077,32.2325324 C14.2015,32.0463324 14.338,31.8852324 14.506,31.7624324 L20.2872,27.5614324 Z" opacity=".4"/><path fill="#FFF" fill-rule="nonzero" d="M13.9647963,22.9724324 C13.9644,23.0912324 13.9961,23.2079324 14.0566,23.3101324 C14.1171,23.4122324 14.2042,23.4959324 14.3085,23.5523324 C14.4117,23.6075324 14.5283,23.6327324 14.645,23.6248324 C14.7617,23.6169324 14.8739,23.5763324 14.9688,23.5077324 L28.3841,13.8877324 C28.5513,13.7660324 28.6763,13.5948324 28.7415,13.3982324 C28.8068,13.2016324 28.809,12.9895324 28.7479,12.7915324 C28.6894,12.5940324 28.5691,12.4205324 28.4049,12.2966324 C28.2406,12.1728324 28.0411,12.1051324 27.8356,12.1035324 L16.5253,12.063027 C16.1881,12.0623324 15.8543,12.1294324 15.5434,12.2603324 C15.2326,12.3913324 14.951,12.5834324 14.7155,12.8253324 C14.2333,13.3203324 13.9638,13.9851324 13.9647963,14.6771324 L13.9647963,22.9724324 Z" opacity=".6"/></g></svg>