<?xml version="1.0" encoding="UTF-8"?>
<svg width="24px" height="24px" viewBox="0 0 24 24" version="1.1" xmlns="http://www.w3.org/2000/svg" xmlns:xlink="http://www.w3.org/1999/xlink">
    <title>icon-android</title>
    <desc>Created with Sketch.</desc>
    <defs></defs>
    <g id="icon-android" stroke="none" stroke-width="1" fill="none" fill-rule="evenodd">
        <path d="M9.42205434,3.71494756 C10.1748252,3.26109681 11.0569214,3 12,3 C12.8211665,3 13.5960979,3.1979558 14.279677,3.54875009 L15.4748737,2.35355339 C15.6701359,2.15829124 15.9867184,2.15829124 16.1819805,2.35355339 C16.3772427,2.54881554 16.3772427,2.86539803 16.1819805,3.06066017 L15.136639,4.10600174 C16.2730441,5.02254037 17,6.42637536 17,8 C16,8 8,8 7,8 C7,6.54478099 7.62167371,5.23476165 8.61392817,4.32103495 L7.35355339,3.06066017 C7.15829124,2.86539803 7.15829124,2.54881554 7.35355339,2.35355339 C7.54881554,2.15829124 7.86539803,2.15829124 8.06066017,2.35355339 L9.42205434,3.71494756 Z M13,18 L11,18 L11,21 C11,21.5522847 10.5522847,22 10,22 C9.44771525,22 9,21.5522847 9,21 L9,18 L8,18 C7.44771525,18 7,17.5522847 7,17 L7,9 L17,9 L17,17 C17,17.5522847 16.5522847,18 16,18 L15,18 L15,21 C15,21.5522847 14.5522847,22 14,22 C13.4477153,22 13,21.5522847 13,21 L13,18 Z M19,9 C19.5522847,9 20,9.44771525 20,10 L20,15 C20,15.5522847 19.5522847,16 19,16 C18.4477153,16 18,15.5522847 18,15 L18,10 C18,9.44771525 18.4477153,9 19,9 Z M5,9 C5.55228475,9 6,9.44771525 6,10 L6,15 C6,15.5522847 5.55228475,16 5,16 C4.44771525,16 4,15.5522847 4,15 L4,10 C4,9.44771525 4.44771525,9 5,9 Z M10,5 L10,6 L11,6 L11,5 L10,5 Z M13,5 L13,6 L14,6 L14,5 L13,5 Z" id="Combined-Shape" fill="#1A96DE" fill-rule="nonzero"></path>
    </g>
</svg>
