<?xml version="1.0" encoding="UTF-8"?>
<svg width="24px" height="24px" viewBox="0 0 24 24" version="1.1" xmlns="http://www.w3.org/2000/svg" xmlns:xlink="http://www.w3.org/1999/xlink">
    <title>icon-java</title>
    <desc>Created with Sketch.</desc>
    <defs></defs>
    <g id="icon-java" stroke="none" stroke-width="1" fill="none" fill-rule="evenodd">
        <path d="M14.2988687,0 C15.6079988,2.63233581 9.60195558,4.2652288 9.04358095,6.45649642 C8.53212914,8.47415215 12.6049772,10.8108777 12.6096691,10.8108777 C11.9902959,9.97566295 11.5398426,9.29528997 10.9204694,7.99554499 C9.87410381,5.79958545 17.1235865,3.52855037 14.2988687,0 Z M18.6157123,3.60362591 C18.6157123,3.60362591 14.0454894,3.89923615 13.8108777,6.68172304 C13.7076495,7.92046945 15.0120864,8.5961493 15.0496241,9.49705578 C15.08247,10.2337342 14.261331,10.8108777 14.261331,10.8108777 C14.261331,10.8108777 15.6033068,10.618497 16.0631439,9.49705578 C16.5699038,8.25361745 15.1950833,7.34332593 15.3499263,6.34388311 C15.4953855,5.38666998 18.6157123,3.60362591 18.6157123,3.60362591 Z M10.0946385,10.8108777 C10.0946385,10.8108777 5.40241727,10.782725 5.40241727,12.0871619 C5.40241727,13.4525986 11.5257657,13.5276741 15.9129928,12.6877662 C15.9129928,12.6877662 16.9171288,12.1528536 17.2268148,11.8619353 C14.3504835,12.4390788 7.99252339,12.246698 7.99252339,11.749322 C7.99252339,11.2894849 10.0946385,10.8108777 10.0946385,10.8108777 Z M19.4415432,10.8484155 C18.9253995,10.8249547 18.3529479,10.9891827 17.8649569,11.3364065 C18.8784767,11.1158718 19.7418454,11.7399381 19.7418454,12.4625396 C19.7418454,14.0813556 17.4145036,15.6157123 17.4145036,15.6157123 C17.4145036,15.6157123 21.0181295,15.2027968 21.0181295,12.5376151 C21.0181295,11.4349429 20.30022,10.8859533 19.4415432,10.8484155 Z M8.44297663,13.213295 C7.71099012,13.213295 6.60362591,13.8185912 6.60362591,14.3769659 C6.60362591,15.503099 12.12637,16.3570838 16.213295,14.7148058 L14.7868597,13.8138993 C12.0137567,14.7241908 6.932082,14.4285806 8.44297663,13.213295 Z M9.45649642,15.6157123 C8.44766855,15.6157123 7.80483455,16.3195461 7.80483455,16.8169209 C7.80483455,18.3512776 13.8249547,18.3794303 16.213295,16.8169209 L14.7117842,15.8784767 C12.9287401,16.6949238 8.42420775,16.798152 9.45649642,15.6157123 Z M5.10211511,17.9805918 C3.66629602,17.9336702 3,18.6562716 3,19.256876 C3,22.4475864 18.6157123,22.3302812 18.6157123,19.0691871 C18.6157123,18.5295814 18.010416,18.2527412 17.7898813,18.1307429 C19.0661655,21.2510697 4.87688849,21.0211511 4.87688849,19.1818004 C4.87688849,18.764193 5.60887501,18.3512776 6.56608814,18.5436583 C6.56608814,18.5436583 6.24232517,18.1354348 5.77779497,18.0556673 C5.53849139,18.0134376 5.30857285,17.9852837 5.10211511,17.9805918 Z M21.0181295,20.383009 C18.5406367,22.8088871 11.7181477,24.2822452 5.40241727,22.7854263 C11.7463004,25.3567636 20.9899768,23.3625698 21.0181295,20.383009 Z" id="Shape" fill="#1A96DE" fill-rule="nonzero"></path>
    </g>
</svg>
