<svg xmlns="http://www.w3.org/2000/svg" viewBox="0 0 34 34">
  <path fill="#9DA3A5" d="M16.1367187,3.61816406 C16.1601563,3.71093794 16.171875,3.86169328 16.171875,4.07043459 C16.171875,5.29968872 15.9375023,6.52312622 15.46875,7.74078366 C15,8.95844119 14.3378949,10.0717113 13.4824219,11.0806274 C12.6269488,12.0895436 11.5195381,12.9071014 10.1601563,13.5333252 C8.80077448,14.1595491 7.30078948,14.4726562 5.66015627,14.4726562 C3.59764598,14.4726562 1.71094605,13.9276177 0,12.8375244 C0.257813792,12.8607179 0.550779613,12.8723145 0.878906255,12.8723145 C2.58985232,12.8723145 4.12499321,12.3504691 5.484375,11.3067627 C4.66405844,11.3067627 3.94336251,11.0690332 3.32226559,10.5935669 C2.70116877,10.1181007 2.27343865,9.52087763 2.03906255,8.80187991 C2.27343865,8.82507338 2.49609268,8.83666987 2.70703127,8.83666987 C3.03515792,8.83666987 3.36327963,8.80188019 3.69140627,8.73229978 C3.12890343,8.61633244 2.62500224,8.38440112 2.17968745,8.036499 C1.73437278,7.68859688 1.38281379,7.26532228 1.125,6.76666256 C0.867186208,6.26800284 0.738281255,5.72876269 0.738281255,5.14892578 L0.738281255,5.07934575 C1.25390883,5.38086084 1.80468457,5.54321278 2.390625,5.56640625 C1.28905699,4.82421506 0.738281255,3.80371744 0.738281255,2.50488281 C0.738281255,1.8554655 0.914060738,1.24084763 1.265625,0.661010719 C2.17969209,1.79749106 3.29882154,2.70202303 4.62304686,3.37463381 C5.94727228,4.04724459 7.35936755,4.41833466 8.859375,4.48791506 C8.81249978,4.20959334 8.78906255,3.93127584 8.78906255,3.65295412 C8.78906255,2.65563469 9.14648078,1.79748891 9.86132814,1.07849119 C10.5761755,0.359493469 11.4374949,0 12.4453125,0 C13.5234429,0 14.4257776,0.382686562 15.1523437,1.14807131 C15.996098,0.985716938 16.7812463,0.695802844 17.5078125,0.278320312 C17.2265611,1.13647894 16.6875039,1.80907959 15.890625,2.29614263 C16.5937535,2.20336866 17.2968715,2.00622712 18,1.70471194 C17.4843724,2.44690313 16.8632848,3.08471409 16.1367187,3.61816406 Z" transform="translate(8 10)"/>
</svg>
