<?xml version="1.0" encoding="UTF-8"?>
<svg width="24px" height="24px" viewBox="0 0 24 24" version="1.1" xmlns="http://www.w3.org/2000/svg" xmlns:xlink="http://www.w3.org/1999/xlink">
    <title>icon-cpp</title>
    <desc>Created with Sketch.</desc>
    <defs></defs>
    <g id="icon-cpp" stroke="none" stroke-width="1" fill="none" fill-rule="evenodd">
        <path d="M21,12 L20.1818182,12 L20.1818182,11.1666667 L19.3636364,11.1666667 L19.3636364,12 L18.5454545,12 L18.5454545,12.8333333 L19.3636364,12.8333333 L19.3636364,13.6666667 L20.1818182,13.6666667 L20.1818182,12.8333333 L21,12.8333333 L21,16.7876878 C21,17.4252581 20.6296852,18.0047754 20.0511113,18.2726337 L12.6874749,21.6817246 C12.2513917,21.883615 11.7486083,21.883615 11.3125251,21.6817246 L3.94888871,18.2726337 C3.3703148,18.0047754 3,17.4252581 3,16.7876878 L3,7.96284184 C3,7.36856837 3.32218672,6.82100738 3.8416752,6.53240266 L11.2053116,2.44149357 C11.6995303,2.16692763 12.3004697,2.16692763 12.7946884,2.44149357 L20.1583248,6.53240266 C20.6778133,6.82100738 21,7.36856837 21,7.96284184 L21,12 Z M16.9090909,12 L16.9090909,11.1666667 L16.0909091,11.1666667 L16.0909091,12 L15.2727273,12 L15.2727273,12.8333333 L16.0909091,12.8333333 L16.0909091,13.6666667 L16.9090909,13.6666667 L16.9090909,12.8333333 L17.7272727,12.8333333 L17.7272727,12 L16.9090909,12 Z M11.7083004,17.8942029 C13.7740458,17.8942029 15.7005723,16.761971 16.7360063,14.9393043 L14.2235194,13.4585507 C13.7052332,14.3709565 12.7414577,14.9376812 11.7083004,14.9376812 C10.1076806,14.9376812 8.8055336,13.6113623 8.8055336,11.9811594 C8.8055336,10.3508986 10.1076806,9.02463768 11.7083004,9.02463768 C12.7413439,9.02463768 13.7051194,9.59136232 14.2233486,10.5035942 L16.7358356,9.02278261 C15.7004016,7.20028986 13.773932,6.06811594 11.7083004,6.06811594 C8.50711779,6.06811594 5.9027668,8.72069565 5.9027668,11.9811594 C5.9027668,15.2416232 8.50711779,17.8942029 11.7083004,17.8942029 Z" id="Combined-Shape" fill="#1A96DE" fill-rule="nonzero"></path>
    </g>
</svg>
