<svg xmlns="http://www.w3.org/2000/svg" width="24" height="24" viewBox="0 0 24 24">
  <path fill="#D9D9D9" d="M7.83984375,18.4921875 C8.35026042,18.4921875 8.82877604,18.405599 9.27539062,18.2324219 C9.72200521,18.0592448 10.1139323,17.8268229 10.4511719,17.5351562 C10.7884115,17.2434896 11.0572917,16.8971354 11.2578125,16.4960938 C11.4583333,16.0950521 11.5585938,15.6575521 11.5585938,15.1835938 C11.5585938,14.7460938 11.4856771,14.3359375 11.3398438,13.953125 C11.1940104,13.5703125 10.9980469,13.2421875 10.7519531,12.96875 C10.5058594,12.6953125 10.2233073,12.4811198 9.90429688,12.3261719 C9.58528646,12.171224 9.24348958,12.09375 8.87890625,12.09375 C8.53255208,12.09375 8.25455729,12.1393229 8.04492188,12.2304688 C7.83528646,12.3216146 7.6484375,12.421875 7.484375,12.53125 C7.3203125,12.640625 7.16080729,12.7408854 7.00585938,12.8320312 C6.85091146,12.9231771 6.65494792,12.96875 6.41796875,12.96875 C6.19921875,12.96875 6.0078125,12.8183594 5.84375,12.5175781 C5.6796875,12.2167969 5.59765625,11.8658854 5.59765625,11.4648438 C5.59765625,10.7903646 5.75260417,10.1341146 6.0625,9.49609375 C6.37239583,8.85807292 6.79622396,8.26106771 7.33398438,7.70507812 C7.87174479,7.14908854 8.50065104,6.66145833 9.22070312,6.2421875 C9.94075521,5.82291667 10.7200521,5.49479167 11.5585938,5.2578125 L11.5585938,5.2578125 L11.5585938,4 C10.4101562,4.07291667 9.31640625,4.34179688 8.27734375,4.80664062 C7.23828125,5.27148438 6.33138021,5.89127604 5.55664062,6.66601562 C4.78190104,7.44075521 4.16210938,8.34765625 3.69726562,9.38671875 C3.23242188,10.4257812 3,11.5651042 3,12.8046875 C3,13.5885417 3.12760417,14.3222656 3.3828125,15.0058594 C3.63802083,15.6894531 3.984375,16.2910156 4.421875,16.8105469 C4.859375,17.3300781 5.36979167,17.7402344 5.953125,18.0410156 C6.53645833,18.3417969 7.16536458,18.4921875 7.83984375,18.4921875 Z M17.7109375,18.4921875 C18.2213542,18.4921875 18.7044271,18.405599 19.1601562,18.2324219 C19.6158854,18.0592448 20.0123698,17.8268229 20.3496094,17.5351562 C20.686849,17.2434896 20.9511719,16.8971354 21.1425781,16.4960938 C21.3339844,16.0950521 21.4296875,15.6575521 21.4296875,15.1835938 C21.4296875,14.7460938 21.3567708,14.3359375 21.2109375,13.953125 C21.0651042,13.5703125 20.8691406,13.2421875 20.6230469,12.96875 C20.3769531,12.6953125 20.094401,12.4811198 19.7753906,12.3261719 C19.4563802,12.171224 19.1145833,12.09375 18.75,12.09375 C18.4036458,12.09375 18.125651,12.1393229 17.9160156,12.2304688 C17.7063802,12.3216146 17.5240885,12.421875 17.3691406,12.53125 C17.2141927,12.640625 17.0592448,12.7408854 16.9042969,12.8320312 C16.749349,12.9231771 16.5533854,12.96875 16.3164062,12.96875 C16.0794271,12.96875 15.8834635,12.8183594 15.7285156,12.5175781 C15.5735677,12.2167969 15.4960938,11.8658854 15.4960938,11.4648438 C15.4960938,10.7903646 15.6510417,10.1341146 15.9609375,9.49609375 C16.2708333,8.85807292 16.6901042,8.26106771 17.21875,7.70507812 C17.7473958,7.14908854 18.3763021,6.66145833 19.1054688,6.2421875 C19.8346354,5.82291667 20.609375,5.49479167 21.4296875,5.2578125 L21.4296875,5.2578125 L21.4296875,4 C20.28125,4.07291667 19.1920573,4.34179688 18.1621094,4.80664062 C17.1321615,5.27148438 16.2252604,5.89127604 15.4414062,6.66601562 C14.6575521,7.44075521 14.0332031,8.34765625 13.5683594,9.38671875 C13.1035156,10.4257812 12.8710938,11.5651042 12.8710938,12.8046875 C12.8710938,13.5885417 12.9986979,14.3222656 13.2539062,15.0058594 C13.5091146,15.6894531 13.8554688,16.2910156 14.2929688,16.8105469 C14.7304688,17.3300781 15.2408854,17.7402344 15.8242188,18.0410156 C16.4075521,18.3417969 17.0364583,18.4921875 17.7109375,18.4921875 Z"/>
</svg>
