<svg xmlns="http://www.w3.org/2000/svg" width="283" height="238" viewBox="0 0 283 238">
  <g fill="#FFF" fill-rule="evenodd" transform="translate(8 16)">
    <path fill-rule="nonzero" d="M24,7.5 C20.4,12.3 18.6,18.8 18.6,26.8 L18.6,61.6 C18.6,65.7 18.3,69.9 17.8,74.1 C17.3,78.3 16.4,82.2 15.1,85.8 C13.8,89.4 11.9,92.5 9.4,95.1 C6.9,97.7 3.8,99.5 1.77635684e-15,100.5 L1.77635684e-15,106.9 C7.4,108.8 12.3,112.9 14.7,119.1 C17.1,125.4 18.3,134.1 18.3,145.3 L18.3,181.4 C18.3,189.7 20.1,196.1 23.9,200.7 C27.6,205.3 32.6,207.7 39,207.7 L51.1,207.7 L51.1,200.2 L42.3,200.2 C39.2,200.2 36.7,199.4 34.8,197.9 C32.9,196.4 31.5,194.4 30.5,192 C29.6,189.6 28.9,187 28.6,184.1 C28.3,181.3 28.1,178.6 28.1,176 L28.1,139 C28.1,129 26.3,121 22.8,114.9 C19.3,108.8 15.3,105.1 10.8,103.7 L10.8,103.4 C12.7,102.7 14.7,101.4 16.7,99.4 C18.8,97.4 20.6,94.9 22.3,91.8 C23.9,88.7 25.3,85.1 26.4,80.8 C27.5,76.6 28.1,71.8 28.1,66.5 L28.1,32 C28.1,29.4 28.3,26.7 28.6,23.9 C28.9,21.1 29.6,18.4 30.5,16 C31.4,13.6 32.9,11.6 34.8,10.1 C36.7,8.6 39.2,7.8 42.3,7.8 L51.1,7.8 L51.1,0.3 L39,0.3 C32.6,0.3 27.6,2.7 24,7.5 L24,7.5 Z M256.9,95.2 C254.5,92.6 252.6,89.5 251.3,85.9 C250,82.3 249.1,78.4 248.6,74.2 C248.1,70 247.8,65.8 247.8,61.7 L247.8,26.9 C247.8,19.2 246.1,12.8 242.6,7.9 C239.2,3 234,0.6 227.1,0.6 L215.2,0.6 L215.2,7.8 L224,7.8 C227.3,7.8 229.9,8.6 231.9,10.1 C233.9,11.6 235.3,13.6 236.2,16 C237.1,18.4 237.6,21 237.9,23.9 C238.2,26.7 238.3,29.4 238.3,32 L238.3,66.6 C238.3,71.9 238.8,76.7 239.8,80.9 C240.8,85.1 242.2,88.8 243.9,91.9 C245.6,95 247.5,97.5 249.5,99.5 C251.5,101.5 253.5,102.8 255.6,103.5 L255.6,103.8 C251.1,105.2 247.1,108.9 243.6,115 C240.1,121.1 238.3,129.1 238.3,139.1 L238.3,176.2 C238.3,178.8 238.1,181.5 237.8,184.3 C237.5,187.1 236.8,189.8 235.9,192.2 C235,194.6 233.5,196.6 231.6,198.1 C229.7,199.6 227.2,200.4 224.1,200.4 L215.3,200.4 L215.3,207.9 L227.4,207.9 C233.8,207.9 238.8,205.5 242.5,200.7 C246.2,195.9 248.1,189.5 248.1,181.6 L248.1,145.5 C248.1,134.3 249.3,125.6 251.7,119.3 C254.1,113 259,108.9 266.4,107.1 L266.4,100.7 C262.5,99.6 259.3,97.8 256.9,95.2 L256.9,95.2 Z"/>
    <path d="M202.7,179.5 L64.5,179.5 C62.3,179.5 60.5,177.7 60.5,175.5 L60.5,157.5 C60.5,155.3 62.3,153.5 64.5,153.5 L202.8,153.5 C205,153.5 206.8,155.3 206.8,157.5 L206.8,175.5 C206.7,177.7 205,179.5 202.7,179.5 Z M191.1,161.3 C188.2,161.3 185.9,163.6 185.9,166.5 C185.9,169.4 188.2,171.7 191.1,171.7 C194,171.7 196.3,169.4 196.3,166.5 C196.3,163.6 194,161.3 191.1,161.3 Z M202.7,137.6 L64.5,137.6 C62.3,137.6 60.5,135.8 60.5,133.6 L60.5,115.6 C60.5,113.4 62.3,111.6 64.5,111.6 L202.8,111.6 C205,111.6 206.8,113.4 206.8,115.6 L206.8,133.6 C206.7,135.8 205,137.6 202.7,137.6 Z M191.1,119.4 C188.2,119.4 185.9,121.7 185.9,124.6 C185.9,127.5 188.2,129.8 191.1,129.8 C194,129.8 196.3,127.5 196.3,124.6 C196.3,121.8 194,119.4 191.1,119.4 Z M202.7,96.4 L64.5,96.4 C62.3,96.4 60.5,94.6 60.5,92.4 L60.5,74.4 C60.5,72.2 62.3,70.4 64.5,70.4 L202.8,70.4 C205,70.4 206.8,72.2 206.8,74.4 L206.8,92.4 C206.7,94.6 205,96.4 202.7,96.4 Z M191,78 C188.2,78 186,80.2 186,83 C186,85.8 188.2,88 191,88 C193.8,88 196,85.8 196,83 C196,80.2 193.8,78 191,78 Z M202.7,54.5 L64.5,54.5 C62.3,54.5 60.5,52.7 60.5,50.5 L60.5,32.5 C60.5,30.3 62.3,28.5 64.5,28.5 L202.8,28.5 C205,28.5 206.8,30.3 206.8,32.5 L206.8,50.5 C206.7,52.7 205,54.5 202.7,54.5 Z M191,36 C188.2,36 186,38.2 186,41 C186,43.8 188.2,46 191,46 C193.8,46 196,43.8 196,41 C196,38.2 193.8,36 191,36 Z"/>
  </g>
</svg>
