<?xml version="1.0" standalone="no"?>
<!DOCTYPE svg PUBLIC "-//W3C//DTD SVG 20010904//EN"
 "http://www.w3.org/TR/2001/REC-SVG-20010904/DTD/svg10.dtd">
<svg version="1.0" xmlns="http://www.w3.org/2000/svg"
 width="512.000000pt" height="512.000000pt" viewBox="0 0 512.000000 512.000000"
 preserveAspectRatio="xMidYMid meet">
<metadata>
Created by potrace 1.14, written by Peter Selinger 2001-2017
</metadata>
<g transform="translate(0.000000,512.000000) scale(0.100000,-0.100000)"
fill="#000000" stroke="none">
<path d="M612 5088 c-92 -44 -184 -134 -227 -222 -19 -39 -40 -95 -45 -125
-16 -84 -13 -1689 3 -1720 28 -56 108 -83 160 -56 20 10 922 639 1642 1144 28
19 219 153 425 297 567 396 578 404 604 445 30 47 28 142 -3 189 -13 19 -35
44 -50 55 -26 20 -44 20 -1236 22 l-1210 2 -63 -31z"/>
<path d="M4197 4035 c-33 -11 -117 -64 -232 -148 -22 -16 -138 -97 -257 -180
-721 -504 -857 -600 -871 -615 -35 -40 -49 -85 -45 -139 4 -45 14 -67 64 -141
32 -48 62 -91 67 -97 9 -11 95 -134 372 -530 345 -493 454 -650 465 -665 6 -8
72 -103 146 -210 147 -211 174 -244 217 -266 58 -31 157 -14 207 35 72 70 247
396 324 603 50 137 102 334 122 468 3 19 7 42 9 50 19 71 27 514 12 640 -47
390 -175 769 -363 1073 -68 109 -150 152 -237 122z"/>
<path d="M1609 2236 c-20 -6 -69 -35 -110 -64 -103 -74 -730 -519 -923 -655
-175 -123 -218 -166 -235 -232 -18 -70 -15 -845 4 -914 23 -86 64 -159 124
-220 63 -65 121 -102 205 -131 57 -19 83 -20 1215 -17 l1158 2 36 28 c66 50
94 140 66 214 -5 15 -81 128 -167 251 -86 122 -161 230 -167 240 -5 9 -13 19
-16 22 -4 4 -641 910 -783 1114 -235 337 -235 338 -288 355 -55 17 -81 19
-119 7z"/>
</g>
</svg>
