<svg class="outline-logo" xmlns="http://www.w3.org/2000/svg" viewBox="0 0 64 64"><path fill="none" stroke="#055DEB" stroke-width="2.5" d="M56,28.5248237 C56,35.0167391 50.8704,40 44.8,40 L11.2,40 C5.1296,40 0,35.0167391 0,28.5248237 C0,22.6625828 4.0138,17.8046869 9.2638,16.9157347 C9.198,16.5054491 9.1336,16.0809174 9.1616,15.6464136 C9.5214,9.79841869 16.0048,7.77405798 19.6,8.63024432 C22.463,2.70389629 25.564,0 33.3424,0 C42.777,0 47.2472,7.77833179 47.2472,15.9883183 C47.2472,16.3316476 47.2346,16.6721276 47.2122,17.0083339 C52.227,18.1010043 56,22.8406582 56,28.5248237 Z" transform="translate(4 12)"/></svg>
