<svg class="outline-logo" xmlns="http://www.w3.org/2000/svg" viewBox="0 0 64 64"><g fill="none" fill-rule="evenodd" stroke="#055DEB" stroke-width="2.5" transform="translate(2 10)"><path d="M0 12.5733333C0 12.5733333 10.7727273 0 29.8636364 0 49.2272727.273333333 60 13.12 60 13.12M3.27272727 27.7433333C3.27272727 27.7433333 14.5909091 14.4866667 29.7272727 14.35 44.8636364 14.35 56.1818182 27.6066667 56.1818182 27.6066667 56.1818182 27.6066667 43.9090909 41 29.7272727 41 15.8181818 41 3.27272727 27.7433333 3.27272727 27.7433333Z"/><ellipse cx="30" cy="27.607" fill="#FFF" rx="12.955" ry="13.393"/><path fill="#055DEB" d="M30.1363636,21.4566667 C30.1363636,24.7366667 32.8636364,27.47 36.1363636,27.47 C36.4090909,27.47 36.5454545,27.47 36.8181818,27.47 C36.8181818,27.47 36.8181818,27.6066667 36.8181818,27.6066667 C36.8181818,31.4333333 33.8181818,34.44 30,34.44 C26.1818182,34.44 23.1818182,31.4333333 23.1818182,27.6066667 C23.1818182,23.78 26.1818182,20.7733333 30,20.7733333 C30,20.7733333 30.1363636,20.7733333 30.1363636,20.7733333 C30.1363636,21.0466667 30.1363636,21.32 30.1363636,21.4566667 Z"/></g></svg>
