<svg id="mobrowser" xmlns="http://www.w3.org/2000/svg" viewBox="0 0 64 64"><path fill="#4f94ff" d="M32.0079278,0 L32.305373,0.00733846154 C32.9980056,0.0407230769 33.6761624,0.187938462 34.2425593,0.448984615 L34.5113493,0.586584615 L58.4885249,14.1604923 L58.6879935,14.2824317 C59.2146475,14.6281816 59.6970452,15.134906 60.0833959,15.7149538 L60.2623375,16 L60.4053795,16.2569255 C60.7239743,16.8634654 60.9340609,17.5153538 60.9869128,18.1289846 L61,18.4260923 L61,45.5739077 L60.989988,45.833474 C60.9436049,46.4454423 60.7384457,47.0976 60.4244169,47.7058462 L60.2620859,48 L60.0833959,48.2850462 L59.9185195,48.5203269 C59.5783386,48.9816264 59.1772184,49.3846154 58.7444794,49.68 L58.4885249,49.8395077 L34.5113493,63.4134154 L34.2745587,63.535899 C33.6232032,63.843434 32.8188839,63.9982496 32.013968,64 L31.9918205,64 L31.6944481,63.9926615 C31.0019394,63.9592769 30.3236174,63.8120615 29.7574407,63.5510154 L29.4886507,63.4134154 L5.51147513,49.8395077 L5.31193159,49.7175683 C4.78510081,49.3718184 4.30270311,48.865094 3.91635243,48.2850462 L3.73791413,48.0002462 L3.57558309,47.7058462 L3.4502154,47.4481884 C3.21284602,46.9286129 3.05731023,46.3862505 3.01308715,45.8710154 L3,45.5739077 L3,18.4260923 L3.00617819,18.222781 C3.09218623,16.7875102 4.06595095,15.1156699 5.28370832,14.3010462 L5.51147513,14.1604923 L29.4886507,0.586584615 L29.7254416,0.46403613 C30.3767999,0.15637151 31.1811441,0.00175042735 31.9862837,0 L32.0079278,0 Z M49.3569634,28.6596677 L38.6083834,28.6596677 C37.9625827,28.6596677 37.4390966,29.1842215 37.4390966,29.8311138 L37.4390966,40.2882215 C37.4390966,40.9351138 37.9625827,41.4596677 38.6083834,41.4596677 L49.3569634,41.4596677 C50.0027641,41.4596677 50.5262502,40.9351138 50.5262502,40.2882215 L50.5262502,29.8311138 C50.5262502,29.1842215 50.0027641,28.6596677 49.3569634,28.6596677 Z M18.9717385,23.2426831 L12.6023215,23.2426831 L12.6023215,41.4546215 L16.7051442,41.4546215 L16.7051442,27.9850831 L16.8199084,27.9850831 L21.6686989,41.4546215 L25.2550823,41.4546215 L29.9604174,27.9850831 L30.0464906,27.9850831 L30.0464906,41.4546215 L34.0919312,41.4546215 L34.0919312,23.2426831 L28.095498,23.2426831 L23.5623093,36.2632369 L18.9717385,23.2426831 Z M46.4631924,31.36736 C46.7611768,31.36736 47.0027858,31.6698831 47.0027858,32.0430523 L47.0027858,38.0760369 C47.0027858,38.4494523 46.7611768,38.7519754 46.4631924,38.7519754 L41.5021544,38.7519754 C41.20417,38.7519754 40.962561,38.4494523 40.962561,38.0760369 L40.962561,32.0430523 C40.962561,31.6698831 41.20417,31.36736 41.5021544,31.36736 L46.4631924,31.36736 Z M50.2745742,23.4961231 L37.6907726,23.4961231 L37.6907726,26.4499692 L50.2745742,26.4499692 L50.2745742,23.4961231 Z"/></svg>
