<svg xmlns="http://www.w3.org/2000/svg" viewBox="0 0 64 64"><g fill="none" transform="translate(1 7)"><path fill="#656F72" d="M59.2784437,22.5707763 C58.7135706,21.9714006 58.2982228,21.2350247 57.9991724,20.3616487 C57.7001219,19.5053977 57.484141,18.5806466 57.3678436,17.5702705 C57.2515462,16.5770193 57.1850906,15.5837681 57.1850906,14.607642 L57.1850906,6.31913236 C57.1850906,4.48675523 56.7863567,2.97975347 55.9888888,1.81525211 C55.2080349,0.650750758 54.0118331,0.0685000798 52.4168974,0.0685000798 L49.6756016,0.0685000798 L49.6756016,1.78100207 L51.7024991,1.78100207 C52.4667391,1.78100207 53.06484,1.96937729 53.5300296,2.34612773 C53.9786053,2.70575315 54.3108835,3.18525371 54.5102505,3.75037937 C54.7096175,4.31550503 54.8425288,4.94913076 54.8923705,5.61700654 C54.9588262,6.30200734 54.992054,6.93563308 54.992054,7.55213379 L54.992054,15.7721434 C54.992054,17.0393948 55.1083514,18.1696462 55.3409462,19.1800223 C55.573541,20.1732735 55.8892053,21.0466495 56.2879393,21.7830254 C56.6866732,22.5194012 57.1186349,23.1187769 57.5838245,23.5811525 C58.0324002,24.060653 58.4975898,24.3689034 58.9793933,24.5401536 L58.9793933,24.6086537 C57.9493306,24.934029 57.0189515,25.8245301 56.2048697,27.2630317 C55.3907879,28.7186584 54.992054,30.6366607 54.992054,32.9999134 L54.992054,41.8364237 C54.992054,42.4529244 54.9422123,43.0865502 54.8591427,43.771551 C54.792687,44.4394268 54.6431618,45.0559275 54.410567,45.6381781 C54.1945861,46.2033038 53.8789218,46.6828044 53.4303461,47.0424298 C52.9983844,47.4191802 52.4168974,47.6075554 51.7024991,47.6075554 L49.6756016,47.6075554 L49.6756016,49.3714325 L52.483353,49.3714325 C53.9453774,49.3714325 55.1083514,48.8063068 55.9722749,47.6589305 C56.8195845,46.5115542 57.2515462,45.0045524 57.2515462,43.1208002 L57.2515462,34.5411652 C57.2515462,31.8867871 57.5173689,29.7975347 58.0822419,28.307658 C58.6305011,26.8177812 59.7768611,25.8416551 61.4714803,25.3964046 L61.4714803,23.8722778 C60.557715,23.6154025 59.8267028,23.187277 59.2784437,22.5707763 Z M5.54904714,1.72962701 C4.71835146,2.87700335 4.30300362,4.40113013 4.30300362,6.31913236 L4.30300362,14.607642 C4.30300362,15.5837681 4.23654797,16.5770193 4.12025057,17.5702705 C4.00395318,18.5806466 3.7879723,19.5053977 3.48892185,20.3616487 C3.18987141,21.2350247 2.75790966,21.9714006 2.17642268,22.5707763 C1.61154962,23.187277 0.88053742,23.6154025 0,23.8722778 L0,25.3964046 C1.7112331,25.8416551 2.84097922,26.8177812 3.40585229,28.307658 C3.95411144,29.7975347 4.23654797,31.8867871 4.23654797,34.5411652 L4.23654797,43.1208002 C4.23654797,45.0901775 4.66850972,46.6143043 5.51581931,47.7274306 C6.36312891,48.8234319 7.52610286,49.3714325 9.00474117,49.3714325 L11.7958787,49.3714325 L11.7958787,47.6075554 L9.76898119,47.6075554 C9.05458291,47.6075554 8.48970985,47.4191802 8.04113418,47.0424298 C7.60917243,46.6828044 7.27689415,46.2033038 7.06091328,45.6381781 C6.8449324,45.0559275 6.69540718,44.4394268 6.61233761,43.771551 C6.54588196,43.0865502 6.49604021,42.4529244 6.49604021,41.8364237 L6.49604021,32.9999134 C6.49604021,30.6366607 6.09730629,28.7186584 5.28322452,27.2630317 C4.46914276,25.8245301 3.5387636,24.934029 2.50870095,24.6086537 L2.50870095,24.5401536 C2.94066271,24.3689034 3.40585229,24.060653 3.87104187,23.5811525 C4.35284536,23.1187769 4.78480711,22.5194012 5.16692713,21.7830254 C5.53243323,21.0466495 5.84809758,20.1732735 6.1139202,19.1800223 C6.36312891,18.1696462 6.49604021,17.0393948 6.49604021,15.7721434 L6.49604021,7.55213379 C6.49604021,6.93563308 6.54588196,6.30200734 6.61233761,5.61700654 C6.69540718,4.94913076 6.8449324,4.31550503 7.06091328,3.75037937 C7.27689415,3.18525371 7.60917243,2.70575315 8.04113418,2.34612773 C8.48970985,1.96937729 9.05458291,1.78100207 9.76898119,1.78100207 L11.7958787,1.78100207 L11.7958787,0 L9.00474117,0 C7.52610286,0 6.37974282,0.582250678 5.54904714,1.72962701 Z"/><path fill="#1A96DE" d="M46.1036102,12.3428581 L16.9046571,12.3428581 C15.7649238,12.3428581 15.3678701,11.9154738 15.3678701,10.8000009 L15.3678701,7.71428633 C15.3678701,6.59881335 15.7649238,6.17142906 16.9046571,6.17142906 L46.1036102,6.17142906 C47.2433435,6.17142906 47.6403972,6.59881335 47.6403972,7.71428633 L47.6403972,10.8000009 C47.6403972,11.9154738 47.2433435,12.3428581 46.1036102,12.3428581 Z M46.1036102,23.142859 L16.9046571,23.142859 C15.7649238,23.142859 15.3678701,22.7154747 15.3678701,21.6000017 L15.3678701,18.5142872 C15.3678701,17.3988142 15.7649238,16.9714299 16.9046571,16.9714299 L46.1036102,16.9714299 C47.2433435,16.9714299 47.6403972,17.3988142 47.6403972,18.5142872 L47.6403972,21.6000017 C47.6403972,22.7154747 47.2433435,23.142859 46.1036102,23.142859 Z M46.1036102,33.9428598 L16.9046571,33.9428598 C15.7649238,33.9428598 15.3678701,33.5325709 15.3678701,32.4000026 L15.3678701,29.314288 C15.3678701,28.1988151 15.7649238,27.7714308 16.9046571,27.7714308 L46.1036102,27.7714308 C47.2433435,27.7714308 47.6403972,28.1988151 47.6403972,29.314288 L47.6403972,32.4000026 C47.6403972,33.5325709 47.2433435,33.9428598 46.1036102,33.9428598 Z M46.1036102,44.7428607 L16.9046571,44.7428607 C15.7649238,44.7428607 15.3678701,44.3154764 15.3678701,43.2000034 L15.3678701,40.1142889 C15.3678701,38.9988159 15.7649238,38.5714316 16.9046571,38.5714316 L46.1036102,38.5714316 C47.2433435,38.5714316 47.6403972,38.9988159 47.6403972,40.1142889 L47.6403972,43.2000034 C47.6403972,44.3154764 47.2433435,44.7428607 46.1036102,44.7428607 Z M43.0300362,10.8000009 C43.8787802,10.8000009 44.5668232,10.1092401 44.5668232,9.25714359 C44.5668232,8.40504705 43.8787802,7.71428633 43.0300362,7.71428633 C42.1812922,7.71428633 41.4932492,8.40504705 41.4932492,9.25714359 C41.4932492,10.1092401 42.1812922,10.8000009 43.0300362,10.8000009 Z M43.0300362,21.6000017 C43.8787802,21.6000017 44.5668232,20.909241 44.5668232,20.0571445 C44.5668232,19.2050479 43.8787802,18.5142872 43.0300362,18.5142872 C42.1812922,18.5142872 41.4932492,19.2050479 41.4932492,20.0571445 C41.4932492,20.909241 42.1812922,21.6000017 43.0300362,21.6000017 Z M43.0300362,32.4000026 C43.8787802,32.4000026 44.5668232,31.7092418 44.5668232,30.8571453 C44.5668232,30.0050488 43.8787802,29.314288 43.0300362,29.314288 C42.1812922,29.314288 41.4932492,30.0050488 41.4932492,30.8571453 C41.4932492,31.7092418 42.1812922,32.4000026 43.0300362,32.4000026 Z M43.0300362,43.2000034 C43.8787802,43.2000034 44.5668232,42.5092427 44.5668232,41.6571462 C44.5668232,40.8050496 43.8787802,40.1142889 43.0300362,40.1142889 C42.1812922,40.1142889 41.4932492,40.8050496 41.4932492,41.6571462 C41.4932492,42.5092427 42.1812922,43.2000034 43.0300362,43.2000034 Z"/></g></svg>
