<?xml version="1.0" standalone="no"?>
<!DOCTYPE svg PUBLIC "-//W3C//DTD SVG 20010904//EN"
 "http://www.w3.org/TR/2001/REC-SVG-20010904/DTD/svg10.dtd">
<svg version="1.0" xmlns="http://www.w3.org/2000/svg"
 width="3800.000000pt" height="3800.000000pt" viewBox="0 0 3800.000000 3800.000000"
 preserveAspectRatio="xMidYMid meet">
<metadata>
Created by potrace 1.11, written by Peter Selinger 2001-2013
</metadata>
<g transform="translate(0.000000,3800.000000) scale(0.100000,-0.100000)"
fill="#000000" stroke="none">
<path d="M5629 33385 c-2 -1 -40 -6 -84 -10 -90 -7 -126 -12 -237 -30 -204
-34 -447 -112 -648 -208 -306 -147 -604 -385 -815 -651 -16 -21 -37 -45 -45
-55 -39 -42 -181 -252 -232 -341 -14 -25 -36 -63 -49 -85 -164 -289 -338 -778
-403 -1140 -3 -16 -8 -41 -11 -55 -9 -45 -44 -284 -50 -340 -3 -30 -8 -68 -10
-85 -2 -16 -7 -68 -10 -115 -4 -47 -9 -101 -12 -120 -6 -36 -10 -1109 -17
-4080 -2 -960 -6 -1770 -9 -1800 -3 -30 -8 -113 -11 -185 -4 -71 -9 -146 -10
-165 -5 -44 -15 -174 -22 -260 -4 -60 -9 -108 -19 -200 -2 -19 -7 -60 -10 -90
-3 -30 -7 -71 -9 -90 -3 -19 -8 -64 -11 -100 -8 -73 -10 -96 -19 -160 -4 -25
-9 -63 -12 -85 -2 -22 -9 -62 -14 -90 -5 -27 -12 -68 -15 -90 -3 -22 -12 -74
-20 -115 -8 -41 -17 -90 -20 -107 -3 -18 -12 -61 -20 -95 -8 -35 -16 -74 -19
-88 -6 -35 -63 -260 -88 -350 -59 -212 -109 -366 -193 -590 -119 -319 -295
-643 -482 -885 -13 -16 -27 -34 -31 -40 -146 -193 -446 -485 -612 -595 -12 -8
-40 -27 -61 -43 -21 -15 -43 -27 -48 -27 -5 0 -11 -4 -13 -8 -5 -11 -130 -84
-248 -142 -146 -73 -300 -135 -460 -185 l-105 -33 -3 -446 -2 -445 57 -16
c476 -132 840 -307 1173 -564 124 -95 353 -329 452 -461 200 -266 344 -558
464 -939 25 -80 47 -153 49 -161 2 -8 24 -94 49 -190 25 -97 47 -187 50 -200
2 -14 18 -92 35 -175 30 -151 65 -347 77 -440 3 -27 8 -59 10 -70 2 -11 7 -44
10 -74 3 -30 7 -62 9 -70 1 -9 6 -50 10 -91 4 -41 9 -83 10 -92 2 -9 7 -48 10
-85 4 -37 8 -75 10 -83 2 -8 7 -58 10 -110 4 -52 8 -111 10 -130 2 -19 7 -73
10 -120 3 -47 8 -103 10 -125 2 -22 6 -114 10 -205 4 -91 9 -192 12 -225 3
-33 7 -917 9 -1965 7 -3150 11 -4172 17 -4225 4 -27 9 -75 11 -105 10 -127 28
-278 42 -360 2 -14 6 -45 10 -70 3 -25 7 -52 9 -60 2 -8 7 -31 10 -50 48 -284
155 -634 281 -919 246 -555 638 -1011 1098 -1276 69 -39 236 -121 266 -130 14
-4 30 -11 35 -16 18 -14 286 -100 355 -114 8 -2 44 -10 80 -18 55 -13 139 -28
175 -32 70 -8 136 -17 160 -22 17 -3 474 -7 1018 -10 l987 -4 0 515 0 516
-637 1 c-786 0 -814 2 -1018 43 -139 28 -323 102 -460 184 -67 41 -58 34 -180
134 -71 59 -221 214 -263 273 -4 6 -21 28 -38 50 -49 63 -147 231 -197 335
-47 101 -133 336 -167 461 -12 41 -28 99 -36 129 -36 125 -99 446 -118 600 -4
25 -8 56 -10 70 -2 14 -7 59 -10 100 -4 41 -8 98 -11 125 -6 59 -12 138 -21
255 -3 47 -8 110 -11 140 -4 52 -8 1110 -17 4595 -2 853 -6 1579 -9 1615 -4
36 -9 103 -12 150 -5 81 -8 116 -21 255 -11 121 -14 149 -39 330 -1 11 -6 44
-10 74 -3 30 -8 62 -10 72 -2 9 -7 39 -11 66 -3 26 -8 55 -10 63 -1 8 -14 76
-29 150 -79 402 -212 848 -335 1125 -11 25 -30 66 -41 92 -211 473 -554 980
-893 1319 -165 164 -222 212 -405 341 -132 93 -440 253 -487 253 -7 0 -29 8
-49 17 -49 23 -46 49 8 70 152 60 460 251 572 356 7 7 37 33 67 59 137 120
348 338 463 479 30 36 145 194 199 272 67 98 214 345 273 462 104 204 248 543
316 745 20 58 48 137 62 175 79 207 238 795 269 995 3 19 8 46 10 60 3 14 10
54 16 90 5 36 12 74 14 85 7 38 16 100 21 155 3 30 8 66 10 80 5 34 13 103 20
175 3 33 8 74 10 90 2 17 6 77 10 135 4 58 9 132 12 165 3 33 7 755 9 1605 8
3223 12 4117 17 4175 3 33 8 101 12 150 11 165 16 225 30 360 3 22 7 67 10
100 6 76 13 125 26 198 5 32 12 74 15 95 4 40 7 55 29 155 3 12 12 56 21 97 9
41 25 107 36 145 11 39 24 88 29 110 11 45 50 162 103 307 70 194 177 390 300
552 64 83 212 238 286 299 25 20 50 41 57 47 6 5 42 29 80 53 94 60 162 95
275 141 42 16 204 61 258 70 19 3 46 8 59 11 35 7 125 17 184 20 29 2 348 4
710 4 l657 1 0 520 0 521 -944 -1 c-519 -1 -946 -3 -947 -5z"/>
<path d="M30320 32851 l0 -501 658 -1 c361 0 680 -2 707 -4 84 -6 179 -15 200
-19 11 -2 40 -7 65 -11 70 -11 199 -44 260 -67 30 -11 60 -21 65 -22 37 -7
241 -117 316 -170 138 -99 333 -295 404 -407 6 -9 26 -40 46 -70 90 -135 167
-307 237 -529 42 -131 97 -347 107 -415 3 -22 8 -46 10 -53 5 -15 34 -190 40
-247 3 -22 7 -60 10 -85 17 -147 39 -391 50 -570 4 -58 9 -127 12 -155 3 -27
7 -723 9 -1545 2 -822 6 -2129 8 -2905 2 -775 6 -1432 9 -1460 3 -27 8 -104
12 -169 4 -66 8 -127 10 -136 2 -10 6 -53 10 -96 3 -43 8 -90 10 -104 4 -23
10 -73 20 -179 2 -24 7 -51 9 -60 3 -9 8 -38 11 -66 3 -27 17 -117 31 -200
118 -688 361 -1410 644 -1915 23 -41 56 -100 73 -130 16 -30 43 -74 59 -97 15
-23 28 -44 28 -46 0 -11 183 -275 269 -387 212 -277 497 -562 716 -717 133
-93 280 -174 409 -223 52 -20 72 -33 74 -48 3 -21 7 -19 -158 -79 -81 -30
-289 -141 -383 -205 -80 -54 -112 -78 -200 -148 -166 -132 -435 -416 -572
-604 -11 -15 -37 -51 -59 -79 -58 -78 -203 -300 -269 -412 -203 -346 -391
-796 -492 -1185 -3 -8 -14 -51 -26 -95 -11 -44 -22 -87 -24 -95 -2 -8 -9 -37
-15 -65 -6 -27 -14 -61 -16 -75 -3 -14 -10 -45 -15 -70 -9 -38 -43 -223 -53
-285 -2 -11 -6 -36 -10 -55 -6 -38 -14 -92 -22 -155 -2 -22 -7 -51 -9 -65 -2
-14 -7 -52 -10 -85 -4 -33 -8 -71 -10 -85 -2 -14 -7 -61 -11 -105 -4 -44 -8
-93 -9 -110 -2 -16 -7 -77 -11 -135 -4 -58 -9 -125 -11 -150 -3 -25 -7 -810
-9 -1745 -9 -3875 -11 -4383 -17 -4445 -4 -36 -9 -99 -12 -140 -3 -41 -7 -91
-10 -110 -2 -19 -6 -71 -10 -115 -3 -44 -8 -87 -10 -95 -2 -8 -7 -44 -10 -80
-5 -62 -9 -97 -20 -182 -3 -21 -7 -57 -10 -80 -3 -24 -8 -54 -10 -68 -2 -14
-7 -45 -10 -70 -4 -25 -20 -106 -36 -180 -103 -466 -266 -868 -458 -1125 -240
-321 -534 -529 -871 -616 -52 -13 -66 -16 -174 -35 -115 -21 -168 -22 -893
-23 l-653 -1 0 -516 0 -515 988 4 c543 3 1005 7 1027 11 22 3 72 11 110 16 39
5 81 12 95 15 14 3 41 8 60 11 19 3 53 10 75 16 22 5 48 12 59 14 61 11 217
62 324 105 451 180 843 501 1144 939 179 259 330 567 438 890 28 85 53 162 55
170 1 8 8 35 15 60 17 64 17 63 44 185 14 61 28 126 31 145 3 19 8 42 10 50 2
8 7 35 10 60 3 25 8 52 10 60 2 8 6 38 9 65 4 28 8 66 11 85 8 54 13 99 20
180 3 41 9 98 12 125 6 57 11 1242 17 4130 2 1106 6 2039 9 2075 3 36 8 135
12 220 3 85 8 171 10 190 2 19 6 78 10 130 3 52 8 111 10 130 1 19 6 80 10
135 4 55 8 102 10 105 1 3 6 41 10 84 4 43 8 86 10 95 1 9 6 43 9 76 9 84 17
146 21 175 2 14 7 45 10 70 6 44 52 326 60 365 2 11 11 56 20 100 9 44 18 91
21 105 54 285 187 725 303 1005 76 181 233 455 333 579 226 282 443 472 733
645 98 58 270 151 280 151 3 0 30 12 61 26 89 41 271 109 369 138 50 15 101
31 115 36 14 4 44 13 68 19 l42 12 0 443 0 443 -171 57 c-451 148 -797 353
-1079 637 -279 282 -450 517 -625 864 -113 222 -176 377 -270 660 -58 172
-154 505 -169 585 -2 8 -6 26 -9 40 -4 14 -9 36 -12 50 -3 14 -16 79 -30 145
-14 66 -27 131 -29 145 -11 59 -35 208 -41 245 -3 23 -7 50 -9 61 -2 11 -7 45
-11 75 -3 30 -8 68 -10 84 -2 17 -6 55 -10 85 -3 30 -7 71 -10 90 -4 32 -7 59
-20 192 -3 26 -7 64 -9 85 -3 21 -7 76 -11 123 -3 47 -8 105 -10 130 -9 99
-14 170 -20 280 -4 63 -9 151 -12 195 -3 44 -7 823 -9 1730 -6 2539 -12 4105
-17 4155 -3 25 -7 70 -11 100 -3 30 -8 80 -11 110 -3 30 -7 72 -10 93 -3 20
-7 56 -11 80 -8 68 -44 278 -55 327 -6 25 -13 56 -15 70 -3 14 -7 33 -10 42
-3 9 -7 25 -9 35 -36 182 -141 495 -238 713 -87 196 -162 333 -282 516 -274
415 -584 685 -998 871 -166 74 -424 153 -577 177 -19 3 -48 8 -65 11 -77 13
-95 16 -151 21 -32 3 -70 8 -84 11 -14 4 -465 8 -1002 10 l-978 4 0 -500z"/>
<path d="M9240 29451 c-157 -42 -298 -156 -362 -291 -58 -123 -53 2 -56 -1454
-2 -809 1 -1348 7 -1380 22 -119 82 -231 167 -313 53 -51 114 -88 203 -122
l66 -26 9685 -2 c6510 -1 9703 1 9740 8 154 28 316 151 384 291 68 140 64 49
65 1493 1 1441 3 1381 -61 1511 -59 120 -188 230 -328 279 -54 20 -152 20
-9750 22 -9244 2 -9698 1 -9760 -16z m17872 -1041 c233 -60 414 -222 497 -445
48 -131 51 -308 7 -440 -49 -144 -110 -231 -230 -329 -132 -107 -283 -158
-455 -151 -98 4 -104 4 -181 25 -224 60 -414 253 -476 485 -20 75 -25 232 -10
315 20 116 95 256 185 348 50 53 151 124 209 149 137 60 321 77 454 43z"/>
<path d="M9255 23636 c-58 -14 -171 -65 -205 -92 -96 -77 -155 -155 -198 -263
l-27 -66 0 -1355 c0 -1317 1 -1357 20 -1420 54 -181 207 -330 390 -381 43 -12
1486 -14 9740 -14 5330 0 9704 3 9720 7 171 39 311 149 384 301 22 45 44 105
50 132 7 33 10 483 10 1360 1 1133 -1 1319 -14 1374 -17 69 -55 161 -67 161
-5 0 -8 7 -8 15 0 8 -31 46 -70 84 -74 75 -169 129 -270 156 -48 12 -1305 14
-9730 14 -7603 -1 -9686 -3 -9725 -13z m17811 -1057 c242 -43 448 -210 535
-434 37 -94 40 -113 45 -225 4 -133 -12 -205 -79 -338 -82 -161 -249 -294
-437 -348 -87 -24 -270 -25 -357 -2 -261 72 -451 270 -509 533 -13 59 -12 217
1 280 15 76 78 211 123 267 75 93 181 176 277 219 118 51 277 71 401 48z"/>
<path d="M9240 17912 c-181 -48 -331 -190 -398 -379 -15 -44 -17 -157 -19
-1388 -2 -919 1 -1356 8 -1390 21 -97 76 -194 154 -271 78 -77 145 -116 253
-145 65 -17 423 -18 9737 -18 8616 -1 9677 1 9734 14 187 45 337 179 405 363
21 57 21 63 23 1402 3 1496 7 1396 -65 1535 -71 134 -213 243 -367 280 -52 12
-1380 14 -9730 14 -9080 0 -9674 -1 -9735 -17z m17875 -1087 c265 -54 480
-258 552 -525 13 -47 17 -99 17 -190 -1 -107 -5 -136 -28 -205 -87 -259 -293
-443 -551 -492 -50 -10 -216 -9 -270 0 -258 46 -477 239 -561 494 -35 105 -40
274 -12 381 72 280 305 495 584 541 53 9 220 7 269 -4z"/>
<path d="M9299 12106 c-2 -2 -22 -7 -44 -10 -22 -4 -77 -25 -122 -46 -153 -74
-273 -231 -302 -395 -8 -40 -11 -475 -11 -1365 0 -1152 2 -1312 16 -1365 42
-161 149 -292 295 -363 46 -23 109 -46 139 -51 67 -12 19400 -10 19445 2 56
15 190 86 233 124 60 51 127 147 159 229 l28 69 2 1340 c3 1489 7 1403 -65
1539 -74 140 -232 258 -386 285 -42 8 -2903 11 -9721 11 -5314 0 -9664 -2
-9666 -4z m17816 -1100 c153 -37 308 -126 386 -221 10 -11 29 -33 43 -50 37
-43 103 -179 123 -255 26 -98 23 -282 -6 -380 -68 -224 -236 -404 -443 -474
-98 -34 -171 -45 -272 -41 -126 4 -196 22 -314 82 -167 83 -297 235 -357 418
-39 117 -41 305 -4 425 76 248 326 465 574 497 22 3 42 7 44 9 5 5 200 -3 226
-10z"/>
</g>
</svg>
