<svg xmlns="http://www.w3.org/2000/svg" viewBox="0 0 118 34"><path fill="#FFF" d="M16.41 11.955V8.217a.406.406 0 0 0-.407-.406H.942a.406.406 0 0 0-.407.406v3.738a.406.406 0 0 0 .407.407h4.563a.406.406 0 0 1 .407.406v12.84c0 .224.183.406.407.406h4.308a.408.408 0 0 0 .406-.406v-12.84a.404.404 0 0 1 .407-.406h4.563a.407.407 0 0 0 .407-.407zm101.185.867h-3.936a.408.408 0 0 0-.393.299l-.072.263c-.183.642-.826 3.043-1.928 7.2a.406.406 0 0 1-.788 0 395.694 395.694 0 0 0-1.918-7.2l-.072-.263a.405.405 0 0 0-.392-.3h-4.164a.407.407 0 0 0-.384.54L107.8 25.74c.056.164.21.274.384.274h5.156c.173 0 .328-.11.384-.274l4.254-12.38a.407.407 0 0 0-.383-.538zm-94.865-.307c-2.116 0-3.823.63-5.121 1.892-1.297 1.242-1.946 2.912-1.946 5.01 0 2.08.657 3.751 1.972 5.012 1.314 1.26 3.03 1.89 5.146 1.892 1.658 0 3.109-.392 4.352-1.176a5.31 5.31 0 0 0 2.221-2.752.407.407 0 0 0-.383-.547h-3.64a.415.415 0 0 0-.335.175c-.47.65-1.208.976-2.215.976-1.26 0-2.089-.559-2.487-1.677a.408.408 0 0 1 .383-.548h8.74a.406.406 0 0 0 .406-.406v-.437c0-2.317-.649-4.132-1.946-5.445-1.315-1.312-3.03-1.968-5.147-1.969zm2.294 5.471h-4.25a.408.408 0 0 1-.38-.55c.4-1.065 1.263-1.597 2.47-1.597 1.234 0 2.12.53 2.539 1.591a.405.405 0 0 1-.379.556zM78.261 7.811h-7.556a.408.408 0 0 0-.408.406v17.391c0 .224.183.406.408.406h7.556c3.158 0 5.52-.818 7.088-2.454 1.57-1.656 2.355-3.871 2.355-6.647-.001-2.776-.785-4.99-2.35-6.644-1.57-1.639-3.935-2.458-7.093-2.458zm-.103 13.905h-2.333a.406.406 0 0 1-.406-.406v-8.797a.404.404 0 0 1 .406-.406h2.333c2.818 0 4.227 1.602 4.227 4.806 0 3.203-1.409 4.805-4.227 4.805v-.002zm-39.514-9.2c-2.168 0-3.794.383-4.878 1.15-.974.69-1.559 1.703-1.753 3.04a.406.406 0 0 0 .402.462h3.866a.403.403 0 0 0 .395-.31c.089-.38.246-.647.47-.802.282-.196.764-.294 1.447-.294 1.109 0 1.664.35 1.665 1.049a.869.869 0 0 1-.373.766c-.249.171-.654.282-1.216.332l-2.124.182c-1.844.154-3.185.568-4.02 1.241-.836.674-1.254 1.633-1.255 2.877 0 1.277.448 2.283 1.344 3.017.897.734 2.07 1.1 3.52 1.098 1.498 0 2.686-.345 3.564-1.036a.407.407 0 0 1 .653.324.404.404 0 0 0 .407.406h3.701a.406.406 0 0 0 .407-.406V16.66c0-2.764-2.074-4.146-6.222-4.146zm1.616 8.309c0 1.655-.836 2.483-2.509 2.483-.53 0-.944-.115-1.243-.346a1.117 1.117 0 0 1-.45-.932c0-.767.504-1.202 1.512-1.305l1.51-.151c.215-.028.427-.078.633-.15a.407.407 0 0 1 .545.383l.002.018zm23.258-8.31c-1.431 0-2.71.616-3.835 1.847a.407.407 0 0 1-.64-.047c-.8-1.2-2.065-1.8-3.796-1.8-1.14 0-2.149.421-3.025 1.263a.408.408 0 0 1-.687-.298v-.249a.408.408 0 0 0-.408-.407h-3.795a.408.408 0 0 0-.407.407v12.38c0 .223.182.405.407.406h3.898a.406.406 0 0 0 .407-.406V18.7c0-.732.17-1.282.512-1.648.341-.367.802-.55 1.383-.549.596 0 1.023.162 1.28.486.257.323.385.817.383 1.482v7.136c0 .224.183.406.408.406H59.5a.406.406 0 0 0 .407-.406v-6.906c0-.733.17-1.283.512-1.65.341-.366.802-.549 1.383-.548.597 0 1.024.162 1.28.486.257.323.385.817.385 1.482v7.136c0 .224.182.406.406.406h3.903a.408.408 0 0 0 .408-.406v-8.005c0-1.637-.414-2.893-1.243-3.77-.83-.878-1.97-1.317-3.423-1.318zm32.744 0c-2.117 0-3.824.63-5.121 1.892-1.297 1.242-1.946 2.912-1.946 5.01 0 2.08.657 3.751 1.972 5.012 1.314 1.26 3.03 1.89 5.146 1.892 1.658 0 3.109-.392 4.352-1.176a5.309 5.309 0 0 0 2.216-2.752.408.408 0 0 0-.383-.547h-3.636a.415.415 0 0 0-.334.175c-.47.65-1.208.976-2.215.976-1.26 0-2.089-.559-2.487-1.677a.408.408 0 0 1 .383-.548h8.74a.406.406 0 0 0 .406-.406v-.437c0-2.317-.649-4.132-1.946-5.445-1.314-1.312-3.03-1.968-5.147-1.969zm2.02 5.471h-4.074a.408.408 0 0 1-.383-.545c.381-1.068 1.177-1.602 2.386-1.602 1.236 0 2.054.532 2.452 1.596a.407.407 0 0 1-.38.551z"/></svg>