<svg width="416" height="391" viewBox="0 0 416 391" fill="none" xmlns="http://www.w3.org/2000/svg">
<g clip-path="url(#clip0_407_2087)">
<mask id="mask0_407_2087" style="mask-type:alpha" maskUnits="userSpaceOnUse" x="-1024" y="0" width="1440" height="471">
<path d="M416 0H-1024V471H416V0Z" fill="#055DEB"/>
</mask>
<g mask="url(#mask0_407_2087)">
<g opacity="0.1">
<path opacity="0.895" d="M363.086 21.2073C369.424 27.5451 379.836 27.4087 386.342 20.9026C392.848 14.3964 392.984 3.98435 386.646 -2.35347C380.309 -8.69128 369.897 -8.55484 363.39 -2.0487C356.884 4.45743 356.748 14.8695 363.086 21.2073Z" fill="#9BBEF7"/>
<path opacity="0.895" d="M279.802 3.31524C286.14 9.65306 296.552 9.51661 303.058 3.01048C309.564 -3.49566 309.701 -13.9077 303.363 -20.2456C297.025 -26.5834 286.613 -26.4469 280.107 -19.9408C273.601 -13.4347 273.464 -3.02258 279.802 3.31524Z" fill="#9BBEF7"/>
<path opacity="0.895" d="M330.39 53.9031C336.728 60.241 347.14 60.1045 353.646 53.5984C360.152 47.0922 360.288 36.6802 353.951 30.3423C347.613 24.0045 337.201 24.141 330.695 30.6471C324.188 37.1532 324.052 47.5653 330.39 53.9031Z" fill="#9BBEF7"/>
<path opacity="0.895" d="M355.684 79.1971C362.022 85.5349 372.434 85.3985 378.94 78.8923C385.446 72.3862 385.582 61.9741 379.244 55.6363C372.907 49.2985 362.495 49.4349 355.988 55.941C349.482 62.4472 349.346 72.8593 355.684 79.1971Z" fill="#9BBEF7"/>
<path opacity="0.895" d="M380.978 104.491C387.315 110.829 397.727 110.692 404.234 104.186C410.74 97.6801 410.876 87.268 404.538 80.9302C398.201 74.5924 387.788 74.7289 381.282 81.235C374.776 87.7411 374.64 98.1532 380.978 104.491Z" fill="#9BBEF7"/>
<path opacity="0.895" d="M226.748 4.37723C230.369 7.99895 236.241 7.99895 239.863 4.37723C243.485 0.755504 243.485 -5.11647 239.863 -8.73819C236.241 -12.3599 230.369 -12.3599 226.748 -8.73819C223.126 -5.11647 223.126 0.755504 226.748 4.37723Z" fill="#9BBEF7"/>
<path opacity="0.895" d="M252.042 29.6712C255.663 33.2929 261.535 33.2929 265.157 29.6712C268.779 26.0494 268.779 20.1775 265.157 16.5558C261.535 12.934 255.663 12.934 252.042 16.5558C248.42 20.1775 248.42 26.0494 252.042 29.6712Z" fill="#9BBEF7"/>
<path opacity="0.895" d="M277.336 54.9651C280.957 58.5868 286.829 58.5868 290.451 54.9651C294.073 51.3434 294.073 45.4714 290.451 41.8497C286.829 38.228 280.957 38.228 277.336 41.8497C273.714 45.4714 273.714 51.3434 277.336 54.9651Z" fill="#9BBEF7"/>
<path opacity="0.895" d="M302.629 80.2591C306.251 83.8808 312.123 83.8808 315.745 80.2591C319.367 76.6373 319.367 70.7654 315.745 67.1436C312.123 63.5219 306.251 63.5219 302.629 67.1436C299.008 70.7654 299.008 76.6373 302.629 80.2591Z" fill="#9BBEF7"/>
<path opacity="0.895" d="M327.923 105.553C331.545 109.175 337.417 109.175 341.039 105.553C344.661 101.931 344.661 96.0593 341.039 92.4376C337.417 88.8159 331.545 88.8159 327.923 92.4376C324.302 96.0593 324.302 101.931 327.923 105.553Z" fill="#9BBEF7"/>
<path opacity="0.895" d="M353.217 130.847C356.839 134.469 362.711 134.469 366.333 130.847C369.954 127.225 369.954 121.353 366.333 117.732C362.711 114.11 356.839 114.11 353.217 117.732C349.596 121.353 349.596 127.225 353.217 130.847Z" fill="#9BBEF7"/>
<path opacity="0.895" d="M378.042 155.672C381.664 159.294 387.536 159.294 391.158 155.672C394.78 152.05 394.78 146.178 391.158 142.557C387.536 138.935 381.664 138.935 378.042 142.557C374.421 146.178 374.421 152.05 378.042 155.672Z" fill="#9BBEF7"/>
<path opacity="0.895" d="M403.336 180.966C406.958 184.588 412.83 184.588 416.452 180.966C420.073 177.344 420.073 171.472 416.452 167.851C412.83 164.229 406.958 164.229 403.336 167.851C399.715 171.472 399.715 177.344 403.336 180.966Z" fill="#9BBEF7"/>
<path opacity="0.895" d="M138.529 -7.17548C144.867 -0.837663 155.279 -0.974108 161.785 -7.48024C168.291 -13.9864 168.428 -24.3985 162.09 -30.7363C155.752 -37.0741 145.34 -36.9377 138.834 -30.4315C132.328 -23.9254 132.191 -13.5133 138.529 -7.17548Z" fill="#9BBEF7"/>
<path opacity="0.895" d="M163.823 18.1185C170.161 24.4563 180.573 24.3198 187.079 17.8137C193.585 11.3076 193.722 0.895485 187.384 -5.44233C181.046 -11.7802 170.634 -11.6437 164.128 -5.13757C157.622 1.36857 157.485 11.7806 163.823 18.1185Z" fill="#9BBEF7"/>
<path opacity="0.895" d="M239.705 94.0003C246.043 100.338 256.455 100.202 262.961 93.6955C269.467 87.1894 269.603 76.7773 263.266 70.4395C256.928 64.1017 246.516 64.2381 240.01 70.7443C233.503 77.2504 233.367 87.6625 239.705 94.0003Z" fill="#9BBEF7"/>
<path opacity="0.895" d="M264.999 119.294C271.337 125.632 281.749 125.496 288.255 118.989C294.761 112.483 294.897 102.071 288.559 95.7334C282.222 89.3956 271.81 89.5321 265.303 96.0382C258.797 102.544 258.661 112.956 264.999 119.294Z" fill="#9BBEF7"/>
<path opacity="0.895" d="M290.293 144.588C296.63 150.926 307.043 150.79 313.549 144.283C320.055 137.777 320.191 127.365 313.853 121.027C307.516 114.69 297.104 114.826 290.597 121.332C284.091 127.838 283.955 138.25 290.293 144.588Z" fill="#9BBEF7"/>
<path opacity="0.895" d="M315.587 169.882C321.924 176.22 332.336 176.084 338.843 169.577C345.349 163.071 345.485 152.659 339.147 146.321C332.81 139.984 322.397 140.12 315.891 146.626C309.385 153.132 309.249 163.544 315.587 169.882Z" fill="#9BBEF7"/>
<path opacity="0.895" d="M391.468 245.764C397.806 252.102 408.218 251.965 414.724 245.459C421.23 238.953 421.367 228.541 415.029 222.203C408.691 215.865 398.279 216.002 391.773 222.508C385.267 229.014 385.13 239.426 391.468 245.764Z" fill="#9BBEF7"/>
<path opacity="0.895" d="M416.761 271.057C423.099 277.395 433.511 277.258 440.017 270.752C446.524 264.246 446.66 253.834 440.322 247.496C433.984 241.158 423.572 241.295 417.066 247.801C410.56 254.307 410.424 264.719 416.761 271.057Z" fill="#9BBEF7"/>
<path opacity="0.895" d="M181.715 101.402C188.053 107.74 198.465 107.604 204.971 101.097C211.477 94.5913 211.614 84.1792 205.276 77.8414C198.938 71.5035 188.526 71.64 182.02 78.1461C175.514 84.6523 175.377 95.0643 181.715 101.402Z" fill="#9BBEF7"/>
<path opacity="0.895" d="M333.478 253.166C339.816 259.504 350.228 259.367 356.734 252.861C363.241 246.355 363.377 235.943 357.039 229.605C350.701 223.267 340.289 223.404 333.783 229.91C327.277 236.416 327.141 246.828 333.478 253.166Z" fill="#9BBEF7"/>
<path opacity="0.895" d="M22.5509 7.62872C28.8887 13.9665 39.3008 13.8301 45.8069 7.32396C52.3131 0.817821 52.4495 -9.59426 46.1117 -15.9321C39.7739 -22.2699 29.3618 -22.1335 22.8556 -15.6273C16.3495 -9.12118 16.2131 1.2909 22.5509 7.62872Z" fill="#9BBEF7"/>
<path opacity="0.895" d="M47.8448 32.9227C54.1826 39.2605 64.5947 39.124 71.1008 32.6179C77.6069 26.1118 77.7434 15.6997 71.4056 9.36187C65.0677 3.02405 54.6557 3.16049 48.1495 9.66663C41.6434 16.1728 41.507 26.5848 47.8448 32.9227Z" fill="#9BBEF7"/>
<path opacity="0.895" d="M73.138 58.2156C79.4758 64.5535 89.8879 64.417 96.394 57.9109C102.9 51.4047 103.037 40.9927 96.6987 34.6548C90.3609 28.317 79.9489 28.4535 73.4427 34.9596C66.9366 41.4657 66.8001 51.8778 73.138 58.2156Z" fill="#9BBEF7"/>
<path opacity="0.895" d="M123.726 108.804C130.064 115.141 140.476 115.005 146.982 108.499C153.488 101.993 153.624 91.5805 147.287 85.2427C140.949 78.9049 130.537 79.0414 124.031 85.5475C117.524 92.0536 117.388 102.466 123.726 108.804Z" fill="#9BBEF7"/>
<path opacity="0.895" d="M149.02 134.097C155.358 140.435 165.77 140.299 172.276 133.793C178.782 127.287 178.918 116.874 172.58 110.537C166.243 104.199 155.831 104.335 149.324 110.841C142.818 117.348 142.682 127.76 149.02 134.097Z" fill="#9BBEF7"/>
<path opacity="0.895" d="M174.314 159.391C180.651 165.729 191.064 165.593 197.57 159.087C204.076 152.581 204.212 142.168 197.874 135.831C191.537 129.493 181.125 129.629 174.618 136.135C168.112 142.642 167.976 153.054 174.314 159.391Z" fill="#9BBEF7"/>
<path opacity="0.895" d="M199.608 184.685C205.945 191.023 216.357 190.887 222.864 184.381C229.37 177.874 229.506 167.462 223.168 161.125C216.831 154.787 206.418 154.923 199.912 161.429C193.406 167.935 193.27 178.348 199.608 184.685Z" fill="#9BBEF7"/>
<path opacity="0.895" d="M224.901 209.979C231.239 216.317 241.651 216.181 248.158 209.675C254.664 203.168 254.8 192.756 248.462 186.419C242.124 180.081 231.712 180.217 225.206 186.723C218.7 193.229 218.564 203.641 224.901 209.979Z" fill="#9BBEF7"/>
<path opacity="0.895" d="M275.489 260.567C281.827 266.905 292.239 266.769 298.745 260.262C305.251 253.756 305.388 243.344 299.05 237.006C292.712 230.669 282.3 230.805 275.794 237.311C269.288 243.817 269.151 254.229 275.489 260.567Z" fill="#9BBEF7"/>
<path opacity="0.895" d="M300.783 285.861C307.121 292.199 317.533 292.063 324.039 285.556C330.545 279.05 330.682 268.638 324.344 262.3C318.006 255.963 307.594 256.099 301.088 262.605C294.582 269.111 294.445 279.523 300.783 285.861Z" fill="#9BBEF7"/>
<path opacity="0.895" d="M326.077 311.155C332.415 317.493 342.827 317.356 349.333 310.85C355.839 304.344 355.976 293.932 349.638 287.594C343.3 281.256 332.888 281.393 326.382 287.899C319.876 294.405 319.739 304.817 326.077 311.155Z" fill="#9BBEF7"/>
<path opacity="0.895" d="M351.37 336.448C357.708 342.786 368.12 342.649 374.626 336.143C381.132 329.637 381.269 319.225 374.931 312.887C368.593 306.549 358.181 306.686 351.675 313.192C345.169 319.698 345.032 330.11 351.37 336.448Z" fill="#9BBEF7"/>
<path opacity="0.895" d="M376.664 361.742C383.002 368.08 393.414 367.943 399.92 361.437C406.426 354.931 406.563 344.519 400.225 338.181C393.887 331.843 383.475 331.98 376.969 338.486C370.463 344.992 370.326 355.404 376.664 361.742Z" fill="#9BBEF7"/>
<path opacity="0.895" d="M427.252 412.33C433.59 418.668 444.002 418.531 450.508 412.025C457.014 405.519 457.151 395.107 450.813 388.769C444.475 382.431 434.063 382.568 427.557 389.074C421.051 395.58 420.914 405.992 427.252 412.33Z" fill="#9BBEF7"/>
</g>
</g>
</g>
<defs>
<clipPath id="clip0_407_2087">
<rect width="416" height="391" fill="white"/>
</clipPath>
</defs>
</svg>
