<svg width="416" height="391" viewBox="0 0 416 391" fill="none" xmlns="http://www.w3.org/2000/svg">
<g clip-path="url(#clip0_407_2087)">
<g opacity="0.1">
<path opacity="0.895" d="M24.8874 33.97C31.2252 40.3078 41.6373 40.1714 48.1434 33.6653C54.6495 27.1591 54.786 16.747 48.4482 10.4092C42.1104 4.07141 31.6983 4.20786 25.1921 10.714C18.686 17.2201 18.5496 27.6322 24.8874 33.97Z" fill="#9BBEF7"/>
<path opacity="0.895" d="M176.651 185.734C182.989 192.072 193.401 191.935 199.907 185.429C206.413 178.923 206.549 168.511 200.212 162.173C193.874 155.835 183.462 155.972 176.956 162.478C170.449 168.984 170.313 179.396 176.651 185.734Z" fill="#9BBEF7"/>
<path opacity="0.895" d="M227.239 236.322C233.577 242.659 243.989 242.523 250.495 236.017C257.001 229.511 257.137 219.099 250.8 212.761C244.462 206.423 234.05 206.559 227.544 213.066C221.037 219.572 220.901 229.984 227.239 236.322Z" fill="#9BBEF7"/>
<path opacity="0.895" d="M252.533 261.616C258.87 267.953 269.283 267.817 275.789 261.311C282.295 254.805 282.431 244.393 276.093 238.055C269.756 231.717 259.344 231.853 252.837 238.36C246.331 244.866 246.195 255.278 252.533 261.616Z" fill="#9BBEF7"/>
<path opacity="0.895" d="M379.002 388.084C385.339 394.422 395.751 394.286 402.258 387.78C408.764 381.273 408.9 370.861 402.562 364.523C396.225 358.186 385.812 358.322 379.306 364.828C372.8 371.334 372.664 381.746 379.002 388.084Z" fill="#9BBEF7"/>
<path opacity="0.895" d="M-7.80855 66.6658C-1.47073 73.0036 8.94135 72.8672 15.4475 66.3611C21.9536 59.8549 22.0901 49.4428 15.7522 43.105C9.41443 36.7672 -0.997653 36.9037 -7.50379 43.4098C-14.0099 49.9159 -14.1464 60.328 -7.80855 66.6658Z" fill="#9BBEF7"/>
<path opacity="0.895" d="M17.4854 91.9598C23.8232 98.2976 34.2353 98.1611 40.7414 91.655C47.2476 85.1489 47.384 74.7368 41.0462 68.399C34.7084 62.0612 24.2963 62.1976 17.7902 68.7037C11.284 75.2099 11.1476 85.622 17.4854 91.9598Z" fill="#9BBEF7"/>
<path opacity="0.895" d="M42.7793 117.254C49.1171 123.592 59.5292 123.455 66.0353 116.949C72.5414 110.443 72.6779 100.031 66.3401 93.6929C60.0023 87.3551 49.5902 87.4915 43.084 93.9977C36.5779 100.504 36.4415 110.916 42.7793 117.254Z" fill="#9BBEF7"/>
<path opacity="0.895" d="M68.0732 142.548C74.411 148.885 84.8231 148.749 91.3292 142.243C97.8353 135.737 97.9718 125.325 91.634 118.987C85.2961 112.649 74.8841 112.785 68.3779 119.292C61.8718 125.798 61.7353 136.21 68.0732 142.548Z" fill="#9BBEF7"/>
<path opacity="0.895" d="M93.3671 167.842C99.7049 174.179 110.117 174.043 116.623 167.537C123.129 161.031 123.266 150.619 116.928 144.281C110.59 137.943 100.178 138.079 93.6719 144.586C87.1657 151.092 87.0293 161.504 93.3671 167.842Z" fill="#9BBEF7"/>
<path opacity="0.895" d="M143.955 218.429C150.293 224.767 160.705 224.631 167.211 218.125C173.717 211.619 173.854 201.207 167.516 194.869C161.178 188.531 150.766 188.667 144.26 195.173C137.754 201.68 137.617 212.092 143.955 218.429Z" fill="#9BBEF7"/>
<path opacity="0.895" d="M169.249 243.723C175.587 250.061 185.999 249.925 192.505 243.419C199.011 236.913 199.148 226.5 192.81 220.163C186.472 213.825 176.06 213.961 169.554 220.467C163.048 226.974 162.911 237.386 169.249 243.723Z" fill="#9BBEF7"/>
<path opacity="0.895" d="M194.543 269.017C200.881 275.355 211.293 275.219 217.799 268.713C224.305 262.206 224.441 251.794 218.104 245.457C211.766 239.119 201.354 239.255 194.848 245.761C188.341 252.267 188.205 262.68 194.543 269.017Z" fill="#9BBEF7"/>
<path opacity="0.895" d="M219.837 294.311C226.175 300.649 236.587 300.513 243.093 294.007C249.599 287.5 249.735 277.088 243.398 270.751C237.06 264.413 226.648 264.549 220.142 271.055C213.635 277.561 213.499 287.974 219.837 294.311Z" fill="#9BBEF7"/>
<path opacity="0.895" d="M295.718 370.192C302.056 376.53 312.468 376.394 318.974 369.887C325.48 363.381 325.616 352.969 319.279 346.631C312.941 340.294 302.529 340.43 296.022 346.936C289.516 353.442 289.38 363.854 295.718 370.192Z" fill="#9BBEF7"/>
<path opacity="0.895" d="M346.306 420.78C352.643 427.118 363.056 426.981 369.562 420.475C376.068 413.969 376.204 403.557 369.866 397.219C363.529 390.881 353.117 391.018 346.61 397.524C340.104 404.03 339.968 414.442 346.306 420.78Z" fill="#9BBEF7"/>
<path opacity="0.895" d="M-10.2749 118.316C-6.65315 121.937 -0.781177 121.937 2.84055 118.316C6.46227 114.694 6.46227 108.822 2.84055 105.2C-0.781177 101.579 -6.65315 101.579 -10.2749 105.2C-13.8966 108.822 -13.8966 114.694 -10.2749 118.316Z" fill="#9BBEF7"/>
<path opacity="0.895" d="M15.0191 143.61C18.6409 147.231 24.5128 147.231 28.1346 143.61C31.7563 139.988 31.7563 134.116 28.1346 130.494C24.5128 126.873 18.6409 126.873 15.0191 130.494C11.3974 134.116 11.3974 139.988 15.0191 143.61Z" fill="#9BBEF7"/>
<path opacity="0.895" d="M40.313 168.904C43.9347 172.525 49.8067 172.525 53.4284 168.904C57.0501 165.282 57.0501 159.41 53.4284 155.788C49.8067 152.166 43.9347 152.166 40.313 155.788C36.6912 159.41 36.6912 165.282 40.313 168.904Z" fill="#9BBEF7"/>
<path opacity="0.895" d="M65.6068 194.198C69.2286 197.819 75.1005 197.819 78.7223 194.198C82.344 190.576 82.344 184.704 78.7223 181.082C75.1005 177.46 69.2286 177.46 65.6068 181.082C61.9851 184.704 61.9851 190.576 65.6068 194.198Z" fill="#9BBEF7"/>
<path opacity="0.895" d="M90.9008 219.491C94.5225 223.113 100.394 223.113 104.016 219.491C107.638 215.87 107.638 209.998 104.016 206.376C100.394 202.754 94.5225 202.754 90.9008 206.376C87.279 209.998 87.279 215.87 90.9008 219.491Z" fill="#9BBEF7"/>
<path opacity="0.895" d="M116.195 244.785C119.816 248.407 125.688 248.407 129.31 244.785C132.932 241.164 132.932 235.292 129.31 231.67C125.688 228.048 119.816 228.048 116.195 231.67C112.573 235.292 112.573 241.164 116.195 244.785Z" fill="#9BBEF7"/>
<path opacity="0.895" d="M141.488 270.078C145.11 273.7 150.982 273.7 154.603 270.078C158.225 266.457 158.225 260.585 154.603 256.963C150.982 253.341 145.11 253.341 141.488 256.963C137.866 260.585 137.866 266.457 141.488 270.078Z" fill="#9BBEF7"/>
<path opacity="0.895" d="M166.782 295.372C170.404 298.994 176.275 298.994 179.897 295.372C183.519 291.751 183.519 285.879 179.897 282.257C176.275 278.635 170.404 278.635 166.782 282.257C163.16 285.879 163.16 291.751 166.782 295.372Z" fill="#9BBEF7"/>
<path opacity="0.895" d="M192.545 321.135C196.166 324.757 202.038 324.757 205.66 321.135C209.282 317.513 209.282 311.641 205.66 308.02C202.038 304.398 196.166 304.398 192.545 308.02C188.923 311.641 188.923 317.513 192.545 321.135Z" fill="#9BBEF7"/>
<path opacity="0.895" d="M218.307 346.897C221.928 350.519 227.8 350.519 231.422 346.897C235.044 343.276 235.044 337.404 231.422 333.782C227.8 330.16 221.928 330.16 218.307 333.782C214.685 337.404 214.685 343.276 218.307 346.897Z" fill="#9BBEF7"/>
<path opacity="0.895" d="M243.601 372.191C247.222 375.813 253.094 375.813 256.716 372.191C260.338 368.569 260.338 362.697 256.716 359.076C253.094 355.454 247.222 355.454 243.601 359.076C239.979 362.697 239.979 368.569 243.601 372.191Z" fill="#9BBEF7"/>
<path opacity="0.895" d="M268.894 397.485C272.516 401.107 278.388 401.107 282.01 397.485C285.632 393.863 285.632 387.991 282.01 384.37C278.388 380.748 272.516 380.748 268.894 384.37C265.273 387.991 265.273 393.863 268.894 397.485Z" fill="#9BBEF7"/>
<path opacity="0.895" d="M-22.6118 182.645C-16.274 188.983 -5.86187 188.846 0.644262 182.34C7.1504 175.834 7.28684 165.422 0.949024 159.084C-5.38879 152.746 -15.8009 152.883 -22.307 159.389C-28.8131 165.895 -28.9496 176.307 -22.6118 182.645Z" fill="#9BBEF7"/>
<path opacity="0.895" d="M2.68211 207.939C9.01993 214.277 19.432 214.14 25.9381 207.634C32.4443 201.128 32.5807 190.716 26.2429 184.378C19.9051 178.04 9.49301 178.177 2.98687 184.683C-3.51926 191.189 -3.65571 201.601 2.68211 207.939Z" fill="#9BBEF7"/>
<path opacity="0.895" d="M53.2699 258.527C59.6078 264.864 70.0198 264.728 76.526 258.222C83.0321 251.716 83.1686 241.304 76.8307 234.966C70.4929 228.628 60.0808 228.764 53.5747 235.271C47.0686 241.777 46.9321 252.189 53.2699 258.527Z" fill="#9BBEF7"/>
<path opacity="0.895" d="M78.5639 283.821C84.9017 290.158 95.3138 290.022 101.82 283.516C108.326 277.01 108.462 266.598 102.125 260.26C95.7868 253.922 85.3748 254.058 78.8686 260.565C72.3625 267.071 72.226 277.483 78.5639 283.821Z" fill="#9BBEF7"/>
<path opacity="0.895" d="M103.858 309.115C110.196 315.452 120.608 315.316 127.114 308.81C133.62 302.304 133.756 291.892 127.419 285.554C121.081 279.216 110.669 279.352 104.163 285.859C97.6565 292.365 97.52 302.777 103.858 309.115Z" fill="#9BBEF7"/>
<path opacity="0.895" d="M129.152 334.409C135.49 340.746 145.902 340.61 152.408 334.104C158.914 327.598 159.05 317.186 152.713 310.848C146.375 304.51 135.963 304.646 129.457 311.152C122.95 317.659 122.814 328.071 129.152 334.409Z" fill="#9BBEF7"/>
<path opacity="0.895" d="M154.446 359.702C160.784 366.04 171.196 365.904 177.702 359.398C184.208 352.892 184.344 342.479 178.006 336.142C171.669 329.804 161.257 329.94 154.75 336.446C148.244 342.953 148.108 353.365 154.446 359.702Z" fill="#9BBEF7"/>
<path opacity="0.895" d="M179.739 384.995C186.077 391.333 196.489 391.197 202.995 384.691C209.501 378.185 209.637 367.772 203.3 361.435C196.962 355.097 186.55 355.233 180.044 361.739C173.537 368.246 173.401 378.658 179.739 384.995Z" fill="#9BBEF7"/>
<path opacity="0.895" d="M205.033 410.289C211.371 416.627 221.783 416.491 228.289 409.985C234.795 403.478 234.931 393.066 228.594 386.729C222.256 380.391 211.844 380.527 205.338 387.033C198.831 393.539 198.695 403.952 205.033 410.289Z" fill="#9BBEF7"/>
<path opacity="0.895" d="M-4.71987 265.929C1.61795 272.266 12.03 272.13 18.5362 265.624C25.0423 259.118 25.1787 248.706 18.8409 242.368C12.5031 236.03 2.09103 236.166 -4.4151 242.672C-10.9212 249.179 -11.0577 259.591 -4.71987 265.929Z" fill="#9BBEF7"/>
<path opacity="0.895" d="M-12.1212 323.918C-5.78335 330.256 4.62873 330.119 11.1349 323.613C17.641 317.107 17.7774 306.695 11.4396 300.357C5.10181 294.019 -5.31027 294.156 -11.8164 300.662C-18.3225 307.168 -18.459 317.58 -12.1212 323.918Z" fill="#9BBEF7"/>
<path opacity="0.895" d="M13.1727 349.212C19.5105 355.55 29.9226 355.413 36.4287 348.907C42.9349 342.401 43.0713 331.989 36.7335 325.651C30.3957 319.313 19.9836 319.45 13.4775 325.956C6.97134 332.462 6.83489 342.874 13.1727 349.212Z" fill="#9BBEF7"/>
<path opacity="0.895" d="M38.4667 374.506C44.8045 380.843 55.2166 380.707 61.7228 374.201C68.2289 367.695 68.3653 357.283 62.0275 350.945C55.6897 344.607 45.2776 344.744 38.7715 351.25C32.2653 357.756 32.1289 368.168 38.4667 374.506Z" fill="#9BBEF7"/>
</g>
</g>
<defs>
<clipPath id="clip0_407_2087">
<rect width="416" height="391" fill="white"/>
</clipPath>
</defs>
</svg>
