<svg xmlns="http://www.w3.org/2000/svg" xmlns:xlink="http://www.w3.org/1999/xlink" width="1230" height="296" viewBox="0 0 1230 296">
  <defs>
    <rect id="generate-code-b" width="158" height="48" x="0" y="0" rx="4"/>
    <filter id="generate-code-a" width="122.8%" height="181.2%" x="-11.4%" y="-31.2%" filterUnits="objectBoundingBox">
      <feOffset dy="6" in="SourceAlpha" result="shadowOffsetOuter1"/>
      <feGaussianBlur in="shadowOffsetOuter1" result="shadowBlurOuter1" stdDeviation="5"/>
      <feColorMatrix in="shadowBlurOuter1" result="shadowMatrixOuter1" values="0 0 0 0 0.133799873   0 0 0 0 0.187156012   0 0 0 0 0.370329484  0 0 0 0.15 0"/>
      <feOffset dy="3" in="SourceAlpha" result="shadowOffsetOuter2"/>
      <feGaussianBlur in="shadowOffsetOuter2" result="shadowBlurOuter2" stdDeviation="5"/>
      <feColorMatrix in="shadowBlurOuter2" result="shadowMatrixOuter2" values="0 0 0 0 0   0 0 0 0 0   0 0 0 0 0  0 0 0 0.03 0"/>
      <feOffset in="SourceAlpha" result="shadowOffsetOuter3"/>
      <feGaussianBlur in="shadowOffsetOuter3" result="shadowBlurOuter3" stdDeviation="1"/>
      <feColorMatrix in="shadowBlurOuter3" result="shadowMatrixOuter3" values="0 0 0 0 0.133333333   0 0 0 0 0.188235294   0 0 0 0 0.368627451  0 0 0 0.166275131 0"/>
      <feMerge>
        <feMergeNode in="shadowMatrixOuter1"/>
        <feMergeNode in="shadowMatrixOuter2"/>
        <feMergeNode in="shadowMatrixOuter3"/>
      </feMerge>
    </filter>
    <rect id="generate-code-d" width="158" height="48" x="0" y="0" rx="4"/>
    <filter id="generate-code-c" width="122.8%" height="181.2%" x="-11.4%" y="-31.2%" filterUnits="objectBoundingBox">
      <feOffset dy="6" in="SourceAlpha" result="shadowOffsetOuter1"/>
      <feGaussianBlur in="shadowOffsetOuter1" result="shadowBlurOuter1" stdDeviation="5"/>
      <feColorMatrix in="shadowBlurOuter1" result="shadowMatrixOuter1" values="0 0 0 0 0.133799873   0 0 0 0 0.187156012   0 0 0 0 0.370329484  0 0 0 0.15 0"/>
      <feOffset dy="3" in="SourceAlpha" result="shadowOffsetOuter2"/>
      <feGaussianBlur in="shadowOffsetOuter2" result="shadowBlurOuter2" stdDeviation="5"/>
      <feColorMatrix in="shadowBlurOuter2" result="shadowMatrixOuter2" values="0 0 0 0 0   0 0 0 0 0   0 0 0 0 0  0 0 0 0.03 0"/>
      <feOffset in="SourceAlpha" result="shadowOffsetOuter3"/>
      <feGaussianBlur in="shadowOffsetOuter3" result="shadowBlurOuter3" stdDeviation="1"/>
      <feColorMatrix in="shadowBlurOuter3" result="shadowMatrixOuter3" values="0 0 0 0 0.133333333   0 0 0 0 0.188235294   0 0 0 0 0.368627451  0 0 0 0.166275131 0"/>
      <feMerge>
        <feMergeNode in="shadowMatrixOuter1"/>
        <feMergeNode in="shadowMatrixOuter2"/>
        <feMergeNode in="shadowMatrixOuter3"/>
      </feMerge>
    </filter>
    <rect id="generate-code-f" width="158" height="48" x="0" y="0" rx="4"/>
    <filter id="generate-code-e" width="122.8%" height="181.2%" x="-11.4%" y="-31.2%" filterUnits="objectBoundingBox">
      <feOffset dy="6" in="SourceAlpha" result="shadowOffsetOuter1"/>
      <feGaussianBlur in="shadowOffsetOuter1" result="shadowBlurOuter1" stdDeviation="5"/>
      <feColorMatrix in="shadowBlurOuter1" result="shadowMatrixOuter1" values="0 0 0 0 0.133799873   0 0 0 0 0.187156012   0 0 0 0 0.370329484  0 0 0 0.15 0"/>
      <feOffset dy="3" in="SourceAlpha" result="shadowOffsetOuter2"/>
      <feGaussianBlur in="shadowOffsetOuter2" result="shadowBlurOuter2" stdDeviation="5"/>
      <feColorMatrix in="shadowBlurOuter2" result="shadowMatrixOuter2" values="0 0 0 0 0   0 0 0 0 0   0 0 0 0 0  0 0 0 0.03 0"/>
      <feOffset in="SourceAlpha" result="shadowOffsetOuter3"/>
      <feGaussianBlur in="shadowOffsetOuter3" result="shadowBlurOuter3" stdDeviation="1"/>
      <feColorMatrix in="shadowBlurOuter3" result="shadowMatrixOuter3" values="0 0 0 0 0.133333333   0 0 0 0 0.188235294   0 0 0 0 0.368627451  0 0 0 0.166275131 0"/>
      <feMerge>
        <feMergeNode in="shadowMatrixOuter1"/>
        <feMergeNode in="shadowMatrixOuter2"/>
        <feMergeNode in="shadowMatrixOuter3"/>
      </feMerge>
    </filter>
    <radialGradient id="generate-code-g" cx="49.996%" cy="49.997%" r="50.004%" fx="49.996%" fy="49.997%" gradientTransform="scale(.99985 1)">
      <stop offset="0%" stop-color="#FFF" stop-opacity=".1"/>
      <stop offset="100%" stop-color="#FFF" stop-opacity="0"/>
    </radialGradient>
    <rect id="generate-code-i" width="158" height="48" x="0" y="0" rx="4"/>
    <filter id="generate-code-h" width="122.8%" height="181.2%" x="-11.4%" y="-31.2%" filterUnits="objectBoundingBox">
      <feOffset dy="6" in="SourceAlpha" result="shadowOffsetOuter1"/>
      <feGaussianBlur in="shadowOffsetOuter1" result="shadowBlurOuter1" stdDeviation="5"/>
      <feColorMatrix in="shadowBlurOuter1" result="shadowMatrixOuter1" values="0 0 0 0 0.133799873   0 0 0 0 0.187156012   0 0 0 0 0.370329484  0 0 0 0.15 0"/>
      <feOffset dy="3" in="SourceAlpha" result="shadowOffsetOuter2"/>
      <feGaussianBlur in="shadowOffsetOuter2" result="shadowBlurOuter2" stdDeviation="5"/>
      <feColorMatrix in="shadowBlurOuter2" result="shadowMatrixOuter2" values="0 0 0 0 0   0 0 0 0 0   0 0 0 0 0  0 0 0 0.03 0"/>
      <feOffset in="SourceAlpha" result="shadowOffsetOuter3"/>
      <feGaussianBlur in="shadowOffsetOuter3" result="shadowBlurOuter3" stdDeviation="1"/>
      <feColorMatrix in="shadowBlurOuter3" result="shadowMatrixOuter3" values="0 0 0 0 0.133333333   0 0 0 0 0.188235294   0 0 0 0 0.368627451  0 0 0 0.166275131 0"/>
      <feMerge>
        <feMergeNode in="shadowMatrixOuter1"/>
        <feMergeNode in="shadowMatrixOuter2"/>
        <feMergeNode in="shadowMatrixOuter3"/>
      </feMerge>
    </filter>
    <linearGradient id="generate-code-j" x1="-10.041%" x2="100%" y1="26.903%" y2="86.2%">
      <stop offset="0%" stop-color="#F3F4F9"/>
      <stop offset="100%" stop-color="#E4E6F1"/>
    </linearGradient>
    <rect id="generate-code-l" width="118" height="56" x="0" y="0" rx="4"/>
    <filter id="generate-code-k" width="130.5%" height="169.6%" x="-15.3%" y="-26.8%" filterUnits="objectBoundingBox">
      <feOffset dy="6" in="SourceAlpha" result="shadowOffsetOuter1"/>
      <feGaussianBlur in="shadowOffsetOuter1" result="shadowBlurOuter1" stdDeviation="5"/>
      <feColorMatrix in="shadowBlurOuter1" result="shadowMatrixOuter1" values="0 0 0 0 0.133799873   0 0 0 0 0.187156012   0 0 0 0 0.370329484  0 0 0 0.15 0"/>
      <feOffset dy="3" in="SourceAlpha" result="shadowOffsetOuter2"/>
      <feGaussianBlur in="shadowOffsetOuter2" result="shadowBlurOuter2" stdDeviation="5"/>
      <feColorMatrix in="shadowBlurOuter2" result="shadowMatrixOuter2" values="0 0 0 0 0   0 0 0 0 0   0 0 0 0 0  0 0 0 0.03 0"/>
      <feOffset in="SourceAlpha" result="shadowOffsetOuter3"/>
      <feGaussianBlur in="shadowOffsetOuter3" result="shadowBlurOuter3" stdDeviation="1"/>
      <feColorMatrix in="shadowBlurOuter3" result="shadowMatrixOuter3" values="0 0 0 0 0.133333333   0 0 0 0 0.188235294   0 0 0 0 0.368627451  0 0 0 0.166275131 0"/>
      <feMerge>
        <feMergeNode in="shadowMatrixOuter1"/>
        <feMergeNode in="shadowMatrixOuter2"/>
        <feMergeNode in="shadowMatrixOuter3"/>
      </feMerge>
    </filter>
  </defs>
  <g fill="none" fill-rule="evenodd">
    <rect width="1230" height="296" fill="#FFF" rx="6"/>
    <g transform="translate(992 16)">
      <use fill="#000" filter="url(#generate-code-a)" xlink:href="#generate-code-b"/>
      <use fill="#FFF" xlink:href="#generate-code-b"/>
      <path fill="#1D3154" fill-rule="nonzero" d="M58.0859375,18.625 L59.59375,18.625 L59.59375,26.6796875 C59.59375,27.7682346 59.2669304,28.6197886 58.6132812,29.234375 C57.9596321,29.8489614 57.0885471,30.15625 56,30.15625 C54.869786,30.15625 53.9895865,29.8671904 53.359375,29.2890625 C52.7291635,28.7109346 52.4140625,27.9010469 52.4140625,26.859375 L53.9140625,26.859375 C53.9140625,27.5104199 54.0924461,28.0182273 54.4492188,28.3828125 C54.8059914,28.7473977 55.3229133,28.9296875 56,28.9296875 C56.6197948,28.9296875 57.1210918,28.734377 57.5039062,28.34375 C57.8867207,27.953123 58.0807291,27.4062535 58.0859375,26.703125 L58.0859375,18.625 Z M67.140625,30 C67.0572912,29.8333325 66.9895836,29.5364605 66.9375,29.109375 C66.2656216,29.8072952 65.4635463,30.15625 64.53125,30.15625 C63.6979125,30.15625 63.0143256,29.9205753 62.4804688,29.4492188 C61.9466119,28.9778622 61.6796875,28.380212 61.6796875,27.65625 C61.6796875,26.7760373 62.0143196,26.0924504 62.6835938,25.6054688 C63.3528679,25.1184871 64.2942648,24.875 65.5078125,24.875 L66.9140625,24.875 L66.9140625,24.2109375 C66.9140625,23.7057266 66.7630223,23.3033869 66.4609375,23.0039062 C66.1588527,22.7044256 65.7135446,22.5546875 65.125,22.5546875 C64.6093724,22.5546875 64.1770851,22.6848945 63.828125,22.9453125 C63.4791649,23.2057305 63.3046875,23.5208315 63.3046875,23.890625 L61.8515625,23.890625 C61.8515625,23.4687479 62.0013006,23.0611999 62.3007812,22.6679688 C62.6002619,22.2747376 63.0065079,21.9635428 63.5195312,21.734375 C64.0325546,21.5052072 64.5963511,21.390625 65.2109375,21.390625 C66.1849007,21.390625 66.9479139,21.6341121 67.5,22.1210938 C68.0520861,22.6080754 68.3385416,23.2786416 68.359375,24.1328125 L68.359375,28.0234375 C68.359375,28.799483 68.4583323,29.4166644 68.65625,29.875 L68.65625,30 L67.140625,30 Z M64.7421875,28.8984375 C65.1953148,28.8984375 65.625,28.7812512 66.03125,28.546875 C66.437502,28.3124988 66.7317699,28.0078144 66.9140625,27.6328125 L66.9140625,25.8984375 L65.78125,25.8984375 C64.0104078,25.8984375 63.125,26.4166615 63.125,27.453125 C63.125,27.9062523 63.2760402,28.2604154 63.578125,28.515625 C63.8802098,28.7708346 64.2682268,28.8984375 64.7421875,28.8984375 Z M73.4140625,28.0390625 L75.5078125,21.546875 L76.984375,21.546875 L73.953125,30 L72.8515625,30 L69.7890625,21.546875 L71.265625,21.546875 L73.4140625,28.0390625 Z M83.59375,30 C83.5104162,29.8333325 83.4427086,29.5364605 83.390625,29.109375 C82.7187466,29.8072952 81.9166713,30.15625 80.984375,30.15625 C80.1510375,30.15625 79.4674506,29.9205753 78.9335938,29.4492188 C78.3997369,28.9778622 78.1328125,28.380212 78.1328125,27.65625 C78.1328125,26.7760373 78.4674446,26.0924504 79.1367188,25.6054688 C79.8059929,25.1184871 80.7473898,24.875 81.9609375,24.875 L83.3671875,24.875 L83.3671875,24.2109375 C83.3671875,23.7057266 83.2161473,23.3033869 82.9140625,23.0039062 C82.6119777,22.7044256 82.1666696,22.5546875 81.578125,22.5546875 C81.0624974,22.5546875 80.6302101,22.6848945 80.28125,22.9453125 C79.9322899,23.2057305 79.7578125,23.5208315 79.7578125,23.890625 L78.3046875,23.890625 C78.3046875,23.4687479 78.4544256,23.0611999 78.7539062,22.6679688 C79.0533869,22.2747376 79.4596329,21.9635428 79.9726562,21.734375 C80.4856796,21.5052072 81.0494761,21.390625 81.6640625,21.390625 C82.6380257,21.390625 83.4010389,21.6341121 83.953125,22.1210938 C84.5052111,22.6080754 84.7916666,23.2786416 84.8125,24.1328125 L84.8125,28.0234375 C84.8125,28.799483 84.9114573,29.4166644 85.109375,29.875 L85.109375,30 L83.59375,30 Z M81.1953125,28.8984375 C81.6484398,28.8984375 82.078125,28.7812512 82.484375,28.546875 C82.890627,28.3124988 83.1848949,28.0078144 83.3671875,27.6328125 L83.3671875,25.8984375 L82.234375,25.8984375 C80.4635328,25.8984375 79.578125,26.4166615 79.578125,27.453125 C79.578125,27.9062523 79.7291652,28.2604154 80.03125,28.515625 C80.3333348,28.7708346 80.7213518,28.8984375 81.1953125,28.8984375 Z"/>
      <path fill="#1A96DE" fill-rule="nonzero" d="M14.2988687,0 C15.6079988,2.63233581 9.60195558,4.2652288 9.04358095,6.45649642 C8.53212914,8.47415215 12.6049772,10.8108777 12.6096691,10.8108777 C11.9902959,9.97566295 11.5398426,9.29528997 10.9204694,7.99554499 C9.87410381,5.79958545 17.1235865,3.52855037 14.2988687,0 Z M18.6157123,3.60362591 C18.6157123,3.60362591 14.0454894,3.89923615 13.8108777,6.68172304 C13.7076495,7.92046945 15.0120864,8.5961493 15.0496241,9.49705578 C15.08247,10.2337342 14.261331,10.8108777 14.261331,10.8108777 C14.261331,10.8108777 15.6033068,10.618497 16.0631439,9.49705578 C16.5699038,8.25361745 15.1950833,7.34332593 15.3499263,6.34388311 C15.4953855,5.38666998 18.6157123,3.60362591 18.6157123,3.60362591 Z M10.0946385,10.8108777 C10.0946385,10.8108777 5.40241727,10.782725 5.40241727,12.0871619 C5.40241727,13.4525986 11.5257657,13.5276741 15.9129928,12.6877662 C15.9129928,12.6877662 16.9171288,12.1528536 17.2268148,11.8619353 C14.3504835,12.4390788 7.99252339,12.246698 7.99252339,11.749322 C7.99252339,11.2894849 10.0946385,10.8108777 10.0946385,10.8108777 Z M19.4415432,10.8484155 C18.9253995,10.8249547 18.3529479,10.9891827 17.8649569,11.3364065 C18.8784767,11.1158718 19.7418454,11.7399381 19.7418454,12.4625396 C19.7418454,14.0813556 17.4145036,15.6157123 17.4145036,15.6157123 C17.4145036,15.6157123 21.0181295,15.2027968 21.0181295,12.5376151 C21.0181295,11.4349429 20.30022,10.8859533 19.4415432,10.8484155 Z M8.44297663,13.213295 C7.71099012,13.213295 6.60362591,13.8185912 6.60362591,14.3769659 C6.60362591,15.503099 12.12637,16.3570838 16.213295,14.7148058 L14.7868597,13.8138993 C12.0137567,14.7241908 6.932082,14.4285806 8.44297663,13.213295 Z M9.45649642,15.6157123 C8.44766855,15.6157123 7.80483455,16.3195461 7.80483455,16.8169209 C7.80483455,18.3512776 13.8249547,18.3794303 16.213295,16.8169209 L14.7117842,15.8784767 C12.9287401,16.6949238 8.42420775,16.798152 9.45649642,15.6157123 Z M5.10211511,17.9805918 C3.66629602,17.9336702 3,18.6562716 3,19.256876 C3,22.4475864 18.6157123,22.3302812 18.6157123,19.0691871 C18.6157123,18.5295814 18.010416,18.2527412 17.7898813,18.1307429 C19.0661655,21.2510697 4.87688849,21.0211511 4.87688849,19.1818004 C4.87688849,18.764193 5.60887501,18.3512776 6.56608814,18.5436583 C6.56608814,18.5436583 6.24232517,18.1354348 5.77779497,18.0556673 C5.53849139,18.0134376 5.30857285,17.9852837 5.10211511,17.9805918 Z M21.0181295,20.383009 C18.5406367,22.8088871 11.7181477,24.2822452 5.40241727,22.7854263 C11.7463004,25.3567636 20.9899768,23.3625698 21.0181295,20.383009 Z" transform="translate(12 12)"/>
    </g>
    <g transform="translate(992 88)">
      <use fill="#000" filter="url(#generate-code-c)" xlink:href="#generate-code-d"/>
      <use fill="#FFF" xlink:href="#generate-code-d"/>
      <path fill="#1D3154" fill-rule="nonzero" d="M58.0859375,18.625 L59.59375,18.625 L59.59375,26.6796875 C59.59375,27.7682346 59.2669304,28.6197886 58.6132812,29.234375 C57.9596321,29.8489614 57.0885471,30.15625 56,30.15625 C54.869786,30.15625 53.9895865,29.8671904 53.359375,29.2890625 C52.7291635,28.7109346 52.4140625,27.9010469 52.4140625,26.859375 L53.9140625,26.859375 C53.9140625,27.5104199 54.0924461,28.0182273 54.4492188,28.3828125 C54.8059914,28.7473977 55.3229133,28.9296875 56,28.9296875 C56.6197948,28.9296875 57.1210918,28.734377 57.5039062,28.34375 C57.8867207,27.953123 58.0807291,27.4062535 58.0859375,26.703125 L58.0859375,18.625 Z M67.140625,30 C67.0572912,29.8333325 66.9895836,29.5364605 66.9375,29.109375 C66.2656216,29.8072952 65.4635463,30.15625 64.53125,30.15625 C63.6979125,30.15625 63.0143256,29.9205753 62.4804688,29.4492188 C61.9466119,28.9778622 61.6796875,28.380212 61.6796875,27.65625 C61.6796875,26.7760373 62.0143196,26.0924504 62.6835938,25.6054688 C63.3528679,25.1184871 64.2942648,24.875 65.5078125,24.875 L66.9140625,24.875 L66.9140625,24.2109375 C66.9140625,23.7057266 66.7630223,23.3033869 66.4609375,23.0039062 C66.1588527,22.7044256 65.7135446,22.5546875 65.125,22.5546875 C64.6093724,22.5546875 64.1770851,22.6848945 63.828125,22.9453125 C63.4791649,23.2057305 63.3046875,23.5208315 63.3046875,23.890625 L61.8515625,23.890625 C61.8515625,23.4687479 62.0013006,23.0611999 62.3007812,22.6679688 C62.6002619,22.2747376 63.0065079,21.9635428 63.5195312,21.734375 C64.0325546,21.5052072 64.5963511,21.390625 65.2109375,21.390625 C66.1849007,21.390625 66.9479139,21.6341121 67.5,22.1210938 C68.0520861,22.6080754 68.3385416,23.2786416 68.359375,24.1328125 L68.359375,28.0234375 C68.359375,28.799483 68.4583323,29.4166644 68.65625,29.875 L68.65625,30 L67.140625,30 Z M64.7421875,28.8984375 C65.1953148,28.8984375 65.625,28.7812512 66.03125,28.546875 C66.437502,28.3124988 66.7317699,28.0078144 66.9140625,27.6328125 L66.9140625,25.8984375 L65.78125,25.8984375 C64.0104078,25.8984375 63.125,26.4166615 63.125,27.453125 C63.125,27.9062523 63.2760402,28.2604154 63.578125,28.515625 C63.8802098,28.7708346 64.2682268,28.8984375 64.7421875,28.8984375 Z M73.4140625,28.0390625 L75.5078125,21.546875 L76.984375,21.546875 L73.953125,30 L72.8515625,30 L69.7890625,21.546875 L71.265625,21.546875 L73.4140625,28.0390625 Z M83.59375,30 C83.5104162,29.8333325 83.4427086,29.5364605 83.390625,29.109375 C82.7187466,29.8072952 81.9166713,30.15625 80.984375,30.15625 C80.1510375,30.15625 79.4674506,29.9205753 78.9335938,29.4492188 C78.3997369,28.9778622 78.1328125,28.380212 78.1328125,27.65625 C78.1328125,26.7760373 78.4674446,26.0924504 79.1367188,25.6054688 C79.8059929,25.1184871 80.7473898,24.875 81.9609375,24.875 L83.3671875,24.875 L83.3671875,24.2109375 C83.3671875,23.7057266 83.2161473,23.3033869 82.9140625,23.0039062 C82.6119777,22.7044256 82.1666696,22.5546875 81.578125,22.5546875 C81.0624974,22.5546875 80.6302101,22.6848945 80.28125,22.9453125 C79.9322899,23.2057305 79.7578125,23.5208315 79.7578125,23.890625 L78.3046875,23.890625 C78.3046875,23.4687479 78.4544256,23.0611999 78.7539062,22.6679688 C79.0533869,22.2747376 79.4596329,21.9635428 79.9726562,21.734375 C80.4856796,21.5052072 81.0494761,21.390625 81.6640625,21.390625 C82.6380257,21.390625 83.4010389,21.6341121 83.953125,22.1210938 C84.5052111,22.6080754 84.7916666,23.2786416 84.8125,24.1328125 L84.8125,28.0234375 C84.8125,28.799483 84.9114573,29.4166644 85.109375,29.875 L85.109375,30 L83.59375,30 Z M81.1953125,28.8984375 C81.6484398,28.8984375 82.078125,28.7812512 82.484375,28.546875 C82.890627,28.3124988 83.1848949,28.0078144 83.3671875,27.6328125 L83.3671875,25.8984375 L82.234375,25.8984375 C80.4635328,25.8984375 79.578125,26.4166615 79.578125,27.453125 C79.578125,27.9062523 79.7291652,28.2604154 80.03125,28.515625 C80.3333348,28.7708346 80.7213518,28.8984375 81.1953125,28.8984375 Z M90.65625,24.9296875 C89.3697852,24.559894 88.4335967,24.1054714 87.8476562,23.5664062 C87.2617158,23.0273411 86.96875,22.3619831 86.96875,21.5703125 C86.96875,20.6744747 87.3268193,19.9335967 88.0429688,19.3476562 C88.7591182,18.7617158 89.6900984,18.46875 90.8359375,18.46875 C91.6171914,18.46875 92.313799,18.6197902 92.9257812,18.921875 C93.5377635,19.2239598 94.0117171,19.6406223 94.3476562,20.171875 C94.6835954,20.7031277 94.8515625,21.283851 94.8515625,21.9140625 L93.34375,21.9140625 C93.34375,21.2265591 93.1250022,20.6861999 92.6875,20.2929688 C92.2499978,19.8997376 91.6328165,19.703125 90.8359375,19.703125 C90.0963505,19.703125 89.5195333,19.8658838 89.1054688,20.1914062 C88.6914042,20.5169287 88.484375,20.96875 88.484375,21.546875 C88.484375,22.010419 88.6809876,22.4023421 89.0742188,22.7226562 C89.4674499,23.0429704 90.136714,23.3359362 91.0820312,23.6015625 C92.0273485,23.8671888 92.7669244,24.1601546 93.3007812,24.4804688 C93.8346381,24.8007829 94.2304675,25.174477 94.4882812,25.6015625 C94.746095,26.028648 94.875,26.5312471 94.875,27.109375 C94.875,28.0312546 94.5156286,28.7695285 93.796875,29.3242188 C93.0781214,29.878909 92.1171935,30.15625 90.9140625,30.15625 C90.1328086,30.15625 89.4036492,30.0065119 88.7265625,29.7070312 C88.0494758,29.4075506 87.5273456,28.9973984 87.1601562,28.4765625 C86.7929669,27.9557266 86.609375,27.3645866 86.609375,26.703125 L88.1171875,26.703125 C88.1171875,27.3906284 88.3710912,27.9335918 88.8789062,28.3320312 C89.3867213,28.7304707 90.0650999,28.9296875 90.9140625,28.9296875 C91.7057331,28.9296875 92.3124979,28.7682308 92.734375,28.4453125 C93.1562521,28.1223942 93.3671875,27.6822945 93.3671875,27.125 C93.3671875,26.5677055 93.171877,26.1367203 92.78125,25.8320312 C92.390623,25.5273422 91.6822968,25.226564 90.65625,24.9296875 Z M99.9609375,28.9765625 C100.476565,28.9765625 100.927081,28.8203141 101.3125,28.5078125 C101.697919,28.1953109 101.911458,27.8046898 101.953125,27.3359375 L103.320312,27.3359375 C103.294271,27.8203149 103.127606,28.2812478 102.820312,28.71875 C102.513019,29.1562522 102.102867,29.505207 101.589844,29.765625 C101.07682,30.026043 100.533857,30.15625 99.9609375,30.15625 C98.8098901,30.15625 97.8945346,29.7721393 97.2148438,29.0039062 C96.5351529,28.2356732 96.1953125,27.1849025 96.1953125,25.8515625 L96.1953125,25.609375 C96.1953125,24.7864542 96.3463527,24.0546907 96.6484375,23.4140625 C96.9505223,22.7734343 97.3841118,22.2760434 97.9492188,21.921875 C98.5143257,21.5677066 99.1822878,21.390625 99.953125,21.390625 C100.901046,21.390625 101.688799,21.6744763 102.316406,22.2421875 C102.944014,22.8098987 103.278646,23.5468705 103.320312,24.453125 L101.953125,24.453125 C101.911458,23.9062473 101.704429,23.457033 101.332031,23.1054688 C100.959634,22.7539045 100.500003,22.578125 99.953125,22.578125 C99.2187463,22.578125 98.6497416,22.8424453 98.2460938,23.3710938 C97.8424459,23.8997422 97.640625,24.6640575 97.640625,25.6640625 L97.640625,25.9375 C97.640625,26.9114632 97.8411438,27.6614557 98.2421875,28.1875 C98.6432312,28.7135443 99.2161421,28.9765625 99.9609375,28.9765625 Z M109.03125,22.84375 C108.812499,22.8072915 108.575522,22.7890625 108.320312,22.7890625 C107.372391,22.7890625 106.729168,23.1927043 106.390625,24 L106.390625,30 L104.945312,30 L104.945312,21.546875 L106.351562,21.546875 L106.375,22.5234375 C106.848961,21.7682254 107.520829,21.390625 108.390625,21.390625 C108.671876,21.390625 108.885416,21.427083 109.03125,21.5 L109.03125,22.84375 Z M111.929688,30 L110.484375,30 L110.484375,21.546875 L111.929688,21.546875 L111.929688,30 Z M110.367188,19.3046875 C110.367188,19.0703113 110.438801,18.8723966 110.582031,18.7109375 C110.725261,18.5494784 110.937499,18.46875 111.21875,18.46875 C111.500001,18.46875 111.713541,18.5494784 111.859375,18.7109375 C112.005209,18.8723966 112.078125,19.0703113 112.078125,19.3046875 C112.078125,19.5390637 112.005209,19.7343742 111.859375,19.890625 C111.713541,20.0468758 111.500001,20.125 111.21875,20.125 C110.937499,20.125 110.725261,20.0468758 110.582031,19.890625 C110.438801,19.7343742 110.367188,19.5390637 110.367188,19.3046875 Z M121.382812,25.8671875 C121.382812,27.1536523 121.088545,28.1901002 120.5,28.9765625 C119.911455,29.7630248 119.114588,30.15625 118.109375,30.15625 C117.083328,30.15625 116.276045,29.8307324 115.6875,29.1796875 L115.6875,33.25 L114.242188,33.25 L114.242188,21.546875 L115.5625,21.546875 L115.632812,22.484375 C116.221357,21.7552047 117.039057,21.390625 118.085938,21.390625 C119.101568,21.390625 119.904945,21.7734337 120.496094,22.5390625 C121.087243,23.3046913 121.382812,24.3697848 121.382812,25.734375 L121.382812,25.8671875 Z M119.9375,25.703125 C119.9375,24.7499952 119.734377,23.9973986 119.328125,23.4453125 C118.921873,22.8932264 118.364587,22.6171875 117.65625,22.6171875 C116.781246,22.6171875 116.125002,23.0052045 115.6875,23.78125 L115.6875,27.8203125 C116.119794,28.5911497 116.781246,28.9765625 117.671875,28.9765625 C118.364587,28.9765625 118.915363,28.7018257 119.324219,28.1523438 C119.733075,27.6028618 119.9375,26.7864637 119.9375,25.703125 Z M125.179688,19.5 L125.179688,21.546875 L126.757812,21.546875 L126.757812,22.6640625 L125.179688,22.6640625 L125.179688,27.90625 C125.179688,28.2447934 125.249999,28.4986971 125.390625,28.6679688 C125.531251,28.8372404 125.770832,28.921875 126.109375,28.921875 C126.276043,28.921875 126.505207,28.8906253 126.796875,28.828125 L126.796875,30 C126.416665,30.1041672 126.046877,30.15625 125.6875,30.15625 C125.041663,30.15625 124.554689,29.9609395 124.226562,29.5703125 C123.898436,29.1796855 123.734375,28.6250036 123.734375,27.90625 L123.734375,22.6640625 L122.195312,22.6640625 L122.195312,21.546875 L123.734375,21.546875 L123.734375,19.5 L125.179688,19.5 Z"/>
      <g transform="translate(12 12)">
        <rect width="20" height="20" x="2" y="2" fill="#1A96DE"/>
        <path fill="#FFF" fill-rule="nonzero" d="M15.4349206,17.6250794 C15.8377778,18.2828571 16.3619048,18.7663492 17.2888889,18.7663492 C18.067619,18.7663492 18.5650794,18.3771429 18.5650794,17.8393651 C18.5650794,17.1949206 18.0539683,16.9666667 17.1968254,16.591746 L16.7269841,16.3901587 C15.3707937,15.812381 14.4698413,15.0885714 14.4698413,13.5584127 C14.4698413,12.1488889 15.5438095,11.075873 17.2222222,11.075873 C18.4171429,11.075873 19.2761905,11.491746 19.8952381,12.5806349 L18.431746,13.5203175 C18.1095238,12.9425397 17.7619048,12.7149206 17.2222222,12.7149206 C16.671746,12.7149206 16.3228571,13.064127 16.3228571,13.5203175 C16.3228571,14.084127 16.6720635,14.312381 17.4784127,14.6615873 L17.948254,14.8628571 C19.5450794,15.547619 20.4466667,16.2457143 20.4466667,17.8152381 C20.4466667,19.5073016 19.1174603,20.4342857 17.332381,20.4342857 C15.5869841,20.4342857 14.4593651,19.6025397 13.907619,18.512381 L15.4349206,17.6250794 Z M8.79587302,17.7879365 C9.09111111,18.311746 9.35968254,18.7546032 10.0053968,18.7546032 C10.6228571,18.7546032 11.012381,18.5130159 11.012381,17.5736508 L11.012381,11.1831746 L12.891746,11.1831746 L12.891746,17.5990476 C12.891746,19.5450794 11.7507937,20.4307937 10.0853968,20.4307937 C8.58063492,20.4307937 7.70920635,19.6520635 7.26603175,18.714127 L8.79587302,17.7879365 Z"/>
      </g>
    </g>
    <g transform="translate(992 160)">
      <use fill="#000" filter="url(#generate-code-e)" xlink:href="#generate-code-f"/>
      <use fill="#FFF" xlink:href="#generate-code-f"/>
      <path fill="#1D3154" fill-rule="nonzero" d="M55.1484375,28.375 C56.1692708,28.3645833 57.0638021,28.1432292 57.8320312,27.7109375 C58.6002604,27.2786458 59.1914062,26.6588542 59.6054688,25.8515625 C60.0195312,25.0442708 60.2265625,24.1041667 60.2265625,23.03125 L60.2265625,23.03125 L60.2265625,22.3046875 C60.2213542,21.2578125 60.0117188,20.3307292 59.5976562,19.5234375 C59.1835938,18.7161458 58.5963542,18.09375 57.8359375,17.65625 C57.0755208,17.21875 56.2005208,17 55.2109375,17 L55.2109375,17 L52,17 L52,28.375 L55.1484375,28.375 Z M55.078125,27.1484375 L53.5,27.1484375 L53.5,18.234375 L55.25,18.234375 C56.3645833,18.2447917 57.2252604,18.6080729 57.8320312,19.3242188 C58.4388021,20.0403646 58.7421875,21.0442708 58.7421875,22.3359375 L58.7421875,22.3359375 L58.7421875,23 C58.7421875,24.328125 58.4205729,25.3515625 57.7773438,26.0703125 C57.1341146,26.7890625 56.234375,27.1484375 55.078125,27.1484375 L55.078125,27.1484375 Z M64.875,28.53125 C65.8072917,28.53125 66.609375,28.1822917 67.28125,27.484375 C67.3333333,27.9114583 67.4010417,28.2083333 67.484375,28.375 L67.484375,28.375 L69,28.375 L69,28.25 C68.8020833,27.7916667 68.703125,27.1744792 68.703125,26.3984375 L68.703125,26.3984375 L68.703125,22.5078125 C68.6822917,21.6536458 68.3958333,20.9830729 67.84375,20.4960938 C67.2916667,20.0091146 66.5286458,19.765625 65.5546875,19.765625 C64.9401042,19.765625 64.3763021,19.8802083 63.8632812,20.109375 C63.3502604,20.3385417 62.9440104,20.6497396 62.6445312,21.0429688 C62.3450521,21.4361979 62.1953125,21.84375 62.1953125,22.265625 L62.1953125,22.265625 L63.6484375,22.265625 C63.6484375,21.8958333 63.8229167,21.5807292 64.171875,21.3203125 C64.5208333,21.0598958 64.953125,20.9296875 65.46875,20.9296875 C66.0572917,20.9296875 66.5026042,21.0794271 66.8046875,21.3789062 C67.1067708,21.6783854 67.2578125,22.0807292 67.2578125,22.5859375 L67.2578125,22.5859375 L67.2578125,23.25 L65.8515625,23.25 C64.6380208,23.25 63.6966146,23.4934896 63.0273438,23.9804688 C62.3580729,24.4674479 62.0234375,25.1510417 62.0234375,26.03125 C62.0234375,26.7552083 62.2903646,27.3528646 62.8242188,27.8242188 C63.3580729,28.2955729 64.0416667,28.53125 64.875,28.53125 Z M65.0859375,27.2734375 C64.6119792,27.2734375 64.2239583,27.1458333 63.921875,26.890625 C63.6197917,26.6354167 63.46875,26.28125 63.46875,25.828125 C63.46875,24.7916667 64.3541667,24.2734375 66.125,24.2734375 L66.125,24.2734375 L67.2578125,24.2734375 L67.2578125,26.0078125 C67.0755208,26.3828125 66.78125,26.6875 66.375,26.921875 C65.96875,27.15625 65.5390625,27.2734375 65.0859375,27.2734375 Z M72.4140625,28.375 L72.4140625,22.375 C72.7526042,21.5677083 73.3958333,21.1640625 74.34375,21.1640625 C74.5989583,21.1640625 74.8359375,21.1822917 75.0546875,21.21875 L75.0546875,21.21875 L75.0546875,19.875 C74.9088542,19.8020833 74.6953125,19.765625 74.4140625,19.765625 C73.5442708,19.765625 72.8723958,20.1432292 72.3984375,20.8984375 L72.3984375,20.8984375 L72.375,19.921875 L70.96875,19.921875 L70.96875,28.375 L72.4140625,28.375 Z M79.2421875,28.53125 C79.6015625,28.53125 79.9713542,28.4791667 80.3515625,28.375 L80.3515625,28.375 L80.3515625,27.203125 C80.0598958,27.265625 79.8307292,27.296875 79.6640625,27.296875 C79.3255208,27.296875 79.0859375,27.2122396 78.9453125,27.0429688 C78.8046875,26.8736979 78.734375,26.6197917 78.734375,26.28125 L78.734375,26.28125 L78.734375,21.0390625 L80.3125,21.0390625 L80.3125,19.921875 L78.734375,19.921875 L78.734375,17.875 L77.2890625,17.875 L77.2890625,19.921875 L75.75,19.921875 L75.75,21.0390625 L77.2890625,21.0390625 L77.2890625,26.28125 C77.2890625,27 77.453125,27.5546875 77.78125,27.9453125 C78.109375,28.3359375 78.5963542,28.53125 79.2421875,28.53125 Z"/>
      <g transform="translate(13 13)">
        <path fill="#01579B" fill-rule="nonzero" d="M4.29600017,16.3410006 L0.804000032,12.8490005 C0.390000015,12.4230005 0.132000005,11.8230005 0.132000005,11.2365004 C0.132000005,10.9650004 0.285000011,10.5405004 0.400500016,10.2960004 L3.62400014,3.58050014 L4.29600017,16.3410006 Z"/>
        <path fill="#40C4FF" fill-rule="nonzero" d="M16.2510006,4.25250017 L12.7590005,0.76050003 C12.4545005,0.454500018 11.8185005,0.0885000035 11.2815004,0.0885000035 C10.8195004,0.0885000035 10.3665004,0.181500007 10.0725004,0.357000014 L3.62550014,3.58050014 L16.2510006,4.25250017 Z"/>
        <polygon fill="#40C4FF" fill-rule="nonzero" points="8.46 20.505 16.923 20.505 16.923 16.878 10.61 14.864 4.835 16.878"/>
        <path fill="#29B6F6" fill-rule="nonzero" d="M3.62550014,14.4615006 C3.62550014,15.5385006 3.76050015,15.8040006 4.29750017,16.3425006 L4.83450019,16.8795007 L16.9230007,16.8795007 L11.0130004,10.1640004 L3.62550014,3.58200014 L3.62550014,14.4615006 Z"/>
        <path fill="#01579B" fill-rule="nonzero" d="M14.3700006,3.58050014 L3.62400014,3.58050014 L16.9215007,16.8780007 L20.5485008,16.8780007 L20.5485008,8.55000034 L16.2510006,4.25250017 C15.6480006,3.64650014 15.1110006,3.58050014 14.3700006,3.58050014 Z"/>
        <path fill="#FFF" fill-rule="nonzero" d="M4.43100018,16.4760007 C3.89400015,15.9360006 3.75900015,15.4050006 3.75900015,14.4615006 L3.75900015,3.71550015 L3.62400014,3.58050014 L3.62400014,14.4600006 C3.62550014,15.4050006 3.62550014,15.6660006 4.43100018,16.4760007 L4.83450019,16.8795007 L4.83450019,16.8795007 L4.43100018,16.4760007 Z" opacity=".2"/>
        <polygon fill="#263238" fill-rule="nonzero" points="20.415 8.417 20.415 16.745 16.788 16.745 16.923 16.878 20.55 16.878 20.55 8.552" opacity=".2"/>
        <path fill="#FFF" fill-rule="nonzero" d="M16.2510006,4.25250017 C15.5850006,3.58650014 15.0390006,3.58050014 14.2365006,3.58050014 L3.62550014,3.58050014 L3.76050015,3.71550015 L14.2380006,3.71550015 C14.6370006,3.71550015 15.6495006,3.64800014 16.2510006,4.25250017 L16.2510006,4.25250017 Z" opacity=".2"/>
        <path fill="url(#generate-code-g)" fill-rule="nonzero" d="M20.4150008,8.41650033 L16.2510006,4.25250017 L12.7590005,0.76050003 C12.4545005,0.454500018 11.8185005,0.0885000035 11.2815004,0.0885000035 C10.8195004,0.0885000035 10.3665004,0.181500007 10.0725004,0.357000014 L3.62550014,3.58050014 L0.402000016,10.2960004 C0.286500011,10.5405004 0.133500005,10.9650004 0.133500005,11.2365004 C0.133500005,11.8230005 0.391500016,12.4230005 0.805500032,12.8490005 L4.02450016,16.0440006 C4.10100016,16.1385006 4.19100017,16.2345006 4.29900017,16.3410006 L4.43400018,16.4760007 L4.83750019,16.8795007 L8.32950033,20.3715008 L8.46450034,20.5065008 L16.7925007,20.5065008 L16.9275007,20.5065008 L16.9275007,16.8795007 L20.5545008,16.8795007 L20.5545008,16.8705007 L20.5545008,8.55150034 L20.4150008,8.41650033 Z" opacity=".2"/>
      </g>
    </g>
    <g transform="translate(992 232)">
      <use fill="#000" filter="url(#generate-code-h)" xlink:href="#generate-code-i"/>
      <use fill="#FFF" xlink:href="#generate-code-i"/>
      <g fill="#334C76" transform="translate(58 23)">
        <circle cx="1.5" cy="1.5" r="1.5"/>
        <circle cx="9.5" cy="1.5" r="1.5"/>
        <circle cx="17.5" cy="1.5" r="1.5"/>
      </g>
    </g>
    <g transform="translate(501 38)">
      <path stroke="url(#generate-code-j)" stroke-width="10" d="M114.431081,0.733594508 L227.55733,193.246684 C227.697232,193.484764 227.617644,193.791179 227.379564,193.931081 C227.302772,193.976207 227.215319,194 227.126249,194 L0.87375143,194 C0.597609056,194 0.37375143,193.776142 0.37375143,193.5 C0.37375143,193.41093 0.397544472,193.323477 0.442670121,193.246684 L113.568919,0.733594508 C113.708821,0.495514875 114.015236,0.415926555 114.253316,0.55582902 C114.326744,0.598977358 114.387933,0.660166635 114.431081,0.733594508 Z"/>
      <path fill="#1D3154" fill-rule="nonzero" d="M86.1523438,137.773438 L86.1523438,142 L84.1757812,142 L84.1757812,130.625 L88.5273438,130.625 C89.7981834,130.625 90.8072879,130.955726 91.5546875,131.617188 C92.3020871,132.278649 92.6757812,133.15364 92.6757812,134.242188 C92.6757812,135.356776 92.3098995,136.223955 91.578125,136.84375 C90.8463505,137.463545 89.8216212,137.773438 88.5039062,137.773438 L86.1523438,137.773438 Z M86.1523438,136.1875 L88.5273438,136.1875 C89.2304723,136.1875 89.7669252,136.022137 90.1367188,135.691406 C90.5065123,135.360675 90.6914062,134.882816 90.6914062,134.257812 C90.6914062,133.643226 90.5039081,133.152346 90.1289062,132.785156 C89.7539044,132.417967 89.2382845,132.229167 88.5820312,132.21875 L86.1523438,132.21875 L86.1523438,136.1875 Z M98.6445312,135.28125 C98.39453,135.239583 98.1367201,135.21875 97.8710938,135.21875 C97.0012977,135.21875 96.4153661,135.55208 96.1132812,136.21875 L96.1132812,142 L94.2148438,142 L94.2148438,133.546875 L96.0273438,133.546875 L96.0742188,134.492188 C96.5325544,133.757809 97.1679647,133.390625 97.9804688,133.390625 C98.2513034,133.390625 98.4752595,133.427083 98.6523438,133.5 L98.6445312,135.28125 Z M99.4882812,137.695312 C99.4882812,136.867183 99.6523421,136.121097 99.9804688,135.457031 C100.308595,134.792965 100.769528,134.282554 101.363281,133.925781 C101.957034,133.569009 102.639319,133.390625 103.410156,133.390625 C104.550787,133.390625 105.476559,133.757809 106.1875,134.492188 C106.898441,135.226566 107.282552,136.200515 107.339844,137.414062 L107.347656,137.859375 C107.347656,138.692712 107.187502,139.437497 106.867188,140.09375 C106.546873,140.750003 106.088545,141.257811 105.492188,141.617188 C104.89583,141.976564 104.207035,142.15625 103.425781,142.15625 C102.233067,142.15625 101.278649,141.759119 100.5625,140.964844 C99.8463506,140.170569 99.4882812,139.111986 99.4882812,137.789062 L99.4882812,137.695312 Z M101.386719,137.859375 C101.386719,138.729171 101.566404,139.410154 101.925781,139.902344 C102.285158,140.394534 102.785153,140.640625 103.425781,140.640625 C104.066409,140.640625 104.565102,140.390627 104.921875,139.890625 C105.278648,139.390623 105.457031,138.658859 105.457031,137.695312 C105.457031,136.841142 105.273439,136.164065 104.90625,135.664062 C104.539061,135.16406 104.040368,134.914062 103.410156,134.914062 C102.790361,134.914062 102.298179,135.160154 101.933594,135.652344 C101.569009,136.144534 101.386719,136.880203 101.386719,137.859375 Z M111.332031,131.492188 L111.332031,133.546875 L112.824219,133.546875 L112.824219,134.953125 L111.332031,134.953125 L111.332031,139.671875 C111.332031,139.994793 111.395833,140.227864 111.523438,140.371094 C111.651042,140.514324 111.878905,140.585938 112.207031,140.585938 C112.425782,140.585938 112.647134,140.559896 112.871094,140.507812 L112.871094,141.976562 C112.4388,142.096355 112.022137,142.15625 111.621094,142.15625 C110.162753,142.15625 109.433594,141.351571 109.433594,139.742188 L109.433594,134.953125 L108.042969,134.953125 L108.042969,133.546875 L109.433594,133.546875 L109.433594,131.492188 L111.332031,131.492188 Z M113.917969,137.695312 C113.917969,136.867183 114.08203,136.121097 114.410156,135.457031 C114.738283,134.792965 115.199216,134.282554 115.792969,133.925781 C116.386722,133.569009 117.069007,133.390625 117.839844,133.390625 C118.980474,133.390625 119.906246,133.757809 120.617188,134.492188 C121.328129,135.226566 121.712239,136.200515 121.769531,137.414062 L121.777344,137.859375 C121.777344,138.692712 121.617189,139.437497 121.296875,140.09375 C120.976561,140.750003 120.518232,141.257811 119.921875,141.617188 C119.325518,141.976564 118.636723,142.15625 117.855469,142.15625 C116.662754,142.15625 115.708337,141.759119 114.992188,140.964844 C114.276038,140.170569 113.917969,139.111986 113.917969,137.789062 L113.917969,137.695312 Z M115.816406,137.859375 C115.816406,138.729171 115.996092,139.410154 116.355469,139.902344 C116.714846,140.394534 117.214841,140.640625 117.855469,140.640625 C118.496097,140.640625 118.99479,140.390627 119.351562,139.890625 C119.708335,139.390623 119.886719,138.658859 119.886719,137.695312 C119.886719,136.841142 119.703127,136.164065 119.335938,135.664062 C118.968748,135.16406 118.470055,134.914062 117.839844,134.914062 C117.220049,134.914062 116.727866,135.160154 116.363281,135.652344 C115.998696,136.144534 115.816406,136.880203 115.816406,137.859375 Z M130.800781,137.859375 C130.800781,139.171882 130.507815,140.216142 129.921875,140.992188 C129.335935,141.768233 128.529953,142.15625 127.503906,142.15625 C126.514318,142.15625 125.743492,141.799483 125.191406,141.085938 L125.097656,142 L123.378906,142 L123.378906,130 L125.277344,130 L125.277344,134.359375 C125.824221,133.713538 126.561193,133.390625 127.488281,133.390625 C128.519536,133.390625 129.329424,133.773434 129.917969,134.539062 C130.506513,135.304691 130.800781,136.374993 130.800781,137.75 L130.800781,137.859375 Z M128.902344,137.695312 C128.902344,136.778641 128.740887,136.091148 128.417969,135.632812 C128.09505,135.174477 127.626305,134.945312 127.011719,134.945312 C126.188798,134.945312 125.610679,135.304684 125.277344,136.023438 L125.277344,139.507812 C125.615887,140.242191 126.199215,140.609375 127.027344,140.609375 C127.621097,140.609375 128.079425,140.388023 128.402344,139.945312 C128.725262,139.502602 128.891927,138.833338 128.902344,137.9375 L128.902344,137.695312 Z M137.511719,141.171875 C136.954424,141.828128 136.162766,142.15625 135.136719,142.15625 C134.220047,142.15625 133.526044,141.888024 133.054688,141.351562 C132.583331,140.815101 132.347656,140.039068 132.347656,139.023438 L132.347656,133.546875 L134.246094,133.546875 L134.246094,139 C134.246094,140.072922 134.691402,140.609375 135.582031,140.609375 C136.503911,140.609375 137.1263,140.278649 137.449219,139.617188 L137.449219,133.546875 L139.347656,133.546875 L139.347656,142 L137.558594,142 L137.511719,141.171875 Z M141.949219,142 L141.949219,134.953125 L140.660156,134.953125 L140.660156,133.546875 L141.949219,133.546875 L141.949219,132.773438 C141.949219,131.835938 142.209633,131.111982 142.730469,130.601562 C143.251305,130.091143 143.980464,129.835938 144.917969,129.835938 C145.251304,129.835938 145.605467,129.882812 145.980469,129.976562 L145.933594,131.460938 C145.725259,131.419271 145.483074,131.398438 145.207031,131.398438 C144.300777,131.398438 143.847656,131.864579 143.847656,132.796875 L143.847656,133.546875 L145.566406,133.546875 L145.566406,134.953125 L143.847656,134.953125 L143.847656,142 L141.949219,142 Z M91.9023438,159.296875 C91.7877598,160.510423 91.3398477,161.457028 90.5585938,162.136719 C89.7773398,162.81641 88.7382877,163.15625 87.4414062,163.15625 C86.5351517,163.15625 85.7369826,162.941408 85.046875,162.511719 C84.3567674,162.082029 83.8242206,161.471358 83.4492188,160.679688 C83.0742169,159.888017 82.8789063,158.96875 82.8632812,157.921875 L82.8632812,156.859375 C82.8632812,155.786453 83.0533835,154.84115 83.4335938,154.023438 C83.813804,153.205725 84.3593714,152.575523 85.0703125,152.132812 C85.7812536,151.690102 86.6028599,151.46875 87.5351562,151.46875 C88.7903709,151.46875 89.8007774,151.809892 90.5664062,152.492188 C91.3320351,153.174483 91.7773431,154.138015 91.9023438,155.382812 L89.9335938,155.382812 C89.8398433,154.5651 89.6015644,153.975262 89.21875,153.613281 C88.8359356,153.2513 88.2747433,153.070312 87.5351562,153.070312 C86.675777,153.070312 86.0156273,153.384111 85.5546875,154.011719 C85.0937477,154.639326 84.858073,155.55989 84.8476562,156.773438 L84.8476562,157.78125 C84.8476562,159.010423 85.0677061,159.947913 85.5078125,160.59375 C85.9479189,161.239587 86.5924437,161.5625 87.4414062,161.5625 C88.2174518,161.5625 88.8007793,161.388023 89.1914062,161.039062 C89.5820332,160.690102 89.8294266,160.109379 89.9335938,159.296875 L91.9023438,159.296875 Z M93.1289062,158.695312 C93.1289062,157.867183 93.2929671,157.121097 93.6210938,156.457031 C93.9492204,155.792965 94.4101533,155.282554 95.0039062,154.925781 C95.5976592,154.569009 96.2799441,154.390625 97.0507812,154.390625 C98.191412,154.390625 99.1171839,154.757809 99.828125,155.492188 C100.539066,156.226566 100.923177,157.200515 100.980469,158.414062 L100.988281,158.859375 C100.988281,159.692712 100.828127,160.437497 100.507812,161.09375 C100.187498,161.750003 99.7291696,162.257811 99.1328125,162.617188 C98.5364554,162.976564 97.8476602,163.15625 97.0664062,163.15625 C95.873692,163.15625 94.9192744,162.759119 94.203125,161.964844 C93.4869756,161.170569 93.1289062,160.111986 93.1289062,158.789062 L93.1289062,158.695312 Z M95.0273438,158.859375 C95.0273438,159.729171 95.2070295,160.410154 95.5664062,160.902344 C95.925783,161.394534 96.425778,161.640625 97.0664062,161.640625 C97.7070345,161.640625 98.2057274,161.390627 98.5625,160.890625 C98.9192726,160.390623 99.0976562,159.658859 99.0976562,158.695312 C99.0976562,157.841142 98.9140643,157.164065 98.546875,156.664062 C98.1796857,156.16406 97.6809927,155.914062 97.0507812,155.914062 C96.4309865,155.914062 95.9388039,156.160154 95.5742188,156.652344 C95.2096336,157.144534 95.0273438,157.880203 95.0273438,158.859375 Z M104.378906,154.546875 L104.433594,155.429688 C105.027347,154.736976 105.839839,154.390625 106.871094,154.390625 C108.001308,154.390625 108.774738,154.822912 109.191406,155.6875 C109.805993,154.822912 110.670567,154.390625 111.785156,154.390625 C112.717453,154.390625 113.411456,154.648435 113.867188,155.164062 C114.322919,155.67969 114.55599,156.440099 114.566406,157.445312 L114.566406,163 L112.667969,163 L112.667969,157.5 C112.667969,156.963539 112.550782,156.570314 112.316406,156.320312 C112.08203,156.070311 111.694013,155.945312 111.152344,155.945312 C110.72005,155.945312 110.367189,156.061197 110.09375,156.292969 C109.820311,156.524741 109.628907,156.828123 109.519531,157.203125 L109.527344,163 L107.628906,163 L107.628906,157.4375 C107.602864,156.442703 107.095057,155.945312 106.105469,155.945312 C105.345048,155.945312 104.805991,156.255205 104.488281,156.875 L104.488281,163 L102.589844,163 L102.589844,154.546875 L104.378906,154.546875 Z M123.917969,158.859375 C123.917969,160.166673 123.621097,161.209632 123.027344,161.988281 C122.433591,162.766931 121.636724,163.15625 120.636719,163.15625 C119.709631,163.15625 118.967451,162.851566 118.410156,162.242188 L118.410156,166.25 L116.511719,166.25 L116.511719,154.546875 L118.261719,154.546875 L118.339844,155.40625 C118.897138,154.729163 119.654943,154.390625 120.613281,154.390625 C121.644536,154.390625 122.453122,154.774736 123.039062,155.542969 C123.625003,156.311202 123.917969,157.377597 123.917969,158.742188 L123.917969,158.859375 Z M122.027344,158.695312 C122.027344,157.851558 121.859377,157.182294 121.523438,156.6875 C121.187498,156.192706 120.707034,155.945312 120.082031,155.945312 C119.305986,155.945312 118.7487,156.265622 118.410156,156.90625 L118.410156,160.65625 C118.753908,161.312503 119.316402,161.640625 120.097656,161.640625 C120.701826,161.640625 121.174477,161.397138 121.515625,160.910156 C121.856773,160.423175 122.027344,159.684901 122.027344,158.695312 Z M127.542969,163 L125.644531,163 L125.644531,154.546875 L127.542969,154.546875 L127.542969,163 Z M125.527344,152.351562 C125.527344,152.059894 125.619791,151.817709 125.804688,151.625 C125.989584,151.432291 126.253905,151.335938 126.597656,151.335938 C126.941408,151.335938 127.20703,151.432291 127.394531,151.625 C127.582032,151.817709 127.675781,152.059894 127.675781,152.351562 C127.675781,152.638022 127.582032,152.876301 127.394531,153.066406 C127.20703,153.256511 126.941408,153.351562 126.597656,153.351562 C126.253905,153.351562 125.989584,153.256511 125.804688,153.066406 C125.619791,152.876301 125.527344,152.638022 125.527344,152.351562 Z M131.628906,163 L129.730469,163 L129.730469,151 L131.628906,151 L131.628906,163 Z M137.417969,163.15625 C136.214838,163.15625 135.239587,162.777348 134.492188,162.019531 C133.744788,161.261715 133.371094,160.25261 133.371094,158.992188 L133.371094,158.757812 C133.371094,157.914058 133.533853,157.16016 133.859375,156.496094 C134.184897,155.832028 134.641924,155.315106 135.230469,154.945312 C135.819013,154.575519 136.475257,154.390625 137.199219,154.390625 C138.350266,154.390625 139.23958,154.757809 139.867188,155.492188 C140.494795,156.226566 140.808594,157.265618 140.808594,158.609375 L140.808594,159.375 L135.285156,159.375 C135.342448,160.07292 135.575519,160.624998 135.984375,161.03125 C136.393231,161.437502 136.907549,161.640625 137.527344,161.640625 C138.39714,161.640625 139.105466,161.289066 139.652344,160.585938 L140.675781,161.5625 C140.337238,162.067711 139.885419,162.459634 139.320312,162.738281 C138.755206,163.016928 138.121097,163.15625 137.417969,163.15625 Z M137.191406,155.914062 C136.67057,155.914062 136.250002,156.096352 135.929688,156.460938 C135.609373,156.825523 135.404948,157.33333 135.316406,157.984375 L138.933594,157.984375 L138.933594,157.84375 C138.891927,157.20833 138.722658,156.727866 138.425781,156.402344 C138.128905,156.076821 137.717451,155.914062 137.191406,155.914062 Z M146.707031,156.28125 C146.45703,156.239583 146.19922,156.21875 145.933594,156.21875 C145.063798,156.21875 144.477866,156.55208 144.175781,157.21875 L144.175781,163 L142.277344,163 L142.277344,154.546875 L144.089844,154.546875 L144.136719,155.492188 C144.595054,154.757809 145.230465,154.390625 146.042969,154.390625 C146.313803,154.390625 146.53776,154.427083 146.714844,154.5 L146.707031,156.28125 Z"/>
      <line x1="46.5" x2="181" y1="110.5" y2="110.5" stroke="#D5D8E4" stroke-dasharray="5"/>
      <g fill-rule="nonzero" transform="translate(94 62)">
        <path fill="#656F72" d="M37.6619296,13.6922543 C37.317919,13.3275443 37.0649701,12.879472 36.8828468,12.3480375 C36.7007236,11.8270233 36.5691901,11.2643279 36.4983644,10.6495311 C36.4275387,10.0451546 36.3870669,9.44077805 36.3870669,8.84682181 L36.3870669,3.80340396 C36.3870669,2.68843348 36.1442359,1.77144842 35.6585739,1.06286905 C35.1830299,0.354289684 34.454537,-2.85993451e-13 33.483213,-2.85993451e-13 L31.81375,-2.85993451e-13 L31.81375,1.04202848 L33.0481408,1.04202848 C33.5135669,1.04202848 33.8778134,1.15665162 34.1611162,1.38589788 C34.4343011,1.60472386 34.6366602,1.89649184 34.7580757,2.24036124 C34.8794912,2.58423064 34.9604349,2.96978117 34.9907887,3.37617228 C35.0312606,3.79298367 35.0514965,4.17853421 35.0514965,4.55366447 L35.0514965,9.55540118 C35.0514965,10.3265023 35.1223222,11.0142411 35.2639736,11.6290379 C35.405625,12.2334144 35.5978662,12.7648489 35.8406972,13.2129212 C36.0835282,13.6609934 36.3465951,14.0257034 36.6298979,14.3070511 C36.9030827,14.598819 37.1863856,14.7863842 37.4798063,14.890587 L37.4798063,14.9322681 C36.852493,15.1302536 36.2858873,15.6721084 35.7901074,16.5474123 C35.2943275,17.4331365 35.0514965,18.6002084 35.0514965,20.0382077 L35.0514965,25.4150747 C35.0514965,25.7902049 35.0211426,26.1757555 34.9705528,26.5925669 C34.930081,26.998958 34.8390194,27.3740882 34.697368,27.7283779 C34.5658345,28.0722473 34.3735933,28.3640153 34.1004085,28.5828413 C33.8373415,28.8120875 33.483213,28.9267107 33.0481408,28.9267107 L31.81375,28.9267107 L31.81375,30 L33.5236849,30 C34.4140651,30 35.1223222,29.6561306 35.648456,28.9579715 C36.1644718,28.2598124 36.4275387,27.3428274 36.4275387,26.196596 L36.4275387,20.9760333 C36.4275387,19.3608892 36.5894261,18.0896144 36.9334366,17.1830497 C37.2673292,16.2764849 37.9654683,15.6825287 38.9975,15.4116013 L38.9975,14.4841959 C38.4410123,14.3278916 37.9958222,14.0673845 37.6619296,13.6922543 Z M3.37939789,1.05098855 C2.8735,1.74817898 2.62055106,2.67429761 2.62055106,3.83975026 L2.62055106,8.87617066 C2.62055106,9.46930281 2.58007923,10.0728408 2.50925352,10.6763788 C2.43842782,11.2903226 2.30689437,11.8522373 2.12477113,12.3725286 C1.94264789,12.9032258 1.67958099,13.3506764 1.32545246,13.7148803 C0.981441901,14.0894901 0.536251761,14.3496358 -6.92779167e-13,14.5057232 L-6.92779167e-13,15.4318418 C1.04214965,15.7023933 1.73017077,16.2955255 2.07418134,17.2008325 C2.40807394,18.1061394 2.58007923,19.3756504 2.58007923,20.9885536 L2.58007923,26.201873 C2.58007923,27.3985432 2.84314613,28.3246618 3.35916197,29.0010406 C3.87517782,29.6670135 4.58343486,30 5.4839331,30 L7.18375,30 L7.18375,28.9281998 L5.94935915,28.9281998 C5.51428697,28.9281998 5.17027641,28.8137357 4.89709155,28.5848075 C4.63402465,28.3662851 4.43166549,28.074922 4.30013204,27.7315297 C4.16859859,27.3777315 4.07753697,27.0031217 4.02694718,26.5972945 C3.98647535,26.1810614 3.95612148,25.7960458 3.95612148,25.421436 L3.95612148,20.0520291 C3.95612148,18.616025 3.71329049,17.4505723 3.21751056,16.566077 C2.72173063,15.6919875 2.155125,15.1508845 1.52781162,14.9531738 L1.52781162,14.9115505 C1.79087852,14.8074922 2.07418134,14.6201873 2.35748415,14.3288241 C2.65090493,14.0478668 2.91397183,13.6836629 3.14668486,13.2362123 C3.36927993,12.7887617 3.56152113,12.2580645 3.72340845,11.6545265 C3.87517782,11.0405827 3.95612148,10.3537981 3.95612148,9.58376691 L3.95612148,4.58896982 C3.95612148,4.21436004 3.98647535,3.82934443 4.02694718,3.41311134 C4.07753697,3.00728408 4.16859859,2.62226847 4.30013204,2.27887617 C4.43166549,1.93548387 4.63402465,1.64412071 4.89709155,1.42559834 C5.17027641,1.19667014 5.51428697,1.08220604 5.94935915,1.08220604 L7.18375,1.08220604 L7.18375,0 L5.4839331,0 C4.58343486,0 3.88529577,0.353798127 3.37939789,1.05098855 Z"/>
        <path fill="#1A96DE" d="M29.047619,22 C29.753937,22 30,22.2770083 30,23 L30,25 C30,25.7229917 29.753937,26 29.047619,26 L10.952381,26 C10.246063,26 10,25.7229917 10,25 L10,23 C10,22.2770083 10.246063,22 10.952381,22 L29.047619,22 Z M27,23 C26.4477153,23 26,23.4477153 26,24 C26,24.5522847 26.4477153,25 27,25 C27.5522847,25 28,24.5522847 28,24 C28,23.4477153 27.5522847,23 27,23 Z M29.047619,16 C29.753937,16 30,16.2770083 30,17 L30,19 C30,19.734072 29.753937,20 29.047619,20 L10.952381,20 C10.246063,20 10,19.734072 10,19 L10,17 C10,16.2770083 10.246063,16 10.952381,16 L29.047619,16 Z M27,17 C26.4477153,17 26,17.4477153 26,18 C26,18.5522847 26.4477153,19 27,19 C27.5522847,19 28,18.5522847 28,18 C28,17.4477153 27.5522847,17 27,17 Z M29.047619,10 C29.753937,10 30,10.2770083 30,11 L30,13 C30,13.7229917 29.753937,14 29.047619,14 L10.952381,14 C10.246063,14 10,13.7229917 10,13 L10,11 C10,10.2770083 10.246063,10 10.952381,10 L29.047619,10 Z M27,11 C26.4477153,11 26,11.4477153 26,12 C26,12.5522847 26.4477153,13 27,13 C27.5522847,13 28,12.5522847 28,12 C28,11.4477153 27.5522847,11 27,11 Z M29.047619,4 C29.753937,4 30,4.27700831 30,5 L30,7 C30,7.72299169 29.753937,8 29.047619,8 L10.952381,8 C10.246063,8 10,7.72299169 10,7 L10,5 C10,4.27700831 10.246063,4 10.952381,4 L29.047619,4 Z M27,5 C26.4477153,5 26,5.44771525 26,6 C26,6.55228475 26.4477153,7 27,7 C27.5522847,7 28,6.55228475 28,6 C28,5.44771525 27.5522847,5 27,5 Z"/>
      </g>
    </g>
    <g transform="translate(330 120)">
      <use fill="#000" filter="url(#generate-code-k)" xlink:href="#generate-code-l"/>
      <use fill="#FFF" xlink:href="#generate-code-l"/>
      <path fill="#1D3154" fill-rule="nonzero" d="M31.7421875,30.8828125 C31.7421875,30.7005199 31.7721351,30.5286466 31.8320312,30.3671875 C31.8919274,30.2057284 31.9791661,30.0664068 32.09375,29.9492188 C32.2083339,29.8320307 32.3502596,29.7395837 32.5195312,29.671875 C32.6888029,29.6041663 32.8828114,29.5703125 33.1015625,29.5703125 C33.3203136,29.5703125 33.5143221,29.6041663 33.6835938,29.671875 C33.8528654,29.7395837 33.9960932,29.8320307 34.1132812,29.9492188 C34.2304693,30.0664068 34.3190101,30.2057284 34.3789062,30.3671875 C34.4388024,30.5286466 34.46875,30.7005199 34.46875,30.8828125 C34.46875,31.0651051 34.4388024,31.2330721 34.3789062,31.3867188 C34.3190101,31.5403654 34.2304693,31.6744786 34.1132812,31.7890625 C33.9960932,31.9036464 33.8528654,31.9934893 33.6835938,32.0585938 C33.5143221,32.1236982 33.3203136,32.15625 33.1015625,32.15625 C32.8828114,32.15625 32.6888029,32.1236982 32.5195312,32.0585938 C32.3502596,31.9934893 32.2083339,31.9036464 32.09375,31.7890625 C31.9791661,31.6744786 31.8919274,31.5403654 31.8320312,31.3867188 C31.7721351,31.2330721 31.7421875,31.0651051 31.7421875,30.8828125 Z M46.40625,27.859375 C46.40625,28.4739614 46.3333341,29.0442682 46.1875,29.5703125 C46.0416659,30.0963568 45.8281264,30.5507793 45.546875,30.9335938 C45.2656236,31.3164082 44.920575,31.6158843 44.5117188,31.8320312 C44.1028625,32.0481782 43.6328152,32.15625 43.1015625,32.15625 C42.6223934,32.15625 42.1992206,32.0781258 41.8320312,31.921875 C41.4648419,31.7656242 41.1484388,31.5416681 40.8828125,31.25 L40.8828125,35.25 L39.015625,35.25 L39.015625,23.546875 L40.734375,23.546875 L40.8125,24.3984375 C41.0833347,24.0755192 41.4049461,23.8268238 41.7773438,23.6523438 C42.1497414,23.4778637 42.5833309,23.390625 43.078125,23.390625 C43.614586,23.390625 44.0898417,23.4947906 44.5039062,23.703125 C44.9179708,23.9114594 45.2656236,24.2044252 45.546875,24.5820312 C45.8281264,24.9596373 46.0416659,25.4127578 46.1875,25.9414062 C46.3333341,26.4700547 46.40625,27.0546843 46.40625,27.6953125 L46.40625,27.859375 Z M44.5390625,27.6953125 C44.5390625,27.3151023 44.5000004,26.9570329 44.421875,26.6210938 C44.3437496,26.2851546 44.2239591,25.9908867 44.0625,25.7382812 C43.9010409,25.4856758 43.6953137,25.2864591 43.4453125,25.140625 C43.1953113,24.9947909 42.8984392,24.921875 42.5546875,24.921875 C42.1380188,24.921875 41.7942722,25.0104158 41.5234375,25.1875 C41.2526028,25.3645842 41.0390633,25.601561 40.8828125,25.8984375 L40.8828125,29.6796875 C41.0390633,29.9713556 41.2513007,30.2083324 41.5195312,30.390625 C41.7877618,30.5729176 42.1380187,30.6640625 42.5703125,30.6640625 C42.9140642,30.6640625 43.2109363,30.5885424 43.4609375,30.4375 C43.7109387,30.2864576 43.9153638,30.0833346 44.0742188,29.828125 C44.2330737,29.5729154 44.35026,29.2760434 44.4257812,28.9375 C44.5013025,28.5989566 44.5390625,28.2395852 44.5390625,27.859375 L44.5390625,27.6953125 Z M54.4140625,23.390625 C54.5651049,23.390625 54.7161451,23.3958333 54.8671875,23.40625 C55.0182299,23.4166667 55.1627597,23.4322916 55.3007812,23.453125 C55.4388028,23.4739584 55.5651036,23.4960936 55.6796875,23.5195312 C55.7942714,23.5429689 55.8906246,23.5703123 55.96875,23.6015625 L55.703125,25.4375 C55.1302055,25.307291 54.565107,25.2421875 54.0078125,25.2421875 C53.3828094,25.2421875 52.8789082,25.3723945 52.4960938,25.6328125 C52.1132793,25.8932305 51.8307301,26.255206 51.6484375,26.71875 L51.6484375,32 L49.78125,32 L49.78125,23.546875 L51.53125,23.546875 L51.6171875,24.8671875 C51.9609392,24.4088519 52.3684872,24.0481784 52.8398438,23.7851562 C53.3112003,23.5221341 53.8359346,23.390625 54.4140625,23.390625 Z M57.8671875,27.6953125 C57.8671875,27.0859345 57.9570304,26.5182318 58.1367188,25.9921875 C58.3164071,25.4661432 58.5742171,25.0104186 58.9101562,24.625 C59.2460954,24.2395814 59.6562476,23.9375011 60.140625,23.71875 C60.6250024,23.4999989 61.1744761,23.390625 61.7890625,23.390625 C62.4088573,23.390625 62.9622371,23.4999989 63.4492188,23.71875 C63.9362004,23.9375011 64.3476546,24.2395814 64.6835938,24.625 C65.0195329,25.0104186 65.2760408,25.4661432 65.453125,25.9921875 C65.6302092,26.5182318 65.71875,27.0859345 65.71875,27.6953125 L65.71875,27.859375 C65.71875,28.4739614 65.6302092,29.0442682 65.453125,29.5703125 C65.2760408,30.0963568 65.0195329,30.5507793 64.6835938,30.9335938 C64.3476546,31.3164082 63.9375024,31.6171864 63.453125,31.8359375 C62.9687476,32.0546886 62.4192739,32.1640625 61.8046875,32.1640625 C61.1848927,32.1640625 60.6315129,32.0546886 60.1445312,31.8359375 C59.6575496,31.6171864 59.2460954,31.3164082 58.9101562,30.9335938 C58.5742171,30.5507793 58.3164071,30.0963568 58.1367188,29.5703125 C57.9570304,29.0442682 57.8671875,28.4739614 57.8671875,27.859375 L57.8671875,27.6953125 Z M59.734375,27.859375 C59.734375,28.2447936 59.7747392,28.6067691 59.8554688,28.9453125 C59.9361983,29.2838559 60.0611971,29.58203 60.2304688,29.8398438 C60.3997404,30.0976575 60.614582,30.3007805 60.875,30.4492188 C61.135418,30.597657 61.4453107,30.671875 61.8046875,30.671875 C62.1536476,30.671875 62.45703,30.597657 62.7148438,30.4492188 C62.9726575,30.3007805 63.1861971,30.0976575 63.3554688,29.8398438 C63.5247404,29.58203 63.6497392,29.2838559 63.7304688,28.9453125 C63.8111983,28.6067691 63.8515625,28.2447936 63.8515625,27.859375 L63.8515625,27.6953125 C63.8515625,27.3203106 63.8111983,26.9635434 63.7304688,26.625 C63.6497392,26.2864566 63.5247404,25.9895846 63.3554688,25.734375 C63.1861971,25.4791654 62.9726575,25.2760424 62.7148438,25.125 C62.45703,24.9739576 62.1484393,24.8984375 61.7890625,24.8984375 C61.4348941,24.8984375 61.1276055,24.9739576 60.8671875,25.125 C60.6067695,25.2760424 60.39323,25.4791654 60.2265625,25.734375 C60.059895,25.9895846 59.9361983,26.2864566 59.8554688,26.625 C59.7747392,26.9635434 59.734375,27.3203106 59.734375,27.6953125 L59.734375,27.859375 Z M71.5546875,21.5 L71.5546875,23.546875 L74.75,23.546875 L74.75,24.9375 L71.5546875,24.9375 L71.5546875,28.9921875 C71.5546875,29.3098974 71.5924475,29.5729156 71.6679688,29.78125 C71.74349,29.9895844 71.8489577,30.1562494 71.984375,30.28125 C72.1197923,30.4062506 72.2786449,30.4934893 72.4609375,30.5429688 C72.6432301,30.5924482 72.8437489,30.6171875 73.0625,30.6171875 C73.2239591,30.6171875 73.3919262,30.608073 73.5664062,30.5898438 C73.7408863,30.5716145 73.9101554,30.5507814 74.0742188,30.5273438 C74.2382821,30.5039061 74.3893222,30.4778647 74.5273438,30.4492188 C74.6653653,30.4205728 74.7812495,30.3932293 74.875,30.3671875 L75.0859375,31.65625 C74.9505202,31.7343754 74.7877614,31.8059893 74.5976562,31.8710938 C74.4075511,31.9361982 74.200522,31.9895831 73.9765625,32.03125 C73.752603,32.0729169 73.5195325,32.1054686 73.2773438,32.1289062 C73.035155,32.1523439 72.7968762,32.1640625 72.5625,32.1640625 C72.1406229,32.1640625 71.753908,32.1054693 71.4023438,31.9882812 C71.0507795,31.8710932 70.7486992,31.6888033 70.4960938,31.4414062 C70.2434883,31.1940092 70.0455736,30.876304 69.9023438,30.4882812 C69.7591139,30.1002585 69.6875,29.6354194 69.6875,29.09375 L69.6875,24.9375 L67.625,24.9375 L67.625,23.546875 L69.6875,23.546875 L69.6875,21.5 L71.5546875,21.5 Z M77.0703125,27.6953125 C77.0703125,27.0859345 77.1601554,26.5182318 77.3398438,25.9921875 C77.5195321,25.4661432 77.7773421,25.0104186 78.1132812,24.625 C78.4492204,24.2395814 78.8593726,23.9375011 79.34375,23.71875 C79.8281274,23.4999989 80.3776011,23.390625 80.9921875,23.390625 C81.6119823,23.390625 82.1653621,23.4999989 82.6523438,23.71875 C83.1393254,23.9375011 83.5507796,24.2395814 83.8867188,24.625 C84.2226579,25.0104186 84.4791658,25.4661432 84.65625,25.9921875 C84.8333342,26.5182318 84.921875,27.0859345 84.921875,27.6953125 L84.921875,27.859375 C84.921875,28.4739614 84.8333342,29.0442682 84.65625,29.5703125 C84.4791658,30.0963568 84.2226579,30.5507793 83.8867188,30.9335938 C83.5507796,31.3164082 83.1406274,31.6171864 82.65625,31.8359375 C82.1718726,32.0546886 81.6223989,32.1640625 81.0078125,32.1640625 C80.3880177,32.1640625 79.8346379,32.0546886 79.3476562,31.8359375 C78.8606746,31.6171864 78.4492204,31.3164082 78.1132812,30.9335938 C77.7773421,30.5507793 77.5195321,30.0963568 77.3398438,29.5703125 C77.1601554,29.0442682 77.0703125,28.4739614 77.0703125,27.859375 L77.0703125,27.6953125 Z M78.9375,27.859375 C78.9375,28.2447936 78.9778642,28.6067691 79.0585938,28.9453125 C79.1393233,29.2838559 79.2643221,29.58203 79.4335938,29.8398438 C79.6028654,30.0976575 79.817707,30.3007805 80.078125,30.4492188 C80.338543,30.597657 80.6484357,30.671875 81.0078125,30.671875 C81.3567726,30.671875 81.660155,30.597657 81.9179688,30.4492188 C82.1757825,30.3007805 82.3893221,30.0976575 82.5585938,29.8398438 C82.7278654,29.58203 82.8528642,29.2838559 82.9335938,28.9453125 C83.0143233,28.6067691 83.0546875,28.2447936 83.0546875,27.859375 L83.0546875,27.6953125 C83.0546875,27.3203106 83.0143233,26.9635434 82.9335938,26.625 C82.8528642,26.2864566 82.7278654,25.9895846 82.5585938,25.734375 C82.3893221,25.4791654 82.1757825,25.2760424 81.9179688,25.125 C81.660155,24.9739576 81.3515643,24.8984375 80.9921875,24.8984375 C80.6380191,24.8984375 80.3307305,24.9739576 80.0703125,25.125 C79.8098945,25.2760424 79.596355,25.4791654 79.4296875,25.734375 C79.26302,25.9895846 79.1393233,26.2864566 79.0585938,26.625 C78.9778642,26.9635434 78.9375,27.3203106 78.9375,27.6953125 L78.9375,27.859375 Z"/>
    </g>
    <g transform="translate(88 120)">
      <path fill="#1A96DE" fill-rule="nonzero" d="M32.0078125,29.796875 L30.2578125,29.796875 L29.6640625,33 L28.3515625,33 L28.9453125,29.796875 L27.140625,29.796875 L27.140625,28.5625 L29.1796875,28.5625 L29.6328125,26.1171875 L27.734375,26.1171875 L27.734375,24.875 L29.8671875,24.875 L30.4765625,21.625 L31.78125,21.625 L31.171875,24.875 L32.9296875,24.875 L33.5390625,21.625 L34.84375,21.625 L34.234375,24.875 L35.859375,24.875 L35.859375,26.1171875 L34,26.1171875 L33.546875,28.5625 L35.2734375,28.5625 L35.2734375,29.796875 L33.3125,29.796875 L32.71875,33 L31.4140625,33 L32.0078125,29.796875 Z M30.4921875,28.5625 L32.2421875,28.5625 L32.6953125,26.1171875 L30.9453125,26.1171875 L30.4921875,28.5625 Z M43.9609375,27.921875 L39.2890625,27.921875 L39.2890625,31.421875 L44.75,31.421875 L44.75,33 L37.3125,33 L37.3125,21.625 L44.6953125,21.625 L44.6953125,23.21875 L39.2890625,23.21875 L39.2890625,26.359375 L43.9609375,26.359375 L43.9609375,27.921875 Z M49.15625,30.59375 L50.9453125,24.546875 L52.90625,24.546875 L49.9765625,33 L48.328125,33 L45.375,24.546875 L47.34375,24.546875 L49.15625,30.59375 Z M57.8125,33.15625 C56.609369,33.15625 55.6341183,32.7773475 54.8867188,32.0195312 C54.1393192,31.261715 53.765625,30.2526105 53.765625,28.9921875 L53.765625,28.7578125 C53.765625,27.9140583 53.9283838,27.1601596 54.2539062,26.4960938 C54.5794287,25.8320279 55.0364554,25.315106 55.625,24.9453125 C56.2135446,24.575519 56.869788,24.390625 57.59375,24.390625 C58.7447974,24.390625 59.6341114,24.7578088 60.2617188,25.4921875 C60.8893261,26.2265662 61.203125,27.2656183 61.203125,28.609375 L61.203125,29.375 L55.6796875,29.375 C55.7369795,30.0729202 55.97005,30.624998 56.3789062,31.03125 C56.7877625,31.437502 57.3020802,31.640625 57.921875,31.640625 C58.791671,31.640625 59.4999973,31.289066 60.046875,30.5859375 L61.0703125,31.5625 C60.7317691,32.0677109 60.2799507,32.459634 59.7148438,32.7382812 C59.1497368,33.0169285 58.5156285,33.15625 57.8125,33.15625 Z M57.5859375,25.9140625 C57.0651016,25.9140625 56.6445329,26.0963523 56.3242188,26.4609375 C56.0039046,26.8255227 55.7994796,27.3333301 55.7109375,27.984375 L59.328125,27.984375 L59.328125,27.84375 C59.2864581,27.2083302 59.117189,26.7278662 58.8203125,26.4023438 C58.523436,26.0768213 58.1119818,25.9140625 57.5859375,25.9140625 Z M64.4375,24.546875 L64.4921875,25.5234375 C65.1171906,24.7682254 65.9374949,24.390625 66.953125,24.390625 C68.7135505,24.390625 69.6093748,25.3984274 69.640625,27.4140625 L69.640625,33 L67.7421875,33 L67.7421875,27.5234375 C67.7421875,26.9869765 67.6263032,26.589845 67.3945312,26.3320312 C67.1627593,26.0742175 66.7838568,25.9453125 66.2578125,25.9453125 C65.4921837,25.9453125 64.9218769,26.2916632 64.546875,26.984375 L64.546875,33 L62.6484375,33 L62.6484375,24.546875 L64.4375,24.546875 Z M73.953125,22.4921875 L73.953125,24.546875 L75.4453125,24.546875 L75.4453125,25.953125 L73.953125,25.953125 L73.953125,30.671875 C73.953125,30.9947933 74.0169264,31.2278639 74.1445312,31.3710938 C74.2721361,31.5143236 74.4999984,31.5859375 74.828125,31.5859375 C75.0468761,31.5859375 75.268228,31.5598961 75.4921875,31.5078125 L75.4921875,32.9765625 C75.0598937,33.0963548 74.6432312,33.15625 74.2421875,33.15625 C72.7838469,33.15625 72.0546875,32.3515705 72.0546875,30.7421875 L72.0546875,25.953125 L70.6640625,25.953125 L70.6640625,24.546875 L72.0546875,24.546875 L72.0546875,22.4921875 L73.953125,22.4921875 Z M83.0234375,30.0703125 C83.0234375,29.57031 82.847658,29.1848972 82.4960938,28.9140625 C82.1445295,28.6432278 81.5104213,28.369793 80.59375,28.09375 C79.6770787,27.817707 78.9479194,27.5104184 78.40625,27.171875 C77.3697865,26.5208301 76.8515625,25.6718802 76.8515625,24.625 C76.8515625,23.7083287 77.2252567,22.953128 77.9726562,22.359375 C78.7200558,21.765622 79.6900982,21.46875 80.8828125,21.46875 C81.6744831,21.46875 82.3802052,21.6145819 83,21.90625 C83.6197948,22.1979181 84.1067691,22.6132786 84.4609375,23.1523438 C84.8151059,23.6914089 84.9921875,24.2890592 84.9921875,24.9453125 L83.0234375,24.9453125 C83.0234375,24.3515595 82.8372414,23.8867204 82.4648438,23.5507812 C82.0924461,23.2148421 81.5598993,23.046875 80.8671875,23.046875 C80.2213509,23.046875 79.7200539,23.1848945 79.3632812,23.4609375 C79.0065086,23.7369805 78.828125,24.1223934 78.828125,24.6171875 C78.828125,25.0338562 79.0208314,25.381509 79.40625,25.6601562 C79.7916686,25.9388035 80.4270789,26.2096341 81.3125,26.4726562 C82.1979211,26.7356784 82.9088515,27.0351546 83.4453125,27.3710938 C83.9817735,27.7070329 84.3749988,28.0924457 84.625,28.5273438 C84.8750012,28.9622418 85,29.4713512 85,30.0546875 C85,31.0026089 84.6367224,31.7565076 83.9101562,32.3164062 C83.1835901,32.8763049 82.1979229,33.15625 80.953125,33.15625 C80.1302042,33.15625 79.3737014,33.0039078 78.6835938,32.6992188 C77.9934861,32.3945297 77.4570332,31.973961 77.0742188,31.4375 C76.6914043,30.901039 76.5,30.2760452 76.5,29.5625 L78.4765625,29.5625 C78.4765625,30.2083366 78.690102,30.7083316 79.1171875,31.0625 C79.544273,31.4166684 80.156246,31.59375 80.953125,31.59375 C81.6406284,31.59375 82.1575504,31.4544285 82.5039062,31.1757812 C82.8502621,30.897134 83.0234375,30.5286481 83.0234375,30.0703125 Z M88.9296875,22.4921875 L88.9296875,24.546875 L90.421875,24.546875 L90.421875,25.953125 L88.9296875,25.953125 L88.9296875,30.671875 C88.9296875,30.9947933 88.9934889,31.2278639 89.1210938,31.3710938 C89.2486986,31.5143236 89.4765609,31.5859375 89.8046875,31.5859375 C90.0234386,31.5859375 90.2447905,31.5598961 90.46875,31.5078125 L90.46875,32.9765625 C90.0364562,33.0963548 89.6197937,33.15625 89.21875,33.15625 C87.7604094,33.15625 87.03125,32.3515705 87.03125,30.7421875 L87.03125,25.953125 L85.640625,25.953125 L85.640625,24.546875 L87.03125,24.546875 L87.03125,22.4921875 L88.9296875,22.4921875 Z M91.515625,28.6953125 C91.515625,27.8671834 91.6796859,27.1210971 92.0078125,26.4570312 C92.3359391,25.7929654 92.796872,25.2825539 93.390625,24.9257812 C93.984378,24.5690086 94.6666628,24.390625 95.4375,24.390625 C96.5781307,24.390625 97.5039027,24.7578088 98.2148438,25.4921875 C98.9257848,26.2265662 99.3098955,27.2005148 99.3671875,28.4140625 L99.375,28.859375 C99.375,29.6927125 99.2148454,30.4374967 98.8945312,31.09375 C98.5742171,31.7500033 98.1158884,32.2578107 97.5195312,32.6171875 C96.9231741,32.9765643 96.2343789,33.15625 95.453125,33.15625 C94.2604107,33.15625 93.3059932,32.7591186 92.5898438,31.9648438 C91.8736943,31.1705689 91.515625,30.1119858 91.515625,28.7890625 L91.515625,28.6953125 Z M93.4140625,28.859375 C93.4140625,29.729171 93.5937482,30.4101538 93.953125,30.9023438 C94.3125018,31.3945337 94.8124968,31.640625 95.453125,31.640625 C96.0937532,31.640625 96.5924461,31.3906275 96.9492188,30.890625 C97.3059914,30.3906225 97.484375,29.658859 97.484375,28.6953125 C97.484375,27.8411416 97.3007831,27.164065 96.9335938,26.6640625 C96.5664044,26.16406 96.0677115,25.9140625 95.4375,25.9140625 C94.8177052,25.9140625 94.3255227,26.1601538 93.9609375,26.6523438 C93.5963523,27.1445337 93.4140625,27.8802034 93.4140625,28.859375 Z M105.40625,26.28125 C105.156249,26.2395831 104.898439,26.21875 104.632812,26.21875 C103.763016,26.21875 103.177085,26.55208 102.875,27.21875 L102.875,33 L100.976562,33 L100.976562,24.546875 L102.789062,24.546875 L102.835938,25.4921875 C103.294273,24.7578088 103.929683,24.390625 104.742188,24.390625 C105.013022,24.390625 105.236978,24.427083 105.414062,24.5 L105.40625,26.28125 Z M108.390625,24.546875 L108.445312,25.4296875 C109.039065,24.7369757 109.851557,24.390625 110.882812,24.390625 C112.013026,24.390625 112.786456,24.8229123 113.203125,25.6875 C113.817711,24.8229123 114.682286,24.390625 115.796875,24.390625 C116.729171,24.390625 117.423175,24.6484349 117.878906,25.1640625 C118.334638,25.6796901 118.567708,26.4400991 118.578125,27.4453125 L118.578125,33 L116.679688,33 L116.679688,27.5 C116.679688,26.963539 116.562501,26.5703138 116.328125,26.3203125 C116.093749,26.0703112 115.705732,25.9453125 115.164062,25.9453125 C114.731769,25.9453125 114.378908,26.0611968 114.105469,26.2929688 C113.83203,26.5247407 113.640626,26.8281231 113.53125,27.203125 L113.539062,33 L111.640625,33 L111.640625,27.4375 C111.614583,26.4427034 111.106776,25.9453125 110.117188,25.9453125 C109.356767,25.9453125 108.81771,26.2552052 108.5,26.875 L108.5,33 L106.601562,33 L106.601562,24.546875 L108.390625,24.546875 Z M122.546875,33 L120.648438,33 L120.648438,24.546875 L122.546875,24.546875 L122.546875,33 Z M120.53125,22.3515625 C120.53125,22.0598944 120.623697,21.8177093 120.808594,21.625 C120.993491,21.4322907 121.257811,21.3359375 121.601562,21.3359375 C121.945314,21.3359375 122.210937,21.4322907 122.398438,21.625 C122.585938,21.8177093 122.679688,22.0598944 122.679688,22.3515625 C122.679688,22.6380223 122.585938,22.8763011 122.398438,23.0664062 C122.210937,23.2565114 121.945314,23.3515625 121.601562,23.3515625 C121.257811,23.3515625 120.993491,23.2565114 120.808594,23.0664062 C120.623697,22.8763011 120.53125,22.6380223 120.53125,22.3515625 Z M126.375,24.546875 L126.429688,25.5234375 C127.054691,24.7682254 127.874995,24.390625 128.890625,24.390625 C130.65105,24.390625 131.546875,25.3984274 131.578125,27.4140625 L131.578125,33 L129.679688,33 L129.679688,27.5234375 C129.679688,26.9869765 129.563803,26.589845 129.332031,26.3320312 C129.100259,26.0742175 128.721357,25.9453125 128.195312,25.9453125 C127.429684,25.9453125 126.859377,26.2916632 126.484375,26.984375 L126.484375,33 L124.585938,33 L124.585938,24.546875 L126.375,24.546875 Z M133.179688,28.7109375 C133.179688,27.3984309 133.488278,26.3502643 134.105469,25.5664062 C134.722659,24.7825482 135.541662,24.390625 136.5625,24.390625 C137.526046,24.390625 138.283851,24.7265591 138.835938,25.3984375 L138.921875,24.546875 L140.632812,24.546875 L140.632812,32.7421875 C140.632812,33.851568 140.287764,34.7265593 139.597656,35.3671875 C138.907549,36.0078157 137.976568,36.328125 136.804688,36.328125 C136.184893,36.328125 135.57943,36.19922 134.988281,35.9414062 C134.397132,35.6835925 133.947918,35.3463562 133.640625,34.9296875 L134.539062,33.7890625 C135.122399,34.4817743 135.841142,34.828125 136.695312,34.828125 C137.325524,34.828125 137.822915,34.6575538 138.1875,34.3164062 C138.552085,33.9752587 138.734375,33.4739616 138.734375,32.8125 L138.734375,32.2421875 C138.187497,32.8515655 137.458338,33.15625 136.546875,33.15625 C135.557287,33.15625 134.748701,32.7630248 134.121094,31.9765625 C133.493486,31.1901002 133.179688,30.1015695 133.179688,28.7109375 Z M135.070312,28.875 C135.070312,29.7239626 135.243488,30.3919246 135.589844,30.8789062 C135.9362,31.3658879 136.416664,31.609375 137.03125,31.609375 C137.796879,31.609375 138.364581,31.2812533 138.734375,30.625 L138.734375,26.90625 C138.374998,26.2656218 137.812504,25.9453125 137.046875,25.9453125 C136.421872,25.9453125 135.9362,26.1927059 135.589844,26.6875 C135.243488,27.1822941 135.070312,27.9114535 135.070312,28.875 Z"/>
      <path stroke="#B8C1DF" stroke-dasharray="5" d="M4,0 L164,0 C166.209139,-4.05812251e-16 168,1.790861 168,4 L168,52 C168,54.209139 166.209139,56 164,56 L4,56 C1.790861,56 2.705415e-16,54.209139 0,52 L0,4 C-2.705415e-16,1.790861 1.790861,4.05812251e-16 4,0 Z"/>
    </g>
    <line x1="678.5" x2="992" y1="149" y2="40" stroke="#D5D8E4"/>
    <line x1="678.5" x2="992" y1="149" y2="112" stroke="#D5D8E4"/>
    <line x1="678.5" x2="992" y1="149" y2="184" stroke="#D5D8E4"/>
    <line x1="678.5" x2="992" y1="149" y2="256" stroke="#D5D8E4"/>
    <path fill="#D5D8E4" fill-rule="nonzero" d="M311,144 L320,148.5 L311,153 L311,149 L260.5,149 L260.5,148 L311,148 L311,144 Z"/>
    <line x1="448" x2="547.5" y1="148.5" y2="148.5" stroke="#D5D8E4"/>
  </g>
</svg>
