<svg xmlns="http://www.w3.org/2000/svg" viewBox="0 0 157 80">
  <path d="M53.3524355 22.7777778C51.9006613 22.7777778 50.5977134 22.4555588 49.443553 21.8111111 48.2893926 21.1666634 47.3820471 20.2407468 46.72149 19.0333333 46.0609328 17.8259199 45.730659 16.4148229 45.730659 14.8 45.730659 13.1851771 46.0609328 11.7740801 46.72149 10.5666667 47.3820471 9.3592532 48.2893926 8.43333653 49.443553 7.78888889 50.5977134 7.1444412 51.9006613 6.82222222 53.3524355 6.82222222 54.339642 6.82222222 55.2215817 6.94073956 55.9982808 7.17777778 56.7749799 7.414816 57.5480384 7.75555333 58.3174785 8.2 58.6368688 8.37777867 58.7965616 8.65925733 58.7965616 9.04444444 58.7965616 9.26666778 58.716715 9.46296209 58.5570201 9.63333333 58.3973251 9.80370453 58.1868208 9.88888889 57.9255014 9.88888889 57.780324 9.88888889 57.6496663 9.85925956 57.5335244 9.8 56.8947437 9.45925756 56.2704902 9.20000089 55.660745 9.02222222 55.0509998 8.84444356 54.3469001 8.75555556 53.5484241 8.75555556 52.2998982 8.75555556 51.2364897 9.01851587 50.3581662 9.54444444 49.4798427 10.070373 48.8192955 10.7888844 48.3765043 11.7 47.9337131 12.6111157 47.7123209 13.6444387 47.7123209 14.8 47.7123209 15.9555613 47.9337131 16.9888843 48.3765043 17.9 48.8192955 18.8111156 49.4798427 19.529627 50.3581662 20.0555556 51.2364897 20.5814841 52.2998982 20.8444444 53.5484241 20.8444444 54.3469001 20.8444444 55.0509998 20.7555564 55.660745 20.5777778 56.2704902 20.3999991 56.8947437 20.1407424 57.5335244 19.8 57.6496663 19.7407404 57.780324 19.7111111 57.9255014 19.7111111 58.1868208 19.7111111 58.3973251 19.7925918 58.5570201 19.9555556 58.716715 20.1185193 58.7965616 20.3185173 58.7965616 20.5555556 58.7965616 20.9407427 58.6368688 21.2222213 58.3174785 21.4 57.5480384 21.8444467 56.7749799 22.185184 55.9982808 22.4222222 55.2215817 22.6592604 54.339642 22.7777778 53.3524355 22.7777778zM61.4968481 22.6666667C61.2210113 22.6666667 60.9887304 22.5703713 60.8 22.3777778 60.6112691 22.1851842 60.5169054 21.9481496 60.5169054 21.6666667L60.5169054 7.24444444C60.5169054 6.96296156 60.6112691 6.7222232 60.8 6.52222222 60.9887304 6.3222212 61.2210113 6.22222222 61.4968481 6.22222222 61.787203 6.22222222 62.0267419 6.31851756 62.2154728 6.51111111 62.4042032 6.70370467 62.4985673 6.94814667 62.4985673 7.24444444L62.4985673 21.6666667C62.4985673 21.9481496 62.4005739 22.1851842 62.2045845 22.3777778 62.0085951 22.5703713 61.7726855 22.6666667 61.4968481 22.6666667zM69.9679083 22.7777778C68.8500424 22.7777778 67.8701093 22.5333358 67.0280802 22.0444444 66.1860512 21.5555531 65.5363919 20.8629674 65.0790831 19.9666667 64.6217743 19.0703659 64.3931232 18.0444502 64.3931232 16.8888889 64.3931232 15.7333276 64.6217743 14.7074119 65.0790831 13.8111111 65.5363919 12.9148104 66.1860512 12.2222247 67.0280802 11.7333333 67.8701093 11.244442 68.8500424 11 69.9679083 11 71.0712567 11 72.0439308 11.244442 72.8859599 11.7333333 73.7279889 12.2222247 74.3812775 12.9148104 74.8458453 13.8111111 75.310413 14.7074119 75.5426934 15.7333276 75.5426934 16.8888889 75.5426934 18.0444502 75.310413 19.0703659 74.8458453 19.9666667 74.3812775 20.8629674 73.7279889 21.5555531 72.8859599 22.0444444 72.0439308 22.5333358 71.0712567 22.7777778 69.9679083 22.7777778zM69.9679083 20.9333333C70.5631355 20.9333333 71.1329487 20.792594 71.6773639 20.5111111 72.2217791 20.2296282 72.6718224 19.7851882 73.0275072 19.1777778 73.383192 18.5703673 73.5610315 17.8000047 73.5610315 16.8666667 73.5610315 15.9481436 73.383192 15.1851882 73.0275072 14.5777778 72.6718224 13.9703673 72.2217791 13.529631 71.6773639 13.2555556 71.1329487 12.9814801 70.5631355 12.8444444 69.9679083 12.8444444 69.3581631 12.8444444 68.7810914 12.9814801 68.2366762 13.2555556 67.692261 13.529631 67.245847 13.9703673 66.8974212 14.5777778 66.5489954 15.1851882 66.3747851 15.9481436 66.3747851 16.8666667 66.3747851 17.8000047 66.5489954 18.5703673 66.8974212 19.1777778 67.245847 19.7851882 67.692261 20.2296282 68.2366762 20.5111111 68.7810914 20.792594 69.3581631 20.9333333 69.9679083 20.9333333zM81.226361 22.7777778C80.4278854 22.7777778 79.7346735 22.5851871 79.1467049 22.2 78.5587362 21.8148129 78.108693 21.2888922 77.7965616 20.6222222 77.4844303 19.9555522 77.3283668 19.2222262 77.3283668 18.4222222L77.3283668 12.1111111C77.3283668 11.8296282 77.4263602 11.5925936 77.6223496 11.4 77.818339 11.2074064 78.0542491 11.1111111 78.330086 11.1111111 78.6059233 11.1111111 78.8382032 11.2074064 79.0269341 11.4 79.2156645 11.5925936 79.3100287 11.8296282 79.3100287 12.1111111L79.3100287 18.2C79.3100287 20.0074164 80.1084925 20.9111111 81.7054441 20.9111111 82.4313312 20.9111111 83.0809906 20.7185204 83.6544413 20.3333333 84.227892 19.9481462 84.7686701 19.4296329 85.2767908 18.7777778L85.2767908 12.1111111C85.2767908 11.8296282 85.3747842 11.5925936 85.5707736 11.4 85.766763 11.2074064 86.0026731 11.1111111 86.27851 11.1111111 86.5543473 11.1111111 86.7866277 11.2074064 86.9753582 11.4 87.164089 11.5925936 87.2584527 11.8296282 87.2584527 12.1111111L87.2584527 21.6444444C87.2584527 21.9259273 87.164089 22.1666657 86.9753582 22.3666667 86.7866277 22.5666677 86.5543473 22.6666667 86.27851 22.6666667 86.0026731 22.6666667 85.766763 22.5666677 85.5707736 22.3666667 85.3747842 22.1666657 85.2767908 21.9259273 85.2767908 21.6444444L85.2767908 20.7333333C84.7251166 21.3555587 84.1298981 21.85185 83.4911175 22.2222222 82.8523368 22.5925944 82.0974256 22.7777778 81.226361 22.7777778zM94.4229226 22.7777778C93.5228226 22.7777778 92.669918 22.5444468 91.8641834 22.0777778 91.0584488 21.6111088 90.4051602 20.9296341 89.904298 20.0333333 89.4034358 19.1370326 89.1530086 18.0888949 89.1530086 16.8888889 89.1530086 15.6888829 89.4034358 14.6407452 89.904298 13.7444444 90.4051602 12.8481437 91.0584488 12.166669 91.8641834 11.7 92.669918 11.233331 93.5228226 11 94.4229226 11 95.8456614 11 97.0869099 11.5629573 98.1467049 12.6888889L98.1467049 7.24444444C98.1467049 6.94814667 98.2446983 6.70370467 98.4406877 6.51111111 98.6366771 6.31851756 98.8725868 6.22222222 99.1484241 6.22222222 99.4242614 6.22222222 99.6565418 6.3222212 99.8452722 6.52222222 100.034003 6.7222232 100.128367 6.96296156 100.128367 7.24444444L100.128367 21.6666667C100.128367 21.9481496 100.034003 22.1851842 99.8452722 22.3777778 99.6565418 22.5703713 99.4242614 22.6666667 99.1484241 22.6666667 98.8725868 22.6666667 98.6366771 22.5703713 98.4406877 22.3777778 98.2446983 22.1851842 98.1467049 21.9481496 98.1467049 21.6666667L98.1467049 21.0888889C97.0869099 22.2148204 95.8456614 22.7777778 94.4229226 22.7777778zM94.7060172 20.8888889C95.3738333 20.8888889 96.0017161 20.7370386 96.5896848 20.4333333 97.1776535 20.1296281 97.6966551 19.7259284 98.1467049 19.2222222L98.1467049 14.5555556C97.6966551 14.0518493 97.1776535 13.6481497 96.5896848 13.3444444 96.0017161 13.0407392 95.3738333 12.8888889 94.7060172 12.8888889 93.6317043 12.8888889 92.7679118 13.2370336 92.1146132 13.9333333 91.461315 14.6296331 91.1346705 15.6148084 91.1346705 16.8888889 91.1346705 18.1629693 91.461315 19.1481447 92.1146132 19.8444444 92.7679118 20.5407442 93.6317043 20.8888889 94.7060172 20.8888889zM103.852149 22.6666667C103.576312 22.6666667 103.344032 22.5703713 103.155301 22.3777778 102.96657 22.1851842 102.872206 21.9481496 102.872206 21.6666667L102.872206 8.06666667C102.872206 7.78518378 102.96657 7.54444547 103.155301 7.34444444 103.344032 7.14444347 103.576312 7.04444444 103.852149 7.04444444L108.926074 7.04444444C110.900487 7.04444444 112.381275 7.45925511 113.368481 8.28888889 114.355688 9.11852267 114.849284 10.2074007 114.849284 11.5555556 114.849284 12.4444489 114.606115 13.2555519 114.119771 13.9888889 113.633427 14.7222259 112.925697 15.2518502 111.996562 15.5777778 113.041839 15.8592607 113.756827 16.522217 114.141547 17.5666667 114.526268 18.6111163 114.718625 19.637032 114.718625 20.6444444L114.718625 21.6666667C114.718625 21.9481496 114.624261 22.1851842 114.43553 22.3777778 114.2468 22.5703713 114.014519 22.6666667 113.738682 22.6666667 113.433809 22.6666667 113.190641 22.574075 113.009169 22.3888889 112.827697 22.2037028 112.736963 21.9629644 112.736963 21.6666667L112.736963 21C112.736963 20.2592556 112.671634 19.5740772 112.540974 18.9444444 112.410315 18.3148116 112.098188 17.7518543 111.604585 17.2555556 111.110981 16.7592568 110.363329 16.5111111 109.361605 16.5111111L104.853868 16.5111111 104.853868 21.6666667C104.853868 21.9481496 104.755875 22.1851842 104.559885 22.3777778 104.363896 22.5703713 104.127986 22.6666667 103.852149 22.6666667zM108.795415 14.6C110.043941 14.6 111.034762 14.3481507 111.767908 13.8444444 112.501054 13.3407382 112.867622 12.6296342 112.867622 11.7111111 112.867622 10.8222178 112.551866 10.1407431 111.920344 9.66666667 111.288822 9.19259022 110.210896 8.95555556 108.686533 8.95555556L104.853868 8.95555556 104.853868 14.6 108.795415 14.6zM122.079083 22.7777778C120.307919 22.7777778 118.925124 22.2629681 117.930659 21.2333333 116.936194 20.2036985 116.438968 18.7555649 116.438968 16.8888889 116.438968 15.8370318 116.627696 14.8666711 117.005158 13.9777778 117.382619 13.0888844 117.96332 12.3703731 118.747278 11.8222222 119.531236 11.2740713 120.496652 11 121.643553 11 122.717866 11 123.646987 11.255553 124.430946 11.7666667 125.214904 12.2777803 125.810122 12.959255 126.216619 13.8111111 126.623116 14.6629672 126.826361 15.5925876 126.826361 16.6 126.826361 16.8814829 126.735627 17.1185176 126.554155 17.3111111 126.372683 17.5037047 126.129515 17.6 125.824642 17.6L118.442407 17.6C118.558549 18.6370422 118.936004 19.4444416 119.574785 20.0222222 120.213566 20.6000029 121.106394 20.8888889 122.253295 20.8888889 122.86304 20.8888889 123.396559 20.8296302 123.853868 20.7111111 124.311177 20.592592 124.757591 20.4222233 125.193123 20.2 125.309265 20.1407404 125.439923 20.1111111 125.5851 20.1111111 125.817384 20.1111111 126.02063 20.1925918 126.194842 20.3555556 126.369055 20.5185193 126.45616 20.7259247 126.45616 20.9777778 126.45616 21.3037053 126.267433 21.5777767 125.889971 21.8 125.32378 22.1259276 124.764855 22.3703696 124.213181 22.5333333 123.661506 22.6962971 122.950148 22.7777778 122.079083 22.7777778zM124.866476 15.9555556C124.822923 15.229626 124.637824 14.6222247 124.311175 14.1333333 123.984525 13.644442 123.581665 13.2851863 123.102579 13.0555556 122.623494 12.8259248 122.137156 12.7111111 121.643553 12.7111111 121.14995 12.7111111 120.663612 12.8259248 120.184527 13.0555556 119.705442 13.2851863 119.30621 13.644442 118.986819 14.1333333 118.667429 14.6222247 118.48596 15.229626 118.442407 15.9555556L124.866476 15.9555556zM129.548424 27.7777778C129.272587 27.7777778 129.040307 27.6777788 128.851576 27.4777778 128.662846 27.2777768 128.568481 27.0370384 128.568481 26.7555556L128.568481 12.1111111C128.568481 11.8296282 128.662846 11.5925936 128.851576 11.4 129.040307 11.2074064 129.272587 11.1111111 129.548424 11.1111111 129.824261 11.1111111 130.060171 11.2074064 130.25616 11.4 130.45215 11.5925936 130.550143 11.8296282 130.550143 12.1111111L130.550143 12.6888889C131.609939 11.5629573 132.851187 11 134.273926 11 135.174026 11 136.02693 11.233331 136.832665 11.7 137.638399 12.166669 138.291688 12.8481437 138.79255 13.7444444 139.293412 14.6407452 139.54384 15.6888829 139.54384 16.8888889 139.54384 18.0888949 139.293412 19.1370326 138.79255 20.0333333 138.291688 20.9296341 137.638399 21.6111088 136.832665 22.0777778 136.02693 22.5444468 135.174026 22.7777778 134.273926 22.7777778 132.851187 22.7777778 131.609939 22.2148204 130.550143 21.0888889L130.550143 26.7555556C130.550143 27.0518533 130.45578 27.2962953 130.267049 27.4888889 130.078318 27.6814824 129.838779 27.7777778 129.548424 27.7777778zM133.990831 20.8888889C135.065144 20.8888889 135.928936 20.5407442 136.582235 19.8444444 137.235534 19.1481447 137.562178 18.1629693 137.562178 16.8888889 137.562178 15.6148084 137.235534 14.6296331 136.582235 13.9333333 135.928936 13.2370336 135.065144 12.8888889 133.990831 12.8888889 133.323015 12.8888889 132.695132 13.0407392 132.107163 13.3444444 131.519195 13.6481497 131.000193 14.0518493 130.550143 14.5555556L130.550143 19.2222222C131.000193 19.7259284 131.519195 20.1296281 132.107163 20.4333333 132.695132 20.7370386 133.323015 20.8888889 133.990831 20.8888889zM146.338109 22.7777778C145.220243 22.7777778 144.24031 22.5333358 143.398281 22.0444444 142.556252 21.5555531 141.906592 20.8629674 141.449284 19.9666667 140.991975 19.0703659 140.763324 18.0444502 140.763324 16.8888889 140.763324 15.7333276 140.991975 14.7074119 141.449284 13.8111111 141.906592 12.9148104 142.556252 12.2222247 143.398281 11.7333333 144.24031 11.244442 145.220243 11 146.338109 11 147.441457 11 148.414131 11.244442 149.25616 11.7333333 150.09819 12.2222247 150.751478 12.9148104 151.216046 13.8111111 151.680614 14.7074119 151.912894 15.7333276 151.912894 16.8888889 151.912894 18.0444502 151.680614 19.0703659 151.216046 19.9666667 150.751478 20.8629674 150.09819 21.5555531 149.25616 22.0444444 148.414131 22.5333358 147.441457 22.7777778 146.338109 22.7777778zM146.338109 20.9333333C146.933337 20.9333333 147.503149 20.792594 148.047564 20.5111111 148.59198 20.2296282 149.042023 19.7851882 149.397708 19.1777778 149.753393 18.5703673 149.931232 17.8000047 149.931232 16.8666667 149.931232 15.9481436 149.753393 15.1851882 149.397708 14.5777778 149.042023 13.9703673 148.59198 13.529631 148.047564 13.2555556 147.503149 12.9814801 146.933337 12.8444444 146.338109 12.8444444 145.728364 12.8444444 145.151292 12.9814801 144.606877 13.2555556 144.062462 13.529631 143.616048 13.9703673 143.267622 14.5777778 142.919196 15.1851882 142.744986 15.9481436 142.744986 16.8666667 142.744986 17.8000047 142.919196 18.5703673 143.267622 19.1777778 143.616048 19.7851882 144.062462 20.2296282 144.606877 20.5111111 145.151292 20.792594 145.728364 20.9333333 146.338109 20.9333333zM12.2619626 7.18160942L12.1750386 7.32271418 12.0179559 7.27706529C9.61402086 6.57847196 7.05847099 7.10871711 4.39566492 8.87597218 2.38630461 10.2095474.960635414 12.6988202.539602117 15.3988014.291293275 16.9911439.490688033 18.5882672 1.10268548 20.1551466 1.36633317 20.8301562 1.69470559 21.4675276 2.07412546 22.0539238 2.26680069 22.3517048 2.44843311 22.600777 2.5900671 22.7686781 2.80296906 23.0362061 3.14817999 23.3814517 3.57483464 23.7365159 4.90842943 24.8463402 6.48645972 25.5800013 8.25749203 25.8580278 10.8102003 26.2587661 13.5546157 25.6629516 16.4428608 24.0247937 17.0096686 23.7033112 17.5807437 23.3421367 18.1559978 22.9410403 18.80453 22.4888507 19.6858798 21.7097495 21.0552611 20.3839532 21.3426519 20.1057094 21.9603964 19.4976047 22.8764661 18.5924156 23.1373268 18.3346495 24.7104182 16.7786745 24.8306497 16.6607295 25.5879953 15.9177856 26.2234484 15.3057008 26.8118711 14.7530132 29.3867929 12.334467 31.1628719 10.9795596 32.2111602 10.6661369 33.1857245 10.3747566 34.5809328 10.3641326 35.3720619 10.6579737 37.7606614 11.5451471 38.7943143 13.2169043 38.5410071 15.8920806 38.1960571 19.5350972 34.6467577 21.270522 27.8181273 21.1414091 27.2935565 21.1314907 26.960049 21.7106773 27.2238369 22.173485L29.5165427 26.1959657C29.7034414 26.5238738 30.1154431 26.6350832 30.4367742 26.4443591 30.7581053 26.2536349 30.8670842 25.8332004 30.6801855 25.5052924L28.9787369 22.520154 29.3463429 22.5106471C35.9598557 22.3396105 39.4883647 20.1700604 39.8809278 16.0242018 40.1939237 12.7186532 38.7937318 10.4669739 35.8324762 9.36710453 34.7671353 8.97141569 33.088915 8.97223933 31.8326617 9.34784053 31.7754522 9.36494533 31.717173 9.38398853 31.657801 9.40498316L31.4653855 9.47302347 31.3859752 9.28166644C28.8495447 3.1695698 26.7252319 1.1168618 22.2531645.511674671 19.9353741.198017298 17.5646858.988633453 15.5765426 2.75068533 14.7123813 3.5165744 13.6208964 4.97563609 12.2619626 7.18160942zM15.2909558 2.4151288C17.370614.571968982 19.8648755-.259858384 22.3104196.0710873987 26.9092583.693429982 29.1505821 2.82086474 31.7091368 8.92164213 33.0513075 8.5203556 34.8237773 8.51948573 35.9814363 8.94946338 39.1288456 10.1184739 40.6465824 12.55918 40.3144388 16.0669477 39.9037215 20.4045325 36.2984164 22.6951988 29.723771 22.9433155L31.0566644 25.2818355C31.3644997 25.8219229 31.1850038 26.5144078 30.6557491 26.8285438 30.1264944 27.1426798 29.447899 26.95951 29.1400637 26.4194226L26.8473579 22.3969419C26.4128809 21.6346654 26.9621909 20.6807046 27.8261955 20.6970409 34.4562953 20.8224001 37.7909949 19.1919035 38.1074961 15.8493347 38.3417001 13.3759063 37.4251151 11.8934864 35.2231019 11.0756149 34.5254818 10.8165049 33.224087 10.8264145 32.3336177 11.0926517 31.3743251 11.3794661 29.6296111 12.7104461 27.1068243 15.0800236 26.5209267 15.6303394 25.8877039 16.2402759 25.1324817 16.9811366 25.0130077 17.0983387 23.441282 18.6529628 23.1876168 18.9036189 22.2620681 19.8181744 21.643957 20.42664 21.355025 20.7063758 19.9696864 22.0476216 19.0748069 22.838683 18.4017032 23.308005 17.8155765 23.7166824 17.2331377 24.0850437 16.6544455 24.4132669 13.6855663 26.0971588 10.8448554 26.7138792 8.19127046 26.2973048 6.34212505 26.0070156 4.69230089 25.239976 3.29958041 24.0809469 2.85099131 23.7076288 2.48474413 23.3413448 2.25604469 23.0538168 2.10558012 22.8756005 1.91303282 22.6115608 1.71067476 22.2988149 1.31510305 21.6874559.972890259 21.0232204.698107869 20.3197029.0579017267 18.6806016-.151551611 17.0029104.109483863 15.3289552.54884981 12.5114114 2.0387021 9.91007244 4.1582112 8.50339351 6.86337037 6.70802951 9.49234957 6.13696547 11.97948 6.80549196 13.3197371 4.64291369 14.405398 3.19998117 15.2909558 2.4151288zM30.2843454 10.1082778L30.1196132 10.2173962C29.0297178 10.9393416 27.676835 12.0735437 25.9002128 13.7422712 25.304329 14.3019668 24.6623239 14.9203422 23.8977298 15.6703967 23.7744251 15.7913566 22.1807413 17.3676706 21.9599555 17.5858451 21.0316646 18.5031435 20.4147957 19.1104334 20.1287335 19.3873907 18.8312273 20.6435997 17.9755083 21.4031309 17.3965576 21.8068048 16.8555063 22.1840532 16.3195685 22.5230837 15.7888829 22.8240785 13.1652417 24.312158 10.7202511 24.8547712 8.4621734 24.5002856 6.93629906 24.2607454 5.5737096 23.6273862 4.42560617 22.6719287 4.19729747 22.4819291 3.99161333 22.2897713 3.81378794 22.1022306 3.72604457 22.0096935 3.66291451 21.9378513 3.6115802 21.8738111 3.59048106 21.8491322 3.55088406 21.7990587 3.50457116 21.7378108 3.40563994 21.6069762 3.30212947 21.4587065 3.19749967 21.2970004 2.86841331 20.7883949 2.58207696 20.2325724 2.35317708 19.6465266 1.83112257 18.3099254 1.65984057 16.956205 1.86903621 15.6146857 2.22883877 13.3073619 3.45449614 11.1392952 5.12960049 10.0275595 9.45897354 7.15423484 13.2359145 7.97410387 16.7267342 12.543978 16.9552723 12.84316 17.3782092 12.8966361 17.6713903 12.6634204 17.9645715 12.4302047 18.0169751 11.9986112 17.788437 11.6994292 16.4801051 9.98667609 15.0972666 8.73596049 13.6532549 7.95423902L13.4450008 7.84149982 13.5716181 7.63857493C14.765834 5.72464889 15.7398741 4.42541175 16.4592505 3.78784264 18.1549847 2.28494709 20.1417299 1.61168325 22.0761969 1.873467 26.0458473 2.41066403 27.8123886 4.17238947 30.1736994 9.88329578 30.1780688 9.89386324 30.2149508 9.96885724 30.2843454 10.1082778zM22.0189418 2.31405427C20.2130586 2.06967127 18.3495521 2.70117224 16.7448373 4.12339917 16.0898607 4.70389196 15.1802984 5.90659689 14.0645351 7.67707898 15.4909577 8.49486533 16.849927 9.74789631 18.1319348 11.4261883 18.508353 11.9189617 18.4220406 12.6298264 17.9391508 13.0139489 17.4562611 13.3980715 16.7596544 13.3099925 16.3832364 12.817219 13.0266365 8.42305369 9.49961373 7.65743493 5.36705423 10.4001381 3.80299483 11.4381754 2.64072708 13.4941121 2.29915446 15.6845318 2.10272985 16.9441537 2.2638275 18.2173827 2.75775469 19.4819703 2.9755217 20.0395129 3.24801829 20.5684704 3.56095038 21.0521093 3.65979526 21.2048748 3.75710898 21.3442682 3.84938222 21.4662977 3.89081373 21.52109 3.92537644 21.5647973 3.94405594 21.5868033 3.99182 21.6462379 4.0470373 21.7090753 4.12678237 21.7931772 4.29254415 21.9679952 4.48561725 22.1483712 4.7008604 22.3274976 5.78982921 23.233743 7.08062066 23.833729 8.52839496 24.0610087 10.6847903 24.3995316 13.0338287 23.8782129 15.5772983 22.4356053 16.0960853 22.1413591 16.620662 21.8095156 17.1508522 21.43984 17.7048623 21.0535561 18.5476868 20.3054699 19.8289696 19.064968 20.1134837 18.7895095 20.7300029 18.1825639 21.6490137 17.2744357 21.876738 17.0494048 23.4718375 15.4716906 23.5958977 15.3499895 24.3626164 14.597851 25.006853 13.9773261 25.6052596 13.4152609 27.3162983 11.808134 28.641613 10.689143 29.7278464 9.94854933 27.4439926 4.45527676 25.7872432 2.82400354 22.0189418 2.31405427zM24.6248243 26.3330946C24.8160789 26.6583766 25.2295256 26.7638539 25.5482833 26.5686847 25.867041 26.3735155 25.9704027 25.9516064 25.779148 25.6263244L23.9974567 22.5960599C23.8062021 22.2707779 23.3927554 22.1653006 23.0739976 22.3604698 22.7552399 22.555639 22.6518783 22.977548 22.8431329 23.30283L24.6248243 26.3330946zM22.8499193 21.9793619C23.3749354 21.6579046 24.0559109 21.831633 24.3709207 22.3673951L26.152612 25.3976596C26.4676217 25.9334218 26.2973778 26.6283354 25.7723617 26.9497927 25.2473455 27.2712499 24.56637 27.0975215 24.2513603 26.5617594L22.4696689 23.5314948C22.1546592 22.9957327 22.3249031 22.3008191 22.8499193 21.9793619zM19.856912 26.9543976C19.3649115 26.9543976 18.9660663 26.5473889 18.9660663 26.0453182 18.9660663 25.5432476 19.3649115 25.1362388 19.856912 25.1362388 20.3489125 25.1362388 20.7477577 25.5432476 20.7477577 26.0453182 20.7477577 26.5473889 20.3489125 26.9543976 19.856912 26.9543976zM19.856912 26.6665667C20.2286442 26.6665667 20.5299927 26.3590503 20.5299927 25.9797096 20.5299927 25.6003688 20.2286442 25.2928524 19.856912 25.2928524 19.4851799 25.2928524 19.1838314 25.6003688 19.1838314 25.9797096 19.1838314 26.3590503 19.4851799 26.6665667 19.856912 26.6665667zM12.0775999 7.12894942C13.4366817 4.92273587 14.5428175 3.43813087 15.4337492 2.64851576 17.47464.839714751 19.9083667.035803497 22.281792.356989729 26.893164.981028391 29.0529471 3.15545454 31.5865007 9.26061867 31.6491386 9.23846916 31.7107742 9.21832791 31.771433 9.20019182 33.027011 8.82479249 34.7608641 8.7982112 35.9069562 9.22389262 38.9014157 10.3360945 40.4263377 12.6402652 40.0976833 16.1111835 39.6882375 20.43534 35.9942516 22.6266232 29.35186 22.7984067L30.8684249 25.4591727C31.115792 25.8931704 30.9715545 26.44963 30.5462617 26.7020601 30.1209688 26.9544902 29.5756702 26.8073006 29.3283032 26.3733028L27.0355974 22.3508221C26.6864649 21.7382801 27.1278737 20.9717064 27.8221614 20.9848336 34.6366537 21.1136793 37.9978183 19.383778 38.3242516 15.9363163 38.5724739 13.314842 37.5492286 11.7687094 35.2975819 10.932403 34.5394412 10.6508144 33.1869979 10.6715484 32.272389 10.945003 31.2513465 11.2502796 29.4628358 12.6306764 26.9593477 14.9821271 26.3589169 15.5460936 25.7199472 16.1622014 24.9815657 16.8865417 24.6194054 17.2418151 21.9162997 19.9222513 21.205143 20.6107732 19.8719988 21.9014859 18.9596021 22.7154768 18.2788505 23.1901313 17.6962278 23.5963655 17.1194845 23.9608744 16.5486531 24.284639 13.5466357 25.9873264 10.7587864 26.54114 8.22438124 26.143275 6.32218269 25.8446573 4.72313877 25.0444986 3.43720753 23.9743401 2.95097553 23.5696954 2.61203553 23.2143985 2.42102353 22.9743769 2.29707199 22.8275637 2.11143886 22.5805041 1.89240011 22.2419781 1.52192674 21.6694087 1.18048301 21.0201304.900396677 20.3030335.298245452 18.761363.0608211027 17.1206695.32454299 15.429487.730438879 12.8265782 2.10771487 10.1949648 4.27693807 8.75529156 6.99810465 6.94930369 9.61665364 6.4137884 12.0775987 7.12894907L12.0775999 7.12894942zM30.0010477 10.0966086C29.9910649 10.0766844 29.9817243 10.0562408 29.9730629 10.0352931 27.6487441 4.41385312 25.9450038 2.68679366 22.0475693 2.15936933 20.1947841 1.90863925 18.2673329 2.54531704 16.6020439 4.0212296 15.9084206 4.63597422 14.9485869 5.91111324 13.7553073 7.82353849 15.2259639 8.61968418 16.6318859 9.88952378 17.9601859 11.6284174 18.262664 12.0243951 18.193306 12.5956242 17.8052706 12.9042934 17.4172351 13.2129625 16.8574634 13.1421849 16.5549853 12.7462072 13.1256035 8.25676209 9.47226087 7.47611107 5.24832738 10.2794575 3.55570411 11.4028202 2.41739933 13.5778223 2.08409534 15.7152175 1.87467798 17.0581586 2.06517805 18.3745873 2.55546588 19.6298572 2.78789628 20.224942 3.07245101 20.766042 3.37922503 21.2401635 3.48536642 21.4042059 3.58590519 21.5472227 3.67697669 21.6676629 3.72824158 21.7354597 3.76243853 21.7778484 3.77567267 21.7933279 3.82038566 21.8489659 3.87763616 21.9156018 3.97028515 22.0133126 4.13400156 22.1859734 4.3319264 22.3728271 4.56323329 22.5653219 5.61812644 23.4432093 6.93250528 24.1009221 8.49528418 24.3462558 10.6291188 24.681237 13.0189767 24.2064854 15.6830906 22.6954506 16.2054729 22.3991652 16.7357027 22.0640536 17.2737049 21.6889311 17.8505075 21.286755 18.7138406 20.516536 19.9788516 19.291788 20.6807354 18.6122439 23.3777792 15.9378187 23.7468137 15.5758018 24.4937711 14.8430487 25.1416866 14.2183152 25.7527362 13.6443747 27.4689883 12.0323511 28.8594331 10.8528128 30.0010477 10.0966086zM19.856912 27.1110111C19.2446432 27.1110111 18.7483013 26.6045101 18.7483013 25.9797096 18.7483013 25.3549089 19.2446432 24.848408 19.856912 24.848408 20.4691808 24.848408 20.9655228 25.3549089 20.9655228 25.9797096 20.9655228 26.6045101 20.4691808 27.1110111 19.856912 27.1110111zM22.6564009 23.4827712C22.4032688 23.0522491 22.5400715 22.4938378 22.9619584 22.2355245 23.3838454 21.9772113 23.9310565 22.1168141 24.1841887 22.5473362L25.96588 25.5776008C26.2190122 26.0081228 26.0822094 26.5665341 25.6603225 26.8248474 25.2384355 27.0831606 24.6912245 26.9435578 24.4380923 26.5130357L22.6564009 23.4827712z" transform="translate(3 24)"/>
</svg>
