<svg xmlns="http://www.w3.org/2000/svg" viewBox="0 0 39 80">
  <path fill="#E0225C" d="M30.4867618,5.19495047 C27.1716758,1.84500053 22.7645084,0 18.0624967,0 C8.37069108,0.00654325822 0.480319543,7.98654236 0.473257403,17.7873518 L0.467764628,20.7988368 L2.78336171,19.2036697 C4.35861116,18.1188769 6.18299719,17.5454495 8.0601531,17.5454495 C8.62041617,17.5454495 9.18617203,17.5972007 9.74133465,17.6995135 C11.4915682,18.0217193 13.0605402,18.8225746 14.3309407,20.0261375 C14.6220577,19.3777601 14.9647677,18.7476244 15.3692713,18.1468345 C15.5352317,17.9003716 15.710608,17.6632282 15.8920659,17.4318348 C14.2915104,16.0656817 12.3690391,15.1462549 10.2706028,14.7600043 C9.53908283,14.62557 8.79422328,14.5575598 8.05642587,14.5575598 C6.52825735,14.5575598 5.03951911,14.8409028 3.62120609,15.4002522 C4.76958844,8.2889202 10.880497,2.99284666 18.0752477,2.98749307 C21.9749219,2.98749307 25.6403686,4.52198627 28.3971532,7.30762975 C30.5964212,9.53035473 32.0033563,12.3100498 32.4886822,15.376062 C31.0699768,14.8159194 29.5751574,14.5292057 28.0379649,14.5230591 L27.8225697,14.5220677 C27.6650447,14.5252401 27.5086967,14.5286108 27.3554877,14.5375336 C27.0869302,14.5514132 26.8201381,14.5759999 26.5558965,14.6069317 C26.477036,14.615656 26.3995486,14.6281477 26.3214726,14.6390531 C26.1321681,14.6648296 25.9436482,14.6937786 25.7570901,14.7276846 C25.674306,14.7429522 25.5919144,14.759806 25.5099152,14.7764616 C25.3198259,14.8155228 25.131306,14.8589463 24.9447479,14.9065336 C24.8772651,14.9239823 24.8097825,14.9402413 24.7428883,14.9584831 C24.5072875,15.0229243 24.2738446,15.0941071 24.0437365,15.1720313 C24.0300046,15.17679 24.0156842,15.1807556 24.0019521,15.1853161 C23.4793538,15.3655531 22.9728415,15.5818772 22.4831998,15.8307193 C22.4698603,15.8376591 22.4567169,15.8447971 22.442985,15.8517371 C22.2138578,15.9691192 21.9894387,16.0946307 21.7683544,16.2266855 C21.7503067,16.237591 21.7318667,16.2486947 21.7136228,16.2597985 C20.5571975,16.9605219 19.5223979,17.8591294 18.6504198,18.9326202 C18.6143245,18.9768368 18.5784252,19.020855 18.5427222,19.0656665 C18.3536138,19.3051894 18.1694097,19.5500658 17.9965833,19.8064426 C17.8496516,20.0245512 17.7133131,20.2472203 17.5810942,20.4722687 C17.5510801,20.5236234 17.5214583,20.575573 17.4922289,20.6273241 C17.3717802,20.8392861 17.2566281,21.0540238 17.1493228,21.2713393 C17.1432416,21.283831 17.1371602,21.2955295 17.131079,21.3080212 C16.8819424,21.8166109 16.6704705,22.3394766 16.4941133,22.8730496 C16.4941133,22.8734462 16.493917,22.8736445 16.493917,22.8742393 L16.493917,22.8748342 C16.0619495,24.1834858 15.8524393,25.5557855 15.8746066,26.9443443 C15.8751951,26.9994663 15.8751951,27.0545881 15.8771568,27.1099086 C15.8800994,27.2177731 15.8853961,27.3260344 15.8914773,27.4344937 C15.8961854,27.5207457 15.9016782,27.606403 15.9079556,27.6920602 C15.9146254,27.7834675 15.9218838,27.8750731 15.9311037,27.9666788 C15.9418932,28.0783107 15.9550365,28.1897444 15.9689647,28.3013763 C15.9775962,28.3723607 15.9852468,28.4437418 15.9956439,28.5143297 C16.0219307,28.7001185 16.0513563,28.8855109 16.0860785,29.0709032 C16.6820447,32.2554871 18.4569957,35.0320096 21.0843078,36.8895019 L21.4203479,37.1066191 L21.4230943,37.0998775 C22.915756,38.0807714 24.6277362,38.7241918 26.3997447,38.9672838 L26.6396613,39 L28.4216746,36.1092679 L27.7809815,36.091621 C22.8502349,35.9548074 18.8391359,31.7873468 18.8391359,26.8013839 C18.8391359,21.8939403 22.6334665,17.8186801 27.475544,17.5234403 L27.7819623,17.5115435 C29.7448447,17.4613785 31.6788901,18.0472976 33.3206415,19.1771002 L35.6256452,20.7627498 L35.6305496,17.7667305 C35.6342768,13.0161268 33.8075367,8.55124537 30.4867618,5.19495047" transform="translate(0 21)"/>
</svg>
