<svg xmlns="http://www.w3.org/2000/svg" viewBox="0 0 120 80">
  <g fill="none" fill-rule="evenodd">
    <path fill="#383838" d="M17.4975619,22 C7.83499122,22 0,29.8035237 0,39.4313991 C0,47.1319508 5.01365321,53.6648398 11.9670373,55.970051 C12.8418178,56.129366 13.161693,55.591192 13.161693,55.1297612 C13.161693,54.7159306 13.1460893,53.6201538 13.1382875,52.1649467 C8.27091867,53.2189519 7.24400234,49.8286497 7.24400234,49.8286497 C6.44919056,47.8148684 5.30134582,47.2786373 5.30134582,47.2786373 C3.71269748,46.1964606 5.42129901,46.2188035 5.42129901,46.2188035 C7.17768676,46.3421756 8.10122879,48.0149837 8.10122879,48.0149837 C9.66354593,50.6786538 12.1971913,49.9092786 13.1948508,49.4633907 C13.3528379,48.3365281 13.8053443,47.5690958 14.3056368,47.1338937 C10.4203238,46.6938344 6.33508875,45.1978271 6.33508875,38.5192232 C6.33508875,36.6161854 7.01677394,35.0599492 8.13633704,33.8427433 C7.95591964,33.4017126 7.3561537,31.6298183 8.30797737,29.2294066 C8.30797737,29.2294066 9.77764775,28.7611757 13.1207334,31.0168439 C14.5172616,30.6302134 16.0132631,30.4368982 17.5014628,30.4300982 C18.9867369,30.4368982 20.4846889,30.6302134 21.8821923,31.0168439 C25.2223523,28.7611757 26.6890969,29.2294066 26.6890969,29.2294066 C27.6438463,31.6298183 27.0431051,33.4017126 26.863663,33.8427433 C27.9842013,35.0609207 28.6619856,36.6161854 28.6619856,38.5192232 C28.6619856,45.2153129 24.5718744,46.6889772 20.6729081,47.1202936 C21.301931,47.6584677 21.8617125,48.7221871 21.8617125,50.3483665 C21.8617125,52.6778635 21.8402575,54.5585584 21.8402575,55.1297612 C21.8402575,55.5950777 22.1552565,56.1381089 23.0436903,55.9681081 C29.9902477,53.6580397 35,47.130008 35,39.4313991 C34.9960991,29.8035237 27.1611079,22 17.4975619,22 Z"/>
    <path fill="#383838" d="M12.8753213 8.08294898L7.25790028 8.08294898C7.11295014 8.08294898 6.99546814 8.20567347 6.99546814 8.35728571L6.99546814 11.2262857C6.99546814 11.3775102 7.11295014 11.5008163 7.25790028 11.5008163L9.44922715 11.5008163 9.44922715 15.0652551C9.44922715 15.0652551 8.9572133 15.2405204 7.59679778 15.2405204 5.99195291 15.2405204 3.74995845 14.6280612 3.74995845 9.47789796 3.74995845 4.32676531 6.0845651 3.64896939 8.27626316 3.64896939 10.1736066 3.64896939 10.9907839 3.9977551 11.5110083 4.16604082 11.674518 4.21819388 11.8255928 4.04835714 11.8255928 3.8967449L12.4521634 1.12487755C12.4521634 1.05391837 12.4291496.968418367 12.3519418.910642857 12.1407341.753214286 10.852144-2.84217094e-14 7.59679778-2.84217094e-14 3.84683934-2.84217094e-14-1.68398628e-12 1.66657143-1.68398628e-12 9.6787551-1.68398628e-12 17.6909388 4.40418283 18.8848367 8.1155374 18.8848367 11.1884432 18.8848367 13.0525651 17.5131531 13.0525651 17.5131531 13.1294017 17.4687551 13.1377535 17.3566939 13.1377535 17.3053163L13.1377535 8.35728571C13.1377535 8.20567347 13.0202715 8.08294898 12.8753213 8.08294898M41.8252604.959887755C41.8252604.807306122 41.7094488.684193878 41.564313.684193878L38.4013934.684193878C38.257.684193878 38.139518.807306122 38.139518.959887755 38.139518.960663265 38.140446 7.3452449 38.140446 7.3452449L33.2100997 7.3452449 33.2100997.959887755C33.2100997.807306122 33.0939169.684193878 32.9491524.684193878L29.7864183.684193878C29.6425817.684193878 29.5250997.807306122 29.5250997.959887755L29.5250997 18.2495C29.5250997 18.4020816 29.6425817 18.5261633 29.7864183 18.5261633L32.9491524 18.5261633C33.0939169 18.5261633 33.2100997 18.4020816 33.2100997 18.2495L33.2100997 10.8542347 38.140446 10.8542347C38.140446 10.8542347 38.131723 18.2489184 38.131723 18.2495 38.131723 18.4020816 38.2490194 18.5261633 38.3937839 18.5261633L41.5641274 18.5261633C41.7090776 18.5261633 41.8248892 18.4020816 41.8252604 18.2495L41.8252604.959887755M18.8438892 3.22883673C18.8438892 2.0390102 17.9309446 1.07757143 16.8043795 1.07757143 15.678928 1.07757143 14.7650554 2.0390102 14.7650554 3.22883673 14.7650554 4.41730612 15.678928 5.38126531 16.8043795 5.38126531 17.9309446 5.38126531 18.8438892 4.41730612 18.8438892 3.22883673M18.6178338 14.6024694C18.6178338 14.1592653 18.6178338 6.6215 18.6178338 6.6215 18.6178338 6.46988776 18.500723 6.346 18.356144 6.346L15.2030609 6.346C15.058482 6.346 14.9291219 6.50187755 14.9291219 6.6534898 14.9291219 6.6534898 14.9291219 16.2570204 14.9291219 18.0876122 14.9291219 18.423602 15.1295651 18.5236429 15.3888421 18.5236429 15.3888421 18.5236429 16.7347812 18.5236429 18.2295679 18.5236429 18.5413684 18.5236429 18.6178338 18.3636939 18.6178338 18.0821837 18.6178338 17.4693367 18.6178338 15.0683571 18.6178338 14.6024694M53.8457285 6.37217347L50.7071219 6.37217347C50.5632853 6.37217347 50.4459889 6.49606122 50.4459889 6.64844898L50.4459889 15.1261327C50.4459889 15.1261327 49.6484848 15.7354898 48.516723 15.7354898 47.3851468 15.7354898 47.0848532 15.1990306 47.0848532 14.0415816 47.0848532 12.8825816 47.0848532 6.64844898 47.0848532 6.64844898 47.0848532 6.49606122 46.967928 6.37217347 46.8237202 6.37217347L43.6381579 6.37217347C43.4945069 6.37217347 43.3766537 6.49606122 43.3766537 6.64844898 43.3766537 6.64844898 43.3766537 11.1630816 43.3766537 14.6013061 43.3766537 18.0397245 45.2110803 18.8809592 47.7346233 18.8809592 49.8051274 18.8809592 51.474374 17.6860918 51.474374 17.6860918 51.474374 17.6860918 51.5538089 18.3158061 51.5898144 18.390449 51.6256343 18.464898 51.7193601 18.5401224 51.8206953 18.5401224L53.8472133 18.5306224C53.9908643 18.5306224 54.1087175 18.4065408 54.1087175 18.2547347L54.1076039 6.64844898C54.1076039 6.49606122 53.9904931 6.37217347 53.8457285 6.37217347M61.1864044 15.7250204C60.0977008 15.6905102 59.3592161 15.1744082 59.3592161 15.1744082L59.3592161 9.69911224C59.3592161 9.69911224 60.0876787 9.23264286 60.9815069 9.14927551 62.1117839 9.04361224 63.2008587 9.40015306 63.2008587 12.2168061 63.2008587 15.1868163 62.7094017 15.773102 61.1864044 15.7250204zM62.4243269 5.98364286C60.6416814 5.98364286 59.4291856 6.81460204 59.4291856 6.81460204L59.4291856.959887755C59.4291856.807306122 59.3122604.684193878 59.1682382.684193878L55.9962244.684193878C55.8520166.684193878 55.7349058.807306122 55.7349058.959887755L55.7349058 18.2495C55.7349058 18.4020816 55.8520166 18.5261633 55.9965956 18.5261633 55.9969668 18.5261633 58.1966454 18.5261633 58.1973878 18.5261633 58.2964958 18.5261633 58.3714765 18.4728469 58.4269695 18.379398 58.4817202 18.2865306 58.5605983 17.5821735 58.5605983 17.5821735 58.5605983 17.5821735 59.8575402 18.8660306 62.3127839 18.8660306 65.1954543 18.8660306 66.848554 17.3386633 66.848554 12.009551 66.848554 6.68005102 64.2082715 5.98364286 62.4243269 5.98364286L62.4243269 5.98364286zM27.7083047 6.34444898L25.335651 6.34444898C25.335651 6.34444898 25.3321247 3.07082653 25.3321247 3.0702449 25.3321247 2.94616327 25.2708781 2.88431633 25.133723 2.88431633L21.9006482 2.88431633C21.7748144 2.88431633 21.7074432 2.94209184 21.7074432 3.06830612L21.7074432 6.45185714C21.7074432 6.45185714 20.0871939 6.86055102 19.9775069 6.8935102 19.8685623 6.92646939 19.7881994 7.03155102 19.7881994 7.1569898L19.7881994 9.2832449C19.7881994 9.43621429 19.9051247 9.55952041 20.0497036 9.55952041L21.7074432 9.55952041C21.7074432 9.55952041 21.7074432 11.7834898 21.7074432 14.6747857 21.7074432 18.4742041 24.2586399 18.8474184 25.9800388 18.8474184 26.7667784 18.8474184 27.7077479 18.583551 27.8630914 18.5236429 27.9570028 18.4875816 28.0115679 18.3857959 28.0115679 18.2756735L28.0143518 15.9367347C28.0143518 15.7841531 27.8909307 15.6606531 27.7521053 15.6606531 27.613651 15.6606531 27.2600914 15.719398 26.8959529 15.719398 25.7304127 15.719398 25.335651 15.1532755 25.335651 14.4206122 25.335651 13.6885306 25.3354654 9.55952041 25.3354654 9.55952041L27.7083047 9.55952041C27.8528837 9.55952041 27.9699945 9.43621429 27.9699945 9.2832449L27.9699945 6.61994898C27.9699945 6.46736735 27.8528837 6.34444898 27.7083047 6.34444898" transform="translate(49 31)"/>
  </g>
</svg>
