<?xml version="1.0" encoding="UTF-8"?>
<svg width="32px" height="32px" viewBox="0 0 32 32" version="1.1" xmlns="http://www.w3.org/2000/svg" xmlns:xlink="http://www.w3.org/1999/xlink">
    <!-- Generator: Sketch 52.4 (67378) - http://www.bohemiancoding.com/sketch -->
    <title>icon-feature-immutable copy</title>
    <desc>Created with Sketch.</desc>
    <g id="icon-feature-immutable-copy" stroke="none" stroke-width="1" fill="none" fill-rule="evenodd">
        <path d="M24,13.4160437 C23.3875377,13.1484475 22.7111047,13 22,13 C20.3641822,13 18.9118401,13.7855533 17.9996338,15 L9,15 C8.44771525,15 8,14.5522847 8,14 L8,12 C8,11.4477153 8.44771525,11 9,11 L23,11 C23.5522847,11 24,11.4477153 24,12 L24,13.4160437 Z M17.1000181,17 C17.0344303,17.3231099 17,17.6575342 17,18 C15.8954305,18 15,18.8954305 15,20 L15,21 L9,21 C8.44771525,21 8,20.5522847 8,20 L8,18 C8,17.4477153 8.44771525,17 9,17 L17.1000181,17 Z M9,5 L23,5 C23.5522847,5 24,5.44771525 24,6 L24,8 C24,8.55228475 23.5522847,9 23,9 L9,9 C8.44771525,9 8,8.55228475 8,8 L8,6 C8,5.44771525 8.44771525,5 9,5 Z" id="data" fill="#1A96DE" fill-rule="nonzero"></path>
        <path d="M18,19.5 C18,17.0147186 20.790861,15 23,15 C25.209139,15 28,17.0147186 28,19.5 C28,19.6690045 27.9917185,19.8358331 27.9755872,20 L28,20 C28.5522847,20 29,20.4477153 29,21 L29,28 C29,28.5522847 28.5522847,29 28,29 L18,29 C17.4477153,29 17,28.5522847 17,28 L17,21 C17,20.4477153 17.4477153,20 18,20 L18.0244128,20 C18.0082815,19.8358331 18,19.6690045 18,19.5 Z M25.9600454,20 C25.9861836,19.8393837 26,19.6723024 26,19.5 C26,18.0702502 24.0486665,17 23,17 C21.9513335,17 20,18.0702502 20,19.5 C20,19.6723024 20.0138164,19.8393837 20.0399546,20 L25.9600454,20 Z M22.5,24.8662178 L22.5,26 C22.5,26.2761424 22.7238576,26.5 23,26.5 C23.2761424,26.5 23.5,26.2761424 23.5,26 L23.5,24.8662178 C23.7989007,24.6933131 24,24.3701412 24,24 C24,23.4477153 23.5522847,23 23,23 C22.4477153,23 22,23.4477153 22,24 C22,24.3701412 22.2010993,24.6933131 22.5,24.8662178 Z" id="lock" fill="#1A96DE" fill-rule="nonzero"></path>
    </g>
</svg>