<?xml version="1.0" encoding="UTF-8"?>
<svg width="32px" height="32px" viewBox="0 0 32 32" version="1.1" xmlns="http://www.w3.org/2000/svg" xmlns:xlink="http://www.w3.org/1999/xlink">
    <!-- Generator: Sketch 52.4 (67378) - http://www.bohemiancoding.com/sketch -->
    <title>icon-feature-business-model</title>
    <desc>Created with Sketch.</desc>
    <g id="icon-feature-business-model" stroke="none" stroke-width="1" fill="none" fill-rule="evenodd">
        <path d="M9,8 L9,10 L23,10 L23,8 L9,8 Z M7,6 L25,6 L25,12 L7,12 L7,6 Z" id="Rectangle" fill="#1A96DE" fill-rule="nonzero"></path>
        <path d="M22,20 L28,20 L28,26 L22,26 L22,20 Z M24,22 L24,24 L26,24 L26,22 L24,22 Z" id="Shape" fill="#1A96DE" fill-rule="nonzero"></path>
        <path d="M13,20 L19,20 L19,26 L13,26 L13,20 Z M15,22 L15,24 L17,24 L17,22 L15,22 Z" id="Shape" fill="#1A96DE" fill-rule="nonzero"></path>
        <path d="M4,20 L10,20 L10,26 L4,26 L4,20 Z M6,22 L6,24 L8,24 L8,22 L6,22 Z" id="Shape" fill="#1A96DE" fill-rule="nonzero"></path>
        <path d="M26,17 L26,20 L24,20 L24,17 L17,17 L17,20 L15,20 L15,17 L8,17 L8,20 L6,20 L6,17 L6,15 L15,15 L15,12 L17,12 L17,15 L26,15 L26,17 Z" id="Combined-Shape" fill="#1A96DE" fill-rule="nonzero"></path>
    </g>
</svg>