<?xml version="1.0" encoding="UTF-8"?>
<svg width="32px" height="32px" viewBox="0 0 32 32" version="1.1" xmlns="http://www.w3.org/2000/svg" xmlns:xlink="http://www.w3.org/1999/xlink">
    <!-- Generator: Sketch 52.4 (67378) - http://www.bohemiancoding.com/sketch -->
    <title>icon-feature-develop</title>
    <desc>Created with Sketch.</desc>
    <g id="icon-feature-develop" stroke="none" stroke-width="1" fill="none" fill-rule="evenodd">
        <path d="M17,27 L17,29 L4,29 C2.8954305,29 2,28.0299503 2,26.8333333 L2,5.16666667 C2,3.97004971 2.8954305,3 4,3 L28,3 C29.1045695,3 30,3.97004971 30,5.16666667 L30,18 L28,18 L28,5 L4,5 L4,27 L17,27 Z" id="Combined-Shape" fill="#1A96DE" fill-rule="nonzero"></path>
        <rect id="Rectangle" fill="#1A96DE" fill-rule="nonzero" x="8" y="9" width="11" height="2" rx="1"></rect>
        <rect id="Rectangle" fill="#1A96DE" fill-rule="nonzero" x="8" y="17" width="16" height="2" rx="1"></rect>
        <rect id="Rectangle" fill="#1A96DE" fill-rule="nonzero" x="14" y="21" width="5" height="2" rx="1"></rect>
        <rect id="Rectangle" fill="#1A96DE" fill-rule="nonzero" x="8" y="21" width="4" height="2" rx="1"></rect>
        <rect id="Rectangle" fill="#1A96DE" fill-rule="nonzero" x="8" y="13" width="8" height="2" rx="1"></rect>
        <rect id="Rectangle" fill="#1A96DE" fill-rule="nonzero" x="18" y="13" width="5" height="2" rx="1"></rect>
        <polygon id="Path-9" fill="#1A96DE" fill-rule="nonzero" points="29.7443109 20.8450695 31.2556891 22.1549305 24.0746636 30.4407292 19.3160589 25.9795372 20.6839411 24.5204628 23.9253364 27.5592708"></polygon>
    </g>
</svg>