<?xml version="1.0" encoding="UTF-8"?>
<svg width="32px" height="32px" viewBox="0 0 32 32" version="1.1" xmlns="http://www.w3.org/2000/svg" xmlns:xlink="http://www.w3.org/1999/xlink">
    <!-- Generator: Sketch 52.3 (67297) - http://www.bohemiancoding.com/sketch -->
    <title>icon-feature-scale</title>
    <desc>Created with Sketch.</desc>
    <g id="icon-feature-scale" stroke="none" stroke-width="1" fill="none" fill-rule="evenodd">
        <g id="scale-icon" transform="translate(3.000000, 3.000000)" fill="#1A96DE" fill-rule="nonzero">
            <path d="M2,16 L2,24 L10,24 L10,16 L2,16 Z M0,14 L12,14 L12,26 L0,26 L0,14 Z" id="square"></path>
            <g id="border">
                <rect id="Rectangle" x="0" y="0" width="2" height="2"></rect>
                <rect id="Rectangle" x="4" y="0" width="2" height="2"></rect>
                <rect id="Rectangle" x="8" y="0" width="2" height="2"></rect>
                <rect id="Rectangle" x="12" y="0" width="2" height="2"></rect>
                <rect id="Rectangle" x="16" y="0" width="2" height="2"></rect>
                <rect id="Rectangle" x="20" y="0" width="2" height="2"></rect>
                <rect id="Rectangle" x="24" y="0" width="2" height="2"></rect>
                <rect id="Rectangle" x="24" y="4" width="2" height="2"></rect>
                <rect id="Rectangle" x="24" y="8" width="2" height="2"></rect>
                <rect id="Rectangle" x="24" y="12" width="2" height="2"></rect>
                <rect id="Rectangle" x="24" y="16" width="2" height="2"></rect>
                <rect id="Rectangle" x="24" y="20" width="2" height="2"></rect>
                <rect id="Rectangle" x="24" y="24" width="2" height="2"></rect>
                <rect id="Rectangle" x="20" y="24" width="2" height="2"></rect>
                <rect id="Rectangle" x="16" y="24" width="2" height="2"></rect>
                <rect id="Rectangle" x="0" y="8" width="2" height="2"></rect>
                <rect id="Rectangle" x="0" y="4" width="2" height="2"></rect>
            </g>
            <path d="M16,13 L14,13 L14,7 C14,6.44771525 14.4477153,6 15,6 C15.5522847,6 16,6.44771525 16,7 L16,9.65685425 L20.6568542,5 L22.0710678,6.41421356 L17.4852814,11 L20,11 C20.5522847,11 21,11.4477153 21,12 C21,12.5522847 20.5522847,13 20,13 L16,13 Z" id="arrow"></path>
        </g>
    </g>
</svg>