<?xml version="1.0" encoding="UTF-8"?>
<svg width="32px" height="32px" viewBox="0 0 32 32" version="1.1" xmlns="http://www.w3.org/2000/svg" xmlns:xlink="http://www.w3.org/1999/xlink">
    <!-- Generator: Sketch 52 (66869) - http://www.bohemiancoding.com/sketch -->
    <title>no-icon-yet</title>
    <desc>Created with Sketch.</desc>
    <g id="no-icon-yet" stroke="none" stroke-width="1" fill="none" fill-rule="evenodd">
        <g id="spine-logo-color" transform="translate(1.000000, 4.000000)">
            <path d="M28.9297297,10.6864865 C28.6540541,10.4027027 28.4513514,10.0540541 28.3054054,9.64054054 C28.1594595,9.23513514 28.0540541,8.7972973 27.9972973,8.31891892 C27.9405405,7.84864865 27.9081081,7.37837838 27.9081081,6.91621622 L27.9081081,2.99189189 C27.9081081,2.12432432 27.7135135,1.41081081 27.3243243,0.859459459 C26.9432432,0.308108108 26.3594595,0.0324324324 25.5810811,0.0324324324 L24.2432432,0.0324324324 L24.2432432,0.843243243 L25.2324324,0.843243243 C25.6054054,0.843243243 25.8972973,0.932432432 26.1243243,1.11081081 C26.3432432,1.28108108 26.5054054,1.50810811 26.6027027,1.77567568 C26.7,2.04324324 26.7648649,2.34324324 26.7891892,2.65945946 C26.8216216,2.98378378 26.8378378,3.28378378 26.8378378,3.57567568 L26.8378378,7.46756757 C26.8378378,8.06756757 26.8945946,8.6027027 27.0081081,9.08108108 C27.1216216,9.55135135 27.2756757,9.96486486 27.4702703,10.3135135 C27.6648649,10.6621622 27.8756757,10.9459459 28.1027027,11.1648649 C28.3216216,11.3918919 28.5486486,11.5378378 28.7837838,11.6189189 L28.7837838,11.6513514 C28.2810811,11.8054054 27.827027,12.227027 27.4297297,12.9081081 C27.0324324,13.5972973 26.8378378,14.5054054 26.8378378,15.6243243 L26.8378378,19.8081081 C26.8378378,20.1 26.8135135,20.4 26.772973,20.7243243 C26.7405405,21.0405405 26.6675676,21.3324324 26.5540541,21.6081081 C26.4486486,21.8756757 26.2945946,22.1027027 26.0756757,22.272973 C25.8648649,22.4513514 25.5810811,22.5405405 25.2324324,22.5405405 L24.2432432,22.5405405 L24.2432432,23.3756757 L25.6135135,23.3756757 C26.327027,23.3756757 26.8945946,23.1081081 27.3162162,22.5648649 C27.7297297,22.0216216 27.9405405,21.3081081 27.9405405,20.4162162 L27.9405405,16.3540541 C27.9405405,15.0972973 28.0702703,14.1081081 28.3459459,13.4027027 C28.6135135,12.6972973 29.172973,12.2351351 30,12.0243243 L30,11.3027027 C29.5540541,11.1810811 29.1972973,10.9783784 28.9297297,10.6864865 Z M2.70810811,0.818918919 C2.3027027,1.36216216 2.1,2.08378378 2.1,2.99189189 L2.1,6.91621622 C2.1,7.37837838 2.06756757,7.84864865 2.01081081,8.31891892 C1.95405405,8.7972973 1.84864865,9.23513514 1.7027027,9.64054054 C1.55675676,10.0540541 1.34594595,10.4027027 1.06216216,10.6864865 C0.786486486,10.9783784 0.42972973,11.1810811 0,11.3027027 L0,12.0243243 C0.835135135,12.2351351 1.38648649,12.6972973 1.66216216,13.4027027 C1.92972973,14.1081081 2.06756757,15.0972973 2.06756757,16.3540541 L2.06756757,20.4162162 C2.06756757,21.3486486 2.27837838,22.0702703 2.69189189,22.5972973 C3.10540541,23.1162162 3.67297297,23.3756757 4.39459459,23.3756757 L5.75675676,23.3756757 L5.75675676,22.5405405 L4.76756757,22.5405405 C4.41891892,22.5405405 4.14324324,22.4513514 3.92432432,22.272973 C3.71351351,22.1027027 3.55135135,21.8756757 3.44594595,21.6081081 C3.34054054,21.3324324 3.26756757,21.0405405 3.22702703,20.7243243 C3.19459459,20.4 3.17027027,20.1 3.17027027,19.8081081 L3.17027027,15.6243243 C3.17027027,14.5054054 2.97567568,13.5972973 2.57837838,12.9081081 C2.18108108,12.227027 1.72702703,11.8054054 1.22432432,11.6513514 L1.22432432,11.6189189 C1.43513514,11.5378378 1.66216216,11.3918919 1.88918919,11.1648649 C2.12432432,10.9459459 2.33513514,10.6621622 2.52162162,10.3135135 C2.7,9.96486486 2.85405405,9.55135135 2.98378378,9.08108108 C3.10540541,8.6027027 3.17027027,8.06756757 3.17027027,7.46756757 L3.17027027,3.57567568 C3.17027027,3.28378378 3.19459459,2.98378378 3.22702703,2.65945946 C3.26756757,2.34324324 3.34054054,2.04324324 3.44594595,1.77567568 C3.55135135,1.50810811 3.71351351,1.28108108 3.92432432,1.11081081 C4.14324324,0.932432432 4.41891892,0.843243243 4.76756757,0.843243243 L5.75675676,0.843243243 L5.75675676,0 L4.39459459,0 C3.67297297,0 3.11351351,0.275675676 2.70810811,0.818918919 Z" id="Shape" fill="#656F72" fill-rule="nonzero"></path>
            <path d="M21.5,4 C21.2214286,4 21,4.22302158 21,4.50359712 C21,4.77697842 21.2214286,5 21.5,5 C21.7714286,5 22,4.77697842 22,4.50359712 C22,4.22302158 21.7714286,4 21.5,4 Z M22.5590551,6 L7.44094488,6 C7.19685039,6 7,5.79224377 7,5.53462604 L7,3.45706371 C7,3.20775623 7.19685039,3 7.44094488,3 L22.5590551,3 C22.8031496,3 23,3.20775623 23,3.45706371 L23,5.53462604 C23,5.79224377 22.8031496,6 22.5590551,6 Z M21.5,9 C21.2214286,9 21,9.22463768 21,9.5 C21,9.77536232 21.2214286,10 21.5,10 C21.7714286,10 22,9.77536232 22,9.5 C22,9.22463768 21.7714286,9 21.5,9 Z M22.5590551,11 L7.44094488,11 C7.19685039,11 7,10.7922438 7,10.534626 L7,8.45706371 C7,8.20775623 7.19685039,8 7.44094488,8 L22.5590551,8 C22.8031496,8 23,8.20775623 23,8.45706371 L23,10.534626 C23,10.7922438 22.8031496,11 22.5590551,11 Z M21.5034483,14 C21.2275862,14 21,14.2222222 21,14.5 C21,14.7777778 21.2275862,15 21.5034483,15 C21.7793103,15 22,14.7777778 22,14.5 C22,14.2222222 21.7793103,14 21.5034483,14 Z M22.5590551,16 L7.44094488,16 C7.19685039,16 7,15.800554 7,15.5429363 L7,13.465374 C7,13.2077562 7.19685039,13 7.44094488,13 L22.5590551,13 C22.8031496,13 23,13.2077562 23,13.465374 L23,15.5429363 C23,15.800554 22.8031496,16 22.5590551,16 Z M21.5034483,19 C21.2275862,19 21,19.2222222 21,19.5 C21,19.7777778 21.2275862,20 21.5034483,20 C21.7793103,20 22,19.7777778 22,19.5 C22,19.2222222 21.7793103,19 21.5034483,19 Z M22.5590551,21 L7.44094488,21 C7.19685039,21 7,20.7922438 7,20.5429363 L7,18.465374 C7,18.2077562 7.19685039,18 7.44094488,18 L22.5590551,18 C22.8031496,18 23,18.2077562 23,18.465374 L23,20.5429363 C23,20.7922438 22.8031496,21 22.5590551,21 Z" id="Shape" fill="#1A96DE"></path>
        </g>
    </g>
</svg>