<svg xmlns="http://www.w3.org/2000/svg" width="245" height="80" viewBox="0 0 245 80">
  <g fill="none" fill-rule="evenodd">
    <g transform="translate(2 21)">
      <circle cx="18.163" cy="18.163" r="18.163" fill="#474B4C"/>
      <circle cx="18.163" cy="18.163" r="15.514" fill="#FFF"/>
      <path fill="#4CB748" d="M18.1632002,2.64880003 L18.1632002,33.6776004 C9.59483359,33.6776004 2.64880003,26.7315668 2.64880003,18.1632002 C2.64880003,9.59483359 9.59483359,2.64880003 18.1632002,2.64880003 Z"/>
      <path fill="#000003" fill-rule="nonzero" d="M14.2250014,10.6344697 C13.4482007,12.1551298 13.9811221,15.2244374 13.9811221,15.2244374 C13.9811221,15.2244374 13.4120704,15.2710835 13.4120704,15.7282144 C13.4120704,16.1946745 13.7011125,16.9876568 14.0262849,17.5847257 C14.3514573,18.1724655 14.5592063,18.1724655 14.5592063,18.1724655 C14.5592063,18.1724655 14.8482484,19.4785539 15.2908442,20.0289768 C15.7424725,20.5793998 15.8598958,20.3275113 15.8598958,20.9525679 C15.8598958,21.5869537 15.8598958,22.5945076 15.8598958,22.5945076 C15.9050587,23.0982845 14.7037274,23.7233411 14.0624152,24.0591924 C12.8430187,24.6935782 9.53709951,26.2608842 8.67900572,26.848624 C7.82091194,27.4363638 7.62219548,27.6509354 7.57703265,28.7051353 C7.57703265,28.8170858 7.56800008,28.9850114 7.56800008,29.1902539 C10.2958351,31.9703563 14.0353175,33.6776004 18.1632002,33.6776004 C22.2910829,33.6776004 26.0395979,31.9610271 28.7584003,29.1902539 C28.7584003,28.9850114 28.7493678,28.826415 28.7493678,28.7051353 C28.7042049,27.6509354 28.5054885,27.445693 27.6473947,26.848624 C26.7893009,26.2608842 23.4833817,24.684249 22.2639852,24.0591924 C21.622673,23.7233411 20.4303743,23.0982845 20.4665046,22.5945076 C20.4665046,22.5945076 20.4665046,21.5869537 20.4665046,20.9525679 C20.4665046,20.3181821 20.5929605,20.5700706 21.0355562,20.0289768 C21.4871846,19.4785539 21.7671941,18.1724655 21.7671941,18.1724655 C21.7671941,18.1724655 21.9749431,18.1724655 22.3001155,17.5847257 C22.6252879,16.996986 22.91433,16.1946745 22.91433,15.7282144 C22.91433,15.2617543 22.3452783,15.2244374 22.3452783,15.2244374 C22.3452783,15.2244374 22.8781997,12.1458006 22.1013991,10.6344697 C21.3787938,9.22576012 19.6264759,8.7032001 18.1812653,8.7032001 C16.7270222,8.69399556 14.9476066,9.20710171 14.2250014,10.6344697 Z"/>
    </g>
    <path fill="#37474F" fill-rule="nonzero" d="M54.715,44.71 C56.395,44.71 57.415,43.9 57.415,41.845 C57.415,40.285 57.01,39.265 55.015,39.175 C56.89,39.01 57.19,38.14 57.19,36.76 C57.19,35.23 56.71,34.255 54.625,34.255 L49,34.255 L49,44.71 L54.715,44.71 Z M54.19,38.425 L50.98,38.425 L50.98,35.935 L54.19,35.935 C54.865,35.935 55.09,36.325 55.09,37.165 C55.09,37.945 54.85,38.425 54.19,38.425 Z M54.28,43.045 L50.98,43.045 L50.98,40.03 L54.22,40.03 C54.94,40.03 55.285,40.585 55.285,41.575 C55.285,42.52 55,43.045 54.28,43.045 Z M60.295,44.71 C60.535,43.915 60.805,43.03 61.105,42.1 L65.68,42.1 C66.025,43.06 66.385,43.96 66.685,44.71 L68.875,44.71 C67.705,41.92 66.175,37.615 65.11,34.255 L62.005,34.255 C60.73,37.375 59.2,41.59 58.225,44.71 L60.295,44.71 Z M65.11,40.405 L61.63,40.405 C62.17,38.83 62.725,37.285 63.25,35.935 L63.655,35.935 C64.06,37.285 64.57,38.86 65.11,40.405 Z M74.29,44.92 C75.25,44.92 76.48,44.77 77.29,44.545 L76.855,42.775 C76.315,42.97 75.34,43.105 74.635,43.105 C72.355,43.105 71.5,42.61 71.5,39.4 C71.5,36.19 72.355,35.8 74.635,35.8 C75.34,35.8 76.315,35.935 76.855,36.13 L77.29,34.39 C76.48,34.165 75.25,34 74.29,34 C70.975,34 69.385,35.11 69.385,39.385 C69.385,43.645 70.975,44.92 74.29,44.92 Z M80.77,44.71 L80.77,34.255 L78.79,34.255 L78.79,44.71 L80.77,44.71 Z M87.595,44.71 C85.51,41.245 83.83,39.4 83.32,39.055 C83.845,38.62 85.345,36.955 87.265,34.255 L84.865,34.255 C83.035,36.955 81.43,38.725 80.785,39.19 C81.385,39.43 83.065,41.245 85.165,44.71 L87.595,44.71 Z M93.1,44.92 C94.315,44.92 95.965,44.74 96.82,44.47 L96.82,38.605 L92.515,38.605 L92.515,40.27 L94.795,40.27 L94.795,42.97 C94.48,43.045 93.94,43.12 93.445,43.12 C91.165,43.12 90.31,42.61 90.31,39.4 C90.31,36.19 91.165,35.8 93.535,35.8 C94.24,35.8 95.575,35.92 96.13,36.115 L96.535,34.39 C95.725,34.165 94.33,34 93.385,34 C89.98,34 88.195,35.11 88.195,39.385 C88.195,43.645 89.785,44.92 93.1,44.92 Z M101.2,44.71 L101.2,40.72 L102.595,40.72 C103.27,40.72 104.245,41.845 105.88,44.71 L108.325,44.71 C106.495,41.65 105.55,40.42 104.83,40.165 C106.915,40.09 107.575,38.8 107.575,37.3 C107.575,35.62 106.87,34.255 104.665,34.255 L99.22,34.255 L99.22,44.71 L101.2,44.71 Z M104.155,39.085 L101.2,39.085 L101.2,35.935 L104.2,35.935 C104.935,35.935 105.37,36.46 105.37,37.555 C105.37,38.575 104.92,39.085 104.155,39.085 Z M114.265,44.92 C117.58,44.92 119.23,43.705 119.23,39.385 C119.23,35.14 117.58,34 114.265,34 C110.95,34 109.285,35.14 109.285,39.385 C109.285,43.705 110.935,44.92 114.265,44.92 Z M114.265,43.135 C111.97,43.135 111.4,42.565 111.4,39.415 C111.4,36.25 111.97,35.785 114.265,35.785 C116.56,35.785 117.13,36.25 117.13,39.415 C117.13,42.565 116.56,43.135 114.265,43.135 Z M125.605,44.92 C128.335,44.92 130,44.29 130,41.545 L129.985,34.255 L128.02,34.255 L128.02,41.245 C128.02,42.715 127.3,43.105 125.605,43.105 C123.82,43.105 123.205,42.64 123.205,41.245 L123.205,34.255 L121.21,34.255 L121.21,41.545 C121.21,44.29 122.875,44.92 125.605,44.92 Z M134.425,44.71 L134.425,36.835 C136.06,39.43 137.62,42.1 139.03,44.71 L141.445,44.71 L141.445,34.255 L139.48,34.255 L139.48,41.8 C138.115,39.25 136.6,36.64 135.085,34.255 L132.49,34.255 L132.49,44.71 L134.425,44.71 Z M148.09,44.71 C151.405,44.71 153.025,43.495 153.025,39.445 C153.025,35.38 151.405,34.255 148.09,34.255 L144.1,34.255 L144.1,44.71 L148.09,44.71 Z M147.895,43 L146.08,43 L146.08,35.965 L147.895,35.965 C150.205,35.965 150.91,36.385 150.91,39.46 C150.91,42.415 150.205,43 147.895,43 Z M161.11,44.71 L161.11,34.255 L159.13,34.255 L159.13,44.71 L161.11,44.71 Z M167.935,44.71 C165.85,41.245 164.17,39.4 163.66,39.055 C164.185,38.62 165.685,36.955 167.605,34.255 L165.205,34.255 C163.375,36.955 161.77,38.725 161.125,39.19 C161.725,39.43 163.405,41.245 165.505,44.71 L167.935,44.71 Z M170.995,44.71 L170.995,36.835 C172.63,39.43 174.19,42.1 175.6,44.71 L178.015,44.71 L178.015,34.255 L176.05,34.255 L176.05,41.8 C174.685,39.25 173.17,36.64 171.655,34.255 L169.06,34.255 L169.06,44.71 L170.995,44.71 Z M185.125,44.92 C188.44,44.92 190.09,43.705 190.09,39.385 C190.09,35.14 188.44,34 185.125,34 C181.81,34 180.145,35.14 180.145,39.385 C180.145,43.705 181.795,44.92 185.125,44.92 Z M185.125,43.135 C182.83,43.135 182.26,42.565 182.26,39.415 C182.26,36.25 182.83,35.785 185.125,35.785 C187.42,35.785 187.99,36.25 187.99,39.415 C187.99,42.565 187.42,43.135 185.125,43.135 Z M196.6,44.92 C197.56,44.92 198.79,44.77 199.6,44.545 L199.165,42.775 C198.625,42.97 197.65,43.105 196.945,43.105 C194.665,43.105 193.81,42.61 193.81,39.4 C193.81,36.19 194.665,35.8 196.945,35.8 C197.65,35.8 198.625,35.935 199.165,36.13 L199.6,34.39 C198.79,34.165 197.56,34 196.6,34 C193.285,34 191.695,35.11 191.695,39.385 C191.695,43.645 193.285,44.92 196.6,44.92 Z M203.08,44.71 L203.08,34.255 L201.1,34.255 L201.1,44.71 L203.08,44.71 Z M209.905,44.71 C207.82,41.245 206.14,39.4 205.63,39.055 C206.155,38.62 207.655,36.955 209.575,34.255 L207.175,34.255 C205.345,36.955 203.74,38.725 203.095,39.19 C203.695,39.43 205.375,41.245 207.475,44.71 L209.905,44.71 Z M215.485,44.92 C218.8,44.92 220.45,43.705 220.45,39.385 C220.45,35.14 218.8,34 215.485,34 C212.17,34 210.505,35.14 210.505,39.385 C210.505,43.705 212.155,44.92 215.485,44.92 Z M215.485,43.135 C213.19,43.135 212.62,42.565 212.62,39.415 C212.62,36.25 213.19,35.785 215.485,35.785 C217.78,35.785 218.35,36.25 218.35,39.415 C218.35,42.565 217.78,43.135 215.485,43.135 Z M226.825,44.92 C229.555,44.92 231.22,44.29 231.22,41.545 L231.205,34.255 L229.24,34.255 L229.24,41.245 C229.24,42.715 228.52,43.105 226.825,43.105 C225.04,43.105 224.425,42.64 224.425,41.245 L224.425,34.255 L222.43,34.255 L222.43,41.545 C222.43,44.29 224.095,44.92 226.825,44.92 Z M237.955,44.71 L237.955,35.965 L241.48,35.965 L241.48,34.255 L232.435,34.255 L232.435,35.965 L235.96,35.965 L235.96,44.71 L237.955,44.71 Z"/>
  </g>
</svg>
