<svg xmlns="http://www.w3.org/2000/svg" viewBox="0 0 110 80">
  <g fill="none" transform="translate(9 8)">
    <polygon fill="#DDD" points="17.924 13.398 32.978 26.201 35.095 23.697 20.04 10.894"/>
    <polygon fill="#DDD" points="13.157 12.999 5.302 39.918 8.443 40.84 16.298 13.921"/>
    <polygon fill="#DDD" points="8.686 47.201 54.832 61.318 55.786 58.177 9.641 44.061"/>
    <polygon fill="#DDD" points="64.003 59.913 82.985 40.545 80.651 38.243 61.669 57.612"/>
    <path fill="#EA4334" d="M15.8727273 14.7727273C18.8550649 14.7727273 21.2727273 12.347603 21.2727273 9.35606061 21.2727273 6.36451821 18.8550649 3.93939394 15.8727273 3.93939394 12.8903896 3.93939394 10.4727273 6.36451821 10.4727273 9.35606061 10.4727273 12.347603 12.8903896 14.7727273 15.8727273 14.7727273zM15.8727273 12.4747475C14.1556238 12.4747475 12.7636364 11.0784638 12.7636364 9.35606061 12.7636364 7.63365741 14.1556238 6.23737374 15.8727273 6.23737374 17.5898308 6.23737374 18.9818182 7.63365741 18.9818182 9.35606061 18.9818182 11.0784638 17.5898308 12.4747475 15.8727273 12.4747475zM5.4 49.5707071C8.38233765 49.5707071 10.8 47.1455828 10.8 44.1540404 10.8 41.162498 8.38233765 38.7373737 5.4 38.7373737 2.41766235 38.7373737 0 41.162498 0 44.1540404 0 47.1455828 2.41766235 49.5707071 5.4 49.5707071zM5.4 47.2727273C3.68289651 47.2727273 2.29090909 45.8764436 2.29090909 44.1540404 2.29090909 42.4316372 3.68289651 41.0353535 5.4 41.0353535 7.11710349 41.0353535 8.50909091 42.4316372 8.50909091 44.1540404 8.50909091 45.8764436 7.11710349 47.2727273 5.4 47.2727273z"/>
    <path fill="#DDD" d="M59.0727273 65C62.0550649 65 64.4727273 62.5748757 64.4727273 59.5833333 64.4727273 56.5917909 62.0550649 54.1666667 59.0727273 54.1666667 56.0903896 54.1666667 53.6727273 56.5917909 53.6727273 59.5833333 53.6727273 62.5748757 56.0903896 65 59.0727273 65zM59.0727273 62.7020202C57.3556238 62.7020202 55.9636364 61.3057365 55.9636364 59.5833333 55.9636364 57.8609301 57.3556238 56.4646465 59.0727273 56.4646465 60.7898308 56.4646465 62.1818182 57.8609301 62.1818182 59.5833333 62.1818182 61.3057365 60.7898308 62.7020202 59.0727273 62.7020202zM75.1090909 10.8333333C78.0914286 10.8333333 80.5090909 8.40820906 80.5090909 5.41666667 80.5090909 2.42512427 78.0914286 0 75.1090909 0 72.1267533 0 69.7090909 2.42512427 69.7090909 5.41666667 69.7090909 8.40820906 72.1267533 10.8333333 75.1090909 10.8333333zM75.1090909 8.53535354C73.3919874 8.53535354 72 7.13906986 72 5.41666667 72 3.69426347 73.3919874 2.2979798 75.1090909 2.2979798 76.8261944 2.2979798 78.2181818 3.69426347 78.2181818 5.41666667 78.2181818 7.13906986 76.8261944 8.53535354 75.1090909 8.53535354z"/>
    <path fill="#EA4334" d="M84.6,42.020202 C87.5823376,42.020202 90,39.5950777 90,36.6035354 C90,33.611993 87.5823376,31.1868687 84.6,31.1868687 C81.6176624,31.1868687 79.2,33.611993 79.2,36.6035354 C79.2,39.5950777 81.6176624,42.020202 84.6,42.020202 Z M84.6,39.7222222 C82.8828965,39.7222222 81.4909091,38.3259386 81.4909091,36.6035354 C81.4909091,34.8811322 82.8828965,33.4848485 84.6,33.4848485 C86.3171035,33.4848485 87.7090909,34.8811322 87.7090909,36.6035354 C87.7090909,38.3259386 86.3171035,39.7222222 84.6,39.7222222 Z"/>
    <path fill="#FFF" d="M45.1636364,53.8383838 C34.3187722,53.8383838 25.5272727,45.0197501 25.5272727,34.1414141 C25.5272727,23.2630782 34.3187722,14.4444444 45.1636364,14.4444444 C56.0085005,14.4444444 64.8,23.2630782 64.8,34.1414141 C64.8,45.0197501 56.0085005,53.8383838 45.1636364,53.8383838 Z"/>
    <path fill="#EA4334" d="M45.1636364,56.1363636 C57.2737347,56.1363636 67.0909091,46.2888893 67.0909091,34.1414141 C67.0909091,21.993939 57.2737347,12.1464646 45.1636364,12.1464646 C33.053538,12.1464646 23.2363636,21.993939 23.2363636,34.1414141 C23.2363636,46.2888893 33.053538,56.1363636 45.1636364,56.1363636 Z M45.1636364,53.8383838 C34.3187722,53.8383838 25.5272727,45.0197501 25.5272727,34.1414141 C25.5272727,23.2630782 34.3187722,14.4444444 45.1636364,14.4444444 C56.0085005,14.4444444 64.8,23.2630782 64.8,34.1414141 C64.8,45.0197501 56.0085005,53.8383838 45.1636364,53.8383838 Z"/>
    <g transform="translate(38.945 23.942)">
      <g fill="#F8A49C" opacity=".5">
        <polygon points="11.996 19.96 1.062 19.96 1.062 1.051 11.996 1.051 11.996 2.348 2.374 2.348 2.374 18.662 11.996 18.662"/>
        <polygon points="1.749 9.825 11.996 9.825 11.996 11.123 1.749 11.123"/>
        <ellipse cx="11.996" cy="1.73" rx="1.375" ry="1.359"/>
        <path d="M11.9960331,3.39869281 C11.058843,3.39869281 10.2466116,2.65715983 10.2466116,1.6684492 C10.2466116,0.679738562 11.058843,0 11.9960331,0 C12.9332231,0 13.7454545,0.741532977 13.7454545,1.73024361 C13.7454545,2.71895425 12.9332231,3.39869281 11.9960331,3.39869281 Z M11.9960331,0.679738562 C11.433719,0.679738562 10.9338843,1.17409388 10.9338843,1.73024361 C10.9338843,2.28639335 11.433719,2.78074866 11.9960331,2.78074866 C12.5583471,2.78074866 13.0581818,2.28639335 13.0581818,1.73024361 C13.0581818,1.17409388 12.6208264,0.679738562 11.9960331,0.679738562 Z"/>
        <ellipse cx="11.996" cy="19.28" rx="1.375" ry="1.359"/>
        <path d="M11.9960331,21.010101 C11.058843,21.010101 10.2466116,20.268568 10.2466116,19.2798574 C10.2466116,18.3529412 10.9963636,17.5496138 11.9960331,17.5496138 C12.9332231,17.5496138 13.7454545,18.2911468 13.7454545,19.2798574 C13.7454545,20.268568 12.9332231,21.010101 11.9960331,21.010101 Z M11.9960331,18.2293523 C11.433719,18.2293523 10.9338843,18.7237077 10.9338843,19.2798574 C10.9338843,19.8360071 11.433719,20.3303624 11.9960331,20.3303624 C12.5583471,20.3303624 13.0581818,19.8360071 13.0581818,19.2798574 C13.0581818,18.7237077 12.6208264,18.2293523 11.9960331,18.2293523 L11.9960331,18.2293523 Z"/>
        <g transform="translate(0 8.651)">
          <ellipse cx="1.749" cy="1.854" rx="1.375" ry="1.359"/>
          <path d="M1.74942149,3.58407605 C0.812231405,3.58407605 0,2.78074866 0,1.85383244 C0,0.926916221 0.749752066,0.123588829 1.74942149,0.123588829 C2.68661157,0.123588829 3.49884298,0.865121806 3.49884298,1.85383244 C3.49884298,2.84254308 2.68661157,3.58407605 1.74942149,3.58407605 Z M1.74942149,0.803327392 C1.18710744,0.803327392 0.687272727,1.29768271 0.687272727,1.85383244 C0.687272727,2.40998217 1.18710744,2.90433749 1.74942149,2.90433749 C2.31173554,2.90433749 2.81157025,2.40998217 2.81157025,1.85383244 C2.81157025,1.29768271 2.31173554,0.803327392 1.74942149,0.803327392 Z"/>
        </g>
      </g>
      <ellipse cx="12.109" cy="10.505" fill="#EA4334" rx="1.309" ry="1.313"/>
      <path fill="#EA4334" d="M11.9454545,12.4747475 C10.9811688,12.4747475 10.1454545,11.700938 10.1454545,10.6691919 C10.1454545,9.63744589 10.9168831,8.86363636 11.9454545,8.86363636 C12.9097403,8.86363636 13.7454545,9.63744589 13.7454545,10.6691919 C13.7454545,11.700938 12.9097403,12.4747475 11.9454545,12.4747475 Z M11.9454545,9.57296176 C11.3668831,9.57296176 10.8525974,10.0888348 10.8525974,10.6691919 C10.8525974,11.2495491 11.3668831,11.7654221 11.9454545,11.7654221 C12.524026,11.7654221 13.0383117,11.2495491 13.0383117,10.6691919 C13.0383117,10.0888348 12.5883117,9.57296176 11.9454545,9.57296176 Z"/>
      <ellipse cx="1.636" cy="19.369" fill="#EA4334" rx="1.309" ry="1.313"/>
      <path fill="#EA4334" d="M1.8,21.010101 C0.835714286,21.010101 0,20.2362915 0,19.2045455 C0,18.2372835 0.771428571,17.3989899 1.8,17.3989899 C2.76428571,17.3989899 3.6,18.1727994 3.6,19.2045455 C3.53571429,20.2362915 2.76428571,21.010101 1.8,21.010101 Z M1.8,18.1083153 C1.22142857,18.1083153 0.707142857,18.6241883 0.707142857,19.2045455 C0.707142857,19.7849026 1.22142857,20.3007756 1.8,20.3007756 C2.37857143,20.3007756 2.89285714,19.7849026 2.89285714,19.2045455 C2.89285714,18.6241883 2.37857143,18.1083153 1.8,18.1083153 L1.8,18.1083153 Z"/>
      <g fill="#EA4334">
        <ellipse cx="1.833" cy="1.671" rx="1.44" ry="1.313"/>
        <path d="M1.83272727,3.28282828 C0.850909091,3.28282828 0,2.56657484 0,1.67125803 C0,0.77594123 0.850909091,0 1.83272727,0 C2.81454545,0 3.66545455,0.716253444 3.66545455,1.67125803 C3.66545455,2.62626263 2.81454545,3.28282828 1.83272727,3.28282828 Z M1.83272727,0.656565657 C1.24363636,0.656565657 0.72,1.13406795 0.72,1.67125803 C0.72,2.20844812 1.24363636,2.68595041 1.83272727,2.68595041 C2.42181818,2.68595041 2.94545455,2.20844812 2.94545455,1.67125803 C2.94545455,1.13406795 2.42181818,0.656565657 1.83272727,0.656565657 Z"/>
      </g>
    </g>
  </g>
</svg>
