<svg xmlns="http://www.w3.org/2000/svg" viewBox="0 0 110 80">
  <g fill="none" transform="translate(2 4)">
    <polygon fill="#DDD" points="20.911 15.46 38.475 30.232 40.944 27.343 23.38 12.571"/>
    <polygon fill="#DDD" points="15.35 14.998 6.186 46.059 9.85 47.123 19.014 16.062"/>
    <polygon fill="#DDD" points="10.134 54.463 63.97 70.751 65.084 67.128 11.248 50.84"/>
    <polygon fill="#DDD" points="74.671 69.131 96.816 46.782 94.093 44.127 71.948 66.475"/>
    <path fill="#EA4334" d="M18.5181818 17.0454545C21.9975757 17.0454545 24.8181818 14.2472342 24.8181818 10.7954545 24.8181818 7.34367486 21.9975757 4.54545455 18.5181818 4.54545455 15.0387879 4.54545455 12.2181818 7.34367486 12.2181818 10.7954545 12.2181818 14.2472342 15.0387879 17.0454545 18.5181818 17.0454545zM18.5181818 14.3939394C16.5148944 14.3939394 14.8909091 12.7828428 14.8909091 10.7954545 14.8909091 8.80806624 16.5148944 7.1969697 18.5181818 7.1969697 20.5214692 7.1969697 22.1454545 8.80806624 22.1454545 10.7954545 22.1454545 12.7828428 20.5214692 14.3939394 18.5181818 14.3939394zM6.3 57.1969697C9.77939392 57.1969697 12.6 54.3987494 12.6 50.9469697 12.6 47.49519 9.77939392 44.6969697 6.3 44.6969697 2.82060608 44.6969697 0 47.49519 0 50.9469697 0 54.3987494 2.82060608 57.1969697 6.3 57.1969697zM6.3 54.5454545C4.29671259 54.5454545 2.67272727 52.934358 2.67272727 50.9469697 2.67272727 48.9595814 4.29671259 47.3484848 6.3 47.3484848 8.30328741 47.3484848 9.92727273 48.9595814 9.92727273 50.9469697 9.92727273 52.934358 8.30328741 54.5454545 6.3 54.5454545z"/>
    <path fill="#DDD" d="M68.9181818 75C72.3975757 75 75.2181818 72.2017797 75.2181818 68.75 75.2181818 65.2982203 72.3975757 62.5 68.9181818 62.5 65.4387879 62.5 62.6181818 65.2982203 62.6181818 68.75 62.6181818 72.2017797 65.4387879 75 68.9181818 75zM68.9181818 72.3484848C66.9148944 72.3484848 65.2909091 70.7373883 65.2909091 68.75 65.2909091 66.7626117 66.9148944 65.1515152 68.9181818 65.1515152 70.9214692 65.1515152 72.5454545 66.7626117 72.5454545 68.75 72.5454545 70.7373883 70.9214692 72.3484848 68.9181818 72.3484848zM87.6272727 12.5C91.1066667 12.5 93.9272727 9.70177969 93.9272727 6.25 93.9272727 2.79822031 91.1066667 0 87.6272727 0 84.1478788 0 81.3272727 2.79822031 81.3272727 6.25 81.3272727 9.70177969 84.1478788 12.5 87.6272727 12.5zM87.6272727 9.84848485C85.6239853 9.84848485 84 8.2373883 84 6.25 84 4.2626117 85.6239853 2.65151515 87.6272727 2.65151515 89.6305601 2.65151515 91.2545455 4.2626117 91.2545455 6.25 91.2545455 8.2373883 89.6305601 9.84848485 87.6272727 9.84848485z"/>
    <path fill="#EA4334" d="M98.7,48.4848485 C102.179394,48.4848485 105,45.6866282 105,42.2348485 C105,38.7830688 102.179394,35.9848485 98.7,35.9848485 C95.2206061,35.9848485 92.4,38.7830688 92.4,42.2348485 C92.4,45.6866282 95.2206061,48.4848485 98.7,48.4848485 Z M98.7,45.8333333 C96.6967126,45.8333333 95.0727273,44.2222368 95.0727273,42.2348485 C95.0727273,40.2474602 96.6967126,38.6363636 98.7,38.6363636 C100.703287,38.6363636 102.327273,40.2474602 102.327273,42.2348485 C102.327273,44.2222368 100.703287,45.8333333 98.7,45.8333333 Z"/>
    <path fill="#FFF" d="M52.6909091,62.1212121 C40.0385676,62.1212121 29.7818182,51.9458655 29.7818182,39.3939394 C29.7818182,26.8420133 40.0385676,16.6666667 52.6909091,16.6666667 C65.3432506,16.6666667 75.6,26.8420133 75.6,39.3939394 C75.6,51.9458655 65.3432506,62.1212121 52.6909091,62.1212121 Z"/>
    <path fill="#EA4334" d="M52.6909091,64.7727273 C66.8193571,64.7727273 78.2727273,53.4102569 78.2727273,39.3939394 C78.2727273,25.3776219 66.8193571,14.0151515 52.6909091,14.0151515 C38.562461,14.0151515 27.1090909,25.3776219 27.1090909,39.3939394 C27.1090909,53.4102569 38.562461,64.7727273 52.6909091,64.7727273 Z M52.6909091,62.1212121 C40.0385676,62.1212121 29.7818182,51.9458655 29.7818182,39.3939394 C29.7818182,26.8420133 40.0385676,16.6666667 52.6909091,16.6666667 C65.3432506,16.6666667 75.6,26.8420133 75.6,39.3939394 C75.6,51.9458655 65.3432506,62.1212121 52.6909091,62.1212121 Z"/>
    <g transform="translate(45.436 27.627)">
      <g fill="#F8A49C" opacity=".5">
        <polygon points="13.995 23.03 1.239 23.03 1.239 1.212 13.995 1.212 13.995 2.709 2.77 2.709 2.77 21.533 13.995 21.533"/>
        <polygon points="2.041 11.337 13.995 11.337 13.995 12.834 2.041 12.834"/>
        <ellipse cx="13.995" cy="1.996" rx="1.604" ry="1.569"/>
        <path d="M13.9953719,3.92156863 C12.9019835,3.92156863 11.9543802,3.06595365 11.9543802,1.92513369 C11.9543802,0.784313725 12.9019835,0 13.9953719,0 C15.0887603,0 16.0363636,0.855614973 16.0363636,1.99643494 C16.0363636,3.1372549 15.0887603,3.92156863 13.9953719,3.92156863 Z M13.9953719,0.784313725 C13.3393388,0.784313725 12.7561983,1.35472371 12.7561983,1.99643494 C12.7561983,2.63814617 13.3393388,3.20855615 13.9953719,3.20855615 C14.651405,3.20855615 15.2345455,2.63814617 15.2345455,1.99643494 C15.2345455,1.35472371 14.7242975,0.784313725 13.9953719,0.784313725 Z"/>
        <ellipse cx="13.995" cy="22.246" rx="1.604" ry="1.569"/>
        <path d="M13.9953719,24.2424242 C12.9019835,24.2424242 11.9543802,23.3868093 11.9543802,22.2459893 C11.9543802,21.1764706 12.8290909,20.2495544 13.9953719,20.2495544 C15.0887603,20.2495544 16.0363636,21.1051693 16.0363636,22.2459893 C16.0363636,23.3868093 15.0887603,24.2424242 13.9953719,24.2424242 Z M13.9953719,21.0338681 C13.3393388,21.0338681 12.7561983,21.6042781 12.7561983,22.2459893 C12.7561983,22.8877005 13.3393388,23.4581105 13.9953719,23.4581105 C14.651405,23.4581105 15.2345455,22.8877005 15.2345455,22.2459893 C15.2345455,21.6042781 14.7242975,21.0338681 13.9953719,21.0338681 L13.9953719,21.0338681 Z"/>
        <g transform="translate(0 9.982)">
          <ellipse cx="2.041" cy="2.139" rx="1.604" ry="1.569"/>
          <path d="M2.04099174,4.13547237 C0.947603306,4.13547237 0,3.20855615 0,2.13903743 C0,1.06951872 0.874710744,0.142602496 2.04099174,0.142602496 C3.13438017,0.142602496 4.08198347,0.998217469 4.08198347,2.13903743 C4.08198347,3.2798574 3.13438017,4.13547237 2.04099174,4.13547237 Z M2.04099174,0.926916221 C1.38495868,0.926916221 0.801818182,1.4973262 0.801818182,2.13903743 C0.801818182,2.78074866 1.38495868,3.35115865 2.04099174,3.35115865 C2.69702479,3.35115865 3.28016529,2.78074866 3.28016529,2.13903743 C3.28016529,1.4973262 2.69702479,0.926916221 2.04099174,0.926916221 Z"/>
        </g>
      </g>
      <ellipse cx="14.127" cy="12.121" fill="#EA4334" rx="1.527" ry="1.515"/>
      <path fill="#EA4334" d="M13.9363636,14.3939394 C12.8113636,14.3939394 11.8363636,13.5010823 11.8363636,12.3106061 C11.8363636,11.1201299 12.7363636,10.2272727 13.9363636,10.2272727 C15.0613636,10.2272727 16.0363636,11.1201299 16.0363636,12.3106061 C16.0363636,13.5010823 15.0613636,14.3939394 13.9363636,14.3939394 Z M13.9363636,11.0457251 C13.2613636,11.0457251 12.6613636,11.6409632 12.6613636,12.3106061 C12.6613636,12.9802489 13.2613636,13.575487 13.9363636,13.575487 C14.6113636,13.575487 15.2113636,12.9802489 15.2113636,12.3106061 C15.2113636,11.6409632 14.6863636,11.0457251 13.9363636,11.0457251 Z"/>
      <ellipse cx="1.909" cy="22.348" fill="#EA4334" rx="1.527" ry="1.515"/>
      <path fill="#EA4334" d="M2.1,24.2424242 C0.975,24.2424242 0,23.3495671 0,22.1590909 C0,21.0430195 0.9,20.0757576 2.1,20.0757576 C3.225,20.0757576 4.2,20.9686147 4.2,22.1590909 C4.125,23.3495671 3.225,24.2424242 2.1,24.2424242 Z M2.1,20.89421 C1.425,20.89421 0.825,21.4894481 0.825,22.1590909 C0.825,22.8287338 1.425,23.4239719 2.1,23.4239719 C2.775,23.4239719 3.375,22.8287338 3.375,22.1590909 C3.375,21.4894481 2.775,20.89421 2.1,20.89421 L2.1,20.89421 Z"/>
      <g fill="#EA4334">
        <ellipse cx="2.138" cy="1.928" rx="1.68" ry="1.515"/>
        <path d="M2.13818182,3.78787879 C0.992727273,3.78787879 0,2.96143251 0,1.92837466 C0,0.895316804 0.992727273,0 2.13818182,0 C3.28363636,0 4.27636364,0.826446281 4.27636364,1.92837466 C4.27636364,3.03030303 3.28363636,3.78787879 2.13818182,3.78787879 Z M2.13818182,0.757575758 C1.45090909,0.757575758 0.84,1.30853994 0.84,1.92837466 C0.84,2.54820937 1.45090909,3.09917355 2.13818182,3.09917355 C2.82545455,3.09917355 3.43636364,2.54820937 3.43636364,1.92837466 C3.43636364,1.30853994 2.82545455,0.757575758 2.13818182,0.757575758 Z"/>
      </g>
    </g>
  </g>
</svg>
