<svg xmlns="http://www.w3.org/2000/svg" viewBox="0 0 120 80">
  <g fill="none" fill-rule="evenodd">
    <path fill="#383838" d="M17.4975619,23 C7.83499122,23 0,30.8035237 0,40.4313991 C0,48.1319508 5.01365321,54.6648398 11.9670373,56.970051 C12.8418178,57.129366 13.161693,56.591192 13.161693,56.1297612 C13.161693,55.7159306 13.1460893,54.6201538 13.1382875,53.1649467 C8.27091867,54.2189519 7.24400234,50.8286497 7.24400234,50.8286497 C6.44919056,48.8148684 5.30134582,48.2786373 5.30134582,48.2786373 C3.71269748,47.1964606 5.42129901,47.2188035 5.42129901,47.2188035 C7.17768676,47.3421756 8.10122879,49.0149837 8.10122879,49.0149837 C9.66354593,51.6786538 12.1971913,50.9092786 13.1948508,50.4633907 C13.3528379,49.3365281 13.8053443,48.5690958 14.3056368,48.1338937 C10.4203238,47.6938344 6.33508875,46.1978271 6.33508875,39.5192232 C6.33508875,37.6161854 7.01677394,36.0599492 8.13633704,34.8427433 C7.95591964,34.4017126 7.3561537,32.6298183 8.30797737,30.2294066 C8.30797737,30.2294066 9.77764775,29.7611757 13.1207334,32.0168439 C14.5172616,31.6302134 16.0132631,31.4368982 17.5014628,31.4300982 C18.9867369,31.4368982 20.4846889,31.6302134 21.8821923,32.0168439 C25.2223523,29.7611757 26.6890969,30.2294066 26.6890969,30.2294066 C27.6438463,32.6298183 27.0431051,34.4017126 26.863663,34.8427433 C27.9842013,36.0609207 28.6619856,37.6161854 28.6619856,39.5192232 C28.6619856,46.2153129 24.5718744,47.6889772 20.6729081,48.1202936 C21.301931,48.6584677 21.8617125,49.7221871 21.8617125,51.3483665 C21.8617125,53.6778635 21.8402575,55.5585584 21.8402575,56.1297612 C21.8402575,56.5950777 22.1552565,57.1381089 23.0436903,56.9681081 C29.9902477,54.6580397 35,48.130008 35,40.4313991 C34.9960991,30.8035237 27.1611079,23 17.4975619,23 Z"/>
    <path fill="#383838" d="M13.6439972 8.50836735L7.69120776 8.50836735C7.53760388 8.50836735 7.41310803 8.63755102 7.41310803 8.79714286L7.41310803 11.8171429C7.41310803 11.9763265 7.53760388 12.1061224 7.69120776 12.1061224L10.0133601 12.1061224 10.0133601 15.8581633C10.0133601 15.8581633 9.4919723 16.0426531 8.05033795 16.0426531 6.34968144 16.0426531 3.97383657 15.3979592 3.97383657 9.97673469 3.97383657 4.5544898 6.44782271 3.84102041 8.77036842 3.84102041 10.7809861 3.84102041 11.6469501 4.20816327 12.1982327 4.38530612 12.3715042 4.44020408 12.5315983 4.26142857 12.5315983 4.10183673L13.1955762 1.18408163C13.1955762 1.10938776 13.1711884 1.01938776 13.0893712.958571429 12.865554.792857143 11.5000332-2.84217094e-14 8.05033795-2.84217094e-14 4.07650139-2.84217094e-14-1.68398628e-12 1.75428571-1.68398628e-12 10.1881633-1.68398628e-12 18.6220408 4.66711911 19.8787755 8.60004709 19.8787755 11.85641 19.8787755 13.8318227 18.434898 13.8318227 18.434898 13.9132465 18.3881633 13.922097 18.2702041 13.922097 18.2161224L13.922097 8.79714286C13.922097 8.63755102 13.7976011 8.50836735 13.6439972 8.50836735M44.3222909 1.01040816C44.3222909.849795918 44.1995651.720204082 44.0457645.720204082L40.6940139.720204082C40.541.720204082 40.4165042.849795918 40.4165042 1.01040816 40.4165042 1.01122449 40.4174875 7.73183673 40.4174875 7.73183673L35.1927922 7.73183673 35.1927922 1.01040816C35.1927922.849795918 35.0696731.720204082 34.9162659.720204082L31.5647119.720204082C31.4122881.720204082 31.2877922.849795918 31.2877922 1.01040816L31.2877922 19.21C31.2877922 19.3706122 31.4122881 19.5012245 31.5647119 19.5012245L34.9162659 19.5012245C35.0696731 19.5012245 35.1927922 19.3706122 35.1927922 19.21L35.1927922 11.4255102 40.4174875 11.4255102C40.4174875 11.4255102 40.4082438 19.2093878 40.4082438 19.21 40.4082438 19.3706122 40.5325429 19.5012245 40.6859501 19.5012245L44.0455679 19.5012245C44.1991717 19.5012245 44.3218975 19.3706122 44.3222909 19.21L44.3222909 1.01040816M19.9688975 3.39877551C19.9688975 2.14632653 19.0014488 1.13428571 17.807626 1.13428571 16.6149834 1.13428571 15.6465512 2.14632653 15.6465512 3.39877551 15.6465512 4.64979592 16.6149834 5.6644898 17.807626 5.6644898 19.0014488 5.6644898 19.9688975 4.64979592 19.9688975 3.39877551M19.7293463 15.3710204C19.7293463 14.9044898 19.7293463 6.97 19.7293463 6.97 19.7293463 6.81040816 19.6052438 6.68 19.4520332 6.68L16.1107064 6.68C15.9574958 6.68 15.8204127 6.84408163 15.8204127 7.00367347 15.8204127 7.00367347 15.8204127 17.1126531 15.8204127 19.0395918 15.8204127 19.3932653 16.0328227 19.4985714 16.3075789 19.4985714 16.3075789 19.4985714 17.7338726 19.4985714 19.3179003 19.4985714 19.6483158 19.4985714 19.7293463 19.3302041 19.7293463 19.0338776 19.7293463 18.3887755 19.7293463 15.8614286 19.7293463 15.3710204M57.0603989 6.70755102L53.7344127 6.70755102C53.5819889 6.70755102 53.4576898 6.83795918 53.4576898 6.99836735L53.4576898 15.9222449C53.4576898 15.9222449 52.6125734 16.5636735 51.4132438 16.5636735 50.2141108 16.5636735 49.8958892 15.9989796 49.8958892 14.7806122 49.8958892 13.5606122 49.8958892 6.99836735 49.8958892 6.99836735 49.8958892 6.83795918 49.7719834 6.70755102 49.6191662 6.70755102L46.2434211 6.70755102C46.0911939 6.70755102 45.9663047 6.83795918 45.9663047 6.99836735 45.9663047 6.99836735 45.9663047 11.7506122 45.9663047 15.3697959 45.9663047 18.9891837 47.9102493 19.8746939 50.5844515 19.8746939 52.7785679 19.8746939 54.5474709 18.6169388 54.5474709 18.6169388 54.5474709 18.6169388 54.6316482 19.2797959 54.6698033 19.3583673 54.7077618 19.4367347 54.8070831 19.5159184 54.9144681 19.5159184L57.0619723 19.5059184C57.2141994 19.5059184 57.3390886 19.3753061 57.3390886 19.2155102L57.3379086 6.99836735C57.3379086 6.83795918 57.2138061 6.70755102 57.0603989 6.70755102M64.8393241 16.5526531C63.6856233 16.5163265 62.9030499 15.9730612 62.9030499 15.9730612L62.9030499 10.2095918C62.9030499 10.2095918 63.6750028 9.71857143 64.6221939 9.63081633 65.8199501 9.51959184 66.9740443 9.89489796 66.9740443 12.8597959 66.9740443 15.9861224 66.4532465 16.6032653 64.8393241 16.5526531zM66.1511524 6.29857143C64.2620803 6.29857143 62.9771967 7.17326531 62.9771967 7.17326531L62.9771967 1.01040816C62.9771967.849795918 62.8532909.720204082 62.7006704.720204082L59.3392825.720204082C59.1864654.720204082 59.0623629.849795918 59.0623629 1.01040816L59.0623629 19.21C59.0623629 19.3706122 59.1864654 19.5012245 59.3396759 19.5012245 59.3400693 19.5012245 61.671072 19.5012245 61.6718587 19.5012245 61.7768837 19.5012245 61.8563407 19.445102 61.9151468 19.3467347 61.9731662 19.2489796 62.0567535 18.507551 62.0567535 18.507551 62.0567535 18.507551 63.4311247 19.8589796 66.0329501 19.8589796 69.0877202 19.8589796 70.8395125 18.2512245 70.8395125 12.6416327 70.8395125 7.03163265 68.0416011 6.29857143 66.1511524 6.29857143L66.1511524 6.29857143zM29.3625319 6.67836735L26.8482271 6.67836735C26.8482271 6.67836735 26.8444903 3.23244898 26.8444903 3.23183673 26.8444903 3.10122449 26.7795873 3.03612245 26.6342438 3.03612245L23.2081496 3.03612245C23.0748033 3.03612245 23.00341 3.09693878 23.00341 3.22979592L23.00341 6.79142857C23.00341 6.79142857 21.2864294 7.22163265 21.1701939 7.25632653 21.0547452 7.29102041 20.9695845 7.40163265 20.9695845 7.53367347L20.9695845 9.77183673C20.9695845 9.93285714 21.0934903 10.0626531 21.2467008 10.0626531L23.00341 10.0626531C23.00341 10.0626531 23.00341 12.4036735 23.00341 15.4471429 23.00341 19.4465306 25.7069169 19.8393878 27.5310859 19.8393878 28.364795 19.8393878 29.3619418 19.5616327 29.5265596 19.4985714 29.6260776 19.4606122 29.6839003 19.3534694 29.6839003 19.237551L29.6868504 16.7755102C29.6868504 16.614898 29.5560609 16.484898 29.4089474 16.484898 29.2622271 16.484898 28.8875596 16.5467347 28.5016814 16.5467347 27.2665568 16.5467347 26.8482271 15.9508163 26.8482271 15.1795918 26.8482271 14.4089796 26.8480305 10.0626531 26.8480305 10.0626531L29.3625319 10.0626531C29.5157424 10.0626531 29.6398449 9.93285714 29.6398449 9.77183673L29.6398449 6.96836735C29.6398449 6.8077551 29.5157424 6.67836735 29.3625319 6.67836735" transform="translate(47 29)"/>
  </g>
</svg>
