<svg xmlns="http://www.w3.org/2000/svg" width="146" height="80" viewBox="0 0 146 80">
  <path d="M20.7597656,6.26367188 L20.7597656,15.1376953 L20.763805,15.3283086 C20.8203569,16.6315716 21.4707031,17.2832031 22.7148438,17.2832031 C23.9589844,17.2832031 24.8138021,16.8515625 25.2792969,15.9882812 L25.2792969,15.9882812 L25.2792969,6.26367188 L28.9609375,6.26367188 L28.9609375,20 L25.5078125,20 L25.40625,18.6035156 L25.2428363,18.7919685 C24.3520851,19.7665937 23.1539522,20.2539062 21.6484375,20.2539062 C20.1757812,20.2539062 19.0522461,19.8307292 18.277832,18.984375 C17.503418,18.1380208 17.1077474,16.898112 17.0908203,15.2646484 L17.0908203,15.2646484 L17.0908203,6.26367188 L20.7597656,6.26367188 Z M46.8867188,6.00976562 C48.765625,6.00976562 50.2446289,6.60221354 51.3237305,7.78710938 C52.402832,8.97200521 52.9423828,10.6520182 52.9423828,12.8271484 L52.9423828,12.8271484 L52.9423828,14.3251953 L44.1953125,14.3251953 L44.2335558,14.565462 C44.3807935,15.351662 44.7256303,15.9909742 45.2680664,16.4833984 C45.8647461,17.0250651 46.6201172,17.2958984 47.5341797,17.2958984 C48.9475911,17.2958984 50.0520833,16.7838542 50.8476562,15.7597656 L50.8476562,15.7597656 L52.6503906,17.7783203 L52.4795117,18.0067725 C51.9493555,18.6767041 51.2615234,19.2078125 50.4160156,19.6000977 C49.4765625,20.0359701 48.4355469,20.2539062 47.2929688,20.2539062 C45.2786458,20.2539062 43.6388346,19.6360677 42.3735352,18.4003906 C41.1082357,17.1647135 40.4755859,15.5185547 40.4755859,13.4619141 L40.4755859,13.4619141 L40.4755859,13.1064453 L40.4821959,12.7338222 C40.5262623,11.5038107 40.7906605,10.3944573 41.2753906,9.40576172 C41.8085938,8.31819661 42.5639648,7.48030599 43.5415039,6.89208984 C44.519043,6.3038737 45.6341146,6.00976562 46.8867188,6.00976562 Z M93.5400391,6.00976562 C95.3681641,6.00976562 96.8492839,6.65087891 97.9833984,7.93310547 C99.117513,9.21533203 99.6845703,10.914388 99.6845703,13.0302734 L99.6845703,13.0302734 L99.6845703,13.3476562 L99.6768896,13.74229 C99.6308057,14.9141943 99.3773438,15.978125 98.9165039,16.934082 C98.4044596,17.9962565 97.6829427,18.8151042 96.7519531,19.390625 C95.8209635,19.9661458 94.7587891,20.2539062 93.5654297,20.2539062 C91.7457682,20.2539062 90.2667643,19.612793 89.128418,18.3305664 C87.9900716,17.0483398 87.4208984,15.3492839 87.4208984,13.2333984 L87.4208984,13.2333984 L87.4208984,12.9287109 L87.4285791,12.5365527 C87.4746631,11.3718848 87.728125,10.3134766 88.1889648,9.36132812 C88.7010091,8.30338542 89.4246419,7.48030599 90.3598633,6.89208984 C91.2950846,6.3038737 92.3551432,6.00976562 93.5400391,6.00976562 Z M105.181641,2.74707031 L105.181641,6.26367188 L108.025391,6.26367188 L108.025391,7.5078125 L105.181641,7.5078125 L105.181641,16.6611328 L105.186734,16.9078294 C105.213901,17.5464611 105.349736,18.0312862 105.594238,18.3623047 C105.869303,18.7347005 106.328451,18.9208984 106.97168,18.9208984 C107.225586,18.9208984 107.636068,18.8785807 108.203125,18.7939453 L108.203125,18.7939453 L108.266602,20.0380859 L108.110687,20.0886688 C107.73115,20.1988271 107.241455,20.2539062 106.641602,20.2539062 C105.600586,20.2539062 104.843099,19.9513346 104.369141,19.3461914 C103.895182,18.7410482 103.658203,17.8502604 103.658203,16.6738281 L103.658203,16.6738281 L103.658203,7.5078125 L101.131836,7.5078125 L101.131836,6.26367188 L103.658203,6.26367188 L103.658203,2.74707031 L105.181641,2.74707031 Z M116.201172,6.00976562 C118.029297,6.00976562 119.510417,6.65087891 120.644531,7.93310547 C121.778646,9.21533203 122.345703,10.914388 122.345703,13.0302734 L122.345703,13.0302734 L122.345703,13.3476562 L122.338022,13.74229 C122.291938,14.9141943 122.038477,15.978125 121.577637,16.934082 C121.065592,17.9962565 120.344076,18.8151042 119.413086,19.390625 C118.482096,19.9661458 117.419922,20.2539062 116.226562,20.2539062 C114.406901,20.2539062 112.927897,19.612793 111.789551,18.3305664 C110.651204,17.0483398 110.082031,15.3492839 110.082031,13.2333984 L110.082031,13.2333984 L110.082031,12.9287109 L110.089712,12.5365527 C110.135796,11.3718848 110.389258,10.3134766 110.850098,9.36132812 C111.362142,8.30338542 112.085775,7.48030599 113.020996,6.89208984 C113.956217,6.3038737 115.016276,6.00976562 116.201172,6.00976562 Z M130.077148,6.00976562 C131.609049,6.00976562 132.838379,6.38850911 133.765137,7.14599609 C134.691895,7.90348307 135.155273,8.89160156 135.155273,10.1103516 L135.155273,10.1103516 L133.631836,10.1103516 L133.624827,9.91216363 C133.573429,9.19581887 133.239339,8.59326172 132.622559,8.10449219 C131.949707,7.57128906 131.101237,7.3046875 130.077148,7.3046875 C129.078451,7.3046875 128.27653,7.52685547 127.671387,7.97119141 C127.066243,8.41552734 126.763672,8.99316406 126.763672,9.70410156 C126.763672,10.3896484 127.015462,10.9207357 127.519043,11.2973633 C128.022624,11.6739909 128.940918,12.0188802 130.273926,12.3320312 C131.606934,12.6451823 132.605632,12.9794922 133.27002,13.3349609 C133.934408,13.6904297 134.427409,14.1178385 134.749023,14.6171875 C135.070638,15.1165365 135.231445,15.7216797 135.231445,16.4326172 C135.231445,17.5921224 134.763835,18.5188802 133.828613,19.2128906 C132.893392,19.906901 131.672526,20.2539062 130.166016,20.2539062 C128.566406,20.2539062 127.269368,19.8666992 126.274902,19.0922852 C125.280436,18.3178711 124.783203,17.3382161 124.783203,16.1533203 L124.783203,16.1533203 L126.306641,16.1533203 L126.32802,16.3713888 C126.430493,17.1559414 126.797879,17.7751465 127.430176,18.2290039 C128.119954,18.7241211 129.031901,18.9716797 130.166016,18.9716797 C131.223958,18.9716797 132.078776,18.7389323 132.730469,18.2734375 C133.382161,17.8079427 133.708008,17.2197266 133.708008,16.5087891 C133.708008,15.7555339 133.405436,15.1503906 132.800293,14.6933594 C132.19515,14.2363281 131.283203,13.8787435 130.064453,13.6206055 C128.845703,13.3624674 127.899902,13.0662435 127.227051,12.7319336 C126.554199,12.3976237 126.05485,11.9892578 125.729004,11.5068359 C125.403158,11.0244141 125.240234,10.4404297 125.240234,9.75488281 C125.240234,8.67154948 125.693034,7.77652995 126.598633,7.06982422 C127.504232,6.36311849 128.663737,6.00976562 130.077148,6.00976562 Z M7.86132812,1.515625 L8.23573492,1.5219202 C9.46994313,1.56388817 10.5660067,1.81569602 11.5239258,2.27734375 C12.5776367,2.78515625 13.3880208,3.50667318 13.9550781,4.44189453 C14.5221354,5.37711589 14.8056641,6.44140625 14.8056641,7.63476562 C14.8056641,9.44596354 14.1857096,10.8741862 12.9458008,11.9194336 C11.7058919,12.964681 9.98990885,13.4873047 7.79785156,13.4873047 L7.79785156,13.4873047 L4.45898438,13.4873047 L4.45898438,20 L0.650390625,20 L0.650390625,1.515625 L7.86132812,1.515625 Z M38.3554688,6.00976562 C38.7617188,6.00976562 39.1425781,6.06477865 39.4980469,6.17480469 L39.4980469,6.17480469 L39.4472656,9.70410156 L39.1547656,9.66753906 C38.7742448,9.62420573 38.4316406,9.60253906 38.1269531,9.60253906 C36.7389323,9.60253906 35.8291016,10.0722656 35.3974609,11.0117188 L35.3974609,11.0117188 L35.3974609,20 L31.7285156,20 L31.7285156,6.26367188 L35.1943359,6.26367188 L35.2958984,7.90136719 L35.4287819,7.68537116 C36.1531908,6.5683008 37.1287531,6.00976562 38.3554688,6.00976562 Z M64.6328125,1.515625 L64.9676569,1.5207207 C66.7311192,1.57507479 68.1365943,2.06426164 69.184082,2.98828125 C70.2970378,3.97005208 70.8535156,5.31998698 70.8535156,7.03808594 C70.8535156,8.77311198 70.3181966,10.1124674 69.2475586,11.0561523 C68.1769206,11.9998372 66.6259766,12.4716797 64.5947266,12.4716797 L64.5947266,12.4716797 L59.8974609,12.4716797 L59.8974609,20 L58.3359375,20 L58.3359375,1.515625 L64.6328125,1.515625 Z M75.5,0.5 L75.5,8.58691406 L75.6716218,8.32015577 C76.1430724,7.62719023 76.7248626,7.08134404 77.4169922,6.68261719 C78.195638,6.23404948 79.046224,6.00976562 79.96875,6.00976562 C81.4414062,6.00976562 82.5374349,6.42447917 83.2568359,7.25390625 C83.976237,8.08333333 84.3401693,9.32747396 84.3486328,10.9863281 L84.3486328,10.9863281 L84.3486328,20 L82.8378906,20 L82.8378906,10.9736328 L82.8314678,10.6959886 C82.7878981,9.60764724 82.5297852,8.78613281 82.0571289,8.23144531 C81.5450846,7.63053385 80.726237,7.33007812 79.6005859,7.33007812 C78.6611328,7.33007812 77.8295898,7.6241862 77.105957,8.21240234 C76.3823242,8.80061849 75.8470052,9.59407552 75.5,10.5927734 L75.5,10.5927734 L75.5,20 L73.9892578,20 L73.9892578,0.5 L75.5,0.5 Z M93.5400391,7.3046875 C92.1858724,7.3046875 91.0813802,7.83577474 90.2265625,8.89794922 C89.3717448,9.9601237 88.9443359,11.3502604 88.9443359,13.0683594 L88.9443359,13.0683594 L88.9443359,13.3476562 L88.9500065,13.6721202 C89.0029319,15.1679854 89.4263346,16.4076497 90.2202148,17.3911133 C91.0708008,18.4448242 92.1858724,18.9716797 93.5654297,18.9716797 C94.9365234,18.9716797 96.0473633,18.4448242 96.8979492,17.3911133 C97.7485352,16.3374023 98.1738281,14.9472656 98.1738281,13.2207031 L98.1738281,13.2207031 L98.1738281,12.9287109 L98.1666184,12.5821759 C98.1281668,11.6668596 97.9359086,10.8217593 97.5898438,10.046875 C97.2005208,9.17513021 96.6546224,8.50016276 95.9521484,8.02197266 C95.2496745,7.54378255 94.445638,7.3046875 93.5400391,7.3046875 Z M116.201172,7.3046875 C114.847005,7.3046875 113.742513,7.83577474 112.887695,8.89794922 C112.032878,9.9601237 111.605469,11.3502604 111.605469,13.0683594 L111.605469,13.0683594 L111.605469,13.3476562 L111.611139,13.6721202 C111.664065,15.1679854 112.087467,16.4076497 112.881348,17.3911133 C113.731934,18.4448242 114.847005,18.9716797 116.226562,18.9716797 C117.597656,18.9716797 118.708496,18.4448242 119.559082,17.3911133 C120.409668,16.3374023 120.834961,14.9472656 120.834961,13.2207031 L120.834961,13.2207031 L120.834961,12.9287109 L120.827751,12.5821759 C120.7893,11.6668596 120.597041,10.8217593 120.250977,10.046875 C119.861654,9.17513021 119.315755,8.50016276 118.613281,8.02197266 C117.910807,7.54378255 117.106771,7.3046875 116.201172,7.3046875 Z M46.8740234,8.98046875 C46.1461589,8.98046875 45.5558268,9.22591146 45.1030273,9.71679688 C44.6502279,10.2076823 44.3603516,10.9101562 44.2333984,11.8242188 L44.2333984,11.8242188 L49.3369141,11.8242188 L49.3369141,11.5322266 L49.3257422,11.293999 C49.2739453,10.5958838 49.0576172,10.046875 48.6767578,9.64697266 C48.2535807,9.20263672 47.6526693,8.98046875 46.8740234,8.98046875 Z M64.734375,2.84863281 L59.8974609,2.84863281 L59.8974609,11.1513672 L64.6328125,11.1513672 C66.1477865,11.1513672 67.3030599,10.7916667 68.0986328,10.0722656 C68.8942057,9.35286458 69.2919922,8.3499349 69.2919922,7.06347656 C69.2919922,5.78548177 68.8963216,4.76774089 68.1049805,4.01025391 C67.3136393,3.25276693 66.1901042,2.8655599 64.734375,2.84863281 L64.734375,2.84863281 Z M7.95019531,4.60058594 L4.45898438,4.60058594 L4.45898438,10.4023438 L7.86132812,10.4023438 C8.86848958,10.4023438 9.63655599,10.1653646 10.1655273,9.69140625 C10.6944987,9.21744792 10.9589844,8.54036458 10.9589844,7.66015625 C10.9589844,6.75455729 10.6923828,6.02246094 10.1591797,5.46386719 C9.62597656,4.90527344 8.88964844,4.61751302 7.95019531,4.60058594 L7.95019531,4.60058594 Z" transform="translate(6 28)"/>
</svg>
