<svg xmlns="http://www.w3.org/2000/svg" viewBox="0 0 137 80">
  <g fill="none" transform="translate(1 16)">
    <path fill="#EAEAEA" d="M43.1862857,15.6161739 C43.1652001,15.3638122 43.1342288,15.112373 43.0934429,14.8624348 C42.6849518,14.5269914 42.2477725,14.228046 41.7869429,13.9690435 C41.2770705,13.6747 40.7525135,13.4065258 40.2153143,13.1655652 C39.676164,12.9155392 39.1300559,12.680779 38.5776429,12.4615652 C38.3019857,12.3496522 38.0234571,12.2415652 37.7439714,12.1373043 C37.4654429,12.0282609 37.1840429,11.9278261 36.9016857,11.8245217 C37.4933367,11.9262827 38.0802969,12.0536195 38.6609143,12.2061739 C39.0389857,12.3037391 39.4151429,12.4137391 39.7893857,12.5304348 C37.1304429,5.588 30.7731,1.06556522 23.8328571,1.06556522 C16.8916571,1.06556522 10.5352714,5.588 7.87728571,12.5323478 C8.25152857,12.4156522 8.62768571,12.3066087 9.0048,12.208087 C9.58567775,12.0552748 10.172968,11.9279357 10.7649857,11.8264348 C10.4816714,11.9287826 10.2012286,12.0301739 9.92174286,12.1392174 C9.64321429,12.2425217 9.36468571,12.3515652 9.08807143,12.4634783 C8.53484286,12.6863478 7.98735714,12.9149565 7.4504,13.1674783 C6.91248571,13.4123478 6.38414286,13.6763478 5.87972857,13.9709565 C5.41455714,14.2387826 4.96757143,14.5333913 4.57227143,14.8643478 C4.53180595,15.1142988 4.50115388,15.3657379 4.48038571,15.618087 C4.45454286,15.9136522 4.44401429,16.2111304 4.44114286,16.5086087 C4.4354,17.1035652 4.4756,17.6985217 4.55121429,18.2877391 C4.63257143,18.877913 4.74072857,19.4652174 4.90152857,20.0324348 C4.97929865,20.3147945 5.07000373,20.5934358 5.17335714,20.8674783 C5.25058279,21.0670453 5.33681402,21.2630142 5.43178571,21.4547826 L5.46911429,21.5265217 L5.60215714,21.5925217 L5.86632857,21.7187826 C6.01372857,21.7857391 6.2176,21.8823478 6.38605714,21.957913 C6.39565673,21.9503704 6.4046202,21.9420526 6.41285714,21.9330435 L5.92184286,20.065913 C6.02617143,20.0372174 6.95747143,19.7971304 8.5626,19.492 C8.06196057,19.3967934 7.57158374,19.2539397 7.09817143,19.0653913 C6.92447388,18.9936542 6.75509329,18.9118933 6.59088571,18.8205217 C6.42440575,18.7323755 6.27342813,18.6176811 6.1439,18.4809565 C7.90791429,19.0558261 11.5527143,18.7956522 14.7926429,18.4608696 C17.7559571,18.1557391 20.7259714,17.9577391 23.7113,17.952 C26.6975857,17.9577391 29.6685571,18.1557391 32.6299571,18.4608696 C35.8718,18.7956522 39.5166,19.0558261 41.2796571,18.4809565 C41.1503961,18.6179782 40.9993664,18.7327122 40.8326714,18.8205217 C40.6699571,18.9123478 40.4995857,18.9917391 40.3263429,19.0653913 C39.976287,19.2050707 39.6167797,19.319821 39.2505143,19.4087826 C39.1959571,19.4221739 39.1414,19.4336522 39.0878,19.4451304 C40.8479857,19.7713043 41.8730857,20.0372174 41.9831571,20.065913 L41.5141571,21.8450435 C41.6089143,21.8029565 41.7036714,21.7618261 41.7974714,21.7187826 L42.0616429,21.5925217 L42.1946857,21.5265217 L42.2310571,21.4547826 C42.326493,21.2630967 42.4130465,21.0671211 42.4904429,20.8674783 C42.5938143,20.5967826 42.6837857,20.3165217 42.7632286,20.0324348 C42.9240286,19.4652174 43.0321857,18.8788696 43.1135429,18.2877391 C43.2294908,17.4020737 43.253867,16.5068301 43.1862857,15.6161739 L43.1862857,15.6161739 Z"/>
    <path fill="#F4F4F4" d="M25.8342429,40.3126087 C25.6021528,40.3489266 25.3687587,40.3763669 25.1345714,40.3948696 C24.9852571,40.4025217 24.8263714,40.4168696 24.6828,40.4168696 L24.6292,40.4178261 C24.8101,40.0151304 24.9469714,39.7023478 25.0503429,39.466087 C25.2618714,39.7033043 25.5308286,39.996 25.8342429,40.3126087 L25.8342429,40.3126087 Z M26.3424857,40.8291304 C27.0394594,41.5323287 27.9677063,41.959453 28.9554857,42.0314783 C27.5406881,42.6021873 26.0442732,42.9450546 24.522,43.0473043 C23.3033944,43.1205862 22.0811142,42.98932 20.9059143,42.6589565 C20.9928611,42.6423919 21.0803269,42.6286745 21.1681714,42.6178261 C21.2667571,42.6063478 23.4088429,42.3270435 24.3746,40.8922609 L24.4655286,40.8941739 L24.7029,40.8922609 C24.8637,40.8922609 25.0091857,40.8788696 25.1623286,40.8731304 C25.5219678,40.8420625 25.8795556,40.7906467 26.2333714,40.7191304 C26.2678286,40.7554783 26.3042,40.7918261 26.3424857,40.8291304 L26.3424857,40.8291304 Z"/>
    <path fill="#939393" d="M28.3974714,19.3418261 L28.1677571,19.6364348 C27.640292,20.3049488 27.0685516,20.9373537 26.4563857,21.5293913 C24.2658713,21.4615653 22.0735115,21.4819877 19.8846429,21.5906087 C21.7089571,20.834 23.9008143,20.0946087 26.2745286,19.6507826 C26.9773947,19.5172979 27.6857025,19.4142163 28.3974714,19.3418261 L28.3974714,19.3418261 Z M17.7195857,20.1586957 C16.9717561,20.6816379 16.2692872,21.2665421 15.6196143,21.9072174 C14.035758,22.064866 12.4570285,22.270293 10.8855857,22.5232174 C12.9061143,21.5953913 15.2128286,20.7402609 17.7195857,20.1586957 L17.7195857,20.1586957 Z M40.0353714,23.9264348 L39.2926286,29.1213043 L35.7339714,31.612087 L26.4525571,30.558 L25.0551286,25.96 C25.0217406,25.848182 24.9272852,25.7653084 24.8120143,25.7466957 C24.5141257,25.6951992 24.2126643,25.6670555 23.9103857,25.6625217 C23.6557857,25.6625217 23.3523714,25.6912174 23.0068429,25.7466957 C22.891775,25.765738 22.7975165,25.8484388 22.7637286,25.96 L21.4007571,30.446087 L12.1710286,32.4987826 L8.51378571,29.9381739 L7.79305714,24.1091304 C7.95002857,24.0201739 8.10891429,23.9321739 8.27067143,23.8441739 C8.49655714,23.7953913 8.75115714,23.7437391 9.03351429,23.6901739 L9.71308571,29.1901739 C9.72361429,29.2762609 9.77147143,29.3527826 9.84134286,29.4025217 L12.3576714,31.1644348 C12.428282,31.2123576 12.5155766,31.2289744 12.5988714,31.2103478 L20.1871,29.5230435 C20.294505,29.4997057 20.3806914,29.419806 20.4120286,29.3145217 L21.7788286,24.817913 C22.1454143,24.7232174 23.0843714,24.5041739 23.9094286,24.5041739 C24.7325714,24.5041739 25.6724857,24.7232174 26.0390714,24.817913 L27.4058714,29.3145217 C27.441673,29.4309723 27.543167,29.5151201 27.6643,29.5287826 L35.2525286,30.3906087 C35.3262895,30.3987716 35.4004935,30.3797224 35.4611857,30.3370435 L37.9784714,28.576087 C38.0470741,28.5270958 38.0924328,28.4520084 38.1038571,28.3685217 L38.7757714,23.6691304 C39.2821,23.7666957 39.7042,23.8546957 40.0353714,23.9264348 L40.0353714,23.9264348 Z M40.9733714,20.6685217 L40.3196429,23.1449565 C38.9834714,22.8503478 36.0488714,22.2726087 32.0537571,21.8842609 C33.3593,21.3285217 34.6878143,20.6302609 35.9024286,19.7588696 C38.2790143,20.0946087 40.0248429,20.4542609 40.9733714,20.6685217 L40.9733714,20.6685217 Z"/>
    <path fill="#E5CBA4" d="M4.64022857,6.41730435 C5.15804286,6.138 5.74285714,6.17913043 6.65788571,6.18104348 C6.75647143,6.18391304 6.85697143,6.182 6.96321429,6.18008696 L7.23982857,6.17530435 C8.18261429,6.16573913 8.96747143,6.25565217 8.95311429,4.77591304 C8.93875714,3.29617391 8.2812,2.09956522 7.33841429,2.10913043 C6.39562857,2.11678261 5.48251429,3.32965217 5.53898571,4.80843478 C5.5543,5.19391304 5.61077143,5.47130435 5.7017,5.67217391 C4.87951429,5.87782609 4.65267143,6.38573913 4.64022857,6.41730435 L4.64022857,6.41730435 Z M15.9795,0.33 C15.6138714,0.625565217 15.2281429,0.902956522 14.8271,1.144 L13.4890143,1.95130435 C12.6496,2.05365217 11.9212143,2.26121739 11.8800571,2.27269565 C11.7806681,2.30148339 11.7025443,2.3784771 11.6723571,2.4773913 L10.3093857,6.9653913 L3.02457143,8.58478261 L0.7303,6.97878261 L0.0631714286,1.57443478 C1.76691327,1.26495736 3.48091751,1.01483493 5.20207143,0.824521739 C4.9781,1.09330435 4.75987143,1.37452174 4.55312857,1.67008696 L3.30692857,3.45782609 L5.12167143,2.24878261 C5.14847143,2.22965217 6.30374286,1.47017391 8.1941,0.546173913 C10.7843943,0.351934519 13.3824095,0.279796529 15.9795,0.33 L15.9795,0.33 Z M23.9563286,5.81086957 C23.9467571,5.77547826 23.7486286,5.18052174 22.8718857,5.28478261 C22.9733429,5.06478261 23.0183286,4.76826087 22.9857857,4.36078261 C22.8699714,2.88391304 22.0104571,1.71026087 21.0686286,1.74373913 C20.1268,1.77721739 19.5228429,3.0006087 19.5745286,4.48130435 C19.6262143,5.96008696 20.4177714,5.94956522 21.3596,5.91704348 C22.6259,5.89313043 23.3217429,5.50478261 23.9563286,5.81086957 L23.9563286,5.81086957 Z M28.6061286,1.55817391 L27.9485714,6.15330435 L25.6351571,7.77173913 L18.3599143,6.94530435 L17.0026857,2.47834783 C16.9720406,2.37971136 16.8941033,2.30290141 16.7949857,2.27365217 C16.172712,2.10150694 15.5367182,1.98341559 14.8941,1.92069565 L15.0683,1.90921739 C15.2195286,1.89869565 17.7282,1.59069565 20.7250143,0.558608696 C24.0434286,0.813043478 26.7531,1.22147826 28.6061286,1.55817391 L28.6061286,1.55817391 Z" transform="translate(9.571 22)"/>
    <path fill="#F4F4F4" d="M4.64022857,6.41730435 C5.15804286,6.138 5.74285714,6.17913043 6.65788571,6.18104348 C6.75647143,6.18391304 6.85697143,6.182 6.96321429,6.18008696 L7.23982857,6.17530435 C8.18261429,6.16573913 8.96747143,6.25565217 8.95311429,4.77591304 C8.93875714,3.29617391 8.2812,2.09956522 7.33841429,2.10913043 C6.39562857,2.11678261 5.48251429,3.32965217 5.53898571,4.80843478 C5.5543,5.19391304 5.61077143,5.47130435 5.7017,5.67217391 C4.87951429,5.87782609 4.65267143,6.38573913 4.64022857,6.41730435 L4.64022857,6.41730435 Z M15.9795,0.33 C15.6138714,0.625565217 15.2281429,0.902956522 14.8271,1.144 L13.4890143,1.95130435 C12.6496,2.05365217 11.9212143,2.26121739 11.8800571,2.27269565 C11.7806681,2.30148339 11.7025443,2.3784771 11.6723571,2.4773913 L10.3093857,6.9653913 L3.02457143,8.58478261 L0.7303,6.97878261 L0.0631714286,1.57443478 C1.76691327,1.26495736 3.48091751,1.01483493 5.20207143,0.824521739 C4.9781,1.09330435 4.75987143,1.37452174 4.55312857,1.67008696 L3.30692857,3.45782609 L5.12167143,2.24878261 C5.14847143,2.22965217 6.30374286,1.47017391 8.1941,0.546173913 C10.7843943,0.351934519 13.3824095,0.279796529 15.9795,0.33 L15.9795,0.33 Z M23.9563286,5.81086957 C23.9467571,5.77547826 23.7486286,5.18052174 22.8718857,5.28478261 C22.9733429,5.06478261 23.0183286,4.76826087 22.9857857,4.36078261 C22.8699714,2.88391304 22.0104571,1.71026087 21.0686286,1.74373913 C20.1268,1.77721739 19.5228429,3.0006087 19.5745286,4.48130435 C19.6262143,5.96008696 20.4177714,5.94956522 21.3596,5.91704348 C22.6259,5.89313043 23.3217429,5.50478261 23.9563286,5.81086957 L23.9563286,5.81086957 Z M28.6061286,1.55817391 L27.9485714,6.15330435 L25.6351571,7.77173913 L18.3599143,6.94530435 L17.0026857,2.47834783 C16.9720406,2.37971136 16.8941033,2.30290141 16.7949857,2.27365217 C16.172712,2.10150694 15.5367182,1.98341559 14.8941,1.92069565 L15.0683,1.90921739 C15.2195286,1.89869565 17.7282,1.59069565 20.7250143,0.558608696 C24.0434286,0.813043478 26.7531,1.22147826 28.6061286,1.55817391 L28.6061286,1.55817391 Z" transform="translate(9.571 22)"/>
    <path fill="#F4F4F4" d="M9.18378571,31.1529565 C9.22781429,31.3069565 9.27375714,31.461913 9.32065714,31.614 C8.8507,31.7517391 7.89451429,31.8837391 7.46284286,31.8081739 C7.10391429,31.4475652 6.43582857,28.9634783 6.28938571,27.6444348 C6.16974286,26.576 6.25397143,26.3445217 6.36212857,26.2546087 C6.48847143,26.1484348 6.9613,25.8796522 7.37,25.6606087 L7.92322857,30.1466957 C7.93375714,30.2327826 7.9797,30.3093043 8.05148571,30.3590435 L9.18378571,31.1529565 L9.18378571,31.1529565 Z M26.8354143,31.2151304 L26.8019143,31.5011304 C26.8019143,31.5011304 25.7959571,32.4327826 24.1774286,32.6413043 C22.5589,32.8498261 21.2859,31.8550435 21.2859,31.8550435 C21.3395,32.0281739 21.4141571,32.4184348 21.7807429,32.7513043 C21.3490714,32.6996522 20.8839,32.6652174 20.3948,32.6652174 C20.2186857,32.6652174 20.0397,32.67 19.8674143,32.6786087 C18.8710286,32.7302609 17.4697714,34.2358261 16.4839143,35.7528696 C16.0005571,35.905913 14.4882714,36.3851304 12.7386143,36.9016522 C11.1057286,34.6404348 10.3026857,32.3294783 10.2213286,32.0903478 L10.2222857,32.0893913 C10.1897429,31.9975652 10.1562429,31.9057391 10.1256143,31.8110435 L10.5458,32.1046957 L10.5458,32.1056522 L11.5833429,32.8316522 L11.9298286,33.0736522 C11.9997247,33.1232296 12.0873428,33.1409503 12.1710286,33.1224348 L21.7060857,31.0008696 C21.8132942,30.9771562 21.8993171,30.8974081 21.9310143,30.7923478 L23.2911143,26.3196522 C23.5256143,26.288087 23.7323571,26.2718261 23.9084714,26.2718261 C24.0845857,26.2718261 24.2913286,26.288087 24.5267857,26.3196522 L25.9261286,30.9262609 C25.9611353,31.042855 26.0625203,31.1272249 26.1836,31.1405217 L26.8354143,31.2151304 L26.8354143,31.2151304 Z"/>
    <path fill="#F4F4F4" d="M37.7181286,30.9683478 L38.0263286,30.7521739 C37.9756,30.9654783 37.9200857,31.1778261 37.8626571,31.3873043 C37.4752925,32.6475927 36.9752431,33.870494 36.3685571,35.0412174 C36.2441286,35.0498261 36.1139571,35.0546087 35.9732571,35.0546087 C35.5406286,35.0546087 35.0984286,35.0182609 34.6093286,34.9733043 C33.7603429,34.8958261 32.4126857,34.7408696 31.9867571,34.692087 C31.100212,33.986922 30.2119809,33.2838765 29.3220714,32.5829565 L29.2110429,32.4911304 C29.0272714,32.3361739 28.8186143,32.1592174 28.3955571,32.1592174 C28.0107857,32.1592174 27.4499,32.2988696 26.0926714,32.7092174 C26.7980857,32.1821739 26.8019143,31.5030435 26.8019143,31.5030435 L26.8354143,31.2170435 L35.7799143,32.2328696 C35.8538436,32.241106 35.9282658,32.2224276 35.9895286,32.1802609 L36.8882857,31.5508696 L37.7181286,30.9683478 L37.7181286,30.9683478 Z"/>
    <path fill="#BCBCBC" d="M31.1358571,12.1612174 C31.1626571,12.956087 31.1435143,14.3975652 30.7721429,15.7472174 C30.7582462,15.7976114 30.7582462,15.8508233 30.7721429,15.9012174 C30.3011317,15.8521657 29.8295449,15.8088003 29.3574857,15.7711304 C29.8867857,14.6625217 30.0026,13.4821739 30.0274857,13.066087 C30.4333143,12.7772174 30.8381857,12.4309565 31.1358571,12.1612174 L31.1358571,12.1612174 Z M17.6391857,13.066087 C17.6640714,13.4821739 17.7789286,14.6606087 18.3082286,15.7682609 C17.8363571,15.8055652 17.3654429,15.8495652 16.8945286,15.8993043 C16.9079383,15.8494943 16.9079383,15.7970274 16.8945286,15.7472174 C16.5241143,14.4004348 16.5059286,12.958 16.5317714,12.1612174 C16.8284857,12.4309565 17.2314429,12.7772174 17.6391857,13.066087 Z"/>
    <path fill="#464646" d="M33.5277571,27.8108696 C32.8931714,27.5047826 32.1973286,27.8931304 30.9310286,27.9170435 C29.9892,27.9505217 29.1976429,27.960087 29.1459571,26.4813043 C29.0942714,25.0015652 29.6972714,23.7772174 30.6400571,23.7437391 C31.5818857,23.7112174 32.4414,24.8848696 32.5572143,26.3607826 C32.5888,26.7673043 32.5438143,27.0647826 32.4433143,27.2847826 C33.3200571,27.1805217 33.5181857,27.7754783 33.5277571,27.8108696 L33.5277571,27.8108696 Z M30.5673143,25.6443478 C30.8320957,25.6385234 31.0422326,25.4196772 31.0371374,25.1550525 C31.0320422,24.8904277 30.8136366,24.6798222 30.5488269,24.6841814 C30.2840172,24.6885407 30.0726711,24.9062207 30.0763,25.1708696 C30.0810857,25.4367826 30.3002714,25.6491304 30.5673143,25.6443478 Z"/>
    <circle cx="30.557" cy="25.159" r="1" fill="#EEF7FA" transform="rotate(-1.049 30.557 25.16)"/>
    <path fill="#464646" d="M18.5235857,26.7749565 C18.5369857,28.2546957 17.7530857,28.1657391 16.8103,28.1743478 C16.7145857,28.1772174 16.6246143,28.1781739 16.5336857,28.1791304 C16.4319386,28.1823064 16.3301222,28.1826254 16.2283571,28.180087 C15.3133286,28.1791304 14.7285143,28.138 14.2107,28.4163478 C14.2231429,28.3847826 14.4499857,27.8768696 15.2721714,27.6702609 C15.1812429,27.4693913 15.1247714,27.192 15.1094571,26.8065217 C15.0529857,25.3277391 15.9651429,24.1148696 16.9088857,24.1072174 C17.8516714,24.0986087 18.5092286,25.2952174 18.5235857,26.7749565 L18.5235857,26.7749565 Z M17.0677714,26.0011304 C17.2438563,26.0026684 17.4067334,25.9080126 17.4924829,25.7543097 C17.5782325,25.6006068 17.5731724,25.4123818 17.4792885,25.2635017 C17.3854045,25.1146217 17.2176768,25.028842 17.0419286,25.0398261 C16.7832092,25.0559958 16.5837481,25.2739765 16.5907099,25.5329396 C16.5976716,25.7919028 16.8085565,25.9988664 17.0677714,26.0011304 Z"/>
    <circle cx="17.055" cy="25.521" r="1" fill="#EEF7FA" transform="rotate(-1.473 17.055 25.52)"/>
    <path fill="#BCBCBC" d="M0.796342857,5.2493913 C0.796342857,5.2493913 0.942785714,3.34304348 1.24237143,2.61226087 C1.39647143,2.2353913 2.33925714,1.99626087 3.05902857,1.82408696 C3.7788,1.65286957 4.92641429,1.31043478 5.14942857,2.32052174 C5.37244286,3.3306087 5.73137143,4.06713043 5.97161429,4.39234783 L5.66341429,0.230521739 L0.7102,1.42904348 L0.384771429,5.11165217 L0.538871429,5.40243478 L0.796342857,5.2493913 M25.8572143,5.2493913 C25.8572143,5.2493913 25.7107714,3.34304348 25.4121429,2.61226087 C25.2580429,2.2353913 24.3152571,1.99626087 23.5954857,1.82408696 C22.8757143,1.65286957 21.7271429,1.31043478 21.5041286,2.32052174 C21.2820714,3.3306087 20.9212286,4.06713043 20.6809857,4.39234783 L20.9901429,0.230521739 L25.9433571,1.42904348 L26.2687857,5.11165217 L26.1146857,5.40243478 L25.8572143,5.2493913" transform="translate(10.529 11.478)"/>
    <path fill="#BCBCBC" d="M29.3852429,4.27278261 C29.3852429,4.27278261 29.2541143,14.2521739 26.9215571,14.2521739 L23.6567429,14.2521739 L20.8571,14.2521739 C18.5245429,14.2521739 18.3359857,4.2766087 18.3359857,4.2766087 L17.1902857,7.66365217 L17.2084714,12.3104348 L18.0220429,12.9570435 L18.3915,14.9523478 L18.9093143,16.1164348 L28.8932714,16.1346087 L29.3555714,15.3033913 L29.7441714,13.8992174 L29.7996857,13.0125217 L30.9023143,9.86652174 L29.3852429,4.27278261 L29.3852429,4.27278261 Z M36.7313143,13.5778261 C36.7313143,13.5778261 37.2118,17.0203478 38.4819286,17.6411304 L36.7035571,17.1045217 L36.7313143,13.5778261 L36.7313143,13.5778261 Z M10.9334429,13.5778261 C10.9334429,13.5778261 10.4529571,17.0203478 9.18282857,17.6411304 L10.9621571,17.1045217 L10.9334429,13.5778261 Z"/>
    <path fill="#464646" d="M37.0730143,17.0892174 C37.6779286,17.2872174 38.2857143,17.4966957 38.8370286,17.8190435 C38.5417757,17.7069036 38.2392651,17.6148671 37.9315714,17.5435652 C37.6262429,17.466087 37.3180429,17.400087 37.0098429,17.3407826 C36.3913902,17.2233681 35.7692275,17.1263877 35.1443714,17.05 C34.5206215,16.9685003 33.8951332,16.9008894 33.2683714,16.8472174 C32.6414429,16.7946087 32.0154714,16.7410435 31.3866286,16.7046957 C28.8741286,16.5506957 26.3539714,16.5114783 23.8328571,16.5086087 C21.3117429,16.5095652 18.7925429,16.5573913 16.2790857,16.7056522 C15.6512,16.742 15.0242714,16.7955652 14.3973429,16.8481739 C13.7704847,16.9008483 13.1449734,16.9684618 12.5213429,17.0509565 C11.8963286,17.1265217 11.2751429,17.226 10.6558714,17.3417391 C10.3467143,17.400087 10.0394714,17.4670435 9.73222857,17.5435652 C9.42457109,17.615002 9.12206945,17.7070357 8.82677143,17.8190435 C9.37712857,17.4976522 9.98587143,17.2862609 10.5917429,17.0882609 L10.7458429,17.0413913 L10.7362714,17.0021739 C10.7257429,16.9323478 10.5017714,15.2785217 10.8922857,12.912087 C10.9112135,12.7991139 10.9935602,12.7071392 11.1038143,12.6758261 L11.7441429,12.4931304 C11.8829286,7.52973913 13.9283429,5.19582609 13.9924714,5.12313043 C12.1643286,8.06252174 12.1815571,11.548087 12.2131429,12.3592174 L16.1929429,11.2286087 L16.2025143,11.2266957 C16.2188856,11.2230622 16.2355357,11.2208223 16.2522857,11.22 L16.2685571,11.2190435 C16.2904082,11.2181866 16.3122795,11.2201151 16.3336429,11.2247826 L16.3451286,11.2286087 C16.3614,11.2324348 16.3767143,11.2381739 16.3939429,11.2448696 C16.4016,11.2486957 16.4054286,11.2525217 16.4130857,11.2553913 L16.4523286,11.2802609 C16.4561571,11.2831304 16.4599857,11.284087 16.4628571,11.287913 L16.4695571,11.2946087 L16.4810429,11.3041739 C16.4839143,11.308 16.5892,11.4122609 16.7576571,11.5691304 C16.7174571,10.2586957 16.7796714,6.49956522 18.5714429,3.38417391 C18.5341143,3.49321739 17.1127571,7.64643478 17.6018571,12.3008696 C17.7607429,12.428087 17.9282429,12.5533913 18.0909571,12.6624348 C18.1698331,12.7167779 18.2175997,12.8058369 18.2192143,12.9015652 C18.2201714,12.9168696 18.2546286,14.4004348 18.9102714,15.6630435 C18.9192685,15.6818266 18.9266337,15.7013477 18.9322857,15.7213913 C20.5626267,15.6141573 22.1961196,15.5618378 23.8299857,15.5645217 C25.4619143,15.5654783 27.0967143,15.6123478 28.7267286,15.7252174 C28.7324393,15.7036915 28.7404621,15.6828457 28.7506571,15.6630435 C29.4063,14.4013913 29.4407571,12.9178261 29.4407571,12.9015652 C29.4431238,12.8055684 29.4915681,12.7165741 29.5709286,12.6624348 C29.7336429,12.5524348 29.8982714,12.428087 30.0590714,12.3008696 C30.5491286,7.64643478 29.1287286,3.49321739 29.0904429,3.38417391 C30.8803,6.49956522 30.9444286,10.2586957 30.9042286,11.5691304 C31.0717286,11.4122609 31.1779714,11.308 31.1808429,11.3041739 C31.1846714,11.3003478 31.1894571,11.2984348 31.1923286,11.2946087 C31.1952,11.2926957 31.1961571,11.2898261 31.1999857,11.287913 L31.2105143,11.2802609 L31.2497571,11.2544348 C31.2555,11.2525217 31.2612429,11.2486957 31.2679429,11.2448696 C31.2846066,11.2375585 31.3019081,11.2317951 31.3196286,11.2276522 C31.3234571,11.2276522 31.3272857,11.2247826 31.3301571,11.2247826 C31.3515074,11.2200302 31.3733898,11.2181007 31.3952429,11.2190435 L31.4105571,11.22 C31.427578,11.2212884 31.4445138,11.2235237 31.4612857,11.2266957 L31.4708571,11.2286087 L35.4506571,12.3592174 C35.4822429,11.5471304 35.4994714,8.06156522 33.6713286,5.12313043 C33.7345,5.19486957 35.7808714,7.52973913 35.9187,12.4931304 L36.5599857,12.6758261 C36.6702398,12.7071392 36.7525865,12.7991139 36.7715143,12.912087 C37.1620286,15.2785217 36.9361429,16.9323478 36.9265714,17.0021739 C36.9246571,17.0165217 36.9208286,17.0289565 36.917,17.0423478 C36.969468,17.0563874 37.0214968,17.0720178 37.0730143,17.0892174 L37.0730143,17.0892174 Z M36.3494143,16.8768696 C36.3800429,16.611913 36.5226571,15.1637391 36.2192429,13.1913913 L31.7149286,11.9115652 C31.7551286,12.673913 31.7733143,14.3277391 31.3406857,15.904087 C31.3350206,15.9235083 31.3276541,15.9423929 31.3186714,15.9605217 C31.3636571,15.9653043 31.4086429,15.9681739 31.4517143,15.9748696 C32.7191293,16.1176561 33.9784459,16.324852 35.2247714,16.5956522 C35.6009286,16.6826957 35.9770857,16.7754783 36.3494143,16.8768696 L36.3494143,16.8768696 Z M30.7721429,15.7462609 C31.1425571,14.3975652 31.1626571,12.956087 31.1358571,12.1602609 C30.8391429,12.43 30.4342714,12.7762609 30.0274857,13.0651304 C30.0026,13.4812174 29.8867857,14.6615652 29.3574857,15.7701739 C29.8293571,15.8084348 30.3012286,15.8505217 30.7721429,15.9002609 C30.7582462,15.8498668 30.7582462,15.7966549 30.7721429,15.7462609 L30.7721429,15.7462609 Z M18.3082286,15.7682609 C17.7798857,14.6606087 17.6640714,13.4821739 17.6391857,13.066087 C17.2524663,12.7862196 16.8823828,12.484085 16.5308143,12.1612174 C16.5049714,12.958 16.5241143,14.4004348 16.8935714,15.7472174 C16.9069811,15.7970274 16.9069811,15.8494943 16.8935714,15.8993043 C17.3644857,15.8495652 17.8363571,15.8055652 18.3082286,15.7682609 Z M16.3470429,15.9576522 C16.3383051,15.9401887 16.3312541,15.9219321 16.3259857,15.9031304 C15.8924,14.3267826 15.9115429,12.6729565 15.9498286,11.9106087 L11.4464714,13.1904348 C11.1440143,15.1608696 11.2847143,16.6090435 11.3153429,16.8749565 C11.6895857,16.7735652 12.0638286,16.6807826 12.4419,16.5937391 C13.0647512,16.4581205 13.6909211,16.3381984 14.3198143,16.234087 C14.9496143,16.1288696 15.5813286,16.0494783 16.2130429,15.9729565 L16.3470429,15.9576522 L16.3470429,15.9576522 Z"/>
    <polygon fill="#464646" points="28.58 4.403 28.58 8.137 25.931 8.137 25.931 7.047 25.334 7.047 25.334 12.088 26.235 12.088 26.235 14.906 21.602 14.906 21.602 12.088 22.5 12.088 22.5 7.047 21.905 7.047 21.905 8.137 19.258 8.137 19.258 4.403"/>
    <path fill="#696A6A" d="M7.70404286,1.05886957 C7.70404286,1.05886957 0.872914286,5.86347826 0.605871429,7.69426087 L1.1189,7.58904348 C1.1189,7.58904348 9.29864286,2.17034783 15.7832857,1.51034783 L15.9297286,0.68773913 L7.70404286,1.05886957 L7.70404286,1.05886957 Z M18.4269143,0.372086957 L13.0458571,4.18573913 L13.3368286,4.41913043 C13.5560143,4.24217391 22.8939,1.39173913 22.8939,1.39173913 L24.8627429,0.157826087 C23.5428429,0.323304348 18.4269143,0.372086957 18.4269143,0.372086957 L18.4269143,0.372086957 Z M23.1035143,4.9853913 C26.9244286,4.9853913 32.6510143,1.24634783 32.6510143,1.24634783 L30.7999,0.894347826 C30.7080143,0.986173913 27.8145714,0.792956522 27.8145714,0.792956522 L26.4410714,0.411304348 L23.1590286,4.14843478 L22.8919857,4.79695652 C23.1274429,4.70034783 23.1035143,4.9853913 23.1035143,4.9853913 L23.1035143,4.9853913 Z" transform="translate(2.871 18.174)"/>
    <path fill="#696A6A" d="M38.4426857,35.0842609 L37.2625286,35.4161739 L31.8087286,35.2985217 L28.3974714,32.6470435 L24.2741,33.6781739 L19.5046571,33.265913 L16.8342286,36.1823478 L11.8226286,37.6783478 L9.32065714,36.9026087 L9.19431429,36.7945217 L10.3170429,39.5426087 C10.3170429,39.5426087 12.8611286,42.2677391 14.2815286,42.5881739 C15.7019286,42.9086087 18.2689857,42.5652174 20.1938,42.2667826 C22.1186143,41.9693043 23.6538714,41.2815652 24.2731429,40.1605217 C24.8914571,39.0375652 24.9833429,38.7171304 24.9833429,38.7171304 C24.9833429,38.7171304 26.8172286,41.3054783 28.3984286,41.6029565 C29.9796286,41.9004348 34.6772857,40.2973043 34.6772857,40.2973043 C34.6772857,40.2973043 37.5420143,39.5186957 38.0464286,38.5344348 C38.5508429,37.5492174 39.8803143,34.32 39.8803143,34.32 L38.4426857,35.0842609 L38.4426857,35.0842609 Z M9.84612857,37.3234783 L9.76668571,37.2871304 L9.32448571,36.9064348 L9.84612857,37.3234783 Z M24.656,37.8342609 L24.6215429,37.8026957 C24.6637778,37.7563041 24.7065329,37.7103882 24.7498,37.6649565 L24.7536286,37.6687826 C24.8206286,37.7166087 24.8876286,37.7673043 24.9555857,37.818 L24.9201714,37.8658261 L24.9421857,37.8916522 L24.7335286,37.7338261 L24.656,37.8342609 L24.656,37.8342609 Z"/>
    <path fill="#939393" d="M6.93545714,20.6685217 C7.32118571,20.5805217 7.84378571,20.4695652 8.48315714,20.3461739 C8.08977143,20.614 7.6246,20.9506957 7.11731429,21.3543478 L6.93545714,20.6685217 L6.93545714,20.6685217 Z"/>
    <path fill="#C3C3C3" d="M21.0753286,30.9052174 C21.0753286,30.9052174 21.1834857,31.5996522 20.2110286,31.8961739 C19.2385714,32.1936522 13.0803143,34.0273043 12.3777714,33.9278261 C11.6752286,33.8293043 9.89302857,32.6393913 9.89302857,32.6393913 L9.4604,31.1032174 L12.0982857,32.7465217 L21.0753286,30.9052174 Z M26.5923,30.7703478 C26.5923,30.7703478 26.5147714,31.4686087 27.4987143,31.724 C28.4826571,31.9784348 34.7155714,33.5433043 35.4123714,33.4141739 C36.1091714,33.284087 37.8387286,32.0186087 37.8387286,32.0186087 L38.2034,30.4642609 L35.7789571,31.9095652 L26.5923,30.7703478 Z"/>
    <path fill="#C3C3C3" d="M6.43391429,29.6273043 C6.43391429,29.6273043 7.28672857,31.3327826 8.66597143,30.7426087 L9.65087143,31.1032174 L9.55228571,31.8253913 L7.48485714,32.0874783 L6.92684286,31.7593913 L6.43391429,29.6273043 L6.43391429,29.6273043 Z"/>
    <path fill="#F4F4F4" d="M38.5106429,30.4527826 C38.4627857,30.6201739 38.4139714,31.1730435 38.3622857,31.3375652 C38.8705286,31.4867826 40.1148143,31.4533043 40.5828571,31.3710435 C40.9705,30.9807826 41.6941,28.2929565 41.8529857,26.8648696 C41.9822,25.7084348 41.6826143,25.2493043 41.5648857,25.1517391 C41.4280143,25.0369565 40.9169,24.7461739 40.4737429,24.5089565 L39.7606714,29.2494783 C39.7493687,29.3423063 39.698854,29.4258626 39.6218857,29.4790435 L38.5106429,30.4527826 L38.5106429,30.4527826 Z"/>
    <path fill="#C3C3C3" d="M41.4864,28.8018261 C41.4864,28.8018261 40.5627571,30.647913 39.0715286,30.0089565 L38.0062286,30.3992174 L38.1124714,31.1806957 L40.3502714,31.4647826 L40.9542286,31.109913 L41.4864,28.8018261 L41.4864,28.8018261 Z M19.7956286,42.5594783 C19.7956286,42.5594783 24.8512571,45.1066957 30.5749714,41.6402609 L28.7363,41.5149565 C28.7363,41.5149565 24.7249143,43.1018261 21.5500714,42.2246957 L19.7956286,42.5594783 L19.7956286,42.5594783 Z"/>
    <polygon fill="#696A6A" points="27.783 7.344 27.783 5.196 20.051 5.196 20.051 7.344 21.108 7.344 21.108 6.253 23.295 6.253 23.295 12.883 22.395 12.883 22.395 14.113 25.439 14.113 25.439 12.883 24.538 12.883 24.538 6.253 26.726 6.253 26.726 7.344"/>
    <path fill="#464646" d="M24.9211286,37.8658261 L25.2714429,38.2828696 C25.2791,38.2933913 26.0563,39.2173913 27.0067429,40.1586087 C27.6384571,40.7841739 28.4022571,41.1017391 29.2770857,41.1017391 C29.5757143,41.1017391 29.8896571,41.0634783 30.2064714,40.9869565 C30.5003143,40.9152174 30.82,40.8396522 31.1473429,40.7612174 C32.3294143,40.4790435 33.6675,40.1586087 34.3164429,39.9768696 C34.4447,39.9405217 34.5882714,39.908 34.7385429,39.8735652 C35.6018857,39.6746087 36.7868286,39.3991304 37.4137571,38.1432174 C37.8856286,37.2010435 38.5221286,35.9766957 38.994,35.0804348 C38.5853,35.2688696 38.1565,35.4735652 37.8521286,35.6333043 C37.3831286,35.880087 36.7676857,35.9986957 35.9732571,35.9986957 C35.5004286,35.9986957 35.0371714,35.9585217 34.5231857,35.9135652 C33.5953631,35.8224669 32.6684828,35.722027 31.7426857,35.6122609 L31.6096429,35.597913 L31.5043571,35.5137391 C31.4890429,35.5022609 29.9671857,34.2903478 28.7372571,33.3242609 L28.6013429,33.2113913 C28.4721286,33.1013913 28.4721286,33.1013913 28.3946,33.1013913 C28.0002571,33.1013913 26.8536,33.4572174 24.3420571,34.2348696 L24.1879571,34.2836522 L24.0367286,34.2262609 C24.0195,34.2205217 22.3713,33.6102609 20.3967143,33.6102609 C20.2349571,33.6102609 20.0741571,33.614087 19.9171857,33.6226957 C19.7190571,33.6332174 18.6097286,34.1593043 17.1893286,36.4042609 L17.0974429,36.5486957 L16.9347286,36.6013043 C16.9108,36.6089565 14.4681714,37.398087 11.8762286,38.1384348 L11.7077714,38.1862609 L11.5488857,38.1126087 C11.5316571,38.105913 10.5180429,37.6353043 9.55324286,37.1924348 C10.0796714,37.9691304 10.7525429,38.938087 11.3440571,39.6985217 C12.3777714,41.0290435 13.6814,42.2591304 16.1805,42.2591304 C16.4944429,42.2591304 16.8265714,42.24 17.1692286,42.2007826 C19.7114,41.9138261 20.3660857,41.798087 20.7183143,41.735913 C20.8379571,41.7158261 20.9317571,41.6986087 21.0523571,41.6833043 C21.0715,41.6804348 23.1532857,41.4116522 23.7371429,40.1021739 C24.3391857,38.7563478 24.4607429,38.435913 24.4655286,38.4234783 L24.6780143,37.8572174 L24.6205857,37.8036522 L24.7478857,37.6649565 L24.7488429,37.665913 L24.7526714,37.6697391 C24.8196714,37.7175652 24.8866714,37.7682609 24.9536714,37.819913 L24.9211286,37.8658261 L24.9211286,37.8658261 Z M9.08807143,12.4625217 C8.5358,12.6853913 7.98735714,12.914 7.4504,13.1665217 C6.91248571,13.4123478 6.38414286,13.6753913 5.87972857,13.9690435 C5.41864876,14.2284908 4.98116231,14.5277473 4.57227143,14.8633913 C4.55480898,14.9670059 4.53949143,15.0709701 4.52632857,15.1752174 C4.5091,15.3215652 4.49187143,15.467913 4.48038571,15.6161739 C4.45454286,15.9117391 4.44401429,16.2092174 4.44114286,16.5066957 C4.43451495,17.696701 4.5893878,18.8821092 4.90152857,20.0305217 C4.98097143,20.3146087 5.06998571,20.5948696 5.17431429,20.8646087 C5.24937061,21.0653754 5.33564929,21.2617715 5.43274286,21.4528696 L5.47007143,21.5246087 C5.5141,21.5475652 5.56004286,21.5695652 5.60311429,21.5906087 L5.86824286,21.7168696 C6.01564286,21.7847826 6.21951429,21.8813913 6.38797143,21.9569565 C6.3985,21.9493043 6.40711429,21.9397391 6.41477143,21.932087 L5.92471429,20.0649565 C6.02808571,20.0362609 6.96034286,19.7961739 8.56547143,19.490087 C8.06463934,19.396131 7.5741736,19.2535718 7.10104286,19.0644348 C6.92875714,18.9907826 6.75647143,18.9113913 6.59375714,18.8186087 C6.42722159,18.7305494 6.27623059,18.6158449 6.14677143,18.4790435 C7.91078571,19.0548696 11.5546286,18.7937391 14.7955143,18.459913 C17.7588286,18.1547826 20.7288429,17.9567826 23.7141714,17.950087 C26.6995,17.9567826 29.6714286,18.1547826 32.6328286,18.459913 C35.8746714,18.7937391 39.5194714,19.0548696 41.2834857,18.4790435 C41.1541214,18.6155458 41.0034966,18.7302177 40.8374571,18.8186087 C40.6729631,18.9097129 40.503616,18.991777 40.3301714,19.0644348 C39.9282029,19.2238168 39.5140084,19.3504896 39.0916286,19.4432174 C40.8518143,19.7693913 41.8769143,20.0353043 41.9860286,20.0649565 L41.5170286,21.8431304 C41.6117857,21.8010435 41.7065429,21.7608696 41.7993857,21.7168696 L42.0645143,21.5906087 C42.1075857,21.5695652 42.1535286,21.5475652 42.1975571,21.5246087 L42.2339286,21.4528696 C42.3295277,21.2607997 42.4163971,21.0645127 42.4942714,20.8646087 C42.5976429,20.5948696 42.6876143,20.3136522 42.7651429,20.0305217 C42.9259429,19.4642609 43.0350571,18.8769565 43.1154571,18.2858261 C43.2309544,17.4007586 43.2550097,16.5061629 43.1872429,15.6161739 C43.1745006,15.4688957 43.1588642,15.3218818 43.1403429,15.1752174 C43.1273338,15.0708981 43.1116955,14.966923 43.0934429,14.8633913 C42.6846405,14.5276296 42.2471434,14.2283658 41.7859857,13.9690435 C41.2758967,13.6753873 40.7513586,13.407542 40.2143571,13.1665217 C39.6753089,12.9162676 39.1291942,12.6815046 38.5766857,12.4625217 C38.3000714,12.3506087 38.0215429,12.2425217 37.7420571,12.1382609 C37.4635286,12.0301739 37.1821286,11.9287826 36.8997714,11.8264348 C37.4912857,11.924 38.0780143,12.0588696 38.659,12.208087 C39.0370714,12.3056522 39.4151429,12.4156522 39.7874714,12.5333043 C37.1294857,5.588 30.7731,1.06556522 23.8328571,1.06556522 C16.8916571,1.06556522 10.5352714,5.588 7.87728571,12.5323478 C8.25057143,12.4156522 8.62672857,12.3056522 9.0048,12.2071304 C9.58578666,12.0547722 10.1730571,11.9274374 10.7649857,11.8254783 C10.201952,12.026989 9.64287576,12.2393766 9.08807143,12.4625217 Z M44.0850429,16.4808696 C44.1481925,17.7626179 44.0093064,19.0463191 43.6734714,20.2849565 C43.5437827,20.7565035 43.3753927,21.2165561 43.1700143,21.6604348 C43.1340071,21.7365034 43.0957039,21.8114653 43.0551571,21.8852174 L42.9929429,21.9971304 C42.969022,22.0401676 42.9434799,22.0822847 42.9163714,22.1233913 L42.8522429,22.2238261 L42.7507857,22.2754783 C42.6534963,22.3252843 42.5552096,22.3731201 42.4559857,22.4189565 L42.1707571,22.5471304 C41.9793286,22.6284348 41.7879,22.705913 41.5955143,22.7805217 C41.4615143,22.8331304 41.3428286,22.8809565 41.2308429,22.9287826 L40.9140286,24.132087 C40.9063714,24.1301739 40.8106571,24.1053043 40.6326286,24.0632174 L40.6154,24.1894783 C40.9657143,24.3721739 41.6529429,24.7423478 41.8874429,24.9355652 C42.3593143,25.3248696 42.3918571,25.9418261 42.2875286,27.0944348 C42.2339286,27.6865217 42.0377143,28.8372174 41.7649286,29.8951304 C41.2940143,31.7153913 41.0442,31.9296522 40.7216429,32.011913 C40.5055854,32.0658656 40.283906,32.0941194 40.0612143,32.096087 C39.5635,32.096087 38.8858429,32.1094783 38.4302429,31.9994783 C38.1434899,32.9780887 37.7713281,33.9296541 37.3180429,34.8432174 C37.3515429,34.8269565 37.3840857,34.8135652 37.4137571,34.7982609 C38.2292429,34.3697391 39.798,33.6877391 39.8640429,33.658087 L41.1025857,33.1205217 L40.468,34.3123478 C40.4536429,34.3381739 39.0925857,36.8949565 38.2598714,38.564087 C37.4329,40.217913 35.8813714,40.5775652 34.9529429,40.7908696 C34.8132,40.8243478 34.6801571,40.8549565 34.5729571,40.8836522 C33.9067857,41.0711304 32.5581714,41.3925217 31.3684429,41.6785217 C31.3540857,41.6823478 31.3397286,41.6861739 31.3253714,41.688087 C30.5931571,42.1405217 29.7949,42.5432174 28.9210286,42.8751304 C25.7232143,44.086087 22.3521571,44.0172174 19.2969571,42.8952174 C18.8002,42.9593043 18.1483857,43.0367826 17.2793,43.1362609 C16.9021857,43.1783478 16.5346429,43.2003478 16.1852857,43.2003478 C13.2736571,43.2003478 11.7307429,41.7225217 10.6041857,40.2762609 C9.39818571,38.7266957 7.92322857,36.4272174 7.86101429,36.3306087 L7.00532857,34.9972174 L8.45061429,35.6466957 C9.14262857,35.9575652 11.1995286,36.9093043 11.7881714,37.181913 C11.8352732,37.168902 11.8821784,37.1551903 11.9288714,37.1407826 C10.9125765,35.6852706 10.1211014,34.0852907 9.581,32.3945217 C8.99424619,32.5579342 8.3887249,32.644427 7.77965714,32.6518261 C7.59653643,32.6549793 7.41361259,32.6383023 7.23408571,32.602087 C6.91152857,32.5284348 6.54302857,32.2175652 6.04148571,30.4537391 C5.75051429,29.4293043 5.53324286,28.312087 5.47007143,27.7362609 C5.34468571,26.6133043 5.36765714,26.0106957 5.83474286,25.6223478 C6.11614286,25.3870435 7.06658571,24.8886957 7.2628,24.7863478 L7.21972857,24.4391304 C4.20185714,26.2125217 2.39285714,27.7783478 2.35552857,27.8108696 L0.197171429,29.7038261 L1.7353,27.28 C2.83320491,25.5609408 4.14974622,23.9915694 5.65192857,22.6112174 L5.49591429,22.5471304 L5.21068571,22.4189565 C5.11178188,22.3731115 5.0138143,22.3252757 4.91684286,22.2754783 L4.81538571,22.2238261 L4.7503,22.1233913 C4.71392857,22.0688696 4.69765714,22.0382609 4.67372857,21.9971304 L4.6096,21.8852174 C4.49304067,21.6652275 4.38980256,21.4384427 4.30044286,21.206087 C4.18255962,20.9043151 4.07970036,20.5968953 3.99224286,20.2849565 C3.8232521,19.6660865 3.7041849,19.0346722 3.63618571,18.3967826 C3.50971402,17.281295 3.54809132,16.1532836 3.75008571,15.0489565 C3.78262857,14.8882609 3.81517143,14.738087 3.86398571,14.562087 L3.89844286,14.4386957 L3.98745714,14.3688696 C4.49091429,13.9738261 5.03457143,13.6753913 5.58684286,13.4104348 C6.04148571,13.1971304 6.50474286,13.0086957 6.97182857,12.8365217 C8.27641429,9.218 10.5199571,6.00982609 13.4679571,3.77347826 C16.5155,1.46252174 20.1,0.241043478 23.8328571,0.241043478 C27.5657143,0.241043478 31.1502143,1.46252174 34.1977571,3.77443478 C37.1457571,6.01078261 39.3893,9.21895652 40.6929286,12.8365217 C41.1609714,13.0086957 41.6232714,13.1961739 42.0798286,13.4113913 C42.6321,13.6763478 43.1748,13.9747826 43.6782571,14.3698261 L43.7672714,14.4396522 L43.8017286,14.5630435 C43.8875191,14.879413 43.9517944,15.2012202 43.9941143,15.5262609 C44.0381429,15.841913 44.0697286,16.1613913 44.0850429,16.4808696 L44.0850429,16.4808696 Z M41.4519429,27.0169565 C41.5524429,25.9083478 41.4643857,25.6701739 41.3524,25.5793043 C41.2394571,25.4846087 40.8594714,25.2693913 40.4890571,25.0685217 L39.8793571,29.3384348 C39.867216,29.4218889 39.821159,29.4966397 39.7520571,29.5450435 L38.8791429,30.1553043 C38.8102286,30.5044348 38.7853429,30.669913 38.7001571,31.0113913 C39.1988286,31.1271304 40.0171857,31.2170435 40.4067429,31.1414783 C40.7589714,30.7588696 41.3303857,28.3752174 41.4519429,27.0169565 L41.4519429,27.0169565 Z M40.3196429,23.145913 L40.9733714,20.6694783 C40.0258,20.4552174 38.2799714,20.0955652 35.9024286,19.7598261 C34.6887714,20.6321739 33.3602571,21.3294783 32.0547143,21.8861739 C36.0488714,22.2735652 38.9834714,22.8513043 40.3196429,23.145913 L40.3196429,23.145913 Z M39.2916714,29.1203478 L40.0344143,23.9264348 C39.6162548,23.8358284 39.1969944,23.7503726 38.7767286,23.670087 L38.1048143,28.3694783 C38.0925836,28.4526583 38.046961,28.527265 37.9784714,28.576087 L35.4602286,30.336087 C35.399683,30.3782988 35.325953,30.3973136 35.2525286,30.3896522 L27.6633429,29.5278261 C27.5423578,29.5145545 27.4408156,29.4307426 27.4049143,29.3145217 L26.0381143,24.8169565 C25.6715286,24.7222609 24.7325714,24.5032174 23.9094286,24.5032174 C23.0834143,24.5032174 22.1444571,24.7222609 21.7788286,24.8169565 L20.4120286,29.3145217 C20.3798029,29.4192515 20.2940183,29.4987788 20.1871,29.5230435 L12.5979143,31.2103478 C12.5145,31.2295363 12.4268559,31.2125054 12.3567143,31.1634783 L9.83942857,29.4025217 C9.76860846,29.3529963 9.7220255,29.2758716 9.71117143,29.1901739 L9.03255714,23.6901739 C8.75115714,23.7446957 8.49655714,23.7973043 8.26875714,23.8441739 L7.79114286,24.110087 L8.51091429,29.9381739 L12.1691143,32.4997391 L21.3988429,30.448 L22.7618143,25.961913 C22.795095,25.8498513 22.8895129,25.7666391 23.0049286,25.7476522 C23.3504571,25.6921739 23.6529143,25.6634783 23.9084714,25.6634783 C24.1611571,25.6634783 24.4655286,25.6921739 24.8091429,25.7476522 C24.9248687,25.7659832 25.0195889,25.8494617 25.0522571,25.961913 L26.4496857,30.5589565 L35.7311,31.614 L39.2916714,29.1203478 L39.2916714,29.1203478 Z M37.52,28.1533043 L38.1766,23.5581739 C35.568659,23.0911046 32.9384962,22.7577987 30.2964429,22.5595652 C27.3005857,23.5926087 24.7919143,23.8996522 24.6406857,23.9101739 L24.4655286,23.9226087 C25.1081593,23.9847255 25.7441777,24.1025014 26.3664143,24.2746087 C26.4659571,24.3042609 26.5425286,24.3798261 26.5741143,24.4793043 L27.9323,28.9472174 L35.2065857,29.7726957 L37.52,28.1533043 L37.52,28.1533043 Z M38.0263286,30.7512174 L37.7181286,30.9664348 L36.8882857,31.548 L35.9895286,32.1773913 C35.9282154,32.2195033 35.8539295,32.2384864 35.7799143,32.2309565 L26.8354143,31.2141739 L26.1845571,31.1405217 C26.0635811,31.1269816 25.9623131,31.0427091 25.9270857,30.9262609 L24.5267857,26.3196522 C24.3225871,26.290253 24.116678,26.2742767 23.9103857,26.2718261 C23.7323571,26.2718261 23.5256143,26.288087 23.2920714,26.3196522 L21.9329286,30.7933043 C21.9009388,30.8979944 21.8149701,30.9773267 21.708,31.0008696 L12.1729429,33.1224348 C12.0889567,33.1414833 12.0008283,33.1237298 11.9307857,33.0736522 L11.5843,32.8326087 L10.5467571,32.1075652 L10.5467571,32.1046957 L10.1275286,31.812 C10.1572,31.9066957 10.1907,31.9985217 10.2242,32.0903478 L10.2232429,32.0913043 C10.3036429,32.3304348 11.1076429,34.6404348 12.7405286,36.9016522 C14.4892286,36.386087 16.0024714,35.9068696 16.4848714,35.7538261 C17.4697714,34.2367826 18.8729429,32.7312174 19.8693286,32.6795652 C20.0406571,32.671913 20.2196429,32.6661739 20.3967143,32.6661739 C20.8839,32.6661739 21.3500286,32.7015652 21.7817,32.7522609 C21.4151143,32.4193913 21.3395,32.0291304 21.2868571,31.856 C21.2868571,31.856 22.5589,32.8498261 24.1774286,32.6422609 C25.7969143,32.4327826 26.8028714,31.5001739 26.8028714,31.5001739 C26.8028714,31.5001739 26.7980857,32.1802609 26.0926714,32.7073043 C27.4499,32.2969565 28.0107857,32.1563478 28.3955571,32.1563478 C28.8195714,32.1563478 29.0282286,32.3333043 29.2110429,32.4892174 L29.3220714,32.5810435 C30.3653571,33.4017391 31.6201714,34.3984348 31.9867571,34.6901739 C32.4117286,34.739913 33.7593857,34.8929565 34.6083714,34.9713913 C35.0984286,35.0153913 35.5406286,35.0526957 35.9732571,35.0526957 C36.113,35.0526957 36.2441286,35.0469565 36.3676,35.0393043 C36.9745253,33.869023 37.4745847,32.6464173 37.8617,31.3863478 C37.9200857,31.1778261 37.9756,30.9654783 38.0263286,30.7512174 L38.0263286,30.7512174 Z M34.7261,19.4336522 L34.7194,19.4307826 C34.0007298,19.3765154 33.2815646,19.3290061 32.562,19.2882609 C31.5617857,19.2308696 30.5615714,19.184 29.5623143,19.141913 C29.5039286,19.228 29.3862,19.3982609 29.2167857,19.6297391 C28.6721714,20.3653043 27.5925143,21.715913 26.2084857,22.8608696 C28.1677571,22.5098261 31.5665714,21.6413043 34.5069143,19.5914783 C34.5806143,19.5388696 34.6533571,19.4843478 34.7261,19.4336522 L34.7261,19.4336522 Z M28.1677571,19.6364348 C28.2500714,19.5331304 28.3276,19.4336522 28.3965143,19.3427826 C27.6767429,19.4154783 26.9665429,19.5197391 26.2735714,19.6517391 C23.8998571,20.0955652 21.7070429,20.834 19.8836857,21.5906087 C22.0729646,21.4851084 24.2655195,21.4646872 26.4563857,21.5293913 C27.0687824,20.9375766 27.6405373,20.3051557 28.1677571,19.6364348 L28.1677571,19.6364348 Z M28.9545286,42.0314783 C27.966746,41.9602231 27.0383444,41.5333674 26.3415286,40.830087 L26.2314571,40.7181739 C25.8776414,40.7896902 25.5200535,40.841106 25.1604143,40.8721739 C25.0072714,40.877913 24.8617857,40.8913043 24.7009857,40.8913043 L24.4636143,40.8941739 L24.3726857,40.8913043 C23.4078857,42.326087 21.2648429,42.6053913 21.1662571,42.6178261 C21.0787409,42.628751 20.9915965,42.6424681 20.9049571,42.6589565 C22.0994714,42.986087 23.3188714,43.1276522 24.5210429,43.0473043 C26.0432618,42.9446867 27.5396194,42.6018326 28.9545286,42.0314783 L28.9545286,42.0314783 Z M25.1355286,40.3948696 C25.3671571,40.3766957 25.6007,40.3470435 25.8342429,40.3116522 C25.5308286,39.996 25.2628286,39.7033043 25.0513,39.4651304 C24.9479286,39.7023478 24.8110571,40.0151304 24.6301571,40.4168696 L24.6837571,40.4168696 C24.8273286,40.4178261 24.9852571,40.4015652 25.1355286,40.3948696 L25.1355286,40.3948696 Z M24.3985286,23.1449565 C24.7995714,22.9029565 25.1853,22.6255652 25.5509286,22.3309565 C22.9538381,22.2807531 20.3558229,22.352891 17.7655286,22.5471304 C15.8751714,23.4701739 14.7199,24.2306087 14.6931,24.2497391 L12.8783571,25.4597391 L14.1245571,23.672 C14.3303429,23.3754783 14.5485714,23.0933043 14.7735,22.8254783 C13.052204,23.0150903 11.338164,23.265537 9.6346,23.5763478 L10.3017286,28.9797391 L12.596,30.5857391 L19.8808143,28.9673043 L21.2447429,24.4783478 C21.2752025,24.3799399 21.3527348,24.3031753 21.4514857,24.2736522 C21.4936,24.2621739 22.2219857,24.0546087 23.0614,23.9522609 L24.3985286,23.1449565 L24.3985286,23.1449565 Z M25.2369857,19.0233043 C24.7297,19.0156522 24.2224143,19.0108696 23.7151286,19.009913 L23.7141714,19.009913 C22.9704714,19.0108696 22.2239,19.0185217 21.4773286,19.0338261 L20.1009571,19.6852174 L20.0818143,19.6957391 C19.8750714,19.7961739 18.0679857,20.7077391 16.3681,22.3328696 C18.4157321,21.2537614 20.5578,20.3640001 22.7675571,19.6746957 C23.5816664,19.4247007 24.4054697,19.207396 25.2369857,19.0233043 L25.2369857,19.0233043 Z M15.6186571,21.9062609 C16.3326857,21.1984348 17.0687286,20.6149565 17.7186286,20.1586957 C15.2128286,20.7402609 12.9061143,21.5944348 10.8855857,22.5232174 C12.4567684,22.2704539 14.0351646,22.0647098 15.6186571,21.9062609 L15.6186571,21.9062609 Z M16.0924429,19.7244348 C16.9480361,19.4848907 17.813056,19.2803437 18.6853429,19.1113043 C17.4123429,19.1581739 16.1393429,19.2165217 14.8673,19.2882609 C14.1283857,19.3293913 13.3933,19.3791304 12.6582143,19.4346087 C12.1873949,19.4692655 11.7173384,19.5135937 11.2483429,19.5675652 C10.2892857,20.1414783 6.61098571,22.4486087 4.08508571,25.4664348 C6.5392,23.761913 10.8138,21.2003478 16.0924429,19.7244348 L16.0924429,19.7244348 Z M9.32065714,31.6130435 C9.2728,31.4609565 9.22781429,31.306 9.18474286,31.152 L8.05148571,30.36 C7.98048562,30.3106429 7.93384973,30.2334306 7.92322857,30.1476522 L7.37,25.6615652 C6.96034286,25.8806087 6.48847143,26.1493913 6.36212857,26.2555652 C6.25301429,26.3454783 6.16974286,26.576 6.28842857,27.6444348 C6.43487143,28.9625217 7.10295714,31.4466087 7.46284286,31.8081739 C7.89451429,31.8837391 8.85165714,31.7517391 9.32065714,31.6130435 L9.32065714,31.6130435 Z M8.48315714,20.3461739 C7.84282857,20.4695652 7.32118571,20.5814783 6.93545714,20.6685217 L7.11731429,21.3543478 C7.6246,20.9506957 8.08977143,20.614 8.48315714,20.3461739 Z M52.7012429,19.1170435 L47.9978429,19.1170435 L47.9978429,16.6798261 L60.2665,16.6798261 L60.2665,19.1170435 L55.5870286,19.1170435 L55.5870286,32.9454783 L52.7002857,32.9454783 L52.7002857,19.1170435 L52.7012429,19.1170435 Z M60.7297571,20.7335652 L63.0939,20.7335652 L63.2929857,22.8981739 L63.3925286,22.8981739 C64.2635286,21.3065217 65.5585429,20.436087 66.8516429,20.436087 C67.4737857,20.436087 67.8719571,20.5106957 68.2452429,20.6847826 L67.7475286,23.1717391 C67.3244714,23.0473913 67.0009571,22.9727826 66.4783571,22.9727826 C65.5078143,22.9727826 64.3381857,23.6442609 63.5916143,25.4846087 L63.5916143,32.9464348 L60.7297571,32.9464348 L60.7297571,20.7335652 L60.7297571,20.7335652 Z M76.6231143,25.1364348 C76.5991857,23.8422609 76.0507429,22.7489565 74.4082857,22.7489565 C73.1898429,22.7489565 72.0441429,23.296087 70.9740571,23.9426957 L69.9288571,22.0277391 C71.2726857,21.1812174 72.9898,20.436087 74.9318429,20.436087 C77.9918286,20.436087 79.4859286,22.3003478 79.4859286,25.7084348 L79.4859286,32.9454783 L77.1457143,32.9454783 L76.9227,31.6025217 L76.8480429,31.6025217 C75.7521143,32.5226957 74.5087857,33.2448696 73.0654143,33.2448696 C70.9252429,33.2448696 69.4321,31.8014783 69.4321,29.6636522 C69.4321,27.0513913 71.6210857,25.6835652 76.6231143,25.1364348 L76.6231143,25.1364348 Z M73.9603429,31.0046957 C74.9557714,31.0046957 75.7281857,30.5073043 76.6231143,29.6626957 L76.6231143,26.9270435 C73.3133143,27.3488696 72.2183429,28.2202609 72.2183429,29.4388696 C72.2193,30.5321739 72.9409857,31.0046957 73.9603429,31.0046957 L73.9603429,31.0046957 Z M80.9082429,20.7335652 L83.8208286,20.7335652 L85.7609571,27.0753043 C86.0844714,28.2690435 86.4587143,29.5134783 86.7812714,30.7569565 L86.8808143,30.7569565 C87.2292143,29.5134783 87.5785714,28.2690435 87.9269714,27.0753043 L89.8680571,20.7335652 L92.6303714,20.7335652 L88.4735,32.9454783 L85.1637,32.9454783 L80.9082429,20.7335652 L80.9082429,20.7335652 Z M94.2747429,16.9782609 C94.2747429,16.0073913 95.0203571,15.3368696 96.0416286,15.3368696 C97.0629,15.3368696 97.8085143,16.0073913 97.8085143,16.9782609 C97.8085143,17.9223478 97.0629,18.5938261 96.0416286,18.5938261 C95.0203571,18.5938261 94.2747429,17.9233043 94.2747429,16.9782609 Z M94.5982571,20.7335652 L97.4601143,20.7335652 L97.4601143,32.9454783 L94.5982571,32.9454783 L94.5982571,20.7335652 L94.5982571,20.7335652 Z M101.021643,29.7124348 C102.116614,30.558 103.161814,31.0802609 104.4061,31.0802609 C105.725043,31.0802609 106.347186,30.4594783 106.347186,29.6129565 C106.347186,28.5942609 105.027286,28.1456522 103.734186,27.6482609 C102.116614,27.0513913 100.299957,26.1312174 100.299957,24.091913 C100.299957,21.9531304 102.017071,20.436087 104.7545,20.436087 C106.446729,20.436087 107.814486,21.1324348 108.809914,21.9024348 L107.490971,23.6433043 C106.644857,23.0225217 105.773857,22.5987826 104.803314,22.5987826 C103.583914,22.5987826 103.011543,23.1707826 103.011543,23.9417391 C103.011543,24.8867826 104.229986,25.2846957 105.549886,25.7562609 C107.216271,26.378 109.058771,27.1738261 109.058771,29.4618261 C109.058771,31.5518261 107.391429,33.2429565 104.304643,33.2429565 C102.6373,33.2429565 100.870414,32.5207826 99.6759,31.5508696 L101.021643,29.7124348 L101.021643,29.7124348 Z M123.592029,16.3813913 C125.582886,16.3813913 127.201414,17.3513043 128.220771,18.4455652 L126.628086,20.2361739 C125.781971,19.4154783 124.8612,18.8932174 123.616914,18.8932174 C120.954143,18.8932174 119.037943,21.1314783 119.037943,24.7873043 C119.037943,28.4928696 120.804829,30.7311304 123.517371,30.7311304 C124.9617,30.7311304 126.030829,30.1342609 126.952557,29.1155652 L128.545243,30.8813043 C127.225343,32.3983478 125.534071,33.2448696 123.4676,33.2448696 C119.336571,33.2448696 116.075586,30.2595652 116.075586,24.8628696 C116.075586,19.5398261 119.411229,16.3813913 123.592029,16.3813913 Z M130.915129,16.6798261 L133.802829,16.6798261 L133.802829,32.9454783 L130.915129,32.9454783 L130.915129,16.6798261 Z"/>
  </g>
</svg>
