<?xml version="1.0" encoding="UTF-8"?>
<svg width="24px" height="24px" viewBox="0 0 24 24" version="1.1" xmlns="http://www.w3.org/2000/svg" xmlns:xlink="http://www.w3.org/1999/xlink">
    <!-- Generator: Sketch 52.6 (67491) - http://www.bohemiancoding.com/sketch -->
    <title>x-black</title>
    <desc>Created with Sketch.</desc>
    <g id="x-black" stroke="none" stroke-width="1" fill="none" fill-rule="evenodd">
        <path d="M13.3429338,12 L19.7218693,18.3789355 C20.0927102,18.7497764 20.0927102,19.3510284 19.7218693,19.7218693 C19.3510284,20.0927102 18.7497764,20.0927102 18.3789355,19.7218693 L12,13.3429338 L5.62106449,19.7218693 C5.25022356,20.0927102 4.64897162,20.0927102 4.2781307,19.7218693 C3.90728977,19.3510284 3.90728977,18.7497764 4.2781307,18.3789355 L10.6570662,12 L4.2781307,5.62106449 C3.90728977,5.25022356 3.90728977,4.64897162 4.2781307,4.2781307 C4.64897162,3.90728977 5.25022356,3.90728977 5.62106449,4.2781307 L12,10.6570662 L18.3789355,4.2781307 C18.7497764,3.90728977 19.3510284,3.90728977 19.7218693,4.2781307 C20.0927102,4.64897162 20.0927102,5.25022356 19.7218693,5.62106449 L13.3429338,12 Z" id="Combined-Shape" fill="#000000" fill-rule="nonzero"></path>
    </g>
</svg>