<svg xmlns="http://www.w3.org/2000/svg" xmlns:xlink="http://www.w3.org/1999/xlink" width="600" height="301" viewBox="0 0 600 301">
  <defs>
    <rect id="generate-code-mobile-b" width="147" height="48" x="0" y="0" rx="4"/>
    <filter id="generate-code-mobile-a" width="124.5%" height="181.2%" x="-12.2%" y="-31.2%" filterUnits="objectBoundingBox">
      <feOffset dy="6" in="SourceAlpha" result="shadowOffsetOuter1"/>
      <feGaussianBlur in="shadowOffsetOuter1" result="shadowBlurOuter1" stdDeviation="5"/>
      <feColorMatrix in="shadowBlurOuter1" result="shadowMatrixOuter1" values="0 0 0 0 0.133799873   0 0 0 0 0.187156012   0 0 0 0 0.370329484  0 0 0 0.15 0"/>
      <feOffset dy="3" in="SourceAlpha" result="shadowOffsetOuter2"/>
      <feGaussianBlur in="shadowOffsetOuter2" result="shadowBlurOuter2" stdDeviation="5"/>
      <feColorMatrix in="shadowBlurOuter2" result="shadowMatrixOuter2" values="0 0 0 0 0   0 0 0 0 0   0 0 0 0 0  0 0 0 0.03 0"/>
      <feOffset in="SourceAlpha" result="shadowOffsetOuter3"/>
      <feGaussianBlur in="shadowOffsetOuter3" result="shadowBlurOuter3" stdDeviation="1"/>
      <feColorMatrix in="shadowBlurOuter3" result="shadowMatrixOuter3" values="0 0 0 0 0.133333333   0 0 0 0 0.188235294   0 0 0 0 0.368627451  0 0 0 0.166275131 0"/>
      <feMerge>
        <feMergeNode in="shadowMatrixOuter1"/>
        <feMergeNode in="shadowMatrixOuter2"/>
        <feMergeNode in="shadowMatrixOuter3"/>
      </feMerge>
    </filter>
    <rect id="generate-code-mobile-d" width="147" height="48" x="0" y="0" rx="4"/>
    <filter id="generate-code-mobile-c" width="124.5%" height="181.2%" x="-12.2%" y="-31.2%" filterUnits="objectBoundingBox">
      <feOffset dy="6" in="SourceAlpha" result="shadowOffsetOuter1"/>
      <feGaussianBlur in="shadowOffsetOuter1" result="shadowBlurOuter1" stdDeviation="5"/>
      <feColorMatrix in="shadowBlurOuter1" result="shadowMatrixOuter1" values="0 0 0 0 0.133799873   0 0 0 0 0.187156012   0 0 0 0 0.370329484  0 0 0 0.15 0"/>
      <feOffset dy="3" in="SourceAlpha" result="shadowOffsetOuter2"/>
      <feGaussianBlur in="shadowOffsetOuter2" result="shadowBlurOuter2" stdDeviation="5"/>
      <feColorMatrix in="shadowBlurOuter2" result="shadowMatrixOuter2" values="0 0 0 0 0   0 0 0 0 0   0 0 0 0 0  0 0 0 0.03 0"/>
      <feOffset in="SourceAlpha" result="shadowOffsetOuter3"/>
      <feGaussianBlur in="shadowOffsetOuter3" result="shadowBlurOuter3" stdDeviation="1"/>
      <feColorMatrix in="shadowBlurOuter3" result="shadowMatrixOuter3" values="0 0 0 0 0.133333333   0 0 0 0 0.188235294   0 0 0 0 0.368627451  0 0 0 0.166275131 0"/>
      <feMerge>
        <feMergeNode in="shadowMatrixOuter1"/>
        <feMergeNode in="shadowMatrixOuter2"/>
        <feMergeNode in="shadowMatrixOuter3"/>
      </feMerge>
    </filter>
    <rect id="generate-code-mobile-f" width="147" height="48" x="0" y="0" rx="4"/>
    <filter id="generate-code-mobile-e" width="124.5%" height="181.2%" x="-12.2%" y="-31.2%" filterUnits="objectBoundingBox">
      <feOffset dy="6" in="SourceAlpha" result="shadowOffsetOuter1"/>
      <feGaussianBlur in="shadowOffsetOuter1" result="shadowBlurOuter1" stdDeviation="5"/>
      <feColorMatrix in="shadowBlurOuter1" result="shadowMatrixOuter1" values="0 0 0 0 0.133799873   0 0 0 0 0.187156012   0 0 0 0 0.370329484  0 0 0 0.15 0"/>
      <feOffset dy="3" in="SourceAlpha" result="shadowOffsetOuter2"/>
      <feGaussianBlur in="shadowOffsetOuter2" result="shadowBlurOuter2" stdDeviation="5"/>
      <feColorMatrix in="shadowBlurOuter2" result="shadowMatrixOuter2" values="0 0 0 0 0   0 0 0 0 0   0 0 0 0 0  0 0 0 0.03 0"/>
      <feOffset in="SourceAlpha" result="shadowOffsetOuter3"/>
      <feGaussianBlur in="shadowOffsetOuter3" result="shadowBlurOuter3" stdDeviation="1"/>
      <feColorMatrix in="shadowBlurOuter3" result="shadowMatrixOuter3" values="0 0 0 0 0.133333333   0 0 0 0 0.188235294   0 0 0 0 0.368627451  0 0 0 0.166275131 0"/>
      <feMerge>
        <feMergeNode in="shadowMatrixOuter1"/>
        <feMergeNode in="shadowMatrixOuter2"/>
        <feMergeNode in="shadowMatrixOuter3"/>
      </feMerge>
    </filter>
    <radialGradient id="generate-code-mobile-g" cx="49.996%" cy="49.997%" r="50.004%" fx="49.996%" fy="49.997%" gradientTransform="scale(.99985 1)">
      <stop offset="0%" stop-color="#FFF" stop-opacity=".1"/>
      <stop offset="100%" stop-color="#FFF" stop-opacity="0"/>
    </radialGradient>
    <rect id="generate-code-mobile-i" width="147" height="48" x="0" y="0" rx="4"/>
    <filter id="generate-code-mobile-h" width="124.5%" height="181.2%" x="-12.2%" y="-31.2%" filterUnits="objectBoundingBox">
      <feOffset dy="6" in="SourceAlpha" result="shadowOffsetOuter1"/>
      <feGaussianBlur in="shadowOffsetOuter1" result="shadowBlurOuter1" stdDeviation="5"/>
      <feColorMatrix in="shadowBlurOuter1" result="shadowMatrixOuter1" values="0 0 0 0 0.133799873   0 0 0 0 0.187156012   0 0 0 0 0.370329484  0 0 0 0.15 0"/>
      <feOffset dy="3" in="SourceAlpha" result="shadowOffsetOuter2"/>
      <feGaussianBlur in="shadowOffsetOuter2" result="shadowBlurOuter2" stdDeviation="5"/>
      <feColorMatrix in="shadowBlurOuter2" result="shadowMatrixOuter2" values="0 0 0 0 0   0 0 0 0 0   0 0 0 0 0  0 0 0 0.03 0"/>
      <feOffset in="SourceAlpha" result="shadowOffsetOuter3"/>
      <feGaussianBlur in="shadowOffsetOuter3" result="shadowBlurOuter3" stdDeviation="1"/>
      <feColorMatrix in="shadowBlurOuter3" result="shadowMatrixOuter3" values="0 0 0 0 0.133333333   0 0 0 0 0.188235294   0 0 0 0 0.368627451  0 0 0 0.166275131 0"/>
      <feMerge>
        <feMergeNode in="shadowMatrixOuter1"/>
        <feMergeNode in="shadowMatrixOuter2"/>
        <feMergeNode in="shadowMatrixOuter3"/>
      </feMerge>
    </filter>
    <linearGradient id="generate-code-mobile-j" x1="-10.041%" x2="100%" y1="27.196%" y2="85.74%">
      <stop offset="0%" stop-color="#F3F4F9"/>
      <stop offset="100%" stop-color="#E4E6F1"/>
    </linearGradient>
    <rect id="generate-code-mobile-l" width="140" height="56" x="0" y="0" rx="4"/>
    <filter id="generate-code-mobile-k" width="125.7%" height="169.6%" x="-12.9%" y="-26.8%" filterUnits="objectBoundingBox">
      <feOffset dy="6" in="SourceAlpha" result="shadowOffsetOuter1"/>
      <feGaussianBlur in="shadowOffsetOuter1" result="shadowBlurOuter1" stdDeviation="5"/>
      <feColorMatrix in="shadowBlurOuter1" result="shadowMatrixOuter1" values="0 0 0 0 0.133799873   0 0 0 0 0.187156012   0 0 0 0 0.370329484  0 0 0 0.15 0"/>
      <feOffset dy="3" in="SourceAlpha" result="shadowOffsetOuter2"/>
      <feGaussianBlur in="shadowOffsetOuter2" result="shadowBlurOuter2" stdDeviation="5"/>
      <feColorMatrix in="shadowBlurOuter2" result="shadowMatrixOuter2" values="0 0 0 0 0   0 0 0 0 0   0 0 0 0 0  0 0 0 0.03 0"/>
      <feOffset in="SourceAlpha" result="shadowOffsetOuter3"/>
      <feGaussianBlur in="shadowOffsetOuter3" result="shadowBlurOuter3" stdDeviation="1"/>
      <feColorMatrix in="shadowBlurOuter3" result="shadowMatrixOuter3" values="0 0 0 0 0.133333333   0 0 0 0 0.188235294   0 0 0 0 0.368627451  0 0 0 0.166275131 0"/>
      <feMerge>
        <feMergeNode in="shadowMatrixOuter1"/>
        <feMergeNode in="shadowMatrixOuter2"/>
        <feMergeNode in="shadowMatrixOuter3"/>
      </feMerge>
    </filter>
  </defs>
  <g fill="none" fill-rule="evenodd">
    <rect width="600" height="301" fill="#FFF" rx="6"/>
    <g transform="translate(447 21)">
      <use fill="#000" filter="url(#generate-code-mobile-a)" xlink:href="#generate-code-mobile-b"/>
      <use fill="#FFF" xlink:href="#generate-code-mobile-b"/>
      <path fill="#1D3154" fill-rule="nonzero" d="M58.0859375,18.625 L59.59375,18.625 L59.59375,26.6796875 C59.59375,27.7682346 59.2669304,28.6197886 58.6132812,29.234375 C57.9596321,29.8489614 57.0885471,30.15625 56,30.15625 C54.869786,30.15625 53.9895865,29.8671904 53.359375,29.2890625 C52.7291635,28.7109346 52.4140625,27.9010469 52.4140625,26.859375 L53.9140625,26.859375 C53.9140625,27.5104199 54.0924461,28.0182273 54.4492188,28.3828125 C54.8059914,28.7473977 55.3229133,28.9296875 56,28.9296875 C56.6197948,28.9296875 57.1210918,28.734377 57.5039062,28.34375 C57.8867207,27.953123 58.0807291,27.4062535 58.0859375,26.703125 L58.0859375,18.625 Z M67.140625,30 C67.0572912,29.8333325 66.9895836,29.5364605 66.9375,29.109375 C66.2656216,29.8072952 65.4635463,30.15625 64.53125,30.15625 C63.6979125,30.15625 63.0143256,29.9205753 62.4804688,29.4492188 C61.9466119,28.9778622 61.6796875,28.380212 61.6796875,27.65625 C61.6796875,26.7760373 62.0143196,26.0924504 62.6835938,25.6054688 C63.3528679,25.1184871 64.2942648,24.875 65.5078125,24.875 L66.9140625,24.875 L66.9140625,24.2109375 C66.9140625,23.7057266 66.7630223,23.3033869 66.4609375,23.0039062 C66.1588527,22.7044256 65.7135446,22.5546875 65.125,22.5546875 C64.6093724,22.5546875 64.1770851,22.6848945 63.828125,22.9453125 C63.4791649,23.2057305 63.3046875,23.5208315 63.3046875,23.890625 L61.8515625,23.890625 C61.8515625,23.4687479 62.0013006,23.0611999 62.3007812,22.6679688 C62.6002619,22.2747376 63.0065079,21.9635428 63.5195312,21.734375 C64.0325546,21.5052072 64.5963511,21.390625 65.2109375,21.390625 C66.1849007,21.390625 66.9479139,21.6341121 67.5,22.1210938 C68.0520861,22.6080754 68.3385416,23.2786416 68.359375,24.1328125 L68.359375,28.0234375 C68.359375,28.799483 68.4583323,29.4166644 68.65625,29.875 L68.65625,30 L67.140625,30 Z M64.7421875,28.8984375 C65.1953148,28.8984375 65.625,28.7812512 66.03125,28.546875 C66.437502,28.3124988 66.7317699,28.0078144 66.9140625,27.6328125 L66.9140625,25.8984375 L65.78125,25.8984375 C64.0104078,25.8984375 63.125,26.4166615 63.125,27.453125 C63.125,27.9062523 63.2760402,28.2604154 63.578125,28.515625 C63.8802098,28.7708346 64.2682268,28.8984375 64.7421875,28.8984375 Z M73.4140625,28.0390625 L75.5078125,21.546875 L76.984375,21.546875 L73.953125,30 L72.8515625,30 L69.7890625,21.546875 L71.265625,21.546875 L73.4140625,28.0390625 Z M83.59375,30 C83.5104162,29.8333325 83.4427086,29.5364605 83.390625,29.109375 C82.7187466,29.8072952 81.9166713,30.15625 80.984375,30.15625 C80.1510375,30.15625 79.4674506,29.9205753 78.9335938,29.4492188 C78.3997369,28.9778622 78.1328125,28.380212 78.1328125,27.65625 C78.1328125,26.7760373 78.4674446,26.0924504 79.1367188,25.6054688 C79.8059929,25.1184871 80.7473898,24.875 81.9609375,24.875 L83.3671875,24.875 L83.3671875,24.2109375 C83.3671875,23.7057266 83.2161473,23.3033869 82.9140625,23.0039062 C82.6119777,22.7044256 82.1666696,22.5546875 81.578125,22.5546875 C81.0624974,22.5546875 80.6302101,22.6848945 80.28125,22.9453125 C79.9322899,23.2057305 79.7578125,23.5208315 79.7578125,23.890625 L78.3046875,23.890625 C78.3046875,23.4687479 78.4544256,23.0611999 78.7539062,22.6679688 C79.0533869,22.2747376 79.4596329,21.9635428 79.9726562,21.734375 C80.4856796,21.5052072 81.0494761,21.390625 81.6640625,21.390625 C82.6380257,21.390625 83.4010389,21.6341121 83.953125,22.1210938 C84.5052111,22.6080754 84.7916666,23.2786416 84.8125,24.1328125 L84.8125,28.0234375 C84.8125,28.799483 84.9114573,29.4166644 85.109375,29.875 L85.109375,30 L83.59375,30 Z M81.1953125,28.8984375 C81.6484398,28.8984375 82.078125,28.7812512 82.484375,28.546875 C82.890627,28.3124988 83.1848949,28.0078144 83.3671875,27.6328125 L83.3671875,25.8984375 L82.234375,25.8984375 C80.4635328,25.8984375 79.578125,26.4166615 79.578125,27.453125 C79.578125,27.9062523 79.7291652,28.2604154 80.03125,28.515625 C80.3333348,28.7708346 80.7213518,28.8984375 81.1953125,28.8984375 Z"/>
      <path fill="#1A96DE" fill-rule="nonzero" d="M14.2988687,0 C15.6079988,2.63233581 9.60195558,4.2652288 9.04358095,6.45649642 C8.53212914,8.47415215 12.6049772,10.8108777 12.6096691,10.8108777 C11.9902959,9.97566295 11.5398426,9.29528997 10.9204694,7.99554499 C9.87410381,5.79958545 17.1235865,3.52855037 14.2988687,0 Z M18.6157123,3.60362591 C18.6157123,3.60362591 14.0454894,3.89923615 13.8108777,6.68172304 C13.7076495,7.92046945 15.0120864,8.5961493 15.0496241,9.49705578 C15.08247,10.2337342 14.261331,10.8108777 14.261331,10.8108777 C14.261331,10.8108777 15.6033068,10.618497 16.0631439,9.49705578 C16.5699038,8.25361745 15.1950833,7.34332593 15.3499263,6.34388311 C15.4953855,5.38666998 18.6157123,3.60362591 18.6157123,3.60362591 Z M10.0946385,10.8108777 C10.0946385,10.8108777 5.40241727,10.782725 5.40241727,12.0871619 C5.40241727,13.4525986 11.5257657,13.5276741 15.9129928,12.6877662 C15.9129928,12.6877662 16.9171288,12.1528536 17.2268148,11.8619353 C14.3504835,12.4390788 7.99252339,12.246698 7.99252339,11.749322 C7.99252339,11.2894849 10.0946385,10.8108777 10.0946385,10.8108777 Z M19.4415432,10.8484155 C18.9253995,10.8249547 18.3529479,10.9891827 17.8649569,11.3364065 C18.8784767,11.1158718 19.7418454,11.7399381 19.7418454,12.4625396 C19.7418454,14.0813556 17.4145036,15.6157123 17.4145036,15.6157123 C17.4145036,15.6157123 21.0181295,15.2027968 21.0181295,12.5376151 C21.0181295,11.4349429 20.30022,10.8859533 19.4415432,10.8484155 Z M8.44297663,13.213295 C7.71099012,13.213295 6.60362591,13.8185912 6.60362591,14.3769659 C6.60362591,15.503099 12.12637,16.3570838 16.213295,14.7148058 L14.7868597,13.8138993 C12.0137567,14.7241908 6.932082,14.4285806 8.44297663,13.213295 Z M9.45649642,15.6157123 C8.44766855,15.6157123 7.80483455,16.3195461 7.80483455,16.8169209 C7.80483455,18.3512776 13.8249547,18.3794303 16.213295,16.8169209 L14.7117842,15.8784767 C12.9287401,16.6949238 8.42420775,16.798152 9.45649642,15.6157123 Z M5.10211511,17.9805918 C3.66629602,17.9336702 3,18.6562716 3,19.256876 C3,22.4475864 18.6157123,22.3302812 18.6157123,19.0691871 C18.6157123,18.5295814 18.010416,18.2527412 17.7898813,18.1307429 C19.0661655,21.2510697 4.87688849,21.0211511 4.87688849,19.1818004 C4.87688849,18.764193 5.60887501,18.3512776 6.56608814,18.5436583 C6.56608814,18.5436583 6.24232517,18.1354348 5.77779497,18.0556673 C5.53849139,18.0134376 5.30857285,17.9852837 5.10211511,17.9805918 Z M21.0181295,20.383009 C18.5406367,22.8088871 11.7181477,24.2822452 5.40241727,22.7854263 C11.7463004,25.3567636 20.9899768,23.3625698 21.0181295,20.383009 Z" transform="translate(12 12)"/>
    </g>
    <g transform="translate(447 93)">
      <use fill="#000" filter="url(#generate-code-mobile-c)" xlink:href="#generate-code-mobile-d"/>
      <use fill="#FFF" xlink:href="#generate-code-mobile-d"/>
      <path fill="#1D3154" fill-rule="nonzero" d="M58.0859375,18.625 L59.59375,18.625 L59.59375,26.6796875 C59.59375,27.7682346 59.2669304,28.6197886 58.6132812,29.234375 C57.9596321,29.8489614 57.0885471,30.15625 56,30.15625 C54.869786,30.15625 53.9895865,29.8671904 53.359375,29.2890625 C52.7291635,28.7109346 52.4140625,27.9010469 52.4140625,26.859375 L53.9140625,26.859375 C53.9140625,27.5104199 54.0924461,28.0182273 54.4492188,28.3828125 C54.8059914,28.7473977 55.3229133,28.9296875 56,28.9296875 C56.6197948,28.9296875 57.1210918,28.734377 57.5039062,28.34375 C57.8867207,27.953123 58.0807291,27.4062535 58.0859375,26.703125 L58.0859375,18.625 Z M67.140625,30 C67.0572912,29.8333325 66.9895836,29.5364605 66.9375,29.109375 C66.2656216,29.8072952 65.4635463,30.15625 64.53125,30.15625 C63.6979125,30.15625 63.0143256,29.9205753 62.4804688,29.4492188 C61.9466119,28.9778622 61.6796875,28.380212 61.6796875,27.65625 C61.6796875,26.7760373 62.0143196,26.0924504 62.6835938,25.6054688 C63.3528679,25.1184871 64.2942648,24.875 65.5078125,24.875 L66.9140625,24.875 L66.9140625,24.2109375 C66.9140625,23.7057266 66.7630223,23.3033869 66.4609375,23.0039062 C66.1588527,22.7044256 65.7135446,22.5546875 65.125,22.5546875 C64.6093724,22.5546875 64.1770851,22.6848945 63.828125,22.9453125 C63.4791649,23.2057305 63.3046875,23.5208315 63.3046875,23.890625 L61.8515625,23.890625 C61.8515625,23.4687479 62.0013006,23.0611999 62.3007812,22.6679688 C62.6002619,22.2747376 63.0065079,21.9635428 63.5195312,21.734375 C64.0325546,21.5052072 64.5963511,21.390625 65.2109375,21.390625 C66.1849007,21.390625 66.9479139,21.6341121 67.5,22.1210938 C68.0520861,22.6080754 68.3385416,23.2786416 68.359375,24.1328125 L68.359375,28.0234375 C68.359375,28.799483 68.4583323,29.4166644 68.65625,29.875 L68.65625,30 L67.140625,30 Z M64.7421875,28.8984375 C65.1953148,28.8984375 65.625,28.7812512 66.03125,28.546875 C66.437502,28.3124988 66.7317699,28.0078144 66.9140625,27.6328125 L66.9140625,25.8984375 L65.78125,25.8984375 C64.0104078,25.8984375 63.125,26.4166615 63.125,27.453125 C63.125,27.9062523 63.2760402,28.2604154 63.578125,28.515625 C63.8802098,28.7708346 64.2682268,28.8984375 64.7421875,28.8984375 Z M73.4140625,28.0390625 L75.5078125,21.546875 L76.984375,21.546875 L73.953125,30 L72.8515625,30 L69.7890625,21.546875 L71.265625,21.546875 L73.4140625,28.0390625 Z M83.59375,30 C83.5104162,29.8333325 83.4427086,29.5364605 83.390625,29.109375 C82.7187466,29.8072952 81.9166713,30.15625 80.984375,30.15625 C80.1510375,30.15625 79.4674506,29.9205753 78.9335938,29.4492188 C78.3997369,28.9778622 78.1328125,28.380212 78.1328125,27.65625 C78.1328125,26.7760373 78.4674446,26.0924504 79.1367188,25.6054688 C79.8059929,25.1184871 80.7473898,24.875 81.9609375,24.875 L83.3671875,24.875 L83.3671875,24.2109375 C83.3671875,23.7057266 83.2161473,23.3033869 82.9140625,23.0039062 C82.6119777,22.7044256 82.1666696,22.5546875 81.578125,22.5546875 C81.0624974,22.5546875 80.6302101,22.6848945 80.28125,22.9453125 C79.9322899,23.2057305 79.7578125,23.5208315 79.7578125,23.890625 L78.3046875,23.890625 C78.3046875,23.4687479 78.4544256,23.0611999 78.7539062,22.6679688 C79.0533869,22.2747376 79.4596329,21.9635428 79.9726562,21.734375 C80.4856796,21.5052072 81.0494761,21.390625 81.6640625,21.390625 C82.6380257,21.390625 83.4010389,21.6341121 83.953125,22.1210938 C84.5052111,22.6080754 84.7916666,23.2786416 84.8125,24.1328125 L84.8125,28.0234375 C84.8125,28.799483 84.9114573,29.4166644 85.109375,29.875 L85.109375,30 L83.59375,30 Z M81.1953125,28.8984375 C81.6484398,28.8984375 82.078125,28.7812512 82.484375,28.546875 C82.890627,28.3124988 83.1848949,28.0078144 83.3671875,27.6328125 L83.3671875,25.8984375 L82.234375,25.8984375 C80.4635328,25.8984375 79.578125,26.4166615 79.578125,27.453125 C79.578125,27.9062523 79.7291652,28.2604154 80.03125,28.515625 C80.3333348,28.7708346 80.7213518,28.8984375 81.1953125,28.8984375 Z M90.65625,24.9296875 C89.3697852,24.559894 88.4335967,24.1054714 87.8476562,23.5664062 C87.2617158,23.0273411 86.96875,22.3619831 86.96875,21.5703125 C86.96875,20.6744747 87.3268193,19.9335967 88.0429688,19.3476562 C88.7591182,18.7617158 89.6900984,18.46875 90.8359375,18.46875 C91.6171914,18.46875 92.313799,18.6197902 92.9257812,18.921875 C93.5377635,19.2239598 94.0117171,19.6406223 94.3476562,20.171875 C94.6835954,20.7031277 94.8515625,21.283851 94.8515625,21.9140625 L93.34375,21.9140625 C93.34375,21.2265591 93.1250022,20.6861999 92.6875,20.2929688 C92.2499978,19.8997376 91.6328165,19.703125 90.8359375,19.703125 C90.0963505,19.703125 89.5195333,19.8658838 89.1054688,20.1914062 C88.6914042,20.5169287 88.484375,20.96875 88.484375,21.546875 C88.484375,22.010419 88.6809876,22.4023421 89.0742188,22.7226562 C89.4674499,23.0429704 90.136714,23.3359362 91.0820312,23.6015625 C92.0273485,23.8671888 92.7669244,24.1601546 93.3007812,24.4804688 C93.8346381,24.8007829 94.2304675,25.174477 94.4882812,25.6015625 C94.746095,26.028648 94.875,26.5312471 94.875,27.109375 C94.875,28.0312546 94.5156286,28.7695285 93.796875,29.3242188 C93.0781214,29.878909 92.1171935,30.15625 90.9140625,30.15625 C90.1328086,30.15625 89.4036492,30.0065119 88.7265625,29.7070312 C88.0494758,29.4075506 87.5273456,28.9973984 87.1601562,28.4765625 C86.7929669,27.9557266 86.609375,27.3645866 86.609375,26.703125 L88.1171875,26.703125 C88.1171875,27.3906284 88.3710912,27.9335918 88.8789062,28.3320312 C89.3867213,28.7304707 90.0650999,28.9296875 90.9140625,28.9296875 C91.7057331,28.9296875 92.3124979,28.7682308 92.734375,28.4453125 C93.1562521,28.1223942 93.3671875,27.6822945 93.3671875,27.125 C93.3671875,26.5677055 93.171877,26.1367203 92.78125,25.8320312 C92.390623,25.5273422 91.6822968,25.226564 90.65625,24.9296875 Z M99.9609375,28.9765625 C100.476565,28.9765625 100.927081,28.8203141 101.3125,28.5078125 C101.697919,28.1953109 101.911458,27.8046898 101.953125,27.3359375 L103.320312,27.3359375 C103.294271,27.8203149 103.127606,28.2812478 102.820312,28.71875 C102.513019,29.1562522 102.102867,29.505207 101.589844,29.765625 C101.07682,30.026043 100.533857,30.15625 99.9609375,30.15625 C98.8098901,30.15625 97.8945346,29.7721393 97.2148438,29.0039062 C96.5351529,28.2356732 96.1953125,27.1849025 96.1953125,25.8515625 L96.1953125,25.609375 C96.1953125,24.7864542 96.3463527,24.0546907 96.6484375,23.4140625 C96.9505223,22.7734343 97.3841118,22.2760434 97.9492188,21.921875 C98.5143257,21.5677066 99.1822878,21.390625 99.953125,21.390625 C100.901046,21.390625 101.688799,21.6744763 102.316406,22.2421875 C102.944014,22.8098987 103.278646,23.5468705 103.320312,24.453125 L101.953125,24.453125 C101.911458,23.9062473 101.704429,23.457033 101.332031,23.1054688 C100.959634,22.7539045 100.500003,22.578125 99.953125,22.578125 C99.2187463,22.578125 98.6497416,22.8424453 98.2460938,23.3710938 C97.8424459,23.8997422 97.640625,24.6640575 97.640625,25.6640625 L97.640625,25.9375 C97.640625,26.9114632 97.8411438,27.6614557 98.2421875,28.1875 C98.6432312,28.7135443 99.2161421,28.9765625 99.9609375,28.9765625 Z M109.03125,22.84375 C108.812499,22.8072915 108.575522,22.7890625 108.320312,22.7890625 C107.372391,22.7890625 106.729168,23.1927043 106.390625,24 L106.390625,30 L104.945312,30 L104.945312,21.546875 L106.351562,21.546875 L106.375,22.5234375 C106.848961,21.7682254 107.520829,21.390625 108.390625,21.390625 C108.671876,21.390625 108.885416,21.427083 109.03125,21.5 L109.03125,22.84375 Z M111.929688,30 L110.484375,30 L110.484375,21.546875 L111.929688,21.546875 L111.929688,30 Z M110.367188,19.3046875 C110.367188,19.0703113 110.438801,18.8723966 110.582031,18.7109375 C110.725261,18.5494784 110.937499,18.46875 111.21875,18.46875 C111.500001,18.46875 111.713541,18.5494784 111.859375,18.7109375 C112.005209,18.8723966 112.078125,19.0703113 112.078125,19.3046875 C112.078125,19.5390637 112.005209,19.7343742 111.859375,19.890625 C111.713541,20.0468758 111.500001,20.125 111.21875,20.125 C110.937499,20.125 110.725261,20.0468758 110.582031,19.890625 C110.438801,19.7343742 110.367188,19.5390637 110.367188,19.3046875 Z M121.382812,25.8671875 C121.382812,27.1536523 121.088545,28.1901002 120.5,28.9765625 C119.911455,29.7630248 119.114588,30.15625 118.109375,30.15625 C117.083328,30.15625 116.276045,29.8307324 115.6875,29.1796875 L115.6875,33.25 L114.242188,33.25 L114.242188,21.546875 L115.5625,21.546875 L115.632812,22.484375 C116.221357,21.7552047 117.039057,21.390625 118.085938,21.390625 C119.101568,21.390625 119.904945,21.7734337 120.496094,22.5390625 C121.087243,23.3046913 121.382812,24.3697848 121.382812,25.734375 L121.382812,25.8671875 Z M119.9375,25.703125 C119.9375,24.7499952 119.734377,23.9973986 119.328125,23.4453125 C118.921873,22.8932264 118.364587,22.6171875 117.65625,22.6171875 C116.781246,22.6171875 116.125002,23.0052045 115.6875,23.78125 L115.6875,27.8203125 C116.119794,28.5911497 116.781246,28.9765625 117.671875,28.9765625 C118.364587,28.9765625 118.915363,28.7018257 119.324219,28.1523438 C119.733075,27.6028618 119.9375,26.7864637 119.9375,25.703125 Z M125.179688,19.5 L125.179688,21.546875 L126.757812,21.546875 L126.757812,22.6640625 L125.179688,22.6640625 L125.179688,27.90625 C125.179688,28.2447934 125.249999,28.4986971 125.390625,28.6679688 C125.531251,28.8372404 125.770832,28.921875 126.109375,28.921875 C126.276043,28.921875 126.505207,28.8906253 126.796875,28.828125 L126.796875,30 C126.416665,30.1041672 126.046877,30.15625 125.6875,30.15625 C125.041663,30.15625 124.554689,29.9609395 124.226562,29.5703125 C123.898436,29.1796855 123.734375,28.6250036 123.734375,27.90625 L123.734375,22.6640625 L122.195312,22.6640625 L122.195312,21.546875 L123.734375,21.546875 L123.734375,19.5 L125.179688,19.5 Z"/>
      <g transform="translate(12 12)">
        <rect width="20" height="20" x="2" y="2" fill="#1A96DE"/>
        <path fill="#FFF" fill-rule="nonzero" d="M15.4349206,17.6250794 C15.8377778,18.2828571 16.3619048,18.7663492 17.2888889,18.7663492 C18.067619,18.7663492 18.5650794,18.3771429 18.5650794,17.8393651 C18.5650794,17.1949206 18.0539683,16.9666667 17.1968254,16.591746 L16.7269841,16.3901587 C15.3707937,15.812381 14.4698413,15.0885714 14.4698413,13.5584127 C14.4698413,12.1488889 15.5438095,11.075873 17.2222222,11.075873 C18.4171429,11.075873 19.2761905,11.491746 19.8952381,12.5806349 L18.431746,13.5203175 C18.1095238,12.9425397 17.7619048,12.7149206 17.2222222,12.7149206 C16.671746,12.7149206 16.3228571,13.064127 16.3228571,13.5203175 C16.3228571,14.084127 16.6720635,14.312381 17.4784127,14.6615873 L17.948254,14.8628571 C19.5450794,15.547619 20.4466667,16.2457143 20.4466667,17.8152381 C20.4466667,19.5073016 19.1174603,20.4342857 17.332381,20.4342857 C15.5869841,20.4342857 14.4593651,19.6025397 13.907619,18.512381 L15.4349206,17.6250794 Z M8.79587302,17.7879365 C9.09111111,18.311746 9.35968254,18.7546032 10.0053968,18.7546032 C10.6228571,18.7546032 11.012381,18.5130159 11.012381,17.5736508 L11.012381,11.1831746 L12.891746,11.1831746 L12.891746,17.5990476 C12.891746,19.5450794 11.7507937,20.4307937 10.0853968,20.4307937 C8.58063492,20.4307937 7.70920635,19.6520635 7.26603175,18.714127 L8.79587302,17.7879365 Z"/>
      </g>
    </g>
    <g transform="translate(447 165)">
      <use fill="#000" filter="url(#generate-code-mobile-e)" xlink:href="#generate-code-mobile-f"/>
      <use fill="#FFF" xlink:href="#generate-code-mobile-f"/>
      <path fill="#1D3154" fill-rule="nonzero" d="M56.46875,29 C57.4895833,28.9895833 58.3841146,28.7682292 59.1523438,28.3359375 C59.9205729,27.9036458 60.5117188,27.2838542 60.9257812,26.4765625 C61.3398438,25.6692708 61.546875,24.7291667 61.546875,23.65625 L61.546875,23.65625 L61.546875,22.9296875 C61.5416667,21.8828125 61.3320312,20.9557292 60.9179688,20.1484375 C60.5039062,19.3411458 59.9166667,18.71875 59.15625,18.28125 C58.3958333,17.84375 57.5208333,17.625 56.53125,17.625 L56.53125,17.625 L53.3203125,17.625 L53.3203125,29 L56.46875,29 Z M56.3984375,27.7734375 L54.8203125,27.7734375 L54.8203125,18.859375 L56.5703125,18.859375 C57.6848958,18.8697917 58.5455729,19.2330729 59.1523438,19.9492188 C59.7591146,20.6653646 60.0625,21.6692708 60.0625,22.9609375 L60.0625,22.9609375 L60.0625,23.625 C60.0625,24.953125 59.7408854,25.9765625 59.0976562,26.6953125 C58.4544271,27.4140625 57.5546875,27.7734375 56.3984375,27.7734375 L56.3984375,27.7734375 Z M66.1953125,29.15625 C67.1276042,29.15625 67.9296875,28.8072917 68.6015625,28.109375 C68.6536458,28.5364583 68.7213542,28.8333333 68.8046875,29 L68.8046875,29 L70.3203125,29 L70.3203125,28.875 C70.1223958,28.4166667 70.0234375,27.7994792 70.0234375,27.0234375 L70.0234375,27.0234375 L70.0234375,23.1328125 C70.0026042,22.2786458 69.7161458,21.6080729 69.1640625,21.1210938 C68.6119792,20.6341146 67.8489583,20.390625 66.875,20.390625 C66.2604167,20.390625 65.6966146,20.5052083 65.1835938,20.734375 C64.6705729,20.9635417 64.2643229,21.2747396 63.9648438,21.6679688 C63.6653646,22.0611979 63.515625,22.46875 63.515625,22.890625 L63.515625,22.890625 L64.96875,22.890625 C64.96875,22.5208333 65.1432292,22.2057292 65.4921875,21.9453125 C65.8411458,21.6848958 66.2734375,21.5546875 66.7890625,21.5546875 C67.3776042,21.5546875 67.8229167,21.7044271 68.125,22.0039062 C68.4270833,22.3033854 68.578125,22.7057292 68.578125,23.2109375 L68.578125,23.2109375 L68.578125,23.875 L67.171875,23.875 C65.9583333,23.875 65.0169271,24.1184896 64.3476562,24.6054688 C63.6783854,25.0924479 63.34375,25.7760417 63.34375,26.65625 C63.34375,27.3802083 63.6106771,27.9778646 64.1445312,28.4492188 C64.6783854,28.9205729 65.3619792,29.15625 66.1953125,29.15625 Z M66.40625,27.8984375 C65.9322917,27.8984375 65.5442708,27.7708333 65.2421875,27.515625 C64.9401042,27.2604167 64.7890625,26.90625 64.7890625,26.453125 C64.7890625,25.4166667 65.6744792,24.8984375 67.4453125,24.8984375 L67.4453125,24.8984375 L68.578125,24.8984375 L68.578125,26.6328125 C68.3958333,27.0078125 68.1015625,27.3125 67.6953125,27.546875 C67.2890625,27.78125 66.859375,27.8984375 66.40625,27.8984375 Z M73.734375,29 L73.734375,23 C74.0729167,22.1927083 74.7161458,21.7890625 75.6640625,21.7890625 C75.9192708,21.7890625 76.15625,21.8072917 76.375,21.84375 L76.375,21.84375 L76.375,20.5 C76.2291667,20.4270833 76.015625,20.390625 75.734375,20.390625 C74.8645833,20.390625 74.1927083,20.7682292 73.71875,21.5234375 L73.71875,21.5234375 L73.6953125,20.546875 L72.2890625,20.546875 L72.2890625,29 L73.734375,29 Z M80.5625,29.15625 C80.921875,29.15625 81.2916667,29.1041667 81.671875,29 L81.671875,29 L81.671875,27.828125 C81.3802083,27.890625 81.1510417,27.921875 80.984375,27.921875 C80.6458333,27.921875 80.40625,27.8372396 80.265625,27.6679688 C80.125,27.4986979 80.0546875,27.2447917 80.0546875,26.90625 L80.0546875,26.90625 L80.0546875,21.6640625 L81.6328125,21.6640625 L81.6328125,20.546875 L80.0546875,20.546875 L80.0546875,18.5 L78.609375,18.5 L78.609375,20.546875 L77.0703125,20.546875 L77.0703125,21.6640625 L78.609375,21.6640625 L78.609375,26.90625 C78.609375,27.625 78.7734375,28.1796875 79.1015625,28.5703125 C79.4296875,28.9609375 79.9166667,29.15625 80.5625,29.15625 Z"/>
      <g fill-rule="nonzero" transform="translate(13 13)">
        <path fill="#01579B" d="M4.29600017,16.3410006 L0.804000032,12.8490005 C0.390000015,12.4230005 0.132000005,11.8230005 0.132000005,11.2365004 C0.132000005,10.9650004 0.285000011,10.5405004 0.400500016,10.2960004 L3.62400014,3.58050014 L4.29600017,16.3410006 Z"/>
        <path fill="#40C4FF" d="M16.2510006,4.25250017 L12.7590005,0.76050003 C12.4545005,0.454500018 11.8185005,0.0885000035 11.2815004,0.0885000035 C10.8195004,0.0885000035 10.3665004,0.181500007 10.0725004,0.357000014 L3.62550014,3.58050014 L16.2510006,4.25250017 Z"/>
        <polygon fill="#40C4FF" points="8.46 20.505 16.923 20.505 16.923 16.878 10.61 14.864 4.835 16.878"/>
        <path fill="#29B6F6" d="M3.62550014,14.4615006 C3.62550014,15.5385006 3.76050015,15.8040006 4.29750017,16.3425006 L4.83450019,16.8795007 L16.9230007,16.8795007 L11.0130004,10.1640004 L3.62550014,3.58200014 L3.62550014,14.4615006 Z"/>
        <path fill="#01579B" d="M14.3700006,3.58050014 L3.62400014,3.58050014 L16.9215007,16.8780007 L20.5485008,16.8780007 L20.5485008,8.55000034 L16.2510006,4.25250017 C15.6480006,3.64650014 15.1110006,3.58050014 14.3700006,3.58050014 Z"/>
        <path fill="#FFF" d="M4.43100018,16.4760007 C3.89400015,15.9360006 3.75900015,15.4050006 3.75900015,14.4615006 L3.75900015,3.71550015 L3.62400014,3.58050014 L3.62400014,14.4600006 C3.62550014,15.4050006 3.62550014,15.6660006 4.43100018,16.4760007 L4.83450019,16.8795007 L4.83450019,16.8795007 L4.43100018,16.4760007 Z" opacity=".2"/>
        <polygon fill="#263238" points="20.415 8.417 20.415 16.745 16.788 16.745 16.923 16.878 20.55 16.878 20.55 8.552" opacity=".2"/>
        <path fill="#FFF" d="M16.2510006,4.25250017 C15.5850006,3.58650014 15.0390006,3.58050014 14.2365006,3.58050014 L3.62550014,3.58050014 L3.76050015,3.71550015 L14.2380006,3.71550015 C14.6370006,3.71550015 15.6495006,3.64800014 16.2510006,4.25250017 L16.2510006,4.25250017 Z" opacity=".2"/>
        <path fill="url(#generate-code-mobile-g)" d="M20.4150008,8.41650033 L16.2510006,4.25250017 L12.7590005,0.76050003 C12.4545005,0.454500018 11.8185005,0.0885000035 11.2815004,0.0885000035 C10.8195004,0.0885000035 10.3665004,0.181500007 10.0725004,0.357000014 L3.62550014,3.58050014 L0.402000016,10.2960004 C0.286500011,10.5405004 0.133500005,10.9650004 0.133500005,11.2365004 C0.133500005,11.8230005 0.391500016,12.4230005 0.805500032,12.8490005 L4.02450016,16.0440006 C4.10100016,16.1385006 4.19100017,16.2345006 4.29900017,16.3410006 L4.43400018,16.4760007 L4.83750019,16.8795007 L8.32950033,20.3715008 L8.46450034,20.5065008 L16.7925007,20.5065008 L16.9275007,20.5065008 L16.9275007,16.8795007 L20.5545008,16.8795007 L20.5545008,16.8705007 L20.5545008,8.55150034 L20.4150008,8.41650033 Z" opacity=".2"/>
      </g>
    </g>
    <g transform="translate(447 237)">
      <use fill="#000" filter="url(#generate-code-mobile-h)" xlink:href="#generate-code-mobile-i"/>
      <use fill="#FFF" xlink:href="#generate-code-mobile-i"/>
      <g fill="#334C76" transform="translate(58 23)">
        <circle cx="1.5" cy="1.5" r="1.5"/>
        <circle cx="9.5" cy="1.5" r="1.5"/>
        <circle cx="17.5" cy="1.5" r="1.5"/>
      </g>
    </g>
    <g transform="translate(178 75)">
      <path stroke="url(#generate-code-mobile-j)" stroke-width="10" d="M110.430371,0.727718419 L219.553778,185.245479 C219.694346,185.483167 219.615615,185.789803 219.377928,185.930371 C219.300853,185.975953 219.212952,186 219.123407,186 L0.876592938,186 C0.600450563,186 0.376592938,185.776142 0.376592938,185.5 C0.376592938,185.410456 0.400640017,185.322554 0.446221829,185.245479 L109.569629,0.727718419 C109.710197,0.490031019 110.016833,0.411300042 110.254521,0.551867859 C110.327012,0.594739153 110.3875,0.655226958 110.430371,0.727718419 Z"/>
      <path fill="#1D3154" fill-rule="nonzero" d="M91.2148438,141 L91.2148438,137.25 L91.0195312,132.242188 L94.3710938,141 L95.7851562,141 L99.1445312,132.234375 L98.9492188,137.25 L98.9492188,141 L100.917969,141 L100.917969,129.625 L98.3632812,129.625 L95.0898438,138.34375 L91.8085938,129.625 L89.2460938,129.625 L89.2460938,141 L91.2148438,141 Z M106.652344,141.15625 C107.433594,141.15625 108.122396,140.976562 108.71875,140.617188 C109.315104,140.257812 109.773438,139.75 110.09375,139.09375 C110.414062,138.4375 110.574219,137.692708 110.574219,136.859375 L110.574219,136.859375 L110.566406,136.414062 C110.509115,135.200521 110.125,134.226562 109.414062,133.492188 C108.703125,132.757812 107.777344,132.390625 106.636719,132.390625 C105.865885,132.390625 105.183594,132.56901 104.589844,132.925781 C103.996094,133.282552 103.535156,133.792969 103.207031,134.457031 C102.878906,135.121094 102.714844,135.867188 102.714844,136.695312 L102.714844,136.695312 L102.714844,136.789062 C102.714844,138.111979 103.072917,139.170573 103.789062,139.964844 C104.505208,140.759115 105.459635,141.15625 106.652344,141.15625 Z M106.652344,139.640625 C106.011719,139.640625 105.511719,139.394531 105.152344,138.902344 C104.792969,138.410156 104.613281,137.729167 104.613281,136.859375 C104.613281,135.880208 104.795573,135.144531 105.160156,134.652344 C105.52474,134.160156 106.016927,133.914062 106.636719,133.914062 C107.266927,133.914062 107.765625,134.164062 108.132812,134.664062 C108.5,135.164062 108.683594,135.841146 108.683594,136.695312 C108.683594,137.658854 108.505208,138.390625 108.148438,138.890625 C107.791667,139.390625 107.292969,139.640625 106.652344,139.640625 Z M115.144531,141.15625 C116.092448,141.15625 116.85026,140.8125 117.417969,140.125 L117.417969,140.125 L117.511719,141 L119.230469,141 L119.230469,129 L117.332031,129 L117.332031,133.328125 C116.779948,132.703125 116.05599,132.390625 115.160156,132.390625 C114.144531,132.390625 113.334635,132.785156 112.730469,133.574219 C112.126302,134.363281 111.824219,135.408854 111.824219,136.710938 C111.824219,138.080729 112.130208,139.164062 112.742188,139.960938 C113.354167,140.757812 114.154948,141.15625 115.144531,141.15625 Z M115.628906,139.609375 C115.019531,139.609375 114.549479,139.36849 114.21875,138.886719 C113.888021,138.404948 113.722656,137.734375 113.722656,136.875 C113.722656,135.895833 113.889323,135.16276 114.222656,134.675781 C114.55599,134.188802 115.029948,133.945312 115.644531,133.945312 C116.420573,133.945312 116.983073,134.283854 117.332031,134.960938 L117.332031,134.960938 L117.332031,138.570312 C116.972656,139.263021 116.404948,139.609375 115.628906,139.609375 Z M124.933594,141.15625 C125.636719,141.15625 126.270833,141.016927 126.835938,140.738281 C127.401042,140.459635 127.852865,140.067708 128.191406,139.5625 L128.191406,139.5625 L127.167969,138.585938 C126.621094,139.289062 125.91276,139.640625 125.042969,139.640625 C124.423177,139.640625 123.908854,139.4375 123.5,139.03125 C123.091146,138.625 122.858073,138.072917 122.800781,137.375 L122.800781,137.375 L128.324219,137.375 L128.324219,136.609375 C128.324219,135.265625 128.010417,134.226562 127.382812,133.492188 C126.755208,132.757812 125.865885,132.390625 124.714844,132.390625 C123.990885,132.390625 123.334635,132.575521 122.746094,132.945312 C122.157552,133.315104 121.700521,133.832031 121.375,134.496094 C121.049479,135.160156 120.886719,135.914062 120.886719,136.757812 L120.886719,136.757812 L120.886719,136.992188 C120.886719,138.252604 121.260417,139.261719 122.007812,140.019531 C122.755208,140.777344 123.730469,141.15625 124.933594,141.15625 Z M126.449219,135.984375 L122.832031,135.984375 C122.920573,135.333333 123.125,134.825521 123.445312,134.460938 C123.765625,134.096354 124.186198,133.914062 124.707031,133.914062 C125.233073,133.914062 125.644531,134.076823 125.941406,134.402344 C126.238281,134.727865 126.407552,135.208333 126.449219,135.84375 L126.449219,135.84375 L126.449219,135.984375 Z M131.816406,141 L131.816406,129 L129.917969,129 L129.917969,141 L131.816406,141 Z M83.4414062,162.15625 C84.7382812,162.15625 85.7773438,161.816406 86.5585938,161.136719 C87.3398438,160.457031 87.7877604,159.510417 87.9023438,158.296875 L87.9023438,158.296875 L85.9335938,158.296875 C85.8294271,159.109375 85.5820312,159.690104 85.1914062,160.039062 C84.8007812,160.388021 84.2174479,160.5625 83.4414062,160.5625 C82.5924479,160.5625 81.9479167,160.239583 81.5078125,159.59375 C81.0677083,158.947917 80.8476562,158.010417 80.8476562,156.78125 L80.8476562,156.78125 L80.8476562,155.773438 C80.8580729,154.559896 81.09375,153.639323 81.5546875,153.011719 C82.015625,152.384115 82.6757812,152.070312 83.5351562,152.070312 C84.2747396,152.070312 84.8359375,152.251302 85.21875,152.613281 C85.6015625,152.97526 85.8398438,153.565104 85.9335938,154.382812 L85.9335938,154.382812 L87.9023438,154.382812 C87.7773438,153.138021 87.3320312,152.174479 86.5664062,151.492188 C85.8007812,150.809896 84.7903646,150.46875 83.5351562,150.46875 C82.6028646,150.46875 81.78125,150.690104 81.0703125,151.132812 C80.359375,151.575521 79.8138021,152.205729 79.4335938,153.023438 C79.0533854,153.841146 78.8632812,154.786458 78.8632812,155.859375 L78.8632812,155.859375 L78.8632812,156.921875 C78.8789062,157.96875 79.0742188,158.888021 79.4492188,159.679688 C79.8242188,160.471354 80.3567708,161.082031 81.046875,161.511719 C81.7369792,161.941406 82.5351562,162.15625 83.4414062,162.15625 Z M93.0664062,162.15625 C93.8476562,162.15625 94.5364583,161.976562 95.1328125,161.617188 C95.7291667,161.257812 96.1875,160.75 96.5078125,160.09375 C96.828125,159.4375 96.9882812,158.692708 96.9882812,157.859375 L96.9882812,157.859375 L96.9804688,157.414062 C96.9231771,156.200521 96.5390625,155.226562 95.828125,154.492188 C95.1171875,153.757812 94.1914062,153.390625 93.0507812,153.390625 C92.2799479,153.390625 91.5976562,153.56901 91.0039062,153.925781 C90.4101562,154.282552 89.9492188,154.792969 89.6210938,155.457031 C89.2929688,156.121094 89.1289062,156.867188 89.1289062,157.695312 L89.1289062,157.695312 L89.1289062,157.789062 C89.1289062,159.111979 89.4869792,160.170573 90.203125,160.964844 C90.9192708,161.759115 91.8736979,162.15625 93.0664062,162.15625 Z M93.0664062,160.640625 C92.4257812,160.640625 91.9257812,160.394531 91.5664062,159.902344 C91.2070312,159.410156 91.0273438,158.729167 91.0273438,157.859375 C91.0273438,156.880208 91.2096354,156.144531 91.5742188,155.652344 C91.9388021,155.160156 92.4309896,154.914062 93.0507812,154.914062 C93.6809896,154.914062 94.1796875,155.164062 94.546875,155.664062 C94.9140625,156.164062 95.0976562,156.841146 95.0976562,157.695312 C95.0976562,158.658854 94.9192708,159.390625 94.5625,159.890625 C94.2057292,160.390625 93.7070312,160.640625 93.0664062,160.640625 Z M100.488281,162 L100.488281,155.875 C100.80599,155.255208 101.345052,154.945312 102.105469,154.945312 C103.095052,154.945312 103.602865,155.442708 103.628906,156.4375 L103.628906,156.4375 L103.628906,162 L105.527344,162 L105.519531,156.203125 C105.628906,155.828125 105.820312,155.52474 106.09375,155.292969 C106.367188,155.061198 106.720052,154.945312 107.152344,154.945312 C107.69401,154.945312 108.082031,155.070312 108.316406,155.320312 C108.550781,155.570312 108.667969,155.963542 108.667969,156.5 L108.667969,156.5 L108.667969,162 L110.566406,162 L110.566406,156.445312 C110.55599,155.440104 110.322917,154.679688 109.867188,154.164062 C109.411458,153.648438 108.717448,153.390625 107.785156,153.390625 C106.670573,153.390625 105.80599,153.822917 105.191406,154.6875 C104.77474,153.822917 104.001302,153.390625 102.871094,153.390625 C101.839844,153.390625 101.027344,153.736979 100.433594,154.429688 L100.433594,154.429688 L100.378906,153.546875 L98.5898438,153.546875 L98.5898438,162 L100.488281,162 Z M114.410156,165.25 L114.410156,161.242188 C114.967448,161.851562 115.709635,162.15625 116.636719,162.15625 C117.636719,162.15625 118.433594,161.766927 119.027344,160.988281 C119.621094,160.209635 119.917969,159.166667 119.917969,157.859375 L119.917969,157.859375 L119.917969,157.742188 C119.917969,156.377604 119.625,155.311198 119.039062,154.542969 C118.453125,153.77474 117.644531,153.390625 116.613281,153.390625 C115.654948,153.390625 114.897135,153.729167 114.339844,154.40625 L114.339844,154.40625 L114.261719,153.546875 L112.511719,153.546875 L112.511719,165.25 L114.410156,165.25 Z M116.097656,160.640625 C115.316406,160.640625 114.753906,160.3125 114.410156,159.65625 L114.410156,159.65625 L114.410156,155.90625 C114.748698,155.265625 115.30599,154.945312 116.082031,154.945312 C116.707031,154.945312 117.1875,155.192708 117.523438,155.6875 C117.859375,156.182292 118.027344,156.851562 118.027344,157.695312 C118.027344,158.684896 117.856771,159.423177 117.515625,159.910156 C117.174479,160.397135 116.701823,160.640625 116.097656,160.640625 Z M122.597656,152.351562 C122.941406,152.351562 123.207031,152.25651 123.394531,152.066406 C123.582031,151.876302 123.675781,151.638021 123.675781,151.351562 C123.675781,151.059896 123.582031,150.817708 123.394531,150.625 C123.207031,150.432292 122.941406,150.335938 122.597656,150.335938 C122.253906,150.335938 121.989583,150.432292 121.804688,150.625 C121.619792,150.817708 121.527344,151.059896 121.527344,151.351562 C121.527344,151.638021 121.619792,151.876302 121.804688,152.066406 C121.989583,152.25651 122.253906,152.351562 122.597656,152.351562 Z M123.542969,162 L123.542969,153.546875 L121.644531,153.546875 L121.644531,162 L123.542969,162 Z M127.628906,162 L127.628906,150 L125.730469,150 L125.730469,162 L127.628906,162 Z M133.417969,162.15625 C134.121094,162.15625 134.755208,162.016927 135.320312,161.738281 C135.885417,161.459635 136.33724,161.067708 136.675781,160.5625 L136.675781,160.5625 L135.652344,159.585938 C135.105469,160.289062 134.397135,160.640625 133.527344,160.640625 C132.907552,160.640625 132.393229,160.4375 131.984375,160.03125 C131.575521,159.625 131.342448,159.072917 131.285156,158.375 L131.285156,158.375 L136.808594,158.375 L136.808594,157.609375 C136.808594,156.265625 136.494792,155.226562 135.867188,154.492188 C135.239583,153.757812 134.35026,153.390625 133.199219,153.390625 C132.47526,153.390625 131.81901,153.575521 131.230469,153.945312 C130.641927,154.315104 130.184896,154.832031 129.859375,155.496094 C129.533854,156.160156 129.371094,156.914062 129.371094,157.757812 L129.371094,157.757812 L129.371094,157.992188 C129.371094,159.252604 129.744792,160.261719 130.492188,161.019531 C131.239583,161.777344 132.214844,162.15625 133.417969,162.15625 Z M134.933594,156.984375 L131.316406,156.984375 C131.404948,156.333333 131.609375,155.825521 131.929688,155.460938 C132.25,155.096354 132.670573,154.914062 133.191406,154.914062 C133.717448,154.914062 134.128906,155.076823 134.425781,155.402344 C134.722656,155.727865 134.891927,156.208333 134.933594,156.84375 L134.933594,156.84375 L134.933594,156.984375 Z M140.175781,162 L140.175781,156.21875 C140.477865,155.552083 141.063802,155.21875 141.933594,155.21875 C142.199219,155.21875 142.457031,155.239583 142.707031,155.28125 L142.707031,155.28125 L142.714844,153.5 C142.53776,153.427083 142.313802,153.390625 142.042969,153.390625 C141.230469,153.390625 140.595052,153.757812 140.136719,154.492188 L140.136719,154.492188 L140.089844,153.546875 L138.277344,153.546875 L138.277344,162 L140.175781,162 Z"/>
      <line x1="42.5" x2="177" y1="109.5" y2="109.5" stroke="#D5D8E4" stroke-dasharray="5"/>
      <g fill-rule="nonzero" transform="translate(90 61)">
        <path fill="#656F72" d="M37.6619296,13.6922543 C37.317919,13.3275443 37.0649701,12.879472 36.8828468,12.3480375 C36.7007236,11.8270233 36.5691901,11.2643279 36.4983644,10.6495311 C36.4275387,10.0451546 36.3870669,9.44077805 36.3870669,8.84682181 L36.3870669,3.80340396 C36.3870669,2.68843348 36.1442359,1.77144842 35.6585739,1.06286905 C35.1830299,0.354289684 34.454537,-2.85993451e-13 33.483213,-2.85993451e-13 L31.81375,-2.85993451e-13 L31.81375,1.04202848 L33.0481408,1.04202848 C33.5135669,1.04202848 33.8778134,1.15665162 34.1611162,1.38589788 C34.4343011,1.60472386 34.6366602,1.89649184 34.7580757,2.24036124 C34.8794912,2.58423064 34.9604349,2.96978117 34.9907887,3.37617228 C35.0312606,3.79298367 35.0514965,4.17853421 35.0514965,4.55366447 L35.0514965,9.55540118 C35.0514965,10.3265023 35.1223222,11.0142411 35.2639736,11.6290379 C35.405625,12.2334144 35.5978662,12.7648489 35.8406972,13.2129212 C36.0835282,13.6609934 36.3465951,14.0257034 36.6298979,14.3070511 C36.9030827,14.598819 37.1863856,14.7863842 37.4798063,14.890587 L37.4798063,14.9322681 C36.852493,15.1302536 36.2858873,15.6721084 35.7901074,16.5474123 C35.2943275,17.4331365 35.0514965,18.6002084 35.0514965,20.0382077 L35.0514965,25.4150747 C35.0514965,25.7902049 35.0211426,26.1757555 34.9705528,26.5925669 C34.930081,26.998958 34.8390194,27.3740882 34.697368,27.7283779 C34.5658345,28.0722473 34.3735933,28.3640153 34.1004085,28.5828413 C33.8373415,28.8120875 33.483213,28.9267107 33.0481408,28.9267107 L31.81375,28.9267107 L31.81375,30 L33.5236849,30 C34.4140651,30 35.1223222,29.6561306 35.648456,28.9579715 C36.1644718,28.2598124 36.4275387,27.3428274 36.4275387,26.196596 L36.4275387,20.9760333 C36.4275387,19.3608892 36.5894261,18.0896144 36.9334366,17.1830497 C37.2673292,16.2764849 37.9654683,15.6825287 38.9975,15.4116013 L38.9975,14.4841959 C38.4410123,14.3278916 37.9958222,14.0673845 37.6619296,13.6922543 Z M3.37939789,1.05098855 C2.8735,1.74817898 2.62055106,2.67429761 2.62055106,3.83975026 L2.62055106,8.87617066 C2.62055106,9.46930281 2.58007923,10.0728408 2.50925352,10.6763788 C2.43842782,11.2903226 2.30689437,11.8522373 2.12477113,12.3725286 C1.94264789,12.9032258 1.67958099,13.3506764 1.32545246,13.7148803 C0.981441901,14.0894901 0.536251761,14.3496358 -6.92779167e-13,14.5057232 L-6.92779167e-13,15.4318418 C1.04214965,15.7023933 1.73017077,16.2955255 2.07418134,17.2008325 C2.40807394,18.1061394 2.58007923,19.3756504 2.58007923,20.9885536 L2.58007923,26.201873 C2.58007923,27.3985432 2.84314613,28.3246618 3.35916197,29.0010406 C3.87517782,29.6670135 4.58343486,30 5.4839331,30 L7.18375,30 L7.18375,28.9281998 L5.94935915,28.9281998 C5.51428697,28.9281998 5.17027641,28.8137357 4.89709155,28.5848075 C4.63402465,28.3662851 4.43166549,28.074922 4.30013204,27.7315297 C4.16859859,27.3777315 4.07753697,27.0031217 4.02694718,26.5972945 C3.98647535,26.1810614 3.95612148,25.7960458 3.95612148,25.421436 L3.95612148,20.0520291 C3.95612148,18.616025 3.71329049,17.4505723 3.21751056,16.566077 C2.72173063,15.6919875 2.155125,15.1508845 1.52781162,14.9531738 L1.52781162,14.9115505 C1.79087852,14.8074922 2.07418134,14.6201873 2.35748415,14.3288241 C2.65090493,14.0478668 2.91397183,13.6836629 3.14668486,13.2362123 C3.36927993,12.7887617 3.56152113,12.2580645 3.72340845,11.6545265 C3.87517782,11.0405827 3.95612148,10.3537981 3.95612148,9.58376691 L3.95612148,4.58896982 C3.95612148,4.21436004 3.98647535,3.82934443 4.02694718,3.41311134 C4.07753697,3.00728408 4.16859859,2.62226847 4.30013204,2.27887617 C4.43166549,1.93548387 4.63402465,1.64412071 4.89709155,1.42559834 C5.17027641,1.19667014 5.51428697,1.08220604 5.94935915,1.08220604 L7.18375,1.08220604 L7.18375,0 L5.4839331,0 C4.58343486,0 3.88529577,0.353798127 3.37939789,1.05098855 Z"/>
        <path fill="#1A96DE" d="M29.047619,22 C29.753937,22 30,22.2770083 30,23 L30,25 C30,25.7229917 29.753937,26 29.047619,26 L10.952381,26 C10.246063,26 10,25.7229917 10,25 L10,23 C10,22.2770083 10.246063,22 10.952381,22 L29.047619,22 Z M27,23 C26.4477153,23 26,23.4477153 26,24 C26,24.5522847 26.4477153,25 27,25 C27.5522847,25 28,24.5522847 28,24 C28,23.4477153 27.5522847,23 27,23 Z M29.047619,16 C29.753937,16 30,16.2770083 30,17 L30,19 C30,19.734072 29.753937,20 29.047619,20 L10.952381,20 C10.246063,20 10,19.734072 10,19 L10,17 C10,16.2770083 10.246063,16 10.952381,16 L29.047619,16 Z M27,17 C26.4477153,17 26,17.4477153 26,18 C26,18.5522847 26.4477153,19 27,19 C27.5522847,19 28,18.5522847 28,18 C28,17.4477153 27.5522847,17 27,17 Z M29.047619,10 C29.753937,10 30,10.2770083 30,11 L30,13 C30,13.7229917 29.753937,14 29.047619,14 L10.952381,14 C10.246063,14 10,13.7229917 10,13 L10,11 C10,10.2770083 10.246063,10 10.952381,10 L29.047619,10 Z M27,11 C26.4477153,11 26,11.4477153 26,12 C26,12.5522847 26.4477153,13 27,13 C27.5522847,13 28,12.5522847 28,12 C28,11.4477153 27.5522847,11 27,11 Z M29.047619,4 C29.753937,4 30,4.27700831 30,5 L30,7 C30,7.72299169 29.753937,8 29.047619,8 L10.952381,8 C10.246063,8 10,7.72299169 10,7 L10,5 C10,4.27700831 10.246063,4 10.952381,4 L29.047619,4 Z M27,5 C26.4477153,5 26,5.44771525 26,6 C26,6.55228475 26.4477153,7 27,7 C27.5522847,7 28,6.55228475 28,6 C28,5.44771525 27.5522847,5 27,5 Z"/>
      </g>
    </g>
    <g transform="translate(6 156)">
      <use fill="#000" filter="url(#generate-code-mobile-k)" xlink:href="#generate-code-mobile-l"/>
      <use fill="#FFF" xlink:href="#generate-code-mobile-l"/>
      <path fill="#1D3154" fill-rule="nonzero" d="M43.7421875,29.8828125 C43.7421875,29.7005199 43.7721351,29.5286466 43.8320312,29.3671875 C43.8919274,29.2057284 43.9791661,29.0664068 44.09375,28.9492188 C44.2083339,28.8320307 44.3502596,28.7395837 44.5195312,28.671875 C44.6888029,28.6041663 44.8828114,28.5703125 45.1015625,28.5703125 C45.3203136,28.5703125 45.5143221,28.6041663 45.6835938,28.671875 C45.8528654,28.7395837 45.9960932,28.8320307 46.1132812,28.9492188 C46.2304693,29.0664068 46.3190101,29.2057284 46.3789062,29.3671875 C46.4388024,29.5286466 46.46875,29.7005199 46.46875,29.8828125 C46.46875,30.0651051 46.4388024,30.2330721 46.3789062,30.3867188 C46.3190101,30.5403654 46.2304693,30.6744786 46.1132812,30.7890625 C45.9960932,30.9036464 45.8528654,30.9934893 45.6835938,31.0585938 C45.5143221,31.1236982 45.3203136,31.15625 45.1015625,31.15625 C44.8828114,31.15625 44.6888029,31.1236982 44.5195312,31.0585938 C44.3502596,30.9934893 44.2083339,30.9036464 44.09375,30.7890625 C43.9791661,30.6744786 43.8919274,30.5403654 43.8320312,30.3867188 C43.7721351,30.2330721 43.7421875,30.0651051 43.7421875,29.8828125 Z M58.40625,26.859375 C58.40625,27.4739614 58.3333341,28.0442682 58.1875,28.5703125 C58.0416659,29.0963568 57.8281264,29.5507793 57.546875,29.9335938 C57.2656236,30.3164082 56.920575,30.6158843 56.5117188,30.8320312 C56.1028625,31.0481782 55.6328152,31.15625 55.1015625,31.15625 C54.6223934,31.15625 54.1992206,31.0781258 53.8320312,30.921875 C53.4648419,30.7656242 53.1484388,30.5416681 52.8828125,30.25 L52.8828125,34.25 L51.015625,34.25 L51.015625,22.546875 L52.734375,22.546875 L52.8125,23.3984375 C53.0833347,23.0755192 53.4049461,22.8268238 53.7773438,22.6523438 C54.1497414,22.4778637 54.5833309,22.390625 55.078125,22.390625 C55.614586,22.390625 56.0898417,22.4947906 56.5039062,22.703125 C56.9179708,22.9114594 57.2656236,23.2044252 57.546875,23.5820312 C57.8281264,23.9596373 58.0416659,24.4127578 58.1875,24.9414062 C58.3333341,25.4700547 58.40625,26.0546843 58.40625,26.6953125 L58.40625,26.859375 Z M56.5390625,26.6953125 C56.5390625,26.3151023 56.5000004,25.9570329 56.421875,25.6210938 C56.3437496,25.2851546 56.2239591,24.9908867 56.0625,24.7382812 C55.9010409,24.4856758 55.6953137,24.2864591 55.4453125,24.140625 C55.1953113,23.9947909 54.8984392,23.921875 54.5546875,23.921875 C54.1380188,23.921875 53.7942722,24.0104158 53.5234375,24.1875 C53.2526028,24.3645842 53.0390633,24.601561 52.8828125,24.8984375 L52.8828125,28.6796875 C53.0390633,28.9713556 53.2513007,29.2083324 53.5195312,29.390625 C53.7877618,29.5729176 54.1380187,29.6640625 54.5703125,29.6640625 C54.9140642,29.6640625 55.2109363,29.5885424 55.4609375,29.4375 C55.7109387,29.2864576 55.9153638,29.0833346 56.0742188,28.828125 C56.2330737,28.5729154 56.35026,28.2760434 56.4257812,27.9375 C56.5013025,27.5989566 56.5390625,27.2395852 56.5390625,26.859375 L56.5390625,26.6953125 Z M66.4140625,22.390625 C66.5651049,22.390625 66.7161451,22.3958333 66.8671875,22.40625 C67.0182299,22.4166667 67.1627597,22.4322916 67.3007812,22.453125 C67.4388028,22.4739584 67.5651036,22.4960936 67.6796875,22.5195312 C67.7942714,22.5429689 67.8906246,22.5703123 67.96875,22.6015625 L67.703125,24.4375 C67.1302055,24.307291 66.565107,24.2421875 66.0078125,24.2421875 C65.3828094,24.2421875 64.8789082,24.3723945 64.4960938,24.6328125 C64.1132793,24.8932305 63.8307301,25.255206 63.6484375,25.71875 L63.6484375,31 L61.78125,31 L61.78125,22.546875 L63.53125,22.546875 L63.6171875,23.8671875 C63.9609392,23.4088519 64.3684872,23.0481784 64.8398438,22.7851562 C65.3112003,22.5221341 65.8359346,22.390625 66.4140625,22.390625 Z M69.8671875,26.6953125 C69.8671875,26.0859345 69.9570304,25.5182318 70.1367188,24.9921875 C70.3164071,24.4661432 70.5742171,24.0104186 70.9101562,23.625 C71.2460954,23.2395814 71.6562476,22.9375011 72.140625,22.71875 C72.6250024,22.4999989 73.1744761,22.390625 73.7890625,22.390625 C74.4088573,22.390625 74.9622371,22.4999989 75.4492188,22.71875 C75.9362004,22.9375011 76.3476546,23.2395814 76.6835938,23.625 C77.0195329,24.0104186 77.2760408,24.4661432 77.453125,24.9921875 C77.6302092,25.5182318 77.71875,26.0859345 77.71875,26.6953125 L77.71875,26.859375 C77.71875,27.4739614 77.6302092,28.0442682 77.453125,28.5703125 C77.2760408,29.0963568 77.0195329,29.5507793 76.6835938,29.9335938 C76.3476546,30.3164082 75.9375024,30.6171864 75.453125,30.8359375 C74.9687476,31.0546886 74.4192739,31.1640625 73.8046875,31.1640625 C73.1848927,31.1640625 72.6315129,31.0546886 72.1445312,30.8359375 C71.6575496,30.6171864 71.2460954,30.3164082 70.9101562,29.9335938 C70.5742171,29.5507793 70.3164071,29.0963568 70.1367188,28.5703125 C69.9570304,28.0442682 69.8671875,27.4739614 69.8671875,26.859375 L69.8671875,26.6953125 Z M71.734375,26.859375 C71.734375,27.2447936 71.7747392,27.6067691 71.8554688,27.9453125 C71.9361983,28.2838559 72.0611971,28.58203 72.2304688,28.8398438 C72.3997404,29.0976575 72.614582,29.3007805 72.875,29.4492188 C73.135418,29.597657 73.4453107,29.671875 73.8046875,29.671875 C74.1536476,29.671875 74.45703,29.597657 74.7148438,29.4492188 C74.9726575,29.3007805 75.1861971,29.0976575 75.3554688,28.8398438 C75.5247404,28.58203 75.6497392,28.2838559 75.7304688,27.9453125 C75.8111983,27.6067691 75.8515625,27.2447936 75.8515625,26.859375 L75.8515625,26.6953125 C75.8515625,26.3203106 75.8111983,25.9635434 75.7304688,25.625 C75.6497392,25.2864566 75.5247404,24.9895846 75.3554688,24.734375 C75.1861971,24.4791654 74.9726575,24.2760424 74.7148438,24.125 C74.45703,23.9739576 74.1484393,23.8984375 73.7890625,23.8984375 C73.4348941,23.8984375 73.1276055,23.9739576 72.8671875,24.125 C72.6067695,24.2760424 72.39323,24.4791654 72.2265625,24.734375 C72.059895,24.9895846 71.9361983,25.2864566 71.8554688,25.625 C71.7747392,25.9635434 71.734375,26.3203106 71.734375,26.6953125 L71.734375,26.859375 Z M83.5546875,20.5 L83.5546875,22.546875 L86.75,22.546875 L86.75,23.9375 L83.5546875,23.9375 L83.5546875,27.9921875 C83.5546875,28.3098974 83.5924475,28.5729156 83.6679688,28.78125 C83.74349,28.9895844 83.8489577,29.1562494 83.984375,29.28125 C84.1197923,29.4062506 84.2786449,29.4934893 84.4609375,29.5429688 C84.6432301,29.5924482 84.8437489,29.6171875 85.0625,29.6171875 C85.2239591,29.6171875 85.3919262,29.608073 85.5664062,29.5898438 C85.7408863,29.5716145 85.9101554,29.5507814 86.0742188,29.5273438 C86.2382821,29.5039061 86.3893222,29.4778647 86.5273438,29.4492188 C86.6653653,29.4205728 86.7812495,29.3932293 86.875,29.3671875 L87.0859375,30.65625 C86.9505202,30.7343754 86.7877614,30.8059893 86.5976562,30.8710938 C86.4075511,30.9361982 86.200522,30.9895831 85.9765625,31.03125 C85.752603,31.0729169 85.5195325,31.1054686 85.2773438,31.1289062 C85.035155,31.1523439 84.7968762,31.1640625 84.5625,31.1640625 C84.1406229,31.1640625 83.753908,31.1054693 83.4023438,30.9882812 C83.0507795,30.8710932 82.7486992,30.6888033 82.4960938,30.4414062 C82.2434883,30.1940092 82.0455736,29.876304 81.9023438,29.4882812 C81.7591139,29.1002585 81.6875,28.6354194 81.6875,28.09375 L81.6875,23.9375 L79.625,23.9375 L79.625,22.546875 L81.6875,22.546875 L81.6875,20.5 L83.5546875,20.5 Z M89.0703125,26.6953125 C89.0703125,26.0859345 89.1601554,25.5182318 89.3398438,24.9921875 C89.5195321,24.4661432 89.7773421,24.0104186 90.1132812,23.625 C90.4492204,23.2395814 90.8593726,22.9375011 91.34375,22.71875 C91.8281274,22.4999989 92.3776011,22.390625 92.9921875,22.390625 C93.6119823,22.390625 94.1653621,22.4999989 94.6523438,22.71875 C95.1393254,22.9375011 95.5507796,23.2395814 95.8867188,23.625 C96.2226579,24.0104186 96.4791658,24.4661432 96.65625,24.9921875 C96.8333342,25.5182318 96.921875,26.0859345 96.921875,26.6953125 L96.921875,26.859375 C96.921875,27.4739614 96.8333342,28.0442682 96.65625,28.5703125 C96.4791658,29.0963568 96.2226579,29.5507793 95.8867188,29.9335938 C95.5507796,30.3164082 95.1406274,30.6171864 94.65625,30.8359375 C94.1718726,31.0546886 93.6223989,31.1640625 93.0078125,31.1640625 C92.3880177,31.1640625 91.8346379,31.0546886 91.3476562,30.8359375 C90.8606746,30.6171864 90.4492204,30.3164082 90.1132812,29.9335938 C89.7773421,29.5507793 89.5195321,29.0963568 89.3398438,28.5703125 C89.1601554,28.0442682 89.0703125,27.4739614 89.0703125,26.859375 L89.0703125,26.6953125 Z M90.9375,26.859375 C90.9375,27.2447936 90.9778642,27.6067691 91.0585938,27.9453125 C91.1393233,28.2838559 91.2643221,28.58203 91.4335938,28.8398438 C91.6028654,29.0976575 91.817707,29.3007805 92.078125,29.4492188 C92.338543,29.597657 92.6484357,29.671875 93.0078125,29.671875 C93.3567726,29.671875 93.660155,29.597657 93.9179688,29.4492188 C94.1757825,29.3007805 94.3893221,29.0976575 94.5585938,28.8398438 C94.7278654,28.58203 94.8528642,28.2838559 94.9335938,27.9453125 C95.0143233,27.6067691 95.0546875,27.2447936 95.0546875,26.859375 L95.0546875,26.6953125 C95.0546875,26.3203106 95.0143233,25.9635434 94.9335938,25.625 C94.8528642,25.2864566 94.7278654,24.9895846 94.5585938,24.734375 C94.3893221,24.4791654 94.1757825,24.2760424 93.9179688,24.125 C93.660155,23.9739576 93.3515643,23.8984375 92.9921875,23.8984375 C92.6380191,23.8984375 92.3307305,23.9739576 92.0703125,24.125 C91.8098945,24.2760424 91.596355,24.4791654 91.4296875,24.734375 C91.26302,24.9895846 91.1393233,25.2864566 91.0585938,25.625 C90.9778642,25.9635434 90.9375,26.3203106 90.9375,26.6953125 L90.9375,26.859375 Z"/>
    </g>
    <g transform="translate(6 16)">
      <path fill="#1A96DE" fill-rule="nonzero" d="M18.0078125,29.796875 L16.2578125,29.796875 L15.6640625,33 L14.3515625,33 L14.9453125,29.796875 L13.140625,29.796875 L13.140625,28.5625 L15.1796875,28.5625 L15.6328125,26.1171875 L13.734375,26.1171875 L13.734375,24.875 L15.8671875,24.875 L16.4765625,21.625 L17.78125,21.625 L17.171875,24.875 L18.9296875,24.875 L19.5390625,21.625 L20.84375,21.625 L20.234375,24.875 L21.859375,24.875 L21.859375,26.1171875 L20,26.1171875 L19.546875,28.5625 L21.2734375,28.5625 L21.2734375,29.796875 L19.3125,29.796875 L18.71875,33 L17.4140625,33 L18.0078125,29.796875 Z M16.4921875,28.5625 L18.2421875,28.5625 L18.6953125,26.1171875 L16.9453125,26.1171875 L16.4921875,28.5625 Z M29.9609375,27.921875 L25.2890625,27.921875 L25.2890625,31.421875 L30.75,31.421875 L30.75,33 L23.3125,33 L23.3125,21.625 L30.6953125,21.625 L30.6953125,23.21875 L25.2890625,23.21875 L25.2890625,26.359375 L29.9609375,26.359375 L29.9609375,27.921875 Z M35.15625,30.59375 L36.9453125,24.546875 L38.90625,24.546875 L35.9765625,33 L34.328125,33 L31.375,24.546875 L33.34375,24.546875 L35.15625,30.59375 Z M43.8125,33.15625 C42.609369,33.15625 41.6341183,32.7773475 40.8867188,32.0195312 C40.1393192,31.261715 39.765625,30.2526105 39.765625,28.9921875 L39.765625,28.7578125 C39.765625,27.9140583 39.9283838,27.1601596 40.2539062,26.4960938 C40.5794287,25.8320279 41.0364554,25.315106 41.625,24.9453125 C42.2135446,24.575519 42.869788,24.390625 43.59375,24.390625 C44.7447974,24.390625 45.6341114,24.7578088 46.2617188,25.4921875 C46.8893261,26.2265662 47.203125,27.2656183 47.203125,28.609375 L47.203125,29.375 L41.6796875,29.375 C41.7369795,30.0729202 41.97005,30.624998 42.3789062,31.03125 C42.7877625,31.437502 43.3020802,31.640625 43.921875,31.640625 C44.791671,31.640625 45.4999973,31.289066 46.046875,30.5859375 L47.0703125,31.5625 C46.7317691,32.0677109 46.2799507,32.459634 45.7148438,32.7382812 C45.1497368,33.0169285 44.5156285,33.15625 43.8125,33.15625 Z M43.5859375,25.9140625 C43.0651016,25.9140625 42.6445329,26.0963523 42.3242188,26.4609375 C42.0039046,26.8255227 41.7994796,27.3333301 41.7109375,27.984375 L45.328125,27.984375 L45.328125,27.84375 C45.2864581,27.2083302 45.117189,26.7278662 44.8203125,26.4023438 C44.523436,26.0768213 44.1119818,25.9140625 43.5859375,25.9140625 Z M50.4375,24.546875 L50.4921875,25.5234375 C51.1171906,24.7682254 51.9374949,24.390625 52.953125,24.390625 C54.7135505,24.390625 55.6093748,25.3984274 55.640625,27.4140625 L55.640625,33 L53.7421875,33 L53.7421875,27.5234375 C53.7421875,26.9869765 53.6263032,26.589845 53.3945312,26.3320312 C53.1627593,26.0742175 52.7838568,25.9453125 52.2578125,25.9453125 C51.4921837,25.9453125 50.9218769,26.2916632 50.546875,26.984375 L50.546875,33 L48.6484375,33 L48.6484375,24.546875 L50.4375,24.546875 Z M59.953125,22.4921875 L59.953125,24.546875 L61.4453125,24.546875 L61.4453125,25.953125 L59.953125,25.953125 L59.953125,30.671875 C59.953125,30.9947933 60.0169264,31.2278639 60.1445312,31.3710938 C60.2721361,31.5143236 60.4999984,31.5859375 60.828125,31.5859375 C61.0468761,31.5859375 61.268228,31.5598961 61.4921875,31.5078125 L61.4921875,32.9765625 C61.0598937,33.0963548 60.6432312,33.15625 60.2421875,33.15625 C58.7838469,33.15625 58.0546875,32.3515705 58.0546875,30.7421875 L58.0546875,25.953125 L56.6640625,25.953125 L56.6640625,24.546875 L58.0546875,24.546875 L58.0546875,22.4921875 L59.953125,22.4921875 Z M69.0234375,30.0703125 C69.0234375,29.57031 68.847658,29.1848972 68.4960938,28.9140625 C68.1445295,28.6432278 67.5104213,28.369793 66.59375,28.09375 C65.6770787,27.817707 64.9479194,27.5104184 64.40625,27.171875 C63.3697865,26.5208301 62.8515625,25.6718802 62.8515625,24.625 C62.8515625,23.7083287 63.2252567,22.953128 63.9726562,22.359375 C64.7200558,21.765622 65.6900982,21.46875 66.8828125,21.46875 C67.6744831,21.46875 68.3802052,21.6145819 69,21.90625 C69.6197948,22.1979181 70.1067691,22.6132786 70.4609375,23.1523438 C70.8151059,23.6914089 70.9921875,24.2890592 70.9921875,24.9453125 L69.0234375,24.9453125 C69.0234375,24.3515595 68.8372414,23.8867204 68.4648438,23.5507812 C68.0924461,23.2148421 67.5598993,23.046875 66.8671875,23.046875 C66.2213509,23.046875 65.7200539,23.1848945 65.3632812,23.4609375 C65.0065086,23.7369805 64.828125,24.1223934 64.828125,24.6171875 C64.828125,25.0338562 65.0208314,25.381509 65.40625,25.6601562 C65.7916686,25.9388035 66.4270789,26.2096341 67.3125,26.4726562 C68.1979211,26.7356784 68.9088515,27.0351546 69.4453125,27.3710938 C69.9817735,27.7070329 70.3749988,28.0924457 70.625,28.5273438 C70.8750012,28.9622418 71,29.4713512 71,30.0546875 C71,31.0026089 70.6367224,31.7565076 69.9101562,32.3164062 C69.1835901,32.8763049 68.1979229,33.15625 66.953125,33.15625 C66.1302042,33.15625 65.3737014,33.0039078 64.6835938,32.6992188 C63.9934861,32.3945297 63.4570332,31.973961 63.0742188,31.4375 C62.6914043,30.901039 62.5,30.2760452 62.5,29.5625 L64.4765625,29.5625 C64.4765625,30.2083366 64.690102,30.7083316 65.1171875,31.0625 C65.544273,31.4166684 66.156246,31.59375 66.953125,31.59375 C67.6406284,31.59375 68.1575504,31.4544285 68.5039062,31.1757812 C68.8502621,30.897134 69.0234375,30.5286481 69.0234375,30.0703125 Z M74.9296875,22.4921875 L74.9296875,24.546875 L76.421875,24.546875 L76.421875,25.953125 L74.9296875,25.953125 L74.9296875,30.671875 C74.9296875,30.9947933 74.9934889,31.2278639 75.1210938,31.3710938 C75.2486986,31.5143236 75.4765609,31.5859375 75.8046875,31.5859375 C76.0234386,31.5859375 76.2447905,31.5598961 76.46875,31.5078125 L76.46875,32.9765625 C76.0364562,33.0963548 75.6197937,33.15625 75.21875,33.15625 C73.7604094,33.15625 73.03125,32.3515705 73.03125,30.7421875 L73.03125,25.953125 L71.640625,25.953125 L71.640625,24.546875 L73.03125,24.546875 L73.03125,22.4921875 L74.9296875,22.4921875 Z M77.515625,28.6953125 C77.515625,27.8671834 77.6796859,27.1210971 78.0078125,26.4570312 C78.3359391,25.7929654 78.796872,25.2825539 79.390625,24.9257812 C79.984378,24.5690086 80.6666628,24.390625 81.4375,24.390625 C82.5781307,24.390625 83.5039027,24.7578088 84.2148438,25.4921875 C84.9257848,26.2265662 85.3098955,27.2005148 85.3671875,28.4140625 L85.375,28.859375 C85.375,29.6927125 85.2148454,30.4374967 84.8945312,31.09375 C84.5742171,31.7500033 84.1158884,32.2578107 83.5195312,32.6171875 C82.9231741,32.9765643 82.2343789,33.15625 81.453125,33.15625 C80.2604107,33.15625 79.3059932,32.7591186 78.5898438,31.9648438 C77.8736943,31.1705689 77.515625,30.1119858 77.515625,28.7890625 L77.515625,28.6953125 Z M79.4140625,28.859375 C79.4140625,29.729171 79.5937482,30.4101538 79.953125,30.9023438 C80.3125018,31.3945337 80.8124968,31.640625 81.453125,31.640625 C82.0937532,31.640625 82.5924461,31.3906275 82.9492188,30.890625 C83.3059914,30.3906225 83.484375,29.658859 83.484375,28.6953125 C83.484375,27.8411416 83.3007831,27.164065 82.9335938,26.6640625 C82.5664044,26.16406 82.0677115,25.9140625 81.4375,25.9140625 C80.8177052,25.9140625 80.3255227,26.1601538 79.9609375,26.6523438 C79.5963523,27.1445337 79.4140625,27.8802034 79.4140625,28.859375 Z M91.40625,26.28125 C91.1562488,26.2395831 90.8984388,26.21875 90.6328125,26.21875 C89.7630165,26.21875 89.1770848,26.55208 88.875,27.21875 L88.875,33 L86.9765625,33 L86.9765625,24.546875 L88.7890625,24.546875 L88.8359375,25.4921875 C89.2942731,24.7578088 89.9296834,24.390625 90.7421875,24.390625 C91.0130222,24.390625 91.2369783,24.427083 91.4140625,24.5 L91.40625,26.28125 Z M94.390625,24.546875 L94.4453125,25.4296875 C95.0390655,24.7369757 95.8515573,24.390625 96.8828125,24.390625 C98.0130265,24.390625 98.7864563,24.8229123 99.203125,25.6875 C99.8177114,24.8229123 100.682286,24.390625 101.796875,24.390625 C102.729171,24.390625 103.423175,24.6484349 103.878906,25.1640625 C104.334638,25.6796901 104.567708,26.4400991 104.578125,27.4453125 L104.578125,33 L102.679688,33 L102.679688,27.5 C102.679688,26.963539 102.562501,26.5703138 102.328125,26.3203125 C102.093749,26.0703112 101.705732,25.9453125 101.164062,25.9453125 C100.731769,25.9453125 100.378908,26.0611968 100.105469,26.2929688 C99.8320299,26.5247407 99.6406255,26.8281231 99.53125,27.203125 L99.5390625,33 L97.640625,33 L97.640625,27.4375 C97.6145832,26.4427034 97.1067758,25.9453125 96.1171875,25.9453125 C95.356767,25.9453125 94.8177099,26.2552052 94.5,26.875 L94.5,33 L92.6015625,33 L92.6015625,24.546875 L94.390625,24.546875 Z M108.546875,33 L106.648438,33 L106.648438,24.546875 L108.546875,24.546875 L108.546875,33 Z M106.53125,22.3515625 C106.53125,22.0598944 106.623697,21.8177093 106.808594,21.625 C106.993491,21.4322907 107.257811,21.3359375 107.601562,21.3359375 C107.945314,21.3359375 108.210937,21.4322907 108.398438,21.625 C108.585938,21.8177093 108.679688,22.0598944 108.679688,22.3515625 C108.679688,22.6380223 108.585938,22.8763011 108.398438,23.0664062 C108.210937,23.2565114 107.945314,23.3515625 107.601562,23.3515625 C107.257811,23.3515625 106.993491,23.2565114 106.808594,23.0664062 C106.623697,22.8763011 106.53125,22.6380223 106.53125,22.3515625 Z M112.375,24.546875 L112.429688,25.5234375 C113.054691,24.7682254 113.874995,24.390625 114.890625,24.390625 C116.65105,24.390625 117.546875,25.3984274 117.578125,27.4140625 L117.578125,33 L115.679688,33 L115.679688,27.5234375 C115.679688,26.9869765 115.563803,26.589845 115.332031,26.3320312 C115.100259,26.0742175 114.721357,25.9453125 114.195312,25.9453125 C113.429684,25.9453125 112.859377,26.2916632 112.484375,26.984375 L112.484375,33 L110.585938,33 L110.585938,24.546875 L112.375,24.546875 Z M119.179688,28.7109375 C119.179688,27.3984309 119.488278,26.3502643 120.105469,25.5664062 C120.722659,24.7825482 121.541662,24.390625 122.5625,24.390625 C123.526046,24.390625 124.283851,24.7265591 124.835938,25.3984375 L124.921875,24.546875 L126.632812,24.546875 L126.632812,32.7421875 C126.632812,33.851568 126.287764,34.7265593 125.597656,35.3671875 C124.907549,36.0078157 123.976568,36.328125 122.804688,36.328125 C122.184893,36.328125 121.57943,36.19922 120.988281,35.9414062 C120.397132,35.6835925 119.947918,35.3463562 119.640625,34.9296875 L120.539062,33.7890625 C121.122399,34.4817743 121.841142,34.828125 122.695312,34.828125 C123.325524,34.828125 123.822915,34.6575538 124.1875,34.3164062 C124.552085,33.9752587 124.734375,33.4739616 124.734375,32.8125 L124.734375,32.2421875 C124.187497,32.8515655 123.458338,33.15625 122.546875,33.15625 C121.557287,33.15625 120.748701,32.7630248 120.121094,31.9765625 C119.493486,31.1901002 119.179688,30.1015695 119.179688,28.7109375 Z M121.070312,28.875 C121.070312,29.7239626 121.243488,30.3919246 121.589844,30.8789062 C121.9362,31.3658879 122.416664,31.609375 123.03125,31.609375 C123.796879,31.609375 124.364581,31.2812533 124.734375,30.625 L124.734375,26.90625 C124.374998,26.2656218 123.812504,25.9453125 123.046875,25.9453125 C122.421872,25.9453125 121.9362,26.1927059 121.589844,26.6875 C121.243488,27.1822941 121.070312,27.9114535 121.070312,28.875 Z"/>
      <path stroke="#B8C1DF" stroke-dasharray="5" d="M4,0 L136,0 C138.209139,-4.05812251e-16 140,1.790861 140,4 L140,52 C140,54.209139 138.209139,56 136,56 L4,56 C1.790861,56 2.705415e-16,54.209139 0,52 L0,4 C-2.705415e-16,1.790861 1.790861,4.05812251e-16 4,0 Z"/>
    </g>
    <line x1="349" x2="447" y1="184.5" y2="44" stroke="#D5D8E4"/>
    <line x1="349" x2="447" y1="184.5" y2="117" stroke="#D5D8E4"/>
    <line x1="349" x2="447" y1="184.5" y2="189" stroke="#D5D8E4"/>
    <line x1="349" x2="447" y1="184.5" y2="261" stroke="#D5D8E4"/>
    <path fill="#D5D8E4" fill-rule="nonzero" d="M77,73.5 L77,134 L81,134 L76.5,143 L72,134 L76,134 L76,73.5 L77,73.5 Z"/>
    <line x1="146" x2="221.65" y1="184.5" y2="184.5" stroke="#D5D8E4"/>
  </g>
</svg>
