<svg xmlns="http://www.w3.org/2000/svg" width="28" height="22" viewBox="0 0 28 22">
  <path fill="#1A96DE" d="M243.111181,683 L240.777889,683 C238.200607,683 236.111306,685.110658 236.111306,687.714286 L236.111306,689.554821 C236.111182,689.971962 235.94719,690.372003 235.655342,690.667098 L233.455729,692.888705 C233.163934,693.183416 233,693.583169 233,694 C233,694.416831 233.163934,694.816584 233.455729,695.111295 L235.655342,697.333393 C235.947223,697.628064 236.111244,698.027822 236.111306,698.444687 L236.111306,700.285714 C236.111306,702.889342 238.200607,705 240.777889,705 L243.111181,705 C243.540728,705 243.888945,704.648224 243.888945,704.214286 L243.888945,702.642857 C243.888945,702.208919 243.540728,701.857143 243.111181,701.857143 L240.777889,701.857143 C239.918795,701.857143 239.222362,701.15359 239.222362,700.285714 L239.222362,698.445179 C239.222304,697.194654 238.73042,695.995389 237.854956,695.111295 L236.755392,694 L237.855442,692.888705 C238.730728,692.00453 239.222433,690.805275 239.222362,689.554821 L239.222362,687.714286 C239.222362,686.84641 239.918795,686.142857 240.777889,686.142857 L243.111181,686.142857 C243.540728,686.142857 243.888945,685.791081 243.888945,685.357143 L243.888945,683.785714 C243.888945,683.351776 243.540728,683 243.111181,683 Z M260.544271,692.888705 L258.344658,690.667098 C258.05281,690.372003 257.888818,689.971962 257.888694,689.554821 L257.888694,687.714286 C257.888694,685.110658 255.799393,683 253.222111,683 L250.888819,683 C250.459272,683 250.111055,683.351776 250.111055,683.785714 L250.111055,685.357143 C250.111055,685.791081 250.459272,686.142857 250.888819,686.142857 L253.222111,686.142857 C254.081205,686.142857 254.777638,686.84641 254.777638,687.714286 L254.777638,689.55433 C254.777438,690.805195 255.269341,692.004861 256.145044,692.889196 L257.244608,694 L256.145044,695.111295 C255.26958,695.995389 254.777696,697.194654 254.777638,698.445179 L254.777638,700.285714 C254.777638,701.15359 254.081205,701.857143 253.222111,701.857143 L250.888819,701.857143 C250.459272,701.857143 250.111055,702.208919 250.111055,702.642857 L250.111055,704.214286 C250.111055,704.648224 250.459272,705 250.888819,705 L253.222111,705 C255.799393,705 257.888694,702.889342 257.888694,700.285714 L257.888694,698.444687 C257.888756,698.027822 258.052777,697.628064 258.344658,697.333393 L260.544271,695.111295 C260.836066,694.816584 261,694.416831 261,694 C261,693.583169 260.836066,693.183416 260.544271,692.888705 L260.544271,692.888705 Z" transform="translate(-233 -683)"/>
</svg>
