<svg xmlns="http://www.w3.org/2000/svg" width="48" height="48" viewBox="0 0 48 48">
  <g fill="none" fill-rule="evenodd">
    <path fill="#FFF" fill-rule="nonzero" d="M27.2,28.9 C27.8,27.9 28.3,26.8 28.6,25.6 L29.8,25.6 C31.1,25.6 32.1,24.6 32.1,23.3 L32.1,21.7 C32.1,20.4 31.1,19.4 29.8,19.4 L28.6,19.4 C28.3,18.2 27.9,17.1 27.2,16.1 L28.1,15.2 C29,14.5 29,13 28.1,12.1 L27,11 C26.6,10.6 26,10.3 25.4,10.3 C24.8,10.3 24.2,10.5 23.8,11 L22.9,11.9 C21.9,11.3 20.8,10.8 19.6,10.5 L19.6,9.3 C19.6,8 18.6,7 17.3,7 L15.7,7 C14.4,7 13.4,8 13.4,9.3 L13.4,10.5 C12.3,10.8 11.2,11.3 10.1,11.9 L9.3,11 C8.5,10.1 7,10.1 6.1,11 L5,12.1 C4.1,13 4.1,14.5 5,15.3 L5.9,16.2 C5.3,17.2 4.8,18.3 4.5,19.5 L3.3,19.5 C2,19.5 1,20.5 1,21.8 L1,23.4 C1,24.7 2,25.7 3.3,25.7 L4.5,25.7 C4.8,26.9 5.3,28 5.9,29 L5,29.8 C4.1,30.7 4.1,32.1 5,33 L6.1,34.1 C7,35 8.5,35 9.3,34.1 L10.2,33.2 C11.2,33.8 12.3,34.3 13.5,34.6 L13.5,35.8 C13.5,37.1 14.5,38.1 15.8,38.1 L17.4,38.1 C18.7,38.1 19.7,37.1 19.7,35.8 L19.7,34.6 C20.8,34.3 22,33.8 23,33.2 L23.9,34.1 C24.8,35 26.2,35 27.1,34.1 L28.2,33 C29.1,32.1 29.1,30.7 28.2,29.8 L27.2,28.9 Z M27.1,32 L26,33.1 C25.7,33.4 25.2,33.4 24.8,33.1 L23.5,31.8 C23.3,31.5 22.9,31.5 22.6,31.7 C21.4,32.5 20.1,33 18.7,33.3 C18.4,33.4 18.1,33.7 18.1,34 L18.1,35.8 C18.1,36.3 17.7,36.6 17.3,36.6 L15.7,36.6 C15.2,36.6 14.9,36.2 14.9,35.8 C14.9,35.8 14.9,35.8 14.9,35.8 L14.9,34 C14.9,33.7 14.7,33.4 14.3,33.3 C12.9,33 11.6,32.5 10.5,31.7 C10.4,31.6 10.2,31.6 10.1,31.6 C9.9,31.6 9.7,31.7 9.6,31.8 L8.3,33.1 C8,33.4 7.4,33.4 7.1,33.1 L6,32 C5.7,31.7 5.7,31.2 6,30.8 L7.3,29.5 C7.5,29.3 7.6,28.9 7.4,28.6 C6.6,27.4 6.1,26.1 5.8,24.7 C5.7,24.4 5.4,24.1 5.1,24.1 L3.3,24.1 C2.8,24.1 2.5,23.7 2.5,23.3 C2.5,23.3 2.5,23.3 2.5,23.3 L2.5,21.7 C2.5,21.2 2.9,20.9 3.3,20.9 C3.3,20.9 3.3,20.9 3.3,20.9 L5.1,20.9 C5.4,20.9 5.8,20.7 5.8,20.3 C6.1,18.9 6.6,17.6 7.4,16.4 C7.6,16.1 7.5,15.7 7.3,15.5 L6,14.3 C5.7,14 5.7,13.5 6,13.1 L7.1,12 C7.5,11.7 8,11.7 8.3,12 C8.3,12 8.3,12 8.3,12 L9.6,13.3 C9.8,13.5 10.2,13.6 10.5,13.4 C11.7,12.6 13,12.1 14.3,11.8 C14.6,11.7 14.9,11.4 14.9,11.1 L14.9,9.3 C14.9,8.8 15.3,8.5 15.7,8.5 C15.7,8.5 15.7,8.5 15.7,8.5 L17.3,8.5 C17.8,8.5 18.1,8.9 18.1,9.3 L18.1,11.1 C18.1,11.4 18.3,11.7 18.7,11.8 C20.1,12.1 21.4,12.6 22.6,13.4 C22.9,13.6 23.3,13.6 23.5,13.3 L24.8,12 C25,11.8 25.2,11.7 25.4,11.8 C25.6,11.8 25.8,11.9 26,12 L27.1,13.1 C27.4,13.4 27.4,13.9 27.1,14.3 L25.8,15.6 C25.6,15.9 25.5,16.2 25.7,16.5 C26.5,17.7 27,19 27.3,20.3 C27.4,20.6 27.7,20.9 28,20.9 L29.8,20.9 C30.3,20.9 30.6,21.3 30.6,21.7 C30.6,21.7 30.6,21.7 30.6,21.7 L30.6,23.3 C30.6,23.8 30.2,24.1 29.8,24.1 C29.8,24.1 29.8,24.1 29.8,24.1 L28,24.1 C27.7,24.1 27.4,24.3 27.3,24.7 C27,26.1 26.5,27.4 25.7,28.6 C25.5,28.9 25.5,29.3 25.8,29.5 L27.1,30.8 C27.5,31.1 27.6,31.5 27.3,31.9 C27.3,31.9 27.2,32 27.1,32 Z M16.6,16.4 C13.2,16.4 10.4,19.2 10.4,22.6 C10.4,26 13.2,28.8 16.6,28.8 C20,28.8 22.8,26 22.8,22.6 L22.8,22.6 C22.7,19.1 20,16.4 16.6,16.4 L16.6,16.4 Z M16.6,27.3 C14,27.3 11.9,25.2 11.9,22.6 C11.9,20 14,17.9 16.6,17.9 C19.2,17.9 21.3,20 21.3,22.6 L21.3,22.6 C21.3,25.2 19.2,27.3 16.6,27.3 L16.6,27.3 Z"/>
    <path fill="#FFF" fill-rule="nonzero" d="M9.13429042,1.43597741 C9.34945965,0.844804818 9.97572259,0.522096263 10.5727502,0.67318054 L10.5727502,0.67318054 L10.6916355,0.709775471 L11.8285696,1.12358564 C12.4591537,1.35309948 12.7842854,2.05034663 12.5547549,2.68097641 L12.5547549,2.68097641 L12.2347442,3.55727494 L12.3465555,3.64192122 C12.5809187,3.82743244 12.8010927,4.02949531 13.0056257,4.24646115 L13.0056257,4.24646115 L13.0963872,4.34763899 L13.9435293,3.95349278 C14.511165,3.68879992 15.1787606,3.90036515 15.4958274,4.42422401 L15.4958274,4.42422401 L15.5582409,4.54119973 L16.0695668,5.63774153 C16.3531663,6.24592261 16.0900409,6.96885361 15.4818623,7.25245196 L15.4818623,7.25245196 L14.6347961,7.64676764 L14.6545602,7.78261253 C14.6892944,8.07875683 14.7025584,8.37730343 14.6940225,8.67608034 L14.6940225,8.67608034 L14.6863967,8.8148607 L15.5640226,9.13429042 C16.1551952,9.34945965 16.4779037,9.97572259 16.3268195,10.5727502 L16.3268195,10.5727502 L16.2902245,10.6916355 L15.8764144,11.8285696 C15.6469005,12.4591537 14.9496534,12.7842854 14.3194141,12.5548969 L14.3194141,12.5548969 L13.4414433,12.2353418 L13.3575806,12.3471848 C13.1721391,12.5813971 12.9701652,12.801434 12.7533053,13.0058459 L12.7533053,13.0058459 L12.6514213,13.0960452 L13.0465072,13.9435293 C13.3112001,14.511165 13.0996348,15.1787606 12.575776,15.4958274 L12.575776,15.4958274 L12.4588003,15.5582409 L11.3622585,16.0695668 C10.7540774,16.3531663 10.0311464,16.0900409 9.74754804,15.4818623 L9.74754804,15.4818623 L9.35229266,14.6344541 L9.21738747,14.6545602 C8.92124317,14.6892944 8.62269657,14.7025584 8.32391966,14.6940225 L8.32391966,14.6940225 L8.18419961,14.6860546 L7.86570958,15.5640226 C7.65054035,16.1551952 7.02427741,16.4779037 6.42724975,16.3268195 L6.42724975,16.3268195 L6.3083645,16.2902245 L5.17143039,15.8764144 C4.5408463,15.6469005 4.21571461,14.9496534 4.44510309,14.3194141 L4.44510309,14.3194141 L4.76371847,13.4411013 L4.65281523,13.3575806 C4.41860287,13.1721391 4.19856597,12.9701652 3.99415412,12.7533053 L3.99415412,12.7533053 L3.90301516,12.6510793 L3.05647067,13.0465072 C2.48883499,13.3112001 1.82123938,13.0996348 1.50417256,12.575776 L1.50417256,12.575776 L1.44175908,12.4588003 L0.930433248,11.3622585 C0.64683375,10.7540774 0.909959116,10.0311464 1.51813773,9.74754804 L1.51813773,9.74754804 L2.3646062,9.35195064 L2.34547723,9.21770626 C2.31074628,8.92172282 2.29746231,8.62333848 2.30595464,8.32472186 L2.30595464,8.32472186 L2.31266364,8.18479728 L1.43597741,7.86570958 C0.844804818,7.65054035 0.522096263,7.02427741 0.67318054,6.42724975 L0.67318054,6.42724975 L0.709775471,6.3083645 L1.12358564,5.17143039 C1.35309948,4.5408463 2.05034663,4.21571461 2.68097641,4.44524508 L2.68097641,4.44524508 L3.55761696,4.76431614 L3.64192122,4.65344446 C3.82743244,4.41908129 4.02949531,4.19890725 4.24646115,3.99437429 L4.24646115,3.99437429 L4.34798101,3.90267314 L3.95349278,3.05647067 C3.68879992,2.48883499 3.90036515,1.82123938 4.42422401,1.50417256 L4.42422401,1.50417256 L4.54119973,1.44175908 L5.63774153,0.930433248 C6.24592261,0.64683375 6.96885361,0.909959116 7.25245196,1.51813773 L7.25245196,1.51813773 L7.64710966,2.36426418 L7.78229374,2.34547723 C8.07827718,2.31074628 8.37666152,2.29746231 8.67527814,2.30595464 L8.67527814,2.30595464 L8.81426303,2.31232162 Z M10.3017325,1.78102505 C10.2627832,1.76684866 10.2197164,1.78693107 10.2054144,1.82622508 L10.2054144,1.82622508 L9.7361774,3.11286586 C9.64502763,3.36279716 9.39311026,3.51643847 9.12917786,3.48306742 C8.56266372,3.41143856 7.99071517,3.43739328 7.4353989,3.55762284 C7.17521897,3.61395347 6.91069602,3.48269098 6.79819047,3.24142507 L6.79819047,3.24142507 L6.21926225,1.99992501 C6.20174515,1.96235949 6.15709187,1.94610702 6.11952634,1.96362411 L6.11952634,1.96362411 L5.02298455,2.47494995 C4.98541902,2.49246704 4.96916655,2.53712033 4.9866848,2.57468833 L4.9866848,2.57468833 L5.56559998,3.81619145 C5.67810322,4.05745845 5.60862404,4.34446868 5.39823183,4.50756944 C4.94893804,4.85587207 4.56123988,5.27759224 4.25188113,5.75792889 C4.10772799,5.98175328 3.82783646,6.07597908 3.5776715,5.98490232 L3.5776715,5.98490232 L2.29102777,5.51647803 C2.25207847,5.50230165 2.2090116,5.52238406 2.19483522,5.56133335 L2.19483522,5.56133335 L1.78102505,6.69826746 C1.76684866,6.73721675 1.78693107,6.78028362 1.82622508,6.7945856 L1.82622508,6.7945856 L3.11286586,7.2638226 C3.36279716,7.35497237 3.51643847,7.60688974 3.48306742,7.87082214 C3.41143856,8.43733628 3.43739328,9.00928483 3.55762284,9.5646011 C3.61395347,9.82478103 3.48269098,10.089304 3.24142507,10.2018095 L3.24142507,10.2018095 L1.99992501,10.7807378 C1.96235949,10.7982548 1.94610702,10.8429081 1.96362411,10.8804737 L1.96362411,10.8804737 L2.47494995,11.9770155 C2.49246704,12.014581 2.53712033,12.0308334 2.57468833,12.0133152 L2.57468833,12.0133152 L3.81619145,11.4344 C4.05745845,11.3218968 4.34446868,11.391376 4.50756944,11.6017682 C4.85568431,12.0508198 5.27713895,12.4383437 5.7571561,12.7476211 C5.98079055,12.8917098 6.07501172,13.1713353 5.98418375,13.4213837 L5.98418375,13.4213837 L5.51647803,14.7089722 C5.50230165,14.7479215 5.52238406,14.7909884 5.56133335,14.8051648 L5.56133335,14.8051648 L6.69826746,15.218975 C6.73721675,15.2331513 6.78028362,15.2130689 6.79444338,15.1741653 L6.79444338,15.1741653 L7.26266483,13.887396 C7.35369892,13.6372155 7.60579088,13.4833734 7.86991016,13.5168172 C8.43672136,13.5885891 9.00898532,13.5626716 9.5646011,13.4423772 C9.82478103,13.3860465 10.089304,13.517309 10.2018095,13.7585749 L10.2018095,13.7585749 L10.7807378,15.000075 C10.7982548,15.0376405 10.8429081,15.053893 10.8804737,15.0363759 L10.8804737,15.0363759 L11.9770155,14.5250501 C12.014581,14.507533 12.0308334,14.4628797 12.0133152,14.4253117 L12.0133152,14.4253117 L11.4344,13.1838085 C11.3218968,12.9425416 11.391376,12.6555313 11.6017682,12.4924306 C12.0508198,12.1443157 12.4383437,11.7228611 12.7476211,11.2428439 C12.8917098,11.0192095 13.1713353,10.9249883 13.4213837,11.0158162 L13.4213837,11.0158162 L14.7089722,11.483522 C14.7479215,11.4976984 14.7909884,11.4776159 14.8051648,11.4386666 L14.8051648,11.4386666 L15.218975,10.3017325 C15.2331513,10.2627832 15.2130689,10.2197164 15.1741653,10.2055566 L15.1741653,10.2055566 L13.887396,9.73733517 C13.6372155,9.64630108 13.4833734,9.39420912 13.5168172,9.13008984 C13.5885891,8.56327864 13.5626716,7.99101468 13.4423772,7.4353989 C13.3860465,7.17521897 13.517309,6.91069602 13.7585749,6.79819047 L13.7585749,6.79819047 L15.000075,6.21926225 C15.0376405,6.20174515 15.053893,6.15709187 15.0363759,6.11952634 L15.0363759,6.11952634 L14.5250501,5.02298455 C14.507533,4.98541902 14.4628797,4.96916655 14.4253117,4.9866848 L14.4253117,4.9866848 L13.1838085,5.56559998 C12.9425416,5.67810322 12.6555313,5.60862404 12.4924306,5.39823183 C12.1441279,4.94893804 11.7224078,4.56123988 11.2420711,4.25188113 C11.0182467,4.10772799 10.9240209,3.82783646 11.0150977,3.5776715 L11.0150977,3.5776715 L11.483522,2.29102777 C11.4976984,2.25207847 11.4776159,2.2090116 11.4386666,2.19483522 L11.4386666,2.19483522 Z M8.5,6 C9.88071187,6 11,7.11928813 11,8.5 C11,9.88071187 9.88071187,11 8.5,11 C7.11928813,11 6,9.88071187 6,8.5 C6,7.11928813 7.11928813,6 8.5,6 Z M8.5,7.2 C7.78202983,7.2 7.2,7.78202983 7.2,8.5 C7.2,9.21797017 7.78202983,9.8 8.5,9.8 C9.21797017,9.8 9.8,9.21797017 9.8,8.5 C9.8,7.78202983 9.21797017,7.2 8.5,7.2 Z" transform="translate(30 23)"/>
  </g>
</svg>
