<svg xmlns="http://www.w3.org/2000/svg" width="48" height="48" viewBox="0 0 48 48">
  <g fill="none" fill-rule="evenodd">
    <path fill="#FFF" fill-rule="nonzero" d="M41.4623896,31.5156725 C42.2668219,32.7441771 41.9658499,34.3767082 40.8033928,35.2420929 L40.6654538,35.3384738 L27.0581147,44.2519707 C25.1679533,45.4901222 22.7816149,45.6722201 20.7321902,44.7492642 L20.4972607,44.6378624 L12.6742024,40.7383466 C11.3227483,40.0646948 9.72565441,40.1331495 8.44111929,40.9070979 L8.25085299,41.0284768 L7.14458463,41.7746642 C6.86986574,41.9599644 6.49694657,41.8874763 6.31164634,41.6127574 C6.14487614,41.3655104 6.18691451,41.0387212 6.39725996,40.8407519 L6.47355314,40.7798191 L7.57982151,40.0336317 C9.18587455,38.9503352 11.2322123,38.7769965 12.991213,39.5613407 L13.2095389,39.6643751 L21.0325972,43.5638909 C22.6792318,44.3846796 24.6248436,44.3084789 26.1975967,43.3748045 L26.4005687,43.2481613 L40.0079078,34.3346645 C40.6890602,33.8884751 40.9067953,33.0005674 40.5308958,32.295717 L40.44671,32.1558154 C39.9828058,31.4680492 39.0752874,31.2584459 38.3624133,31.6510705 L38.2387624,31.7266339 L28.6036288,38.2256136 C28.5687958,38.2491047 28.5328864,38.2683618 28.4963563,38.2836216 C28.4596837,38.2988948 28.4230104,38.310022 28.3861734,38.3174824 C26.9364072,39.0843862 25.2644426,39.2685227 23.3964365,38.8759191 L14.4366257,36.9928127 C14.1123397,36.9246566 13.9047054,36.6065195 13.9728614,36.2822336 C14.0410174,35.9579476 14.3591545,35.7503132 14.6834405,35.8184692 L23.6432513,37.7015757 C25.1716005,38.0227927 26.5032617,37.900748 27.6603158,37.3405405 L27.6439886,36.4659859 L27.6293987,36.2293875 C27.5669865,35.6580091 27.3037119,35.1439256 26.9085376,34.7631327 L26.8135193,34.6762944 L26.6556637,34.5507799 L26.4984133,34.4454498 L26.3453273,34.3590621 L26.2487056,34.3119733 L26.0770345,34.2407841 L25.8923437,34.1809072 C25.8327821,34.1642372 25.7722395,34.1497816 25.7108045,34.1376382 L25.5221541,34.1080365 L21.4127959,33.627994 C20.4011725,33.5098153 19.4598689,33.0596229 18.7342505,32.3516738 L18.5574234,32.1693596 C17.5514761,31.0732393 16.3366942,30.3786937 14.8977886,30.0762752 C13.0723489,29.6926178 8.79826254,30.84082 2.22933686,33.5417619 C1.92286131,33.6677753 1.57225974,33.5214818 1.44624634,33.2150063 C1.32023294,32.9085307 1.46652642,32.5579292 1.77300197,32.4319158 L3.13228143,31.8818059 C9.17232623,29.4784809 13.1349525,28.4795583 15.1446033,28.9019317 C16.7169914,29.2324046 18.0739593,29.9703422 19.2030764,31.1080634 L19.441538,31.3579772 C19.9428366,31.9042121 20.6074455,32.2700971 21.332729,32.4032031 L21.5520317,32.4360991 L23.0326244,32.6083762 L28.7658321,28.7421695 C29.9104941,27.9700852 31.4485868,28.2308069 32.2790437,29.3103089 L32.3752314,29.4437656 L32.5882572,29.7595894 C32.6456464,29.8446724 32.6976439,29.9324539 32.7441549,30.0225046 L33.2457375,29.6837227 C34.386584,28.914212 35.9182426,29.1706334 36.7506209,30.2410944 L36.8551367,30.3853188 L37.0681626,30.7011426 C37.1255873,30.7862783 37.1776135,30.8741156 37.2241464,30.9642246 L37.567731,30.7317888 C38.798071,29.901914 40.4519165,30.1837953 41.3422769,31.3467053 L41.4623896,31.5156725 Z M31.5934121,30.4306209 L31.3803863,30.1147971 C30.975042,29.5138495 30.1849324,29.327633 29.55957,29.6629666 L29.436857,29.737019 L24.8618881,32.8221278 L25.6613876,32.9161413 C25.8164526,32.9342556 25.9682901,32.9620619 26.1163162,32.998917 L26.3659259,33.070829 L26.3659259,33.070829 L26.4807046,33.1104955 L26.4807046,33.1104955 L26.6148128,33.1626584 L26.6148128,33.1626584 C26.8238689,33.2485678 27.0231711,33.3538368 27.2101579,33.4759114 L27.3301795,33.5577713 L27.3301795,33.5577713 L27.4114022,33.6172791 L31.7354592,30.7020162 L31.6782293,30.5736929 L31.5934121,30.4306209 Z M36.0733175,31.3721741 L35.8602916,31.0563503 C35.4549474,30.4554027 34.6648377,30.2691862 34.0394453,30.6045401 L33.9167259,30.6785968 L28.2460435,34.5041805 L28.3150103,34.6135483 L28.4083894,34.7752137 L28.4841008,34.9224648 L28.4841008,34.9224648 L28.5911919,35.1658733 L28.6310021,35.2710972 L28.6310021,35.2710972 L28.6758448,35.4039315 C28.707829,35.5055817 28.7345581,35.60463 28.7567902,35.7037243 L28.7968703,35.9112409 L28.8331741,36.2159641 L28.8331741,36.2159641 L28.8430144,36.4222341 L28.8466238,36.6141924 L36.2159388,31.6435267 L36.1581813,31.5153365 L36.0733175,31.3721741 Z"/>
    <path fill="#FFF" fill-rule="nonzero" d="M12.25,0.4 C13.1336556,0.4 13.85,1.1163444 13.8499999,1.9995962 L13.8499999,1.9995962 L13.85,3.357 L14.0758176,3.42369835 C14.5303304,3.56854121 14.9708705,3.75151012 15.3932618,3.97032577 L15.3932618,3.97032577 L15.595,4.08 L16.5558135,3.12078464 C17.1438971,2.532701 18.0758757,2.49810785 18.7044175,3.01700518 L18.7044175,3.01700518 L18.8185552,3.12078464 L19.8792154,4.18144481 C20.5040542,4.80628368 20.5040542,5.81934765 19.8791402,6.44426167 L19.8791402,6.44426167 L18.919,7.404 L19.0298009,7.60698277 C19.2486871,8.02954378 19.4316981,8.47026643 19.5765525,8.92496966 L19.5765525,8.92496966 L19.643,9.149 L21,9.15 C21.8345636,9.15 22.5198898,9.78896152 22.5934613,10.6043674 L22.5934613,10.6043674 L22.6,10.75 L22.6,12.25 C22.6,13.1336556 21.8836556,13.85 21.0004038,13.8499999 L21.0004038,13.8499999 L19.642,13.85 L19.5763017,14.0758176 C19.4314588,14.5303304 19.2484899,14.9708705 19.0296742,15.3932618 L19.0296742,15.3932618 L18.919,15.595 L19.8792154,16.5558135 C20.467299,17.1438971 20.5018922,18.0758757 19.9829948,18.7044175 L19.9829948,18.7044175 L19.8792154,18.8185552 L18.8185552,19.8792154 C18.1937163,20.5040542 17.1806524,20.5040542 16.5557383,19.8791402 L16.5557383,19.8791402 L15.595,18.919 L15.3932618,19.0296742 C14.9708705,19.2484899 14.5303304,19.4314588 14.0758176,19.5763017 L14.0758176,19.5763017 L13.851,19.642 L13.85,21 C13.85,21.8345636 13.2110385,22.5198898 12.3956326,22.5934613 L12.3956326,22.5934613 L12.25,22.6 L10.75,22.6 C9.8663444,22.6 9.15,21.8836556 9.15,21.0000737 L9.15,21.0000737 L9.149,19.643 L8.92496966,19.5765525 C8.47026643,19.4316981 8.02954378,19.2486871 7.60698277,19.0298009 L7.60698277,19.0298009 L7.404,18.919 L6.44418651,19.8792154 C5.85610288,20.467299 4.92412434,20.5018922 4.29558248,19.9829948 L4.29558248,19.9829948 L4.18144481,19.8792154 L3.12078464,18.8185552 C2.49594578,18.1937163 2.49594578,17.1806524 3.12085981,16.5557383 L3.12085981,16.5557383 L4.08,15.595 L3.97032577,15.3932618 C3.75151012,14.9708705 3.56854121,14.5303304 3.42369835,14.0758176 L3.42369835,14.0758176 L3.357,13.851 L2,13.85 C1.16543638,13.85 0.480110215,13.2110385 0.406538677,12.3956326 L0.406538677,12.3956326 L0.4,12.25 L0.4,10.75 C0.4,9.8663444 1.1163444,9.15 1.9999263,9.15 L1.9999263,9.15 L3.356,9.149 L3.4234475,8.92496966 C3.56830186,8.47026643 3.75131294,8.02954378 3.97019908,7.60698277 L3.97019908,7.60698277 L4.08,7.404 L3.12078464,6.44418651 C2.532701,5.85610288 2.49810785,4.92412434 3.01700518,4.29558248 L3.01700518,4.29558248 L3.12078464,4.18144481 L4.18144481,3.12078464 C4.80628368,2.49594578 5.81934765,2.49594578 6.44426167,3.12085981 L6.44426167,3.12085981 L7.404,4.08 L7.60698277,3.97019908 C8.02954378,3.75131294 8.47026643,3.56830186 8.92496966,3.4234475 L8.92496966,3.4234475 L9.149,3.356 L9.15,2 C9.15,1.16543638 9.78896152,0.480110215 10.6043674,0.406538677 L10.6043674,0.406538677 L10.75,0.4 Z M12.25,1.6 L10.75,1.6 C10.5290861,1.6 10.35,1.7790861 10.35,2.0000737 L10.35,2.0000737 L10.3497764,3.8202638 C10.349742,4.10044596 10.1557998,4.34330294 9.88256554,4.4053115 C9.08055703,4.5873216 8.31928121,4.90414477 7.62707031,5.34037098 C7.3899572,5.48979792 7.0809839,5.4551647 6.88283849,5.25694907 L6.88283849,5.25694907 L5.59565838,3.96931278 C5.43944866,3.81310306 5.18618267,3.81310306 5.02997295,3.96931278 L5.02997295,3.96931278 L3.96931278,5.02997295 C3.81310306,5.18618267 3.81310306,5.43944866 3.96923761,5.59558322 L3.96923761,5.59558322 L5.25694907,6.88283849 C5.4551647,7.0809839 5.48979792,7.3899572 5.34037098,7.62707031 C4.90414477,8.31928121 4.5873216,9.08055703 4.4053115,9.88256554 C4.34330294,10.1557998 4.10044596,10.349742 3.8202638,10.3497764 L3.8202638,10.3497764 L2,10.35 C1.7790861,10.35 1.6,10.5290861 1.6,10.75 L1.6,10.75 L1.6,12.25 C1.6,12.4709139 1.7790861,12.65 2.0004038,12.6500001 L2.0004038,12.6500001 L3.82082127,12.6512253 C4.10085036,12.6514137 4.34351088,12.8452823 4.40552143,13.1183592 C4.58756539,13.9200293 4.9043133,14.6809862 5.34037098,15.3729297 C5.48979792,15.6100428 5.4551647,15.9190161 5.25694907,16.1171615 L5.25694907,16.1171615 L3.96931278,17.4043416 C3.81310306,17.5605513 3.81310306,17.8138173 3.96931278,17.970027 L3.96931278,17.970027 L5.02997295,19.0306872 C5.18618267,19.1868969 5.43944866,19.1868969 5.59558322,19.0307624 L5.59558322,19.0307624 L6.88283849,17.7430509 C7.0809839,17.5448353 7.3899572,17.5102021 7.62707031,17.659629 C8.31928121,18.0958552 9.08055703,18.4126784 9.88256554,18.5946885 C10.1557998,18.6566971 10.349742,18.899554 10.3497764,19.1797362 L10.3497764,19.1797362 L10.35,21 C10.35,21.2209139 10.5290861,21.4 10.75,21.4 L10.75,21.4 L12.25,21.4 C12.4709139,21.4 12.65,21.2209139 12.6500001,20.9995962 L12.6500001,20.9995962 L12.6512253,19.1791787 C12.6514137,18.8991496 12.8452823,18.6564891 13.1183592,18.5944786 C13.9200293,18.4124346 14.6809862,18.0956867 15.3729297,17.659629 C15.6100428,17.5102021 15.9190161,17.5448353 16.1171615,17.7430509 L16.1171615,17.7430509 L17.4043416,19.0306872 C17.5605513,19.1868969 17.8138173,19.1868969 17.970027,19.0306872 L17.970027,19.0306872 L19.0306872,17.970027 C19.1868969,17.8138173 19.1868969,17.5605513 19.0307624,17.4044168 L19.0307624,17.4044168 L17.7430509,16.1171615 C17.5448353,15.9190161 17.5102021,15.6100428 17.659629,15.3729297 C18.0956867,14.6809862 18.4124346,13.9200293 18.5944786,13.1183592 C18.6564891,12.8452823 18.8991496,12.6514137 19.1791787,12.6512253 L19.1791787,12.6512253 L21,12.65 C21.2209139,12.65 21.4,12.4709139 21.4,12.25 L21.4,12.25 L21.4,10.75 C21.4,10.5290861 21.2209139,10.35 20.9999263,10.35 L20.9999263,10.35 L19.1797362,10.3497764 C18.899554,10.349742 18.6566971,10.1557998 18.5946885,9.88256554 C18.4126784,9.08055703 18.0958552,8.31928121 17.659629,7.62707031 C17.5102021,7.3899572 17.5448353,7.0809839 17.7430509,6.88283849 L17.7430509,6.88283849 L19.0306872,5.59565838 C19.1868969,5.43944866 19.1868969,5.18618267 19.0306872,5.02997295 L19.0306872,5.02997295 L17.970027,3.96931278 C17.8138173,3.81310306 17.5605513,3.81310306 17.4044168,3.96923761 L17.4044168,3.96923761 L16.1171615,5.25694907 C15.9190161,5.4551647 15.6100428,5.48979792 15.3729297,5.34037098 C14.6809862,4.9043133 13.9200293,4.58756539 13.1183592,4.40552143 C12.8452823,4.34351088 12.6514137,4.10085036 12.6512253,3.82082127 L12.6512253,3.82082127 L12.65,2 C12.65,1.7790861 12.4709139,1.6 12.25,1.6 L12.25,1.6 Z M11.5,7 C13.9852814,7 16,9.01471863 16,11.5 C16,13.9852814 13.9852814,16 11.5,16 C9.01471863,16 7,13.9852814 7,11.5 C7,9.01471863 9.01471863,7 11.5,7 Z M11.5,8.2 C9.67746033,8.2 8.2,9.67746033 8.2,11.5 C8.2,13.3225397 9.67746033,14.8 11.5,14.8 C13.3225397,14.8 14.8,13.3225397 14.8,11.5 C14.8,9.67746033 13.3225397,8.2 11.5,8.2 Z" transform="translate(12 5)"/>
    <path fill="#FFF" fill-rule="nonzero" d="M8.02086177,1.09237979 C8.21365341,0.562689129 8.77314797,0.272473168 9.30830981,0.404074823 L9.30830981,0.404074823 L9.42247241,0.438798021 L10.4457131,0.81122719 C11.0132389,1.01778966 11.3058574,1.64531211 11.0993962,2.21255918 L11.0993962,2.21255918 L10.811842,3.00260691 L10.9821479,3.13427049 C11.1438698,3.26662277 11.2977877,3.40787519 11.4432879,3.55733083 L11.4432879,3.55733083 L11.5864494,3.7134046 L12.349177,3.35814372 C12.8574426,3.12113555 13.4547565,3.30839706 13.741853,3.77460739 L13.741853,3.77460739 L13.8024175,3.88708 L14.2626107,4.87396765 C14.5178503,5.42133065 14.2810374,6.07196857 13.7337558,6.32717021 L13.7337558,6.32717021 L12.9706589,6.68185136 L12.998832,6.89350034 C13.0197944,7.10115464 13.0290478,7.30998501 13.0264526,7.51907176 L13.0264526,7.51907176 L13.0178511,7.73340873 L13.807621,8.02086177 C14.3373116,8.21365341 14.6275276,8.77314797 14.4959259,9.30830981 L14.4959259,9.30830981 L14.4612027,9.42247241 L14.0887736,10.4457131 C13.8822111,11.0132389 13.2546886,11.3058574 12.6874416,11.0993962 L12.6874416,11.0993962 L11.8964534,10.8114997 L11.7657303,10.9821479 C11.633378,11.1438698 11.4921256,11.2977877 11.3426699,11.4432879 L11.3426699,11.4432879 L11.1856558,11.5861071 L11.541857,12.349177 C11.7788652,12.8574426 11.5916037,13.4547565 11.1253934,13.741853 L11.1253934,13.741853 L11.0129208,13.8024175 L10.0260331,14.2626107 C9.4786701,14.5178503 8.82803218,14.2810374 8.57283054,13.7337558 L8.57283054,13.7337558 L8.21720899,12.9703166 L8.00687634,12.998794 C7.79934852,13.019758 7.59064526,13.0290271 7.38168466,13.0264619 L7.38168466,13.0264619 L7.16693334,13.0169112 L6.87913898,13.807621 C6.68634734,14.3373116 6.12685278,14.6275276 5.59169094,14.4959259 L5.59169094,14.4959259 L5.47752834,14.4612027 L4.45428761,14.0887736 C3.8867619,13.8822111 3.59414337,13.2546886 3.80074788,12.6870475 L3.80074788,12.6870475 L4.08815829,11.8973929 L3.91843772,11.7662089 C3.7565998,11.6337985 3.60257442,11.4924765 3.45697642,11.3429407 L3.45697642,11.3429407 L3.3129532,11.1853135 L2.55082378,11.541857 C2.04255814,11.7788652 1.44524422,11.5916037 1.15814777,11.1253934 L1.15814777,11.1253934 L1.0975833,11.0129208 L0.637390028,10.0260331 C0.382150469,9.4786701 0.618963308,8.82803218 1.166245,8.57283054 L1.166245,8.57283054 L1.92874375,8.21686672 L1.90120676,8.00687634 C1.88024279,7.79934852 1.87097368,7.59064526 1.87353882,7.38168466 L1.87353882,7.38168466 L1.88214918,7.16659106 L1.09237979,6.87913898 C0.562689129,6.68634734 0.272473168,6.12685278 0.404074823,5.59169094 L0.404074823,5.59169094 L0.438798021,5.47752834 L0.81122719,4.45428761 C1.01778966,3.8867619 1.64531211,3.59414337 2.21295328,3.80074788 L2.21295328,3.80074788 L3.00166748,4.08781602 L3.1337919,3.91843772 C3.2662022,3.7565998 3.4075243,3.60257442 3.5570601,3.45697642 L3.5570601,3.45697642 L3.71374688,3.31261093 L3.35814372,2.55082378 C3.12113555,2.04255814 3.30839706,1.44524422 3.77460739,1.15814777 L3.77460739,1.15814777 L3.88708,1.0975833 L4.87396765,0.637390028 C5.42133065,0.382150469 6.07196857,0.618963308 6.32717021,1.166245 L6.32717021,1.166245 L6.68219364,1.92840147 L6.89350034,1.90116878 C7.10115464,1.88020631 7.30998501,1.87095291 7.51907176,1.87354814 L7.51907176,1.87354814 L7.733751,1.88120923 Z M9.07155973,1.40292268 C9.03650536,1.39016393 8.99774518,1.4082381 8.98502844,1.443177 L8.98502844,1.443177 L8.56382248,2.60129389 C8.48191386,2.82650379 8.25499785,2.96500003 8.01725489,2.93488671 C7.50713279,2.87027294 6.99210071,2.89357749 6.49204826,3.00181986 C6.25792403,3.05249886 6.0198935,2.93440146 5.91861881,2.71731633 L5.91861881,2.71731633 L5.39733632,1.59993266 C5.38157093,1.56612368 5.34138297,1.55149646 5.307574,1.56726184 L5.307574,1.56726184 L4.32068634,2.02745511 C4.28687737,2.0432205 4.27225015,2.08340846 4.28805344,2.11729875 L4.28805344,2.11729875 L4.80890716,3.23478338 C4.9101059,3.45190391 4.84757068,3.71015743 4.65825616,3.85693116 C4.25391018,4.17041671 3.90500161,4.54997429 3.62659847,4.98228343 C3.49684839,5.18376157 3.24489531,5.26856565 3.01972467,5.18654916 L3.01972467,5.18654916 L1.86192515,4.7648305 C1.82687078,4.75207175 1.78811059,4.77014592 1.77535185,4.80520029 L1.77535185,4.80520029 L1.40292268,5.82844102 C1.39016393,5.86349539 1.4082381,5.90225557 1.44357105,5.91511581 L1.44357105,5.91511581 L2.60155822,6.33734676 C2.82651661,6.41937219 2.96481007,6.64611199 2.93477022,6.88366631 C2.87030082,7.3934886 2.89364293,7.90820233 3.00181986,8.40795249 C3.05249886,8.64207672 2.93440146,8.88010725 2.71731633,8.98138194 L2.71731633,8.98138194 L1.59993266,9.50266443 C1.56612368,9.51842982 1.55149646,9.55861778 1.56726184,9.59242676 L1.56726184,9.59242676 L2.02745511,10.5793144 C2.0432205,10.6131234 2.08340846,10.6277506 2.11729875,10.6119473 L2.11729875,10.6119473 L3.23478338,10.0910936 C3.45190391,9.98989485 3.71015743,10.0524301 3.85693116,10.2417446 C4.17041671,10.6460906 4.54997429,10.9949991 4.98228343,11.2734023 C5.18376157,11.4031524 5.26856565,11.6551054 5.18654916,11.8802761 L5.18654916,11.8802761 L4.7648305,13.0380756 C4.75207175,13.07313 4.77014592,13.1118902 4.80520029,13.1246489 L4.80520029,13.1246489 L5.82844102,13.4970781 C5.86349539,13.5098368 5.90225557,13.4917626 5.91511581,13.4564297 L5.91511581,13.4564297 L6.33734676,12.2984425 C6.41937219,12.0734841 6.64611199,11.9351907 6.88366631,11.9652305 C7.3934886,12.0296999 7.90820233,12.0063578 8.40795249,11.8981809 C8.64207672,11.8475019 8.88010725,11.9655993 8.98138194,12.1826844 L8.98138194,12.1826844 L9.50266443,13.3000681 C9.51842982,13.3338771 9.55861778,13.3485043 9.59242676,13.3327389 L9.59242676,13.3327389 L10.5793144,12.8725456 C10.6131234,12.8567803 10.6277506,12.8165923 10.6119473,12.782702 L10.6119473,12.782702 L10.0910936,11.6652174 C9.98989485,11.4480968 10.0524301,11.1898433 10.2417446,11.0430696 C10.6458461,10.7297736 10.9945788,10.350484 11.2728999,9.91849731 C11.402585,9.7172109 11.6542695,9.63241146 11.8793225,9.7141768 L11.8793225,9.7141768 L13.0380756,10.1351703 C13.07313,10.147929 13.1118902,10.1298548 13.1246489,10.0948005 L13.1246489,10.0948005 L13.4970781,9.07155973 C13.5098368,9.03650536 13.4917626,8.99774518 13.4568238,8.98502844 L13.4568238,8.98502844 L12.2987069,8.56382248 C12.073497,8.48191386 11.9350007,8.25499785 11.965114,8.01725489 C12.0297278,7.50713279 12.0064233,6.99210071 11.8981809,6.49204826 C11.8475019,6.25792403 11.9655993,6.0198935 12.1826844,5.91861881 L12.1826844,5.91861881 L13.3000681,5.39733632 C13.3338771,5.38157093 13.3485043,5.34138297 13.3327389,5.307574 L13.3327389,5.307574 L12.8725456,4.32068634 C12.8567803,4.28687737 12.8165923,4.27225015 12.782702,4.28805344 L12.782702,4.28805344 L11.6652174,4.80890716 C11.4480968,4.9101059 11.1898433,4.84757068 11.0430696,4.65825616 C10.7297736,4.25415461 10.350484,3.90542191 9.91849731,3.62710089 C9.7172109,3.49741578 9.63241146,3.2457313 9.7141768,3.02067825 L9.7141768,3.02067825 L10.1351703,1.86192515 C10.147929,1.82687078 10.1298548,1.78811059 10.0948005,1.77535185 L10.0948005,1.77535185 Z M7.45000038,5.20000029 C8.69264111,5.20000029 9.70000029,6.20735964 9.70000029,7.45000038 C9.70000029,8.69264111 8.69264111,9.70000029 7.45000038,9.70000029 C6.20735964,9.70000029 5.20000029,8.69264111 5.20000029,7.45000038 C5.20000029,6.20735964 6.20735964,5.20000029 7.45000038,5.20000029 Z M7.45000038,6.28000033 C6.80382719,6.28000033 6.28000033,6.80382719 6.28000033,7.45000038 C6.28000033,8.0961735 6.80382713,8.62000024 7.45000038,8.62000024 C8.09617356,8.62000024 8.62000024,8.09617356 8.62000024,7.45000038 C8.62000024,6.80382713 8.0961735,6.28000033 7.45000038,6.28000033 Z" transform="translate(33 1)"/>
  </g>
</svg>
