<svg xmlns="http://www.w3.org/2000/svg" width="48" height="48" viewBox="0 0 48 48">
  <path fill="#FFF" d="M9.6,8.4 L9.6,14.4 L19,14.4 L19,15.6 L9.6,15.599 L9.6,37.6 L7,37.6 C5.18482412,37.6 3.70187716,39.0224411 3.6050309,40.8134515 L3.6,41 C3.6,42.8151759 5.0224411,44.2981228 6.81345152,44.3949691 L7,44.4 L40,44.4 C40.1932997,44.4 40.3545749,44.2628872 40.3918734,44.080614 L40.4,44 L40.4,27 L41.6,27 L41.6,44 C41.6,44.8345636 40.9610385,45.5198898 40.1456326,45.5934613 L40,45.6 L7,45.6 C4.53005987,45.6 2.51478728,43.6533369 2.40473351,41.2105619 L2.4,41 L2.4,13 C2.4,10.5300599 4.34666314,8.51478728 6.78943815,8.40473351 L7,8.4 L9.6,8.4 Z M29.4,27 L30.6,27 L30.6,31 L33,31 C33.5522847,31 34,31.4477153 34,32 L34,38 C34,38.5522847 33.5522847,39 33,39 L27,39 C26.4477153,39 26,38.5522847 26,38 L26,35.599 L21,35.599 L21,38 C21,38.5522847 20.5522847,39 20,39 L14,39 C13.4477153,39 13,38.5522847 13,38 L13,32 C13,31.4477153 13.4477153,31 14,31 L20,31 C20.5522847,31 21,31.4477153 21,32 L21,34.399 L26,34.399 L26,32 C26,31.4477153 26.4477153,31 27,31 L29.4,31 L29.4,27 Z M8.4,9.6 L7,9.6 C5.18482412,9.6 3.70187716,11.0224411 3.6050309,12.8134515 L3.6,13 L3.59998401,37.9015854 C4.39718248,37.0272882 5.52706449,36.4616069 6.78943815,36.4047335 L7,36.4 L8.4,36.4 L8.4,9.6 Z M19.8,32.2 L14.2,32.2 L14.2,37.8 L19.8,37.8 L19.8,32.2 Z M32.8,32.2 L27.2,32.2 L27.2,37.8 L32.8,37.8 L32.8,32.2 Z M20,20 C20.5522847,20 21,20.4477153 21,21 L21,27 C21,27.5522847 20.5522847,28 20,28 L14,28 C13.4477153,28 13,27.5522847 13,27 L13,21 C13,20.4477153 13.4477153,20 14,20 L20,20 Z M19.8,21.2 L14.2,21.2 L14.2,26.8 L19.8,26.8 L19.8,21.2 Z M35,1.4 C35.8836556,1.4 36.6,2.1163444 36.5999999,2.99975386 L36.5999999,2.99975386 L36.6,4.757 L36.9171623,4.85141634 C37.4319255,5.01542196 37.9308712,5.22260337 38.4092741,5.47038241 L38.4092741,5.47038241 L38.695,5.626 L39.939697,4.38334778 C40.5277806,3.79526414 41.4597591,3.76067098 42.088301,4.27956831 L42.088301,4.27956831 L42.2024387,4.38334778 L43.6166522,5.79756134 C44.2414911,6.42240021 44.2414911,7.43546417 43.6167486,8.06020662 L43.6167486,8.06020662 L42.373,9.304 L42.5297425,9.5909671 C42.7775911,10.0695375 42.9848141,10.5686632 43.148831,11.0836141 L43.148831,11.0836141 L43.242,11.4 L45,11.4 C45.8345636,11.4 46.5198898,12.0389615 46.5934613,12.8543674 L46.5934613,12.8543674 L46.6,13 L46.6,15 C46.6,15.8836556 45.8836556,16.6 45.0002461,16.5999999 L45.0002461,16.5999999 L43.242,16.6 L43.1485837,16.9171623 C42.984578,17.4319255 42.7773966,17.9308712 42.5296176,18.4092741 L42.5296176,18.4092741 L42.373,18.695 L43.6166522,19.939697 C44.2047359,20.5277806 44.239329,21.4597591 43.7204317,22.088301 L43.7204317,22.088301 L43.6166522,22.2024387 L42.2024387,23.6166522 C41.5775998,24.2414911 40.5645358,24.2414911 39.9397934,23.6167486 L39.9397934,23.6167486 L38.695,22.373 L38.4092741,22.5296176 C37.9308712,22.7773966 37.4319255,22.984578 36.9171623,23.1485837 L36.9171623,23.1485837 L36.6,23.242 L36.6,25 C36.6,25.8345636 35.9610385,26.5198898 35.1456326,26.5934613 L35.1456326,26.5934613 L35,26.6 L33,26.6 C32.1163444,26.6 31.4,25.8836556 31.4,24.9999772 L31.4,24.9999772 L31.4,23.242 L31.0836141,23.148831 C30.5686632,22.9848141 30.0695375,22.7775911 29.5909671,22.5297425 L29.5909671,22.5297425 L29.304,22.373 L28.060303,23.6166522 C27.4722194,24.2047359 26.5402409,24.239329 25.911699,23.7204317 L25.911699,23.7204317 L25.7975613,23.6166522 L24.3833478,22.2024387 C23.7585089,21.5775998 23.7585089,20.5645358 24.3832514,19.9397934 L24.3832514,19.9397934 L25.626,18.695 L25.4703824,18.4092741 C25.2226034,17.9308712 25.015422,17.4319255 24.8514163,16.9171623 L24.8514163,16.9171623 L24.757,16.6 L23,16.6 C22.1654364,16.6 21.4801102,15.9610385 21.4065387,15.1456326 L21.4065387,15.1456326 L21.4,15 L21.4,13 C21.4,12.1163444 22.1163444,11.4 23.0000228,11.4 L23.0000228,11.4 L24.757,11.4 L24.851169,11.0836141 C25.0151859,10.5686632 25.2224089,10.0695375 25.4702575,9.5909671 L25.4702575,9.5909671 L25.626,9.304 L24.3833478,8.06030304 C23.7952641,7.4722194 23.760671,6.54024086 24.2795683,5.911699 L24.2795683,5.911699 L24.3833478,5.79756134 L25.7975613,4.38334778 C26.4224002,3.75850891 27.4354642,3.75850891 28.0602066,4.38325138 L28.0602066,4.38325138 L29.304,5.626 L29.5909671,5.47025748 C30.0695375,5.22240893 30.5686632,5.01518594 31.0836141,4.85116899 L31.0836141,4.85116899 L31.4,4.757 L31.4,3 C31.4,2.16543638 32.0389615,1.48011021 32.8543674,1.40653868 L32.8543674,1.40653868 L33,1.4 Z M35,2.6 L33,2.6 C32.7790861,2.6 32.6,2.7790861 32.6,2.99997716 L32.6,2.99997716 L32.6000846,5.22297438 C32.6000953,5.50320142 32.4061314,5.74611596 32.1328509,5.8081238 C31.2069092,6.01822168 30.3279845,6.38393529 29.5288034,6.88746218 C29.2917712,7.0368052 28.9829393,7.0022355 28.7847937,6.80418001 L28.7847937,6.80418001 L27.2117749,5.23187591 C27.0555652,5.0756662 26.8022992,5.0756662 26.6460895,5.23187591 L26.6460895,5.23187591 L25.2318759,6.64608948 C25.0756662,6.80229919 25.0756662,7.05556518 25.2319723,7.21187132 L25.2319723,7.21187132 L26.80418,8.78479373 C27.0022355,8.98293925 27.0368052,9.2917712 26.8874622,9.52880345 C26.3839353,10.3279845 26.0182217,11.2069092 25.8081238,12.1328509 C25.746116,12.4061314 25.5032014,12.6000953 25.2229744,12.6000846 L25.2229744,12.6000846 L23,12.6 C22.7790861,12.6 22.6,12.7790861 22.6,13 L22.6,13 L22.6,15 C22.6,15.2209139 22.7790861,15.4 23.0002461,15.4000001 L23.0002461,15.4000001 L25.2234696,15.4009121 C25.5035703,15.401027 25.7463237,15.5949287 25.8083348,15.8680789 C26.0184668,16.7936804 26.3841047,17.6722844 26.8874622,18.4711966 C27.0368052,18.7082288 27.0022355,19.0170607 26.80418,19.2152063 L26.80418,19.2152063 L25.2318759,20.7882251 C25.0756662,20.9444348 25.0756662,21.1977008 25.2318759,21.3539105 L25.2318759,21.3539105 L26.6460895,22.7681241 C26.8022992,22.9243338 27.0555652,22.9243338 27.2118713,22.7680277 L27.2118713,22.7680277 L28.7847937,21.19582 C28.9829393,20.9977645 29.2917712,20.9631948 29.5288034,21.1125378 C30.3279845,21.6160647 31.2069092,21.9817783 32.1328509,22.1918762 C32.4061314,22.253884 32.6000953,22.4967986 32.6000846,22.7770256 L32.6000846,22.7770256 L32.6,25 C32.6,25.2209139 32.7790861,25.4 33,25.4 L33,25.4 L35,25.4 C35.2209139,25.4 35.4,25.2209139 35.4000001,24.9997539 L35.4000001,24.9997539 L35.4009121,22.7765304 C35.401027,22.4964297 35.5949287,22.2536763 35.8680789,22.1916652 C36.7936804,21.9815332 37.6722844,21.6158953 38.4711966,21.1125378 C38.7082288,20.9631948 39.0170607,20.9977645 39.2152063,21.19582 L39.2152063,21.19582 L40.7882251,22.7681241 C40.9444348,22.9243338 41.1977008,22.9243338 41.3539105,22.7681241 L41.3539105,22.7681241 L42.7681241,21.3539105 C42.9243338,21.1977008 42.9243338,20.9444348 42.7680277,20.7881287 L42.7680277,20.7881287 L41.19582,19.2152063 C40.9977645,19.0170607 40.9631948,18.7082288 41.1125378,18.4711966 C41.6158953,17.6722844 41.9815332,16.7936804 42.1916652,15.8680789 C42.2536763,15.5949287 42.4964297,15.401027 42.7765304,15.4009121 L42.7765304,15.4009121 L45,15.4 C45.2209139,15.4 45.4,15.2209139 45.4,15 L45.4,15 L45.4,13 C45.4,12.7790861 45.2209139,12.6 45.0000228,12.6 L45.0000228,12.6 L42.7770256,12.6000846 C42.4967986,12.6000953 42.253884,12.4061314 42.1918762,12.1328509 C41.9817783,11.2069092 41.6160647,10.3279845 41.1125378,9.52880345 C40.9631948,9.2917712 40.9977645,8.98293925 41.19582,8.78479373 L41.19582,8.78479373 L42.7681241,7.2117749 C42.9243338,7.05556518 42.9243338,6.80229919 42.7681241,6.64608948 L42.7681241,6.64608948 L41.3539105,5.23187591 C41.1977008,5.0756662 40.9444348,5.0756662 40.7881287,5.23197231 L40.7881287,5.23197231 L39.2152063,6.80418001 C39.0170607,7.0022355 38.7082288,7.0368052 38.4711966,6.88746218 C37.6722844,6.3841047 36.7936804,6.01846675 35.8680789,5.80833483 C35.5949287,5.74632372 35.401027,5.50357027 35.4009121,5.22346957 L35.4009121,5.22346957 L35.4,3 C35.4,2.7790861 35.2209139,2.6 35,2.6 L35,2.6 Z M34,9 C36.7614237,9 39,11.2385763 39,14 C39,16.7614237 36.7614237,19 34,19 C31.2385763,19 29,16.7614237 29,14 C29,11.2385763 31.2385763,9 34,9 Z M34,10.2 C31.901318,10.2 30.2,11.901318 30.2,14 C30.2,16.098682 31.901318,17.8 34,17.8 C36.098682,17.8 37.8,16.098682 37.8,14 C37.8,11.901318 36.098682,10.2 34,10.2 Z"/>
</svg>
