<svg xmlns="http://www.w3.org/2000/svg" viewBox="0 0 34 34">
  <path fill="#9DA3A5" d="M6.02752908,14.0434523 C6.02752908,14.1485436 5.96571157,14.2010884 5.84207486,14.2010884 C5.69371071,14.2273612 5.61952975,14.1748164 5.61952975,14.0434523 C5.61952975,13.9646339 5.68134725,13.9252252 5.80498396,13.9252252 C5.95334811,13.8989524 6.02752908,13.9383611 6.02752908,14.0434523 Z M4.73936047,14.2004316 C4.59099643,14.1741587 4.53536065,14.1084777 4.57245166,14.0033864 C4.60954278,13.8982952 4.68990547,13.8720227 4.81354218,13.9245685 C4.93717899,13.9508413 4.98663293,14.0165222 4.96190559,14.1216136 C4.93717825,14.2267048 4.86299729,14.2529772 4.73936047,14.2004316 Z M6.86380754,13.900923 C6.98744435,13.900923 7.05544348,13.9403316 7.06780715,14.01915 C7.08017082,14.0979684 7.02453515,14.1636495 6.90089834,14.2161951 C6.77726164,14.2424679 6.7092624,14.2030593 6.69689873,14.0979681 C6.68453506,13.9928768 6.74017073,13.9271958 6.86380754,13.900923 Z M8.89112906,0 C10.5362985,0 12.0604769,0.396963638 13.4637097,1.19090281 C14.8669425,1.984842 15.9737863,3.076492 16.7842742,4.46588552 C17.5947621,5.85527915 18,7.39351325 18,9.08063392 C18,11.1399137 17.4375056,12.9820731 16.3125001,14.6071674 C15.1874944,16.2322616 13.717751,17.3549244 11.9032259,17.9751894 C11.7096765,18.0248106 11.5584683,18 11.4495967,17.900758 C11.3407253,17.8015155 11.2862903,17.6774644 11.2862903,17.5286008 L11.2862903,14.4024809 C11.2862903,13.6085418 11.0806472,13.0379065 10.6693548,12.6905581 C11.2016156,12.6161264 11.6129032,12.5541007 11.9032259,12.5044796 C12.1935498,12.4548584 12.5564494,12.3432123 12.9919355,12.1695381 C13.4274215,11.9958639 13.7600795,11.7725719 13.9899194,11.4996553 C14.2197592,11.2267387 14.419354,10.8421802 14.5887097,10.3459682 C14.7580653,9.84975618 14.842742,9.2543108 14.842742,8.55961393 C14.842742,8.08821256 14.770162,7.70365409 14.625,7.40592683 C14.479838,7.10819967 14.2379049,6.77326163 13.8991936,6.40110261 C14.1895176,5.63197409 14.1653242,4.78842634 13.8266129,3.87043419 C13.5846762,3.79600232 13.2580665,3.83942021 12.8467741,4.00068913 C12.4354819,4.16195806 12.0725822,4.34183216 11.7580645,4.54031696 L11.3225807,4.8752584 C10.5725769,4.65196301 9.80443942,4.54031696 9.01814514,4.54031696 C8.23185096,4.54031696 7.47581004,4.65196301 6.75,4.8752584 C6.62903161,4.77601595 6.45967849,4.65816746 6.24193547,4.52170913 C6.02419245,4.38525079 5.69153453,4.22398431 5.24395165,4.0379048 C4.79636868,3.8518254 4.46371076,3.79600232 4.24596774,3.87043419 C3.88306266,4.78842634 3.8467727,5.63197409 4.13709679,6.40110261 C3.58064236,7.02136761 3.30241934,7.74086423 3.30241934,8.55961393 C3.30241934,9.2543108 3.3870959,9.84975618 3.5564516,10.3459682 C3.72580731,10.8421802 3.91935377,11.2267387 4.13709679,11.4996553 C4.35483982,11.7725719 4.66935281,11.9958639 5.08064519,12.1695381 C5.49193758,12.3432123 5.84878885,12.4610609 6.15120967,12.5230874 C6.4536306,12.5851139 6.85886845,12.6409369 7.36693547,12.6905581 C7.05241782,12.9882853 6.85887136,13.4100592 6.78629028,13.9558923 C6.5443536,14.0551348 6.29637224,14.1295655 6.04233873,14.1791867 C5.78830522,14.2288078 5.46774392,14.1791874 5.08064519,14.0303238 C4.69354646,13.8814601 4.37903347,13.5961425 4.13709679,13.1743623 C3.99193475,12.9014458 3.80443659,12.6843563 3.57459674,12.5230874 C3.34475689,12.3618185 3.14516212,12.2687801 2.97580641,12.2439696 L2.75806453,12.2067539 C2.22580375,12.2067539 2.20161051,12.3928305 2.68548387,12.7649896 C2.85483957,12.8642319 3.02419269,13.0254984 3.1935484,13.2487938 C3.3629041,13.4720892 3.48387063,13.670571 3.5564516,13.8442452 L3.70161293,14.1419709 C3.79838756,14.4396981 3.96774078,14.6878004 4.20967746,14.8862852 C4.45161414,15.08477 4.71774054,15.2088211 5.00806453,15.2584423 C5.29838852,15.3080635 5.57661155,15.3328738 5.84274199,15.3328738 C6.10887232,15.3328738 6.32661203,15.3204686 6.49596774,15.295658 L6.75,15.2584423 C6.75,15.5561695 6.75604831,16.0027536 6.76814514,16.598208 C6.78024197,17.1936624 6.78629028,17.5037902 6.78629028,17.5286008 C6.78629028,17.6774644 6.73185538,17.8015155 6.62298392,17.900758 C6.51411236,18 6.36290417,18.0248106 6.16935481,17.9751894 C4.33063601,17.3549244 2.84274761,16.2322616 1.70564519,14.6071674 C0.568542706,12.9820731 0,11.1399137 0,9.08063392 C0,6.50033157 0.852814049,4.34184183 2.55846779,2.60509987 C4.26412147,0.868357954 6.37498743,0 8.89112906,0 Z M3.59460987,12.819273 C3.64406455,12.7667273 3.70588238,12.7798636 3.78006408,12.858682 C3.85424611,12.9375 3.86660956,13.0031815 3.81715488,13.0557271 C3.7677002,13.1082727 3.70588238,13.0951365 3.63170067,13.0163181 C3.55751865,12.9375 3.54515508,12.8718186 3.59460987,12.819273 Z M3.57513711,12.8691909 C3.6245918,12.8166453 3.6864093,12.8035092 3.76059133,12.829782 C3.83477346,12.8823276 3.85950037,12.9348724 3.83477303,12.9874181 C3.81004569,13.0662365 3.76059175,13.0793727 3.68640962,13.0268271 C3.58750026,12.9742815 3.55040977,12.9217366 3.57513711,12.8691909 Z M4.62782306,13.9048639 C4.67727775,13.8260455 4.75145871,13.8391817 4.85036808,13.9442729 C4.94927755,14.0493642 4.97400446,14.1413176 4.92454978,14.220136 C4.85036776,14.2989546 4.76382333,14.2858183 4.66491386,14.1807271 C4.5660045,14.0756358 4.55364104,13.9836823 4.62782306,13.9048639 Z M3.58327646,12.7899057 C3.65745849,12.7110873 3.73163945,12.7373596 3.80582148,12.8687237 C3.88000361,12.9738149 3.88000361,13.0526322 3.80582148,13.1051778 C3.73163945,13.1577235 3.66364022,13.124883 3.60182186,13.0066553 C3.54000351,12.8884277 3.53382178,12.8161785 3.58327646,12.7899057 Z" transform="translate(8 8)"/>
</svg>
