<svg xmlns="http://www.w3.org/2000/svg" viewBox="0 0 34 34">
  <path fill="#9DA3A5" d="M11.4285714,10.990021 L11.0714286,12.5262605 L3.3333333,10.9112395 L3.6507937,9.375 L11.4285714,10.990021 Z M13.452381,7.5630252 L12.4206349,8.7841387 L6.3492063,3.7027311 L7.3412698,2.5210084 L13.452381,7.5630252 Z M12.1825397,9.1386555 L11.547619,10.5567227 L4.3253968,7.2478992 L5,5.7904412 L12.1825397,9.1386555 Z M10.2777778,0 L15,6.302521 L13.7301587,7.2478992 L9.0079365,0.94537815 L10.2777778,0 Z M11.0714286,12.9201681 L11.0714286,14.4957983 L3.1349206,14.4957983 L3.1349206,12.9201681 L11.0714286,12.9201681 Z M12.6587302,16.0714286 L12.6587302,11.3445378 L14.2460317,11.3445378 L14.2460317,17.6470588 L0,17.6470588 L0,11.3445378 L1.5873016,11.3445378 L1.5873016,16.0714286 L12.6587302,16.0714286 Z" transform="translate(10 8)"/>
</svg>
