<svg xmlns="http://www.w3.org/2000/svg" viewBox="0 0 34 34">
  <path fill="#9DA3A5" d="M9.55496362,10 L24.4450256,10 C25.3827618,9.99998881 26.1945879,10.6515099 26.3976037,11.5670063 C26.7992012,13.3780042 27,15.1890021 27,17 C27,18.8109981 26.7992012,20.6219961 26.3976035,22.4329942 C26.1945863,23.3484836 25.3827659,24 24.4450364,24 L9.55497444,24 C8.61723823,24.0000112 7.8054121,23.3484901 7.60239633,22.4329937 C7.20079878,20.6219958 7,18.8109979 7,17 C7,15.1890019 7.20079882,13.3780039 7.60239645,11.5670058 C7.80541368,10.6515164 8.61723406,10 9.55496362,10 Z M15,20.5 L20,17.0118421 L15,13.5 L15,20.5 Z"/>
</svg>
