<svg xmlns="http://www.w3.org/2000/svg" width="24" height="24" viewBox="0 0 24 24">
  <path d="M11.875,14.28125 C11.9791667,14.3229167 12.0833333,14.3229167 12.1875,14.28125 C12.2916667,14.2395833 12.3541667,14.1666667 12.375,14.0625 C12.4375,13.8958333 12.4739583,13.7291667 12.484375,13.5625 C12.4947917,13.3958333 12.4166667,13.28125 12.25,13.21875 C11.9166667,13.0729167 11.625,12.875 11.375,12.625 C10.8125,12.0416667 10.53125,11.3489583 10.53125,10.546875 C10.53125,9.74479167 10.8125,9.05208333 11.375,8.46875 L11.375,8.46875 L13.875,6 C14.4375,5.41666667 15.125,5.125 15.9375,5.125 C16.75,5.125 17.4427083,5.41145833 18.015625,5.984375 C18.5885417,6.55729167 18.875,7.25 18.875,8.0625 C18.875,8.875 18.5833333,9.5625 18,10.125 L18,10.125 L15.65625,12.5 C15.5729167,12.5833333 15.5416667,12.6927083 15.5625,12.828125 C15.5833333,12.9635417 15.59375,13.109375 15.59375,13.265625 C15.59375,13.421875 15.671875,13.53125 15.828125,13.59375 C15.984375,13.65625 16.1145833,13.6354167 16.21875,13.53125 L16.21875,13.53125 L18.8125,10.9375 C19.3333333,10.4166667 19.6822917,9.80729167 19.859375,9.109375 C20.0364583,8.41145833 20.0364583,7.71354167 19.859375,7.015625 C19.6822917,6.31770833 19.3333333,5.70833333 18.8125,5.1875 C18.2916667,4.66666667 17.6822917,4.31770833 16.984375,4.140625 C16.2864583,3.96354167 15.5885417,3.96354167 14.890625,4.140625 C14.1927083,4.31770833 13.5833333,4.66666667 13.0625,5.1875 L13.0625,5.1875 L10.59375,7.65625 C10.0729167,8.17708333 9.71875,8.78645833 9.53125,9.484375 C9.34375,10.1822917 9.34375,10.8802083 9.53125,11.578125 C9.71875,12.2760417 10.0729167,12.8854167 10.59375,13.40625 C10.96875,13.78125 11.3958333,14.0729167 11.875,14.28125 Z M7.015625,19.859375 C7.71354167,20.0364583 8.41145833,20.0364583 9.109375,19.859375 C9.80729167,19.6822917 10.4166667,19.3333333 10.9375,18.8125 L10.9375,18.8125 L13.40625,16.34375 C13.9270833,15.8229167 14.28125,15.2135417 14.46875,14.515625 C14.65625,13.8177083 14.65625,13.1197917 14.46875,12.421875 C14.28125,11.7239583 13.9270833,11.1145833 13.40625,10.59375 C13.03125,10.21875 12.6041667,9.92708333 12.125,9.71875 C12.0208333,9.67708333 11.9166667,9.67708333 11.8125,9.71875 C11.7083333,9.76041667 11.6458333,9.83333333 11.625,9.9375 C11.5625,10.1041667 11.5260417,10.2708333 11.515625,10.4375 C11.5052083,10.6041667 11.5833333,10.71875 11.75,10.78125 C12.0833333,10.9270833 12.375,11.125 12.625,11.375 C13.1875,11.9583333 13.46875,12.6510417 13.46875,13.453125 C13.46875,14.2552083 13.1875,14.9479167 12.625,15.53125 L12.625,15.53125 L10.125,18 C9.5625,18.5833333 8.875,18.875 8.0625,18.875 C7.25,18.875 6.55729167,18.5885417 5.984375,18.015625 C5.41145833,17.4427083 5.125,16.75 5.125,15.9375 C5.125,15.125 5.41666667,14.4375 6,13.875 L6,13.875 L8.34375,11.5 C8.42708333,11.4166667 8.45833333,11.3072917 8.4375,11.171875 C8.41666667,11.0364583 8.40625,10.890625 8.40625,10.734375 C8.40625,10.578125 8.328125,10.46875 8.171875,10.40625 C8.015625,10.34375 7.88541667,10.3645833 7.78125,10.46875 L7.78125,10.46875 L5.1875,13.0625 C4.66666667,13.5833333 4.31770833,14.1927083 4.140625,14.890625 C3.96354167,15.5885417 3.96354167,16.2864583 4.140625,16.984375 C4.31770833,17.6822917 4.66666667,18.2916667 5.1875,18.8125 C5.70833333,19.3333333 6.31770833,19.6822917 7.015625,19.859375 Z"/>
</svg>
