<?xml version="1.0" encoding="UTF-8"?>
<svg width="32px" height="32px" viewBox="0 0 32 32" version="1.1" xmlns="http://www.w3.org/2000/svg" xmlns:xlink="http://www.w3.org/1999/xlink">
    <!-- Generator: Sketch 52.3 (67297) - http://www.bohemiancoding.com/sketch -->
    <title>icon-feature-develop</title>
    <desc>Created with Sketch.</desc>
    <g id="icon-feature-develop" stroke="none" stroke-width="1" fill="none" fill-rule="evenodd">
        <path d="M4,5 L4,27 L28,27 L28,5 L4,5 Z M4,3 L28,3 C29.1045695,3 30,3.97004971 30,5.16666667 L30,26.8333333 C30,28.0299503 29.1045695,29 28,29 L4,29 C2.8954305,29 2,28.0299503 2,26.8333333 L2,5.16666667 C2,3.97004971 2.8954305,3 4,3 Z M9,9 L18,9 C18.5522847,9 19,9.44771525 19,10 C19,10.5522847 18.5522847,11 18,11 L9,11 C8.44771525,11 8,10.5522847 8,10 C8,9.44771525 8.44771525,9 9,9 Z M9,17 L23,17 C23.5522847,17 24,17.4477153 24,18 C24,18.5522847 23.5522847,19 23,19 L9,19 C8.44771525,19 8,18.5522847 8,18 C8,17.4477153 8.44771525,17 9,17 Z M15,21 L22,21 C22.5522847,21 23,21.4477153 23,22 C23,22.5522847 22.5522847,23 22,23 L15,23 C14.4477153,23 14,22.5522847 14,22 C14,21.4477153 14.4477153,21 15,21 Z M9,21 L11,21 C11.5522847,21 12,21.4477153 12,22 C12,22.5522847 11.5522847,23 11,23 L9,23 C8.44771525,23 8,22.5522847 8,22 C8,21.4477153 8.44771525,21 9,21 Z M9,13 L15,13 C15.5522847,13 16,13.4477153 16,14 C16,14.5522847 15.5522847,15 15,15 L9,15 C8.44771525,15 8,14.5522847 8,14 C8,13.4477153 8.44771525,13 9,13 Z M19,13 L22,13 C22.5522847,13 23,13.4477153 23,14 C23,14.5522847 22.5522847,15 22,15 L19,15 C18.4477153,15 18,14.5522847 18,14 C18,13.4477153 18.4477153,13 19,13 Z" id="develop" fill="#1A96DE" fill-rule="nonzero"></path>
    </g>
</svg>