<?xml version="1.0" encoding="UTF-8"?>
<svg width="24px" height="24px" viewBox="0 0 24 24" version="1.1" xmlns="http://www.w3.org/2000/svg" xmlns:xlink="http://www.w3.org/1999/xlink">
    <!-- Generator: Sketch 52.2 (67145) - http://www.bohemiancoding.com/sketch -->
    <title>icon_github</title>
    <desc>Created with Sketch.</desc>
    <g id="icon_github" stroke="none" stroke-width="1" fill="none" fill-rule="evenodd">
        <path d="M11.9241081,0.572756757 C5.4972973,0.572756757 0.286054054,5.78335135 0.286054054,12.2121081 C0.286054054,17.3539459 3.62075676,21.7161081 8.24562162,23.2553514 C8.82745946,23.3617297 9.04021622,23.0023784 9.04021622,22.6942703 C9.04021622,22.4179459 9.02983784,21.6862703 9.02464865,20.7145946 C5.78724324,21.4183784 5.10421622,19.1545946 5.10421622,19.1545946 C4.57556757,17.8099459 3.81210811,17.4518919 3.81210811,17.4518919 C2.75545946,16.7292973 3.89189189,16.7442162 3.89189189,16.7442162 C5.06010811,16.8265946 5.67437838,17.9435676 5.67437838,17.9435676 C6.71351351,19.7221622 8.3987027,19.2084324 9.06227027,18.9107027 C9.16735135,18.1582703 9.46832432,17.6458378 9.80108108,17.3552432 C7.21686486,17.0614054 4.49967568,16.0624865 4.49967568,11.603027 C4.49967568,10.3323243 4.95308108,9.29318919 5.69772973,8.48043243 C5.57772973,8.18594595 5.17881081,7.00281081 5.81189189,5.4 C5.81189189,5.4 6.78940541,5.08735135 9.01297297,6.59351351 C9.94183784,6.33535135 10.9368649,6.20627027 11.9267027,6.20172973 C12.9145946,6.20627027 13.9109189,6.33535135 14.8404324,6.59351351 C17.0620541,5.08735135 18.0376216,5.4 18.0376216,5.4 C18.6726486,7.00281081 18.2730811,8.18594595 18.1537297,8.48043243 C18.899027,9.29383784 19.3498378,10.3323243 19.3498378,11.603027 C19.3498378,16.0741622 16.6294054,17.0581622 14.0361081,17.3461622 C14.4544865,17.7055135 14.8268108,18.4157838 14.8268108,19.5016216 C14.8268108,21.0570811 14.8125405,22.3128649 14.8125405,22.6942703 C14.8125405,23.004973 15.0220541,23.3675676 15.612973,23.2540541 C20.2332973,21.7115676 23.5654054,17.3526486 23.5654054,12.2121081 C23.5628108,5.78335135 18.3515676,0.572756757 11.9241081,0.572756757 Z" id="Path" fill="#FFFFFF"></path>
    </g>
</svg>