<?xml version="1.0" encoding="UTF-8"?>
<svg width="32px" height="32px" viewBox="0 0 32 32" version="1.1" xmlns="http://www.w3.org/2000/svg" xmlns:xlink="http://www.w3.org/1999/xlink">
    <!-- Generator: Sketch 52.4 (67378) - http://www.bohemiancoding.com/sketch -->
    <title>icon-feature-freely</title>
    <desc>Created with Sketch.</desc>
    <g id="icon-feature-freely" stroke="none" stroke-width="1" fill="none" fill-rule="evenodd">
        <path d="M8.91038175,21.8666473 C7.26178759,24.0150819 5.29166034,26.7261995 3,30 C3.96027297,26.6390446 5.48246536,23.4942121 7.56657718,20.5655024 C7.21431836,20.0691264 7,19.5345632 7,19 C7,17 7.4,16.25 10.4,12.25 C12.4,9.58333333 14.4,7.58333333 16.4,6.25 L17.4,8.25 L19.4,5.25 C24.7333333,3.25 28.0666667,2.58333333 29.4,3.25 C30.5964095,3.84820477 28.6413085,6.86188992 26.1399888,9.40115169 C25.8294194,9.71643208 24.1660898,10.6660482 21.15,12.25 L24.15,12.125 C17.3833333,19.375 13.3333333,23 12,23 C11.0527884,23 9.88127446,22.5513951 8.91038175,21.8666473 Z M12.8787842,16.4118652 C15.7977964,13.0845687 16.2470703,12.3044434 23.2850342,7.69726563 C16.1298828,10.6761475 12.1591422,14.3846597 8.48590088,19.3751221 C8.37955141,19.5196084 7.96862793,20.0759888 8.33782959,20.4059448 C8.70703125,20.7359009 8.72192383,20.8079834 9.00793457,20.9766846 C9.29394531,21.1453857 9.62334461,20.8297726 9.82727051,20.546875 C10.9327393,19.0133057 11.6700439,17.7896729 12.8787842,16.4118652 Z" id="feather" fill="#1A96DE" fill-rule="nonzero"></path>
    </g>
</svg>