<?xml version="1.0" encoding="UTF-8"?>
<svg width="24px" height="24px" viewBox="0 0 24 24" version="1.1" xmlns="http://www.w3.org/2000/svg" xmlns:xlink="http://www.w3.org/1999/xlink">
    <!-- Generator: Sketch 52.2 (67145) - http://www.bohemiancoding.com/sketch -->
    <title>icon_twitter</title>
    <desc>Created with Sketch.</desc>
    <g id="icon_twitter" stroke="none" stroke-width="1" fill="none" fill-rule="evenodd">
        <g fill="#FFFFFF" fill-rule="nonzero" id="Shape">
            <path d="M11.9247568,0.172540541 C5.43437838,0.172540541 0.172540541,5.43372973 0.172540541,11.9241081 C0.172540541,18.4151351 5.43437838,23.6756757 11.9247568,23.6756757 C18.4151351,23.6756757 23.6756757,18.4151351 23.6756757,11.9241081 C23.6756757,5.43372973 18.4151351,0.172540541 11.9247568,0.172540541 Z M18.1751351,9.25686486 C18.180973,9.39048649 18.1842162,9.52475676 18.1842162,9.65967568 C18.1842162,13.776 15.0512432,18.5215135 9.32237838,18.5215135 C7.56324324,18.5215135 5.92605405,18.0058378 4.54832432,17.1223784 C4.79156757,17.1509189 5.04,17.1651892 5.29102703,17.1651892 C6.75048649,17.1651892 8.09318919,16.667027 9.15891892,15.8322162 C7.79610811,15.8069189 6.64605405,14.9059459 6.24972973,13.668973 C6.43978378,13.7059459 6.63502703,13.7247568 6.83545946,13.7247568 C7.11956757,13.7247568 7.73448649,13.6864865 7.99654054,13.6157838 C6.57081081,13.331027 5.83783784,12.0707027 5.83783784,10.5625946 C5.83783784,10.548973 5.83783784,10.5366486 5.83783784,10.523027 C5.83783784,10.7565405 6.39827027,10.8966486 6.90875676,10.9128649 C6.0732973,10.3543784 5.35394595,9.40086486 5.35394595,8.32021622 C5.35394595,7.75005405 5.42205405,7.21491892 5.68994595,6.75502703 C7.22659459,8.6387027 9.4787027,9.87891892 12.0668108,10.0092973 C12.0142703,9.78097297 11.9656216,9.54356757 11.9656216,9.29902703 C11.9656216,7.57945946 13.3498378,6.18486486 15.0694054,6.18486486 C15.9651892,6.18486486 16.7695135,6.56302703 17.3377297,7.16821622 C18.0467027,7.02810811 18.7115676,6.7692973 19.3128649,6.41254054 C19.0806486,7.13967568 18.5850811,7.75005405 17.9416216,8.136 C18.5714595,8.06075676 19.1714595,7.89275676 19.7299459,7.64497297 C19.3128649,8.26962162 18.7835676,8.81837838 18.1751351,9.25686486 Z"></path>
        </g>
    </g>
</svg>