<?xml version="1.0" encoding="UTF-8"?>
<svg width="24px" height="24px" viewBox="0 0 24 24" version="1.1" xmlns="http://www.w3.org/2000/svg" xmlns:xlink="http://www.w3.org/1999/xlink">
    <!-- Generator: Sketch 52 (66869) - http://www.bohemiancoding.com/sketch -->
    <title>icon-js</title>
    <desc>Created with Sketch.</desc>
    <g id="icon-js" stroke="none" stroke-width="1" fill="none" fill-rule="evenodd">
        <path d="M14.3952889,14.9376189 C15.0065753,15.9357162 15.8018738,16.6693562 17.2084588,16.6693562 C18.3900865,16.6693562 19.1449216,16.0787832 19.1449216,15.2627713 C19.1449216,14.2849057 18.3693731,13.9385583 17.0687637,13.3696621 L16.3558371,13.063778 C14.2979841,12.187071 12.9308991,11.0887786 12.9308991,8.76695007 C12.9308991,6.62817024 14.5605145,5 17.1073003,5 C18.9204461,5 20.2239457,5.63103639 21.1632746,7.28329199 L18.9426046,8.70914521 C18.4536718,7.83243816 17.9262025,7.48705412 17.1073003,7.48705412 C16.27202,7.48705412 15.7426239,8.01693201 15.7426239,8.70914521 C15.7426239,9.56465714 16.2725017,9.9110046 17.496038,10.4408825 L18.2089646,10.7462848 C20.6319516,11.7853272 22,12.8446013 22,15.2261615 C22,17.7936607 19.9830921,19.2002457 17.2744527,19.2002457 C14.6260266,19.2002457 12.9150028,17.9381729 12.0777957,16.2839905 L14.3952889,14.9376189 Z M4.32134685,15.1847347 C4.76933452,15.9795515 5.17685879,16.651533 6.15665117,16.651533 C7.09357162,16.651533 7.68462632,16.2849539 7.68462632,14.8595824 L7.68462632,5.16281702 L10.5363328,5.16281702 L10.5363328,14.8981189 C10.5363328,17.8509839 8.80507719,19.1949469 6.27804138,19.1949469 C3.99474939,19.1949469 2.67246321,18.0133192 2,16.5901154 L4.32134685,15.1847347 Z" id="Shape" fill="#1A96DE" fill-rule="nonzero"></path>
    </g>
</svg>