<?xml version="1.0" encoding="UTF-8"?>
<svg width="24px" height="24px" viewBox="0 0 24 24" version="1.1" xmlns="http://www.w3.org/2000/svg" xmlns:xlink="http://www.w3.org/1999/xlink">
    <!-- Generator: Sketch 51.3 (57544) - http://www.bohemiancoding.com/sketch -->
    <title>icon-swift</title>
    <desc>Created with Sketch.</desc>
    <defs></defs>
    <g id="icon-swift" stroke="none" stroke-width="1" fill="none" fill-rule="evenodd">
        <path d="M16.8400789,18.6854335 C14.3664082,20.1282294 10.9651773,20.2764691 7.54327502,18.7956768 C4.77262605,17.6054773 2.47370773,15.522093 1,13.141694 C1.70738395,13.7367938 2.53264755,14.2130876 3.41685099,14.6294434 C6.95069653,16.3018236 10.4838,16.187299 12.9701915,14.6337247 C12.9686014,14.6321192 12.9675414,14.6310489 12.9664813,14.6294434 C9.42956155,11.8915564 6.42320627,8.3204227 4.18328077,5.40432687 C3.71149713,4.92814003 3.35780515,4.33293324 3.00411318,3.79728995 C5.71571631,6.29703002 10.0191188,9.45127278 11.5514484,10.3444576 C8.30975781,6.89212977 5.42107017,2.60709044 5.53873782,2.72589632 C10.6673509,7.96352339 15.4424311,10.9395573 15.4424311,10.9395573 C15.6003814,11.0294645 15.7222893,11.1043871 15.8203457,11.1712823 C15.9237024,10.9058421 16.0143383,10.6302339 16.0906632,10.3444576 C16.9159268,7.3090207 15.9729956,3.85669289 13.9095715,1 C18.6841217,3.91636341 21.5139755,9.39186984 20.3346489,13.9749942 C20.3039069,14.0986166 20.2705147,14.2206334 20.2344724,14.3405096 C20.2482533,14.3570996 20.2620342,14.3742248 20.2758151,14.3918851 C22.6334082,17.3679191 21.9851761,20.5221618 21.690477,19.9270621 C20.4115039,17.4000288 18.0438401,18.1728022 16.8401319,18.6854871 L16.8400789,18.6854335 Z" id="Shape" fill="#1A96DE" fill-rule="nonzero"></path>
    </g>
</svg>