<?xml version="1.0" encoding="UTF-8"?>
<svg width="32px" height="32px" viewBox="0 0 32 32" version="1.1" xmlns="http://www.w3.org/2000/svg" xmlns:xlink="http://www.w3.org/1999/xlink">
    <!-- Generator: Sketch 52.4 (67378) - http://www.bohemiancoding.com/sketch -->
    <title>icon-feature-type-safety</title>
    <desc>Created with Sketch.</desc>
    <g id="icon-feature-type-safety" stroke="none" stroke-width="1" fill="none" fill-rule="evenodd">
        <path d="M11,19 L11,21 L4.84615385,21 C3.82655123,21 3,20.1045695 3,19 L3,13 C3,11.8954305 3.82655123,11 4.84615385,11 L11,11 L11,13 L5,13 L5,19 L11,19 Z M17,19 L25,19 L25,13 L17,13 L17,11 L25.1538462,11 C26.1734488,11 27,11.8954305 27,13 L27,19 C27,20.1045695 26.1734488,21 25.1538462,21 L17,21 L17,19 Z" id="input" fill="#1A96DE" fill-rule="nonzero"></path>
        <g id="caret" transform="translate(10.000000, 4.000000)" fill="#1A96DE" fill-rule="nonzero">
            <rect id="Rectangle" x="3" y="2" width="2" height="20"></rect>
            <path d="M8,21 L8,23 C6.82665377,23 5.64548218,23.2952929 4.4472136,23.8944272 L4,24.118034 L3.5527864,23.8944272 C2.35451782,23.2952929 1.17334623,23 -3.55271368e-15,23 L-3.55271368e-15,21 C1.34189464,21 2.67747046,21.2998762 4,21.8934259 C5.32252954,21.2998762 6.65810536,21 8,21 Z" id="Path-8" transform="translate(4.000000, 22.559017) scale(1, -1) translate(-4.000000, -22.559017) "></path>
            <path d="M8,-1.86517468e-14 L8,2 C6.82665377,2 5.64548218,2.2952929 4.4472136,2.89442719 L4,3.11803399 L3.5527864,2.89442719 C2.35451782,2.2952929 1.17334623,2 -3.55271368e-15,2 L-3.55271368e-15,-1.86517468e-14 C1.34189464,-1.86517468e-14 2.67747046,0.299876229 4,0.893425912 C5.32252954,0.299876229 6.65810536,-1.86517468e-14 8,-1.86517468e-14 Z" id="Path-8"></path>
        </g>
    </g>
</svg>