<?xml version="1.0" encoding="utf-8"?>
<!-- Generator: Adobe Illustrator 18.1.1, SVG Export Plug-In . SVG Version: 6.00 Build 0)  -->
<!DOCTYPE svg PUBLIC "-//W3C//DTD SVG 1.1//EN" "http://www.w3.org/Graphics/SVG/1.1/DTD/svg11.dtd">
<svg version="1.1" id="Layer_1" xmlns="http://www.w3.org/2000/svg" xmlns:xlink="http://www.w3.org/1999/xlink" x="0px" y="0px"
	 viewBox="0 0 2000 1000" enable-background="new 0 0 2000 1000" xml:space="preserve">
<g>
	<g>
		<path fill="#656F72" d="M948.1,441.2l-10.6-2.6c-11.2-3.1-15.7-6.4-15.7-15c0-9.7,7.1-13.9,21.2-13.9c12.3,0,23.8,3.1,29.8,5.5
			v-16.8c-6.6-3.3-16.1-6.6-31.5-6.6c-27.3,0-40.1,13.4-40.1,33.5c0,19.8,11.5,28,28.2,32l10.4,2.9c13.7,3.1,17.9,7.3,17.9,15.9
			c0,9.5-7.1,15-23.1,15c-15.9,0-24.3-3.5-33.5-7.1v16.3c9,5.5,22,7.9,36.6,7.9c25.6,0,41.4-11.5,41.4-33.7
			C978.9,454.4,970.1,446.5,948.1,441.2z M1055.2,391.8c-13.7,0-25.4,4.9-32.2,11.2h-0.9v-9h-20.9v145.5h21.6v-39
			c6,3.3,15,6.6,27.6,6.6c30.9,0,50.7-15.7,50.7-57.3v-3.1C1101.1,405.2,1079.7,391.8,1055.2,391.8z M1078.4,452.6
			c0,28.7-11.2,37.5-30.6,37.5c-10.8,0-20.3-3.5-24.9-7.1v-65.7c4.6-3.5,14.1-7.3,26-7.3c19,0,29.5,8.6,29.5,37.9V452.6z
			 M1124.2,373.1h22v-21.2h-22V373.1z M1124.4,506.4h21.6V394h-21.6V506.4z M1235.6,391.8c-13.7,0-28.2,5.3-37.7,11.9h-0.9V394H1176
			v112.4h21.6v-89.1c7.7-3.7,18.5-7.1,28-7.1c17,0,20.5,5.1,20.5,17.4v78.7h21.8v-83.8C1268,400.8,1257.4,391.8,1235.6,391.8z
			 M1386.6,445.6c0-35.5-14.8-53.8-46.5-53.8c-27.1,0-50.3,18.3-50.3,56.9v2.9c0,35.3,18.1,56.9,54.5,56.9
			c18.7,0,31.7-5.7,38.8-10.8v-15.2c-10.4,4.6-20.1,8.2-34.8,8.2c-22,0-34.6-8.6-36.2-34.4h74.5V445.6z M1312.1,440.3
			c1.8-25.1,15.2-31.3,27.1-31.3c16.3,0,24.7,8.6,24.7,31.3H1312.1z"/>
	</g>
</g>
<g>
	<g>
		<path fill="#656F72" d="M616,355.5c-3.6,4.8-5.4,11.3-5.4,19.3v34.8c0,4.1-0.3,8.3-0.8,12.5c-0.5,4.2-1.4,8.1-2.7,11.7
			c-1.3,3.6-3.2,6.7-5.7,9.3c-2.5,2.6-5.6,4.4-9.4,5.4v6.4c7.4,1.9,12.3,6,14.7,12.2c2.4,6.3,3.6,15,3.6,26.2v36.1
			c0,8.3,1.8,14.7,5.6,19.3c3.7,4.6,8.7,7,15.1,7h12.1v-7.5h-8.8c-3.1,0-5.6-0.8-7.5-2.3c-1.9-1.5-3.3-3.5-4.3-5.9
			c-0.9-2.4-1.6-5-1.9-7.9c-0.3-2.8-0.5-5.5-0.5-8.1V487c0-10-1.8-18-5.3-24.1c-3.5-6.1-7.5-9.8-12-11.2v-0.3c1.9-0.7,3.9-2,5.9-4
			c2.1-2,3.9-4.5,5.6-7.6c1.6-3.1,3-6.7,4.1-11c1.1-4.2,1.7-9,1.7-14.3V380c0-2.6,0.2-5.3,0.5-8.1c0.3-2.8,1-5.5,1.9-7.9
			c0.9-2.4,2.4-4.4,4.3-5.9c1.9-1.5,4.4-2.3,7.5-2.3h8.8v-7.5H631C624.6,348.3,619.6,350.7,616,355.5z M848.9,443.2
			c-2.4-2.6-4.3-5.7-5.6-9.3c-1.3-3.6-2.2-7.5-2.7-11.7c-0.5-4.2-0.8-8.4-0.8-12.5v-34.8c0-7.7-1.7-14.1-5.2-19
			c-3.4-4.9-8.6-7.3-15.5-7.3h-11.9v7.2h8.8c3.3,0,5.9,0.8,7.9,2.3c2,1.5,3.4,3.5,4.3,5.9c0.9,2.4,1.4,5,1.7,7.9
			c0.3,2.8,0.4,5.5,0.4,8.1v34.6c0,5.3,0.5,10.1,1.5,14.3c1,4.2,2.4,7.9,4.1,11c1.7,3.1,3.6,5.6,5.6,7.6c2,2,4,3.3,6.1,4v0.3
			c-4.5,1.4-8.5,5.1-12,11.2c-3.5,6.1-5.3,14.1-5.3,24.1v37.1c0,2.6-0.2,5.3-0.5,8.1c-0.3,2.8-1,5.5-1.9,7.9
			c-0.9,2.4-2.4,4.4-4.3,5.9c-1.9,1.5-4.4,2.3-7.5,2.3h-8.8v7.5h12.1c6.4,0,11.4-2.4,15.1-7.2c3.7-4.8,5.6-11.2,5.6-19.1v-36.1
			c0-11.2,1.2-19.9,3.6-26.2c2.4-6.3,7.3-10.4,14.7-12.2v-6.4C854.5,447.6,851.3,445.8,848.9,443.2z"/>
	</g>
</g>
<path fill-rule="evenodd" clip-rule="evenodd" fill="#1A96DE" d="M794.7,527.5H656.5c-2.2,0-4-1.8-4-4v-18c0-2.2,1.8-4,4-4h138.3
	c2.2,0,4,1.8,4,4v18C798.7,525.7,797,527.5,794.7,527.5z M783.1,509.3c-2.9,0-5.2,2.3-5.2,5.2c0,2.9,2.3,5.2,5.2,5.2
	c2.9,0,5.2-2.3,5.2-5.2C788.3,511.6,786,509.3,783.1,509.3z M794.7,485.6H656.5c-2.2,0-4-1.8-4-4v-18c0-2.2,1.8-4,4-4h138.3
	c2.2,0,4,1.8,4,4v18C798.7,483.8,797,485.6,794.7,485.6z M783.1,467.4c-2.9,0-5.2,2.3-5.2,5.2c0,2.9,2.3,5.2,5.2,5.2
	c2.9,0,5.2-2.3,5.2-5.2C788.3,469.8,786,467.4,783.1,467.4z M794.7,444.4H656.5c-2.2,0-4-1.8-4-4v-18c0-2.2,1.8-4,4-4h138.3
	c2.2,0,4,1.8,4,4v18C798.7,442.6,797,444.4,794.7,444.4z M783,426c-2.8,0-5,2.2-5,5s2.2,5,5,5c2.8,0,5-2.2,5-5S785.8,426,783,426z
	 M794.7,402.5H656.5c-2.2,0-4-1.8-4-4v-18c0-2.2,1.8-4,4-4h138.3c2.2,0,4,1.8,4,4v18C798.7,400.7,797,402.5,794.7,402.5z M783,384
	c-2.8,0-5,2.2-5,5c0,2.8,2.2,5,5,5c2.8,0,5-2.2,5-5C788,386.2,785.8,384,783,384z"/>
</svg>
