<?xml version="1.0" encoding="utf-8"?>
<!DOCTYPE svg PUBLIC "-//W3C//DTD SVG 1.1//EN" "http://www.w3.org/Graphics/SVG/1.1/DTD/svg11.dtd">
<svg width="810" height="220" xmlns="http://www.w3.org/2000/svg" xmlns:svg="http://www.w3.org/2000/svg">
    <g>
        <path id="braces"
              d="m30,13.5c-3.6,4.8 -5.4,11.3 -5.4,19.3l0,34.8c0,4.1 -0.3,8.3 -0.8,12.5c-0.5,4.2 -1.4,8.1 -2.7,11.7c-1.3,
              3.6 -3.2,6.7 -5.7,9.3c-2.5,2.6 -5.6,4.4 -9.4,5.4l0,6.4c7.4,1.9 12.3,6 14.7,12.2c2.4,6.3 3.6,15 3.6,26.2l0,
              36.1c0,8.3 1.8,14.7 5.6,19.3c3.7,4.6 8.7,7 15.1,7l12.1,0l0,-7.5l-8.8,0c-3.1,0 -5.6,-0.8 -7.5,-2.3c-1.9,
              -1.5 -3.3,-3.5 -4.3,-5.9c-0.9,-2.4 -1.6,-5 -1.9,-7.9c-0.3,-2.8 -0.5,-5.5 -0.5,-8.1l0,-37c0,-10 -1.8,
              -18 -5.3,-24.1c-3.5,-6.1 -7.5,-9.8 -12,-11.2l0,-0.3c1.9,-0.7 3.9,-2 5.9,-4c2.1,-2 3.9,-4.5 5.6,-7.6c1.6,
              -3.1 3,-6.7 4.1,-11c1.1,-4.2 1.7,-9 1.7,-14.3l0,-34.5c0,-2.6 0.2,-5.3 0.5,-8.1c0.3,-2.8 1,-5.5 1.9,
              -7.9c0.9,-2.4 2.4,-4.4 4.3,-5.9c1.9,-1.5 4.4,-2.3 7.5,-2.3l8.8,0l0,-7.5l-12.1,0c-6.4,0 -11.4,2.4 -15,
              7.2zm232.9,87.7c-2.4,-2.6 -4.3,-5.7 -5.6,-9.3c-1.3,-3.6 -2.2,-7.5 -2.7,-11.7c-0.5,-4.2 -0.8,-8.4 -0.8,
              -12.5l0,-34.8c0,-7.7 -1.7,-14.1 -5.2,-19c-3.4,-4.9 -8.6,-7.3 -15.5,-7.3l-11.9,0l0,7.2l8.8,0c3.3,0 5.9,
              0.8 7.9,2.3c2,1.5 3.4,3.5 4.3,5.9c0.9,2.4 1.4,5 1.7,7.9c0.3,2.8 0.4,5.5 0.4,8.1l0,34.6c0,5.3 0.5,10.1 1.5,
              14.3c1,4.2 2.4,7.9 4.1,11c1.7,3.1 3.6,5.6 5.6,7.6c2,2 4,3.3 6.1,4l0,0.3c-4.5,1.4 -8.5,5.1 -12,11.2c-3.5,
              6.1 -5.3,14.1 -5.3,24.1l0,37.1c0,2.6 -0.2,5.3 -0.5,8.1c-0.3,2.8 -1,5.5 -1.9,7.9c-0.9,2.4 -2.4,4.4 -4.3,
              5.9c-1.9,1.5 -4.4,2.3 -7.5,2.3l-8.8,0l0,7.5l12.1,0c6.4,0 11.4,-2.4 15.1,-7.2c3.7,-4.8 5.6,-11.2 5.6,
              -19.1l0,-36.1c0,-11.2 1.2,-19.9 3.6,-26.2c2.4,-6.3 7.3,-10.4 14.7,-12.2l0,-6.4c-3.9,-1.1 -7.1,-2.9 -9.5,-5.5z"
              fill="#FFFFFF"/>

        <path id="rack"
              d="m208.7,185.5l-138.2,0c-2.2,0 -4,-1.8 -4,-4l0,-18c0,-2.2 1.8,-4 4,-4l138.3,0c2.2,0 4,1.8 4,4l0,18c-0.1,
              2.2 -1.8,4 -4.1,4zm-11.6,-18.2c-2.9,0 -5.2,2.3 -5.2,5.2c0,2.9 2.3,5.2 5.2,5.2c2.9,0 5.2,-2.3 5.2,-5.2c0,
              -2.9 -2.3,-5.2 -5.2,-5.2zm11.6,-23.7l-138.2,0c-2.2,0 -4,-1.8 -4,-4l0,-18c0,-2.2 1.8,-4 4,-4l138.3,0c2.2,
              0 4,1.8 4,4l0,18c-0.1,2.2 -1.8,4 -4.1,4zm-11.6,-18.2c-2.9,0 -5.2,2.3 -5.2,5.2c0,2.9 2.3,5.2 5.2,5.2c2.9,
              0 5.2,-2.3 5.2,-5.2c0,-2.8 -2.3,-5.2 -5.2,-5.2zm11.6,-23l-138.2,0c-2.2,0 -4,-1.8 -4,-4l0,-18c0,-2.2 1.8,
              -4 4,-4l138.3,0c2.2,0 4,1.8 4,4l0,18c-0.1,2.2 -1.8,4 -4.1,4zm-11.7,-18.4c-2.8,0 -5,2.2 -5,5s2.2,5 5,5c2.8,
              0 5,-2.2 5,-5s-2.2,-5 -5,-5zm11.7,-23.5l-138.2,0c-2.2,0 -4,-1.8 -4,-4l0,-18c0,-2.2 1.8,-4 4,-4l138.3,
              0c2.2,0 4,1.8 4,4l0,18c-0.1,2.2 -1.8,4 -4.1,4zm-11.7,-18.5c-2.8,0 -5,2.2 -5,5c0,2.8 2.2,5 5,5c2.8,0 5,
              -2.2 5,-5c0,-2.8 -2.2,-5 -5,-5z"
              fill="#FFFFFF" clip-rule="evenodd" fill-rule="evenodd"/>
    </g>

    <g>
        <path id="spine"
              d="m362.1,99.2l-10.6,-2.6c-11.2,-3.1 -15.7,-6.4 -15.7,-15c0,-9.7 7.1,-13.9 21.2,-13.9c12.3,0 23.8,
              3.1 29.8,5.5l0,-16.8c-6.6,-3.3 -16.1,-6.6 -31.5,-6.6c-27.3,0 -40.1,13.4 -40.1,33.5c0,19.8 11.5,28 28.2,
              32l10.4,2.9c13.7,3.1 17.9,7.3 17.9,15.9c0,9.5 -7.1,15 -23.1,15c-15.9,0 -24.3,-3.5 -33.5,-7.1l0,16.3c9,
              5.5 22,7.9 36.6,7.9c25.6,0 41.4,-11.5 41.4,-33.7c-0.2,-20.1 -9,-28 -31,-33.3zm107.1,-49.4c-13.7,
              0 -25.4,4.9 -32.2,11.2l-0.9,0l0,-9l-20.9,0l0,145.5l21.6,0l0,-39c6,3.3 15,6.6 27.6,6.6c30.9,0 50.7,
              -15.7 50.7,-57.3l0,-3.1c0,-41.5 -21.4,-54.9 -45.9,-54.9zm23.2,60.8c0,28.7 -11.2,37.5 -30.6,37.5c-10.8,
              0 -20.3,-3.5 -24.9,-7.1l0,-65.7c4.6,-3.5 14.1,-7.3 26,-7.3c19,0 29.5,8.6 29.5,37.9l0,4.7zm45.8,-79.5l22,
              0l0,-21.2l-22,0l0,21.2zm0.2,133.3l21.6,0l0,-112.4l-21.6,0l0,112.4zm111.2,-114.6c-13.7,0 -28.2,5.3 -37.7,
              11.9l-0.9,0l0,-9.7l-21,0l0,112.4l21.6,0l0,-89.1c7.7,-3.7 18.5,-7.1 28,-7.1c17,0 20.5,5.1 20.5,17.4l0,
              78.7l21.8,0l0,-83.8c0.1,-21.7 -10.5,-30.7 -32.3,-30.7zm151,53.8c0,-35.5 -14.8,-53.8 -46.5,-53.8c-27.1,
              0 -50.3,18.3 -50.3,56.9l0,2.9c0,35.3 18.1,56.9 54.5,56.9c18.7,0 31.7,-5.7 38.8,-10.8l0,-15.2c-10.4,
              4.6 -20.1,8.2 -34.8,8.2c-22,0 -34.6,-8.6 -36.2,-34.4l74.5,0l0,-10.7zm-74.5,-5.3c1.8,-25.1 15.2,-31.3 27.1,
              -31.3c16.3,0 24.7,8.6 24.7,31.3l-51.8,0z"
              fill="#FFFFFF"/>
    </g>
</svg>