<?xml version="1.0" encoding="UTF-8"?>
<!DOCTYPE svg PUBLIC "-//W3C//DTD SVG 1.0//EN" "http://www.w3.org/TR/2001/REC-SVG-20010904/DTD/svg10.dtd">
<!-- Creator: CorelDRAW X8 -->
<svg xmlns="http://www.w3.org/2000/svg" xml:space="preserve" width="100%" height="100%" version="1.0" style="shape-rendering:geometricPrecision; text-rendering:geometricPrecision; image-rendering:optimizeQuality; fill-rule:evenodd; clip-rule:evenodd"
viewBox="0 0 3800 2900"
 xmlns:xlink="http://www.w3.org/1999/xlink">
 <defs>
  <style type="text/css">
   <![CDATA[
    .fil1 {fill:#1A96DE}
    .fil0 {fill:#656F72;fill-rule:nonzero}
   ]]>
  </style>
 </defs>
 <g id="Layer_x0020_1">
  <metadata id="CorelCorpID_0Corel-Layer"/>
  <path class="fil0" d="M3610 1329c-34,-35 -59,-78 -77,-129 -18,-50 -31,-104 -38,-163 -7,-58 -11,-116 -11,-173l0 -484c0,-107 -24,-195 -72,-263 -47,-68 -119,-102 -215,-102l-165 0 0 100 122 0c46,0 82,11 110,33 27,21 47,49 59,82 12,33 20,70 23,109 4,40 6,77 6,113l0 480c0,74 7,140 21,199 14,58 33,109 57,152 24,43 50,78 78,105 27,28 55,46 84,56l0 4c-62,19 -118,71 -167,155 -49,85 -73,197 -73,335l0 516c0,36 -3,73 -8,113 -4,39 -13,75 -27,109 -13,33 -32,61 -59,82 -26,22 -61,33 -104,33l-122 0 0 103 169 0c88,0 158,-33 210,-100 51,-67 77,-155 77,-265l0 -501c0,-155 16,-277 50,-364 33,-87 102,-144 204,-170l0 -89c-55,-15 -99,-40 -132,-76zm-3234 -1217c-50,67 -75,156 -75,268l0 484c0,57 -4,115 -11,173 -7,59 -20,113 -38,163 -18,51 -44,94 -79,129 -34,36 -78,61 -131,76l0 89c103,26 171,83 205,170 33,87 50,209 50,364l0 501c0,115 26,204 77,269 51,64 121,96 210,96l168 0 0 -103 -122 0c-43,0 -77,-11 -104,-33 -26,-21 -46,-49 -59,-82 -13,-34 -22,-70 -27,-109 -4,-40 -7,-77 -7,-113l0 -516c0,-138 -24,-250 -73,-335 -49,-84 -105,-136 -167,-155l0 -4c26,-10 54,-28 82,-56 29,-27 55,-62 78,-105 22,-43 41,-94 57,-152 15,-59 23,-125 23,-199l0 -480c0,-36 3,-73 7,-113 5,-39 14,-76 27,-109 13,-33 33,-61 59,-82 27,-22 61,-33 104,-33l122 0 0 -104 -168 0c-89,0 -158,34 -208,101z"/>
  <path class="fil1" d="M2695 507c-39,0 -70,31 -70,70 0,38 31,69 70,69 38,0 70,-31 70,-69 0,-39 -32,-70 -70,-70zm163 257l-1920 0c-31,0 -56,-25 -56,-56l0 -250c0,-30 25,-55 56,-55l1920 0c31,0 56,25 56,55l0 250c0,31 -25,56 -56,56zm-163 327c-39,0 -70,31 -70,69 0,38 31,69 70,69 38,0 70,-31 70,-69 0,-38 -32,-69 -70,-69zm163 255l-1920 0c-31,0 -56,-25 -56,-56l0 -250c0,-30 25,-55 56,-55l1920 0c31,0 56,25 56,55l0 250c0,31 -25,56 -56,56zm-161 320c-40,0 -73,32 -73,72 0,40 33,72 73,72 40,0 72,-32 72,-72 0,-40 -32,-72 -72,-72zm161 252l-1920 0c-31,0 -56,-24 -56,-55l0 -250c0,-31 25,-56 56,-56l1920 0c31,0 56,25 56,56l0 250c0,31 -25,55 -56,55zm-161 330c-40,0 -73,32 -73,72 0,40 33,72 73,72 40,0 72,-32 72,-72 0,-40 -32,-72 -72,-72zm161 252l-1920 0c-31,0 -56,-25 -56,-55l0 -250c0,-31 25,-56 56,-56l1920 0c31,0 56,25 56,56l0 250c0,30 -25,55 -56,55z"/>
 </g>
</svg>
