<?xml version="1.0" encoding="utf-8"?>
<svg version="1.1" id="Layer_1" x="0px" y="0px" viewBox="0 0 805 218" enable-background="new 0 0 805 218"
     xmlns="http://www.w3.org/2000/svg">
    <g transform="matrix(1, 0, 0, 1, -586.992249, -343.048035)" id="logo">
        <path fill="#656F72"
              d="M 616 355.5 C 612.4 360.3 610.6 366.8 610.6 374.8 L 610.6 409.6 C 610.6 413.7 610.3 417.9 609.8 422.1 C 609.3 426.3 608.4 430.2 607.1 433.8 C 605.8 437.4 603.9 440.5 601.4 443.1 C 598.9 445.7 595.8 447.5 592 448.5 L 592 454.9 C 599.4 456.8 604.3 460.9 606.7 467.1 C 609.1 473.4 610.3 482.1 610.3 493.3 L 610.3 529.4 C 610.3 537.7 612.1 544.1 615.9 548.7 C 619.6 553.3 624.6 555.7 631 555.7 L 643.1 555.7 L 643.1 548.2 L 634.3 548.2 C 631.2 548.2 628.7 547.4 626.8 545.9 C 624.9 544.4 623.5 542.4 622.5 540 C 621.6 537.6 620.9 535 620.6 532.1 C 620.3 529.3 620.1 526.6 620.1 524 L 620.1 487 C 620.1 477 618.3 469 614.8 462.9 C 611.3 456.8 607.3 453.1 602.8 451.7 L 602.8 451.4 C 604.7 450.7 606.7 449.4 608.7 447.4 C 610.8 445.4 612.6 442.9 614.3 439.8 C 615.9 436.7 617.3 433.1 618.4 428.8 C 619.5 424.6 620.1 419.8 620.1 414.5 L 620.1 380 C 620.1 377.4 620.3 374.7 620.6 371.9 C 620.9 369.1 621.6 366.4 622.5 364 C 623.4 361.6 624.9 359.6 626.8 358.1 C 628.7 356.6 631.2 355.8 634.3 355.8 L 643.1 355.8 L 643.1 348.3 L 631 348.3 C 624.6 348.3 619.6 350.7 616 355.5 Z M 848.9 443.2 C 846.5 440.6 844.6 437.5 843.3 433.9 C 842 430.3 841.1 426.4 840.6 422.2 C 840.1 418 839.8 413.8 839.8 409.7 L 839.8 374.9 C 839.8 367.2 838.1 360.8 834.6 355.9 C 831.2 351 826 348.6 819.1 348.6 L 807.2 348.6 L 807.2 355.8 L 816 355.8 C 819.3 355.8 821.9 356.6 823.9 358.1 C 825.9 359.6 827.3 361.6 828.2 364 C 829.1 366.4 829.6 369 829.9 371.9 C 830.2 374.7 830.3 377.4 830.3 380 L 830.3 414.6 C 830.3 419.9 830.8 424.7 831.8 428.9 C 832.8 433.1 834.2 436.8 835.9 439.9 C 837.6 443 839.5 445.5 841.5 447.5 C 843.5 449.5 845.5 450.8 847.6 451.5 L 847.6 451.8 C 843.1 453.2 839.1 456.9 835.6 463 C 832.1 469.1 830.3 477.1 830.3 487.1 L 830.3 524.2 C 830.3 526.8 830.1 529.5 829.8 532.3 C 829.5 535.1 828.8 537.8 827.9 540.2 C 827 542.6 825.5 544.6 823.6 546.1 C 821.7 547.6 819.2 548.4 816.1 548.4 L 807.3 548.4 L 807.3 555.9 L 819.4 555.9 C 825.8 555.9 830.8 553.5 834.5 548.7 C 838.2 543.9 840.1 537.5 840.1 529.6 L 840.1 493.5 C 840.1 482.3 841.3 473.6 843.7 467.3 C 846.1 461 851 456.9 858.4 455.1 L 858.4 448.7 C 854.5 447.6 851.3 445.8 848.9 443.2 Z"
              id="braces"/>
        <path fill-rule="evenodd" clip-rule="evenodd" fill="#1A96DE"
              d="M 794.7 527.5 L 656.5 527.5 C 654.3 527.5 652.5 525.7 652.5 523.5 L 652.5 505.5 C 652.5 503.3 654.3 501.5 656.5 501.5 L 794.8 501.5 C 797 501.5 798.8 503.3 798.8 505.5 L 798.8 523.5 C 798.7 525.7 797 527.5 794.7 527.5 Z M 783.1 509.3 C 780.2 509.3 777.9 511.6 777.9 514.5 C 777.9 517.4 780.2 519.7 783.1 519.7 C 786 519.7 788.3 517.4 788.3 514.5 C 788.3 511.6 786 509.3 783.1 509.3 Z M 794.7 485.6 L 656.5 485.6 C 654.3 485.6 652.5 483.8 652.5 481.6 L 652.5 463.6 C 652.5 461.4 654.3 459.6 656.5 459.6 L 794.8 459.6 C 797 459.6 798.8 461.4 798.8 463.6 L 798.8 481.6 C 798.7 483.8 797 485.6 794.7 485.6 Z M 783.1 467.4 C 780.2 467.4 777.9 469.7 777.9 472.6 C 777.9 475.5 780.2 477.8 783.1 477.8 C 786 477.8 788.3 475.5 788.3 472.6 C 788.3 469.8 786 467.4 783.1 467.4 Z M 794.7 444.4 L 656.5 444.4 C 654.3 444.4 652.5 442.6 652.5 440.4 L 652.5 422.4 C 652.5 420.2 654.3 418.4 656.5 418.4 L 794.8 418.4 C 797 418.4 798.8 420.2 798.8 422.4 L 798.8 440.4 C 798.7 442.6 797 444.4 794.7 444.4 Z M 783 426 C 780.2 426 778 428.2 778 431 C 778 433.8 780.2 436 783 436 C 785.8 436 788 433.8 788 431 C 788 428.2 785.8 426 783 426 Z M 794.7 402.5 L 656.5 402.5 C 654.3 402.5 652.5 400.7 652.5 398.5 L 652.5 380.5 C 652.5 378.3 654.3 376.5 656.5 376.5 L 794.8 376.5 C 797 376.5 798.8 378.3 798.8 380.5 L 798.8 398.5 C 798.7 400.7 797 402.5 794.7 402.5 Z M 783 384 C 780.2 384 778 386.2 778 389 C 778 391.8 780.2 394 783 394 C 785.8 394 788 391.8 788 389 C 788 386.2 785.8 384 783 384 Z"
              id="rack"/>
    </g>
    <g transform="matrix(1, 0, 0, 1, -586.992249, -343.048035)" id="spine">
        <path fill="#656F72"
              d="M 948.1 441.2 L 937.5 438.6 C 926.3 435.5 921.8 432.2 921.8 423.6 C 921.8 413.9 928.9 409.7 943 409.7 C 955.3 409.7 966.8 412.8 972.8 415.2 L 972.8 398.4 C 966.2 395.1 956.7 391.8 941.3 391.8 C 914 391.8 901.2 405.2 901.2 425.3 C 901.2 445.1 912.7 453.3 929.4 457.3 L 939.8 460.2 C 953.5 463.3 957.7 467.5 957.7 476.1 C 957.7 485.6 950.6 491.1 934.6 491.1 C 918.7 491.1 910.3 487.6 901.1 484 L 901.1 500.3 C 910.1 505.8 923.1 508.2 937.7 508.2 C 963.3 508.2 979.1 496.7 979.1 474.5 C 978.9 454.4 970.1 446.5 948.1 441.2 Z M 1055.2 391.8 C 1041.5 391.8 1029.8 396.7 1023 403 L 1022.1 403 L 1022.1 394 L 1001.2 394 L 1001.2 539.5 L 1022.8 539.5 L 1022.8 500.5 C 1028.8 503.8 1037.8 507.1 1050.4 507.1 C 1081.3 507.1 1101.1 491.4 1101.1 449.8 L 1101.1 446.7 C 1101.1 405.2 1079.7 391.8 1055.2 391.8 Z M 1078.4 452.6 C 1078.4 481.3 1067.2 490.1 1047.8 490.1 C 1037 490.1 1027.5 486.6 1022.9 483 L 1022.9 417.3 C 1027.5 413.8 1037 410 1048.9 410 C 1067.9 410 1078.4 418.6 1078.4 447.9 L 1078.4 452.6 Z M 1124.2 373.1 L 1146.2 373.1 L 1146.2 351.9 L 1124.2 351.9 L 1124.2 373.1 Z M 1124.4 506.4 L 1146 506.4 L 1146 394 L 1124.4 394 L 1124.4 506.4 Z M 1235.6 391.8 C 1221.9 391.8 1207.4 397.1 1197.9 403.7 L 1197 403.7 L 1197 394 L 1176 394 L 1176 506.4 L 1197.6 506.4 L 1197.6 417.3 C 1205.3 413.6 1216.1 410.2 1225.6 410.2 C 1242.6 410.2 1246.1 415.3 1246.1 427.6 L 1246.1 506.3 L 1267.9 506.3 L 1267.9 422.5 C 1268 400.8 1257.4 391.8 1235.6 391.8 Z M 1386.6 445.6 C 1386.6 410.1 1371.8 391.8 1340.1 391.8 C 1313 391.8 1289.8 410.1 1289.8 448.7 L 1289.8 451.6 C 1289.8 486.9 1307.9 508.5 1344.3 508.5 C 1363 508.5 1376 502.8 1383.1 497.7 L 1383.1 482.5 C 1372.7 487.1 1363 490.7 1348.3 490.7 C 1326.3 490.7 1313.7 482.1 1312.1 456.3 L 1386.6 456.3 L 1386.6 445.6 Z M 1312.1 440.3 C 1313.9 415.2 1327.3 409 1339.2 409 C 1355.5 409 1363.9 417.6 1363.9 440.3 L 1312.1 440.3 Z"/>
    </g>
</svg>